<svg viewBox="0 0 1052 902" xmlns="http://www.w3.org/2000/svg" fill-rule="evenodd" clip-rule="evenodd" stroke-miterlimit="10"><defs><clipPath id="0"><path d="m194 168.2h1022.5v881.1h-1022.5z"/></clipPath></defs><g transform="matrix(1.02836 0 0 1.0227-199.5-172.02)"><g clip-path="url(#0)"><g transform="matrix(.97242 0 0 .97781 20.909 20.356)"><g stroke-width="1.5"><g fill="#004570" stroke="#0071aa" fill-opacity=".149"><path d="m194 168.2h126.5v425.8h-126.5z"/><path d="m437.3 304.3h85.7v108.8h-85.7z"/><path d="m437.3 150.9h152.1v108.6h-152.1z"/><path d="m589.4 150.9h148.7v108.6h-148.7z"/><path d="m523.1 304.3h88.5v108.8h-88.5z"/><g fill-rule="nonzero"><path d="m738.1 150.9v108.6h70.6v-108.2l-70.6-.4"/><path d="m611.5 304.3v108.8h93.1v-109l-93.1.2"/></g><path d="m739.1 303.7h31.1v28.2h-31.1z"/><g fill-rule="nonzero"><path d="m704.6 304.1v90.6h52.1v-62.8h-17.6v-28.2l-34.5.4"/><path d="m770.2 303.7h38.5v91h-52v-62.8h13.5v-28.2"/></g><path d="m926.7 150.9h60.8v102.7h-60.8z"/><path d="m926.7 253.6h60.8v91.7h-60.8z"/><path d="m926.7 345.3h60.8v80.7h-60.8z"/><path d="m704.6 413.1h69.8v93.6h-69.8z"/><path d="m704.6 506.7h104.1v154.2h-104.1z"/><path d="m856.1 528.9h131.4v131.9h-131.4z"/><path d="m987.5 426h229v234.8h-229z"/><path d="m856.1 426h78v103h-78z"/><path d="m934.1 426h53.4v103h-53.4z"/><path d="m904.2 394.7h22.5v31.3h-22.5z"/><path d="m856.1 394.7h48.2v31.3h-48.2z"/><path d="m774.4 446.4h34.3v60.2h-34.3z"/><path d="m774.4 428.2h34.3v18.3h-34.3z"/><path d="m774.4 413.1h34.3v15.1h-34.3z"/><path d="m704.6 394.7h104.1v18.4h-104.1z"/><path d="m194 925.2h103.3v14.2h23.2v88.8h-126.5v-103" fill-rule="nonzero"/><path d="m437.3 939.4h152.5v109.9h-152.5z"/><path d="m589.8 939.4h109.8v109.9h-109.8z"/><path d="m699.6 939.4h107.7v109.9h-107.7z"/><path d="m807.2 939.4h180.3v109.9h-180.3z"/><path d="m931.4 801h56.1v93h-56.1z"/><path d="m810.2 801h53.1v93h-53.1z"/><path d="m722.8 801h87.4v93h-87.4z"/><path d="m668.8 801h54v93h-54z"/><path d="m616.9 801h51.9v93h-51.9z"/><path d="m588.8 801h28.1v93h-28.1z"/><path d="m549.4 801h39.4v93h-39.4z"/><path d="m549.4 801v93h-33.1v-27.9h-12.5v-65.1h45.6" fill-rule="nonzero"/><path d="m481 866.1h35.3v28h-35.3z"/><path d="m437.3 801v93h43.7v-27.9h22.8v-65.1h-66.5" fill-rule="nonzero"/><path d="m320.5 804.6h3.6v89.4h-3.6z"/><path d="m194 593.9h89.6v65.9h-89.6z"/><path d="m320.5 659.8h-36.9v-65.9h36.8l.1 65.9" fill-rule="nonzero"/><path d="m283.7 696.3h26.6v71.8h-26.6z"/><path d="m863.3 801h68v93h-68z"/></g><g fill="none" stroke="#005081"><path d="m895.7 840.2h3.2v53.8h-3.2z"/><path d="m868.3 890.7h24.8"/><path d="m868.3 886.1h24.8"/><path d="m868.3 881.5h24.8"/><path d="m868.3 877.1h24.8"/><path d="m868.3 872.3h24.8"/><path d="m868.3 867.8h24.8"/><path d="m868.3 863.1h24.8"/><path d="m868.3 858.6h24.8"/><path d="m868.3 853.8h24.8"/><path d="m868.3 849.4h24.8"/><path d="m868.3 844.9h24.8"/><path d="m868.3 849l12.4-4.1 12.4 4.1"/><path d="m926.3 844.9h-24.8"/><path d="m926.3 849.4h-24.8"/><path d="m926.3 854h-24.8"/><path d="m926.3 858.4h-24.8"/><path d="m926.3 863.2h-24.8"/><path d="m926.3 867.8h-24.8"/><path d="m926.3 872.5h-24.8"/><path d="m926.3 876.9h-24.8"/><path d="m926.3 881.7h-24.8"/><path d="m926.3 886.1h-24.8"/><path d="m926.3 890.7h-24.8"/><path d="m926.3 886.5l-12.4 4.2-12.4-4.2"/></g><path fill="#004570" stroke="#0071aa" fill-opacity=".149" d="m360.8 304.3h76.5v89.4h-76.5z"/><g fill="none" stroke="#005081"><path d="m397.2 304.3h3.6v51.8h-3.6z"/><path d="m366.4 307.5h27.9"/><path d="m366.4 311.9h27.9"/><path d="m366.4 316.3h27.9"/><path d="m366.4 320.5h27.9"/><path d="m366.4 325.1h27.9"/><path d="m366.4 329.5h27.9"/><path d="m366.4 334h27.9"/><path d="m366.4 338.3h27.9"/><path d="m366.4 342.9h27.9"/><path d="m366.4 347.1h27.9"/><path d="m366.4 351.5h27.9"/><path d="m366.4 347.5l14 4 13.9-4"/><path d="m431.7 351.5h-27.9"/><path d="m431.7 347.1h-27.9"/><path d="m431.7 342.7h-27.9"/><path d="m431.7 338.5h-27.9"/><path d="m431.7 333.9h-27.9"/><path d="m431.7 329.5h-27.9"/><path d="m431.7 325h-27.9"/><path d="m431.7 320.7h-27.9"/><path d="m431.7 316.1h-27.9"/><path d="m431.7 311.9h-27.9"/><path d="m431.7 307.5h-27.9"/><path d="m431.7 311.5l-14-4-13.9 4"/></g><path fill="#004570" stroke="#0071aa" fill-opacity=".149" d="m855.8 305.3h71v89.4h-71z"/><g fill="none" stroke="#005081"><path d="m889.6 305.3h3.3v51.8h-3.3z"/><path d="m860.9 308.5h26"/><path d="m860.9 312.9h26"/><path d="m860.9 317.3h26"/><path d="m860.9 321.5h26"/><path d="m860.9 326.1h26"/><path d="m860.9 330.5h26"/><path d="m860.9 335h26"/><path d="m860.9 339.3h26"/><path d="m860.9 343.9h26"/><path d="m860.9 348.1h26"/><path d="m860.9 352.5h26"/><path d="m860.9 348.5l13 4 13-4"/><path d="m921.5 352.5h-25.9"/><path d="m921.5 348.1h-25.9"/><path d="m921.5 343.7h-25.9"/><path d="m921.5 339.5h-25.9"/><path d="m921.5 334.9h-25.9"/><path d="m921.5 330.5h-25.9"/><path d="m921.5 326h-25.9"/><path d="m921.5 321.7h-25.9"/><path d="m921.5 317.1h-25.9"/><path d="m921.5 312.9h-25.9"/><path d="m921.5 308.5h-25.9"/><path d="m921.5 312.5l-12.9-4-13 4"/></g></g><g fill="#005081"><path d="m807.4 539.2h2.6v14.3h-2.6z"/><path d="m807.4 467.4h2.6v14.3h-2.6z"/><path d="m773.1 467.4h2.6v14.3h-2.6z"/><path d="m854.8 539.2h2.6v14.3h-2.6z"/><path d="m854.8 485.9h2.6v14.3h-2.6z"/><path d="m854.8 397.7h2.6v14.3h-2.6z"/><path d="m925.4 221.7h2.6v14.3h-2.6z"/><path d="m925.4 265.5h2.6v14.3h-2.6z"/><path d="m925.4 403.2h2.6v14.3h-2.6z"/><path d="m932.8 485.9h2.6v14.3h-2.6z"/><path transform="matrix(0-1 1 0 171.42 1493.08)" d="m831 646.6h2.6v28.6h-2.6z"/><path transform="matrix(0-1 1 0 359.92 1681.58)" d="m1019.5 646.6h2.6v28.6h-2.6z"/><path transform="matrix(0-1 1 0 729.21 1031.06)" d="m878.8 136.6h2.6v28.6h-2.6z"/><path transform="matrix(0-1 1 0 91.23 593.28)" d="m341 234.3h2.6v33.4h-2.6z"/><path transform="matrix(0-1 1 0 183.05 791.6)" d="m486 297.1h2.6v14.3h-2.6z"/><path transform="matrix(-1 0 0-1 729.82 868.44)" d="m363.6 427.1h2.6v14.3h-2.6z"/><path transform="matrix(0-1 1 0 227.78 746.87)" d="m486 252.4h2.6v14.3h-2.6z"/><path transform="matrix(0-1 1 0 268.24 876.79)" d="m571.2 297.1h2.6v14.3h-2.6z"/><path transform="matrix(0-1 1 0 356.41 964.95)" d="m659.4 297.1h2.6v14.3h-2.6z"/><path transform="matrix(0-1 1 0 413.74 1022.29)" d="m716.7 297.1h2.6v14.3h-2.6z"/><path transform="matrix(0-1 1 0 312.09 1138.22)" d="m723.9 405.9h2.6v14.3h-2.6z"/><path transform="matrix(0-1 1 0 338 1230.83)" d="m783.1 439.3h2.6v14.3h-2.6z"/><path transform="matrix(0-1 1 0 356.26 1212.56)" d="m783.1 421h2.6v14.3h-2.6z"/><path transform="matrix(0-1 1 0 444.57 1053.12)" d="m747.6 297.1h2.6v14.3h-2.6z"/><path transform="matrix(0-1 1 0 493.24 1101.79)" d="m796.2 297.1h2.6v14.3h-2.6z"/><path transform="matrix(0-1 1 0 489.3 1008.39)" d="m747.6 252.4h2.6v14.3h-2.6z"/><path transform="matrix(0-1 1 0 401.14 920.23)" d="m659.4 252.4h2.6v14.3h-2.6z"/><path transform="matrix(-1 0 0-1 640.97 1130.06)" d="m319.2 548.3h2.6v33.4h-2.6z"/><path transform="matrix(-1 0 0-1 620.59 1428.38)" d="m309 698.2h2.6v32h-2.6z"/><path transform="matrix(-1 0 0-1 620.59 1499.38)" d="m309 733.7h2.6v32h-2.6z"/><path transform="matrix(-1 0 0-1 874.64 1428.38)" d="m436 698.2h2.6v32h-2.6z"/><path transform="matrix(-1 0 0-1 874.64 1499.38)" d="m436 733.7h2.6v32h-2.6z"/><path transform="matrix(-1 0 0-1 567.11 1428.38)" d="m282.3 698.2h2.6v32h-2.6z"/><path transform="matrix(-1 0 0-1 567.11 1499.38)" d="m282.3 733.7h2.6v32h-2.6z"/><path transform="matrix(-1 0 0-1 567.47 1228.16)" d="m282.4 606.9h2.6v14.3h-2.6z"/><path transform="matrix(0 1-1 0 848.3 339.53)" d="m253.1 586.8h2.6v14.3h-2.6z"/><path transform="matrix(0 1-1 0 878.16 441.39)" d="m217.1 652.6h2.6v14.3h-2.6z"/><path transform="matrix(0 1-1 0 1019.4 582.63)" d="m217.1 793.9h2.6v14.3h-2.6z"/><path transform="matrix(0 1-1 0 1247.52 631.2)" d="m306.9 932.2h2.6v14.3h-2.6z"/><path transform="matrix(0 1-1 0 1420.35 458.36)" d="m479.7 932.2h2.6v14.3h-2.6z"/><path transform="matrix(0 1-1 0 1591.18 287.54)" d="m650.5 932.2h2.6v14.3h-2.6z"/><path transform="matrix(0 1-1 0 1705.87 172.84)" d="m765.2 932.2h2.6v14.3h-2.6z"/><path transform="matrix(0 1-1 0 1854.37 24.338)" d="m913.7 932.2h2.6v14.3h-2.6z"/><path transform="matrix(0 1-1 0 1360.74 427.31)" d="m465.4 886.9h2.6v14.3h-2.6z"/><path transform="matrix(0 1-1 0 1384.24 403.81)" d="m488.9 886.9h2.6v14.3h-2.6z"/><path transform="matrix(0 1-1 0 1432.49 355.56)" d="m537.2 886.9h2.6v14.3h-2.6z"/><path transform="matrix(0 1-1 0 1453.24 334.81)" d="m557.9 886.9h2.6v14.3h-2.6z"/><path transform="matrix(0 1-1 0 1501.16 286.88)" d="m605.8 886.9h2.6v14.3h-2.6z"/><path transform="matrix(0 1-1 0 1544.01 244.04)" d="m648.7 886.9h2.6v14.3h-2.6z"/><path transform="matrix(0 1-1 0 1580.76 207.29)" d="m685.4 886.9h2.6v14.3h-2.6z"/><path transform="matrix(0 1-1 0 1716.76 71.29)" d="m821.4 886.9h2.6v14.3h-2.6z"/><path transform="matrix(0 1-1 0 1837.26-49.21)" d="m941.9 886.9h2.6v14.3h-2.6z"/><path transform="matrix(0 1-1 0 1659.26 128.79)" d="m763.9 886.9h2.6v14.3h-2.6z"/><path transform="matrix(0-1 1 0-606.76 1288.37)" d="m339.5 930.8h2.6v33.4h-2.6z"/><path transform="matrix(-1 0 0-1 1975 1833.38)" d="m986.2 900.7h2.6v32h-2.6z"/></g><g stroke-width="1.5"><g fill="#004570" stroke="#0071aa" fill-opacity=".149"><path d="m364.9 413.1h31.5v38.8h-31.5z"/><path d="m363.6 801h73.8v93h-73.8z"/></g><g fill="none" stroke="#005081"><path d="m397.2 842.3h3.6v51.8h-3.6z"/><path d="m366.4 890.8h27.9"/><path d="m366.4 886.4h27.9"/><path d="m366.4 882h27.9"/><path d="m366.4 877.8h27.9"/><path d="m366.4 873.2h27.9"/><path d="m366.4 868.8h27.9"/><path d="m366.4 864.3h27.9"/><path d="m366.4 860h27.9"/><path d="m366.4 855.4h27.9"/><path d="m366.4 851.2h27.9"/><path d="m366.4 846.8h27.9"/><path d="m366.4 850.8l14-4 13.9 4"/><path d="m431.7 846.8h-27.9"/><path d="m431.7 851.2h-27.9"/><path d="m431.7 855.6h-27.9"/><path d="m431.7 859.8h-27.9"/><path d="m431.7 864.4h-27.9"/><path d="m431.7 868.8h-27.9"/><path d="m431.7 873.3h-27.9"/><path d="m431.7 877.6h-27.9"/><path d="m431.7 882.2h-27.9"/><path d="m431.7 886.4h-27.9"/><path d="m431.7 890.8h-27.9"/><path d="m431.7 886.8l-14 4-13.9-4"/></g><path d="m987.5 150.9h-550.2v99.9h-116.8v-82.6h-126.5v491.6h89.8v141.2h-89.8v227.2h126.5v-80.4h116.8v101.5h550.2v-248.3h-550.2v-387.9h267.3v247.7h511.9v-234.8h-229v-275.1" fill="none" stroke="#005081"/></g></g><g transform="matrix(.97242 0 0 .97781 20.909 20.356)" fill="#005081" fill-rule="nonzero"><path d="m516.4 749.7h-28.1v-51.4h28.1v3.3h-24.5v19.4h23.1v3.3h-23.1v22h24.5v3.4"/><path d="m548.2 723.8h18.9v23.4c-5 2.1-10.6 3.2-16.8 3.2-8.1 0-14.3-2.3-18.7-6.9-4.4-4.6-6.5-11.1-6.5-19.5 0-5.2 1.1-9.9 3.2-13.9 2.1-4 5.2-7.2 9.2-9.4 4-2.2 8.6-3.3 13.8-3.3 5.6 0 10.6 1 15.1 3.1l-1.4 3.2c-4.5-2.1-9.1-3.1-13.9-3.1-6.8 0-12.1 2.1-16.1 6.3-4 4.2-6 9.8-6 16.9 0 7.7 1.9 13.6 5.7 17.5 3.8 3.9 9.3 5.9 16.6 5.9 4.7 0 8.8-.7 12.1-2v-18.1h-15.3v-3.3h.1"/><path d="m478.4 205.2h-7v-12.8h7v.8h-6.1v4.9h5.8v.8h-5.8v5.5h6.1v.8"/><path d="m480.9 204.5c0-.6.2-.9.7-.9.5 0 .7.3.7.9 0 .6-.2.9-.7.9-.5 0-.7-.3-.7-.9"/><path d="m494.9 205.2h-.9v-6.3h-7.5v6.3h-.9v-12.8h.9v5.7h7.5v-5.7h.9v12.8"/><path d="m503.6 198.8h4.7v5.9c-1.2.5-2.6.8-4.2.8-2 0-3.6-.6-4.7-1.7-1.1-1.1-1.6-2.8-1.6-4.9 0-1.3.3-2.5.8-3.5.5-1 1.3-1.8 2.3-2.3 1-.5 2.1-.8 3.4-.8 1.4 0 2.7.3 3.8.8l-.4.8c-1.1-.5-2.3-.8-3.5-.8-1.7 0-3 .5-4 1.6-1 1.1-1.5 2.5-1.5 4.2 0 1.9.5 3.4 1.4 4.4.9 1 2.3 1.5 4.2 1.5 1.2 0 2.2-.2 3-.5v-4.5h-3.8v-1h.1"/><path d="m511.1 204.5c0-.6.2-.9.7-.9.5 0 .7.3.7.9 0 .6-.2.9-.7.9-.4 0-.7-.3-.7-.9"/><path d="m523.3 198.8c0 2.3-.3 3.9-1 5-.7 1.1-1.7 1.6-3.1 1.6-1.3 0-2.4-.6-3.1-1.7-.7-1.1-1-2.8-1-5 0-2.2.3-3.9 1-5 .7-1.1 1.7-1.6 3.1-1.6 1.4 0 2.4.6 3.1 1.7.7 1.1 1 2.8 1 5m-7.3 0c0 2 .3 3.5.8 4.4.5.9 1.3 1.4 2.4 1.4 1.1 0 1.9-.5 2.4-1.5.5-1 .8-2.4.8-4.4 0-1.9-.3-3.3-.8-4.3-.5-1-1.3-1.5-2.4-1.5-1.1 0-1.9.5-2.4 1.5-.5 1-.8 2.5-.8 4.4"/><path d="m533.6 198.8c0 2.3-.3 3.9-1 5-.7 1.1-1.7 1.6-3.1 1.6-1.3 0-2.4-.6-3.1-1.7-.7-1.1-1-2.8-1-5 0-2.2.3-3.9 1-5 .7-1.1 1.7-1.6 3.1-1.6 1.4 0 2.4.6 3.1 1.7.7 1.1 1 2.8 1 5m-7.4 0c0 2 .3 3.5.8 4.4.5.9 1.3 1.4 2.4 1.4 1.1 0 1.9-.5 2.4-1.5.5-1 .8-2.4.8-4.4 0-1.9-.3-3.3-.8-4.3-.5-1-1.3-1.5-2.4-1.5-1.1 0-1.9.5-2.4 1.5-.5 1-.8 2.5-.8 4.4"/><path d="m544.6 202h-2.2v3.3h-.8v-3.3h-6.6v-.6l6.4-9.1h1.1v8.9h2.2v.8h-.1m-3.1-.8v-3.7c0-1.8 0-3.3.1-4.5h-.1c-.1.2-.5.8-1.1 1.7l-4.5 6.5h5.6"/><path d="m485 387.9v7h-12.8v-7h.8v6.1h4.9v-5.8h.8v5.8h5.5v-6.1h.8"/><path d="m484.3 385.4c-.6 0-.9-.2-.9-.7 0-.5.3-.7.9-.7.6 0 .9.2.9.7 0 .5-.3.7-.9.7"/><path d="m485 371.4v.9h-6.3v7.5h6.3v.9h-12.8v-.9h5.7v-7.5h-5.7v-.9h12.8"/><path d="m478.6 362.7v-4.7h5.9c.5 1.2.8 2.6.8 4.2 0 2-.6 3.6-1.7 4.7-1.1 1.1-2.8 1.6-4.9 1.6-1.3 0-2.5-.3-3.5-.8-1-.5-1.8-1.3-2.3-2.3-.5-1-.8-2.1-.8-3.4 0-1.4.3-2.7.8-3.8l.8.4c-.5 1.1-.8 2.3-.8 3.5 0 1.7.5 3 1.6 4 1.1 1 2.5 1.5 4.2 1.5 1.9 0 3.4-.5 4.4-1.4 1-.9 1.5-2.3 1.5-4.2 0-1.2-.2-2.2-.5-3h-4.5v3.8h-1v-.1"/><path d="m484.3 355.2c-.6 0-.9-.2-.9-.7 0-.5.3-.7.9-.7.6 0 .9.2.9.7 0 .4-.3.7-.9.7"/><path d="m485 346.8v.9h-9.4c-.8 0-1.7 0-2.6-.1.1.1.2.2.3.3.1.1.8 1 2.1 2.7l-.6.5-2.6-3.5v-.8h12.8"/><path d="m477.3 337.8c0-1.4.3-2.5 1-3.2.7-.7 1.6-1.2 2.7-1.2 1.3 0 2.3.4 3.1 1.2.8.8 1.1 2 1.1 3.4 0 .6-.1 1.2-.2 1.8-.1.6-.3 1.1-.5 1.4h-.9c.3-.6.5-1.2.7-1.7.2-.5.2-1 .2-1.6 0-1.1-.3-2-.9-2.7-.6-.7-1.4-1-2.4-1-1 0-1.7.3-2.2 1-.5.7-.8 1.6-.8 2.7 0 .8.1 1.6.3 2.4l-.3.5-5.9-.5v-6.2h.8v5.4l4.5.4c-.2-.9-.3-1.6-.3-2.1"/><path d="m485.2 326.8c0 1.4-.4 2.4-1.3 3.2-.9.8-2.1 1.2-3.6 1.2-1.6 0-2.8-.4-3.7-1.2-.9-.8-1.3-1.9-1.3-3.3 0-.8.1-1.6.4-2.4l.8.2c-.3.8-.4 1.5-.4 2.2 0 1.2.4 2.1 1.1 2.7.7.6 1.8.9 3.1.9 1.3 0 2.3-.3 3-.9.7-.6 1.1-1.4 1.1-2.5 0-.9-.2-1.7-.5-2.4h.8c.4.5.5 1.3.5 2.3"/><path d="m960.8 232v7h-12.8v-7h.8v6.1h4.9v-5.8h.8v5.8h5.5v-6.1h.8"/><path d="m960.1 229.5c-.6 0-.9-.2-.9-.7 0-.5.3-.7.9-.7.6 0 .9.2.9.7 0 .5-.3.7-.9.7"/><path d="m960.8 215.5v.9h-6.3v7.5h6.3v.9h-12.8v-.9h5.7v-7.5h-5.7v-.9h12.8"/><path d="m954.3 206.8v-4.7h5.9c.5 1.2.8 2.6.8 4.2 0 2-.6 3.6-1.7 4.7-1.1 1.1-2.8 1.6-4.9 1.6-1.3 0-2.5-.3-3.5-.8-1-.5-1.8-1.3-2.3-2.3-.5-1-.8-2.1-.8-3.4 0-1.4.3-2.7.8-3.8l.8.4c-.5 1.1-.8 2.3-.8 3.5 0 1.7.5 3 1.6 4 1 1 2.5 1.5 4.2 1.5 1.9 0 3.4-.5 4.4-1.4 1-.9 1.5-2.3 1.5-4.2 0-1.2-.2-2.2-.5-3h-4.5v3.8h-1v-.1"/><path d="m960.1 199.3c-.6 0-.9-.2-.9-.7 0-.5.3-.7.9-.7.6 0 .9.2.9.7 0 .4-.3.7-.9.7"/><path d="m954.3 187.1c2.3 0 3.9.3 5 1 1.1.7 1.6 1.7 1.6 3.1 0 1.3-.6 2.4-1.7 3.1-1.1.7-2.8 1-5 1-2.2 0-3.9-.3-5-1-1.1-.7-1.6-1.7-1.6-3.1 0-1.4.6-2.4 1.7-3.1 1.1-.7 2.9-1 5-1m0 7.3c2 0 3.5-.3 4.4-.8.9-.5 1.4-1.3 1.4-2.4 0-1.1-.5-1.9-1.5-2.4-1-.5-2.4-.8-4.4-.8-1.9 0-3.3.3-4.3.8-1 .5-1.5 1.3-1.5 2.4 0 1.1.5 1.9 1.5 2.4 1 .5 2.5.8 4.4.8"/><path d="m954.3 176.9c2.3 0 3.9.3 5 1 1.1.7 1.6 1.7 1.6 3.1 0 1.3-.6 2.4-1.7 3.1-1.1.7-2.8 1-5 1-2.2 0-3.9-.3-5-1-1.1-.7-1.6-1.7-1.6-3.1 0-1.4.6-2.4 1.7-3.1 1.1-.7 2.9-1 5-1m0 7.3c2 0 3.5-.3 4.4-.8.9-.5 1.4-1.3 1.4-2.4 0-1.1-.5-1.9-1.5-2.4-1-.5-2.4-.8-4.4-.8-1.9 0-3.3.3-4.3.8-1 .5-1.5 1.3-1.5 2.4 0 1.1.5 1.9 1.5 2.4 1 .5 2.5.8 4.4.8"/><path d="m960.8 172.9l-12-5.3v7.3h-.8v-8.3h.6l12.2 5.3v1"/><path d="m960.8 329.7v7h-12.8v-7h.8v6.1h4.9v-5.8h.8v5.8h5.5v-6.1h.8"/><path d="m960.1 327.1c-.6 0-.9-.2-.9-.7 0-.5.3-.7.9-.7.6 0 .9.2.9.7 0 .5-.3.7-.9.7"/><path d="m960.8 313.2v.9h-6.3v7.5h6.3v.9h-12.8v-.9h5.7v-7.5h-5.7v-.9h12.8"/><path d="m954.3 304.5v-4.7h5.9c.5 1.2.8 2.6.8 4.2 0 2-.6 3.6-1.7 4.7-1.1 1.1-2.8 1.6-4.9 1.6-1.3 0-2.5-.3-3.5-.8-1-.5-1.8-1.3-2.3-2.3-.5-1-.8-2.1-.8-3.4 0-1.4.3-2.7.8-3.8l.8.4c-.5 1.1-.8 2.3-.8 3.5 0 1.7.5 3 1.6 4 1 1 2.5 1.5 4.2 1.5 1.9 0 3.4-.5 4.4-1.4 1-.9 1.5-2.3 1.5-4.2 0-1.2-.2-2.2-.5-3h-4.5v3.8h-1v-.1"/><path d="m960.1 296.9c-.6 0-.9-.2-.9-.7 0-.5.3-.7.9-.7.6 0 .9.2.9.7 0 .5-.3.7-.9.7"/><path d="m954.3 284.8c2.3 0 3.9.3 5 1 1.1.7 1.6 1.7 1.6 3.1 0 1.3-.6 2.4-1.7 3.1-1.1.7-2.8 1-5 1-2.2 0-3.9-.3-5-1-1.1-.7-1.6-1.7-1.6-3.1 0-1.4.6-2.4 1.7-3.1 1.1-.7 2.9-1 5-1m0 7.3c2 0 3.5-.3 4.4-.8.9-.5 1.4-1.3 1.4-2.4 0-1.1-.5-1.9-1.5-2.4-1-.5-2.4-.8-4.4-.8-1.9 0-3.3.3-4.3.8-1 .5-1.5 1.3-1.5 2.4 0 1.1.5 1.9 1.5 2.4 1 .5 2.5.8 4.4.8"/><path d="m954.3 274.5c2.3 0 3.9.3 5 1 1.1.7 1.6 1.7 1.6 3.1 0 1.3-.6 2.4-1.7 3.1-1.1.7-2.8 1-5 1-2.2 0-3.9-.3-5-1-1.1-.7-1.6-1.7-1.6-3.1 0-1.4.6-2.4 1.7-3.1 1.1-.7 2.9-1 5-1m0 7.3c2 0 3.5-.3 4.4-.8.9-.5 1.4-1.3 1.4-2.4 0-1.1-.5-1.9-1.5-2.4-1-.5-2.4-.8-4.4-.8-1.9 0-3.3.3-4.3.8-1 .5-1.5 1.3-1.5 2.4 0 1.1.5 1.9 1.5 2.4 1 .5 2.5.8 4.4.8"/><path d="m947.7 268.4c0-1.1.3-2 .8-2.6.6-.7 1.3-1 2.3-1 .7 0 1.2.2 1.7.6.5.4 1 1.1 1.4 2 .5-1.1 1-1.9 1.5-2.4.5-.5 1.2-.7 2-.7 1.1 0 1.9.4 2.5 1.1.6.7.9 1.7.9 3 0 1.3-.3 2.3-.9 3-.6.7-1.5 1-2.6 1-.8 0-1.4-.2-2-.7-.6-.5-1.1-1.2-1.5-2.3-.4.9-.9 1.6-1.4 2-.5.4-1.1.6-1.8.6-.6 0-1.2-.2-1.6-.5-.4-.3-.8-.7-1.1-1.3-.1-.5-.2-1.1-.2-1.8m.8 0c0 .8.2 1.5.6 2 .4.5 1 .8 1.7.8.4 0 .8-.1 1.1-.3.3-.2.6-.5.9-.8.3-.3.6-.9.9-1.8-.4-1-.8-1.6-1.2-2.1-.4-.5-1-.6-1.6-.6-.7 0-1.3.2-1.7.7-.4.5-.7 1.2-.7 2.1m9.1 3.1c.8 0 1.4-.3 1.9-.8.5-.5.7-1.3.7-2.3 0-1-.2-1.7-.7-2.3-.5-.6-1.1-.9-1.9-.9-.7 0-1.3.2-1.8.7-.5.5-.9 1.3-1.4 2.7.4 1.1.9 1.8 1.4 2.3.5.5 1.1.6 1.8.6"/><path d="m960.8 414.5v7h-12.8v-7h.8v6.1h4.9v-5.8h.8v5.8h5.5v-6.1h.8"/><path d="m960.1 412c-.6 0-.9-.2-.9-.7 0-.5.3-.7.9-.7.6 0 .9.2.9.7 0 .4-.3.7-.9.7"/><path d="m960.8 398v.9h-6.3v7.5h6.3v.9h-12.8v-.9h5.7v-7.5h-5.7v-.9h12.8"/><path d="m954.3 389.3v-4.7h5.9c.5 1.2.8 2.6.8 4.2 0 2-.6 3.6-1.7 4.7-1.1 1.1-2.8 1.6-4.9 1.6-1.3 0-2.5-.3-3.5-.8-1-.5-1.8-1.3-2.3-2.3-.5-1-.8-2.1-.8-3.4 0-1.4.3-2.7.8-3.8l.8.4c-.5 1.1-.8 2.3-.8 3.5 0 1.7.5 3 1.6 4 1 1 2.5 1.5 4.2 1.5 1.9 0 3.4-.5 4.4-1.4 1-.9 1.5-2.3 1.5-4.2 0-1.2-.2-2.2-.5-3h-4.5v3.8h-1v-.1"/><path d="m960.1 381.7c-.6 0-.9-.2-.9-.7 0-.5.3-.7.9-.7.6 0 .9.2.9.7 0 .5-.3.7-.9.7"/><path d="m954.3 369.6c2.3 0 3.9.3 5 1 1.1.7 1.6 1.7 1.6 3.1 0 1.3-.6 2.4-1.7 3.1-1.1.7-2.8 1-5 1-2.2 0-3.9-.3-5-1-1.1-.7-1.6-1.7-1.6-3.1 0-1.4.6-2.4 1.7-3.1 1.1-.7 2.9-1 5-1m0 7.3c2 0 3.5-.3 4.4-.8.9-.5 1.4-1.3 1.4-2.4 0-1.1-.5-1.9-1.5-2.4-1-.5-2.4-.8-4.4-.8-1.9 0-3.3.3-4.3.8-1 .5-1.5 1.3-1.5 2.4 0 1.1.5 1.9 1.5 2.4 1 .5 2.5.8 4.4.8"/><path d="m954.3 359.3c2.3 0 3.9.3 5 1 1.1.7 1.6 1.7 1.6 3.1 0 1.3-.6 2.4-1.7 3.1-1.1.7-2.8 1-5 1-2.2 0-3.9-.3-5-1-1.1-.7-1.6-1.7-1.6-3.1 0-1.4.6-2.4 1.7-3.1 1.1-.7 2.9-1 5-1m0 7.3c2 0 3.5-.3 4.4-.8.9-.5 1.4-1.3 1.4-2.4 0-1.1-.5-1.9-1.5-2.4-1-.5-2.4-.8-4.4-.8-1.9 0-3.3.3-4.3.8-1 .5-1.5 1.3-1.5 2.4 0 1.1.5 1.9 1.5 2.4 1 .5 2.5.8 4.4.8"/><path d="m953.4 349.2c1.7 0 3.1.2 4.2.7 1.1.5 2 1.1 2.5 1.9.5.8.8 1.9.8 3.1 0 .6-.1 1.2-.2 1.7h-.7c.1-.3.1-.6.2-.9.1-.3.1-.6.1-.8 0-1.4-.5-2.6-1.6-3.4-1.1-.8-2.6-1.3-4.6-1.4v.1c.6.4 1 .9 1.3 1.5.3.6.5 1.2.5 1.9 0 1.2-.3 2.1-1 2.8-.7.7-1.6 1-2.8 1-1.3 0-2.3-.4-3.1-1.1-.8-.7-1.2-1.7-1.2-2.8 0-.8.2-1.6.7-2.2.5-.6 1.1-1.1 1.9-1.5.8-.4 1.8-.6 3-.6m-4.9 4.2c0 .9.3 1.7.9 2.2.6.5 1.5.8 2.6.8 1 0 1.8-.3 2.3-.8.5-.5.8-1.2.8-2.2 0-.6-.1-1.1-.4-1.7-.3-.5-.6-.9-1.1-1.2-.5-.3-.9-.5-1.3-.5-.7 0-1.3.1-1.9.4-.6.3-1.1.7-1.4 1.1-.3.7-.5 1.3-.5 1.9"/><path d="m748.8 490.9v7h-12.8v-7h.8v6.1h4.9v-5.8h.8v5.8h5.5v-6.1h.8"/><path d="m748.2 488.4c-.6 0-.9-.2-.9-.7 0-.5.3-.7.9-.7.6 0 .9.2.9.7-.1.5-.4.7-.9.7"/><path d="m748.8 474.4v.9h-6.3v7.5h6.3v.9h-12.8v-.9h5.7v-7.5h-5.7v-.9h12.8"/><path d="m742.4 465.7v-4.7h5.9c.5 1.2.8 2.6.8 4.2 0 2-.6 3.6-1.7 4.7-1.1 1.1-2.8 1.6-4.9 1.6-1.3 0-2.5-.3-3.5-.8-1-.5-1.8-1.3-2.3-2.3-.5-1-.8-2.1-.8-3.4 0-1.4.3-2.7.8-3.8l.8.4c-.5 1.1-.8 2.3-.8 3.5 0 1.7.5 3 1.6 4 1 1 2.5 1.5 4.2 1.5 1.9 0 3.4-.5 4.4-1.4 1-.9 1.5-2.3 1.5-4.2 0-1.2-.2-2.2-.5-3h-4.5v3.8h-1v-.1"/><path d="m748.2 458.2c-.6 0-.9-.2-.9-.7 0-.5.3-.7.9-.7.6 0 .9.2.9.7-.1.4-.4.7-.9.7"/><path d="m742.4 446c2.3 0 3.9.3 5 1 1.1.7 1.6 1.7 1.6 3.1 0 1.3-.6 2.4-1.7 3.1-1.1.7-2.8 1-5 1-2.2 0-3.9-.3-5-1-1.1-.7-1.6-1.7-1.6-3.1 0-1.4.6-2.4 1.7-3.1 1.1-.7 2.8-1 5-1m0 7.3c2 0 3.5-.3 4.4-.8.9-.5 1.4-1.3 1.4-2.4 0-1.1-.5-1.9-1.5-2.4-1-.5-2.4-.8-4.4-.8-1.9 0-3.3.3-4.3.8-1 .5-1.5 1.3-1.5 2.4 0 1.1.5 1.9 1.5 2.4 1 .5 2.5.8 4.4.8"/><path d="m748.8 439v.9h-9.4c-.8 0-1.7 0-2.6-.1.1.1.2.2.3.3.1.1.8 1 2.1 2.7l-.6.5-2.6-3.5v-.8h12.8"/><path d="m745.6 424.7v2.2h3.3v.8h-3.3v6.6h-.6l-9.1-6.4v-1.1h8.9v-2.2h.8v.1m-.8 3.1h-3.7c-1.8 0-3.3 0-4.5-.1v.1c.2.1.8.5 1.7 1.1l6.5 4.5v-5.6"/><path d="m726.9 600h-7v-12.8h7v.8h-6.1v4.9h5.8v.8h-5.8v5.5h6.1v.8"/><path d="m729.4 599.3c0-.6.2-.9.7-.9.5 0 .7.3.7.9 0 .6-.2.9-.7.9-.4 0-.7-.3-.7-.9"/><path d="m743.4 600h-.9v-6.3h-7.5v6.3h-.9v-12.8h.9v5.7h7.5v-5.7h.9v12.8"/><path d="m752.1 593.5h4.7v5.9c-1.2.5-2.6.8-4.2.8-2 0-3.6-.6-4.7-1.7-1.1-1.1-1.6-2.8-1.6-4.9 0-1.3.3-2.5.8-3.5.5-1 1.3-1.8 2.3-2.3 1-.5 2.1-.8 3.4-.8 1.4 0 2.7.3 3.8.8l-.4.8c-1.1-.5-2.3-.8-3.5-.8-1.7 0-3 .5-4 1.6-1 1-1.5 2.5-1.5 4.2 0 1.9.5 3.4 1.4 4.4.9 1 2.3 1.5 4.2 1.5 1.2 0 2.2-.2 3-.5v-4.5h-3.8v-1h.1"/><path d="m759.7 599.3c0-.6.2-.9.7-.9.5 0 .7.3.7.9 0 .6-.2.9-.7.9-.5 0-.7-.3-.7-.9"/><path d="m771.8 593.5c0 2.3-.3 3.9-1 5-.7 1.1-1.7 1.6-3.1 1.6-1.3 0-2.4-.6-3.1-1.7-.7-1.1-1-2.8-1-5 0-2.2.3-3.9 1-5 .7-1.1 1.7-1.6 3.1-1.6 1.4 0 2.4.6 3.1 1.7.7 1.1 1 2.9 1 5m-7.3 0c0 2 .3 3.5.8 4.4.5.9 1.3 1.4 2.4 1.4 1.1 0 1.9-.5 2.4-1.5.5-1 .8-2.4.8-4.4 0-1.9-.3-3.3-.8-4.3-.5-1-1.3-1.5-2.4-1.5-1.1 0-1.9.5-2.4 1.5-.5 1-.8 2.5-.8 4.4"/><path d="m778.8 600h-.9v-9.4c0-.8 0-1.7.1-2.6-.1.1-.2.2-.3.3-.1.1-1 .8-2.7 2.1l-.5-.6 3.5-2.6h.8v12.8"/><path d="m791.7 590.2c0 .8-.3 1.5-.8 2-.5.5-1.2.9-2 1v.1c1 .1 1.8.5 2.4 1 .6.5.8 1.2.8 2.1 0 1.2-.4 2.1-1.2 2.8-.8.7-2 1-3.5 1-1.3 0-2.4-.2-3.4-.7v-.9c.5.3 1 .5 1.7.6.7.1 1.2.2 1.7.2 1.3 0 2.3-.3 2.9-.8.6-.5 1-1.3 1-2.2 0-.8-.3-1.5-1-2-.7-.5-1.6-.7-2.9-.7h-1.4v-.8h1.4c1.1 0 1.9-.3 2.5-.8.6-.5.9-1.2.9-2.1 0-.7-.3-1.3-.8-1.7-.5-.4-1.2-.6-2-.6-.6 0-1.2.1-1.7.3-.5.2-1.1.5-1.8.9l-.4-.6c.5-.4 1.1-.7 1.8-1 .7-.3 1.4-.4 2.1-.4 1.2 0 2.1.3 2.7.8.6.5 1 1.5 1 2.5"/><path d="m215.1 867.5c0 1.4-.5 2.6-1.6 3.4-1.1.8-2.4 1.3-4.2 1.3-2.1 0-3.7-.2-4.8-.7v-1.2c1.2.5 2.8.8 4.7.8 1.4 0 2.5-.3 3.3-1 .8-.7 1.2-1.5 1.2-2.5 0-.6-.1-1.2-.4-1.6-.3-.4-.7-.8-1.3-1.2-.6-.4-1.5-.7-2.7-1.1-1.8-.6-3-1.3-3.6-2-.6-.7-1-1.6-1-2.8 0-1.3.5-2.3 1.5-3.1 1-.8 2.3-1.2 3.9-1.2 1.6 0 3.1.3 4.5.9l-.4 1c-1.4-.6-2.8-.9-4.1-.9-1.3 0-2.3.3-3 .9-.7.6-1.1 1.4-1.1 2.4 0 .6.1 1.2.3 1.6.2.4.6.8 1.1 1.1.5.3 1.4.7 2.7 1.2 1.3.5 2.3.9 3 1.3.7.4 1.2.9 1.5 1.5.3.6.5 1.2.5 1.9"/><path d="m223.6 872.2c-1.9 0-3.3-.6-4.3-1.7-1-1.1-1.6-2.7-1.6-4.8 0-2 .5-3.7 1.5-4.9 1-1.2 2.3-1.8 4-1.8 1.5 0 2.7.5 3.6 1.6.9 1.1 1.3 2.5 1.3 4.3v.9h-9.2c0 1.8.4 3.1 1.2 4 .8.9 1.9 1.4 3.4 1.4.7 0 1.4-.1 1.9-.2.5-.1 1.2-.3 2.1-.7v1.1c-.7.3-1.4.5-2 .6-.6.1-1.2.2-1.9.2m-.3-12.2c-1.2 0-2.2.4-3 1.2-.8.8-1.2 2-1.3 3.5h7.9c0-1.5-.3-2.6-1-3.5-.7-.9-1.5-1.2-2.6-1.2"/><path d="m236.7 859c.5 0 1.1.1 1.7.2l-.2 1.1c-.5-.1-1.1-.2-1.7-.2-1.1 0-2 .5-2.7 1.4-.7.9-1 2.1-1 3.5v7h-1.2v-12.7h1l.1 2.3h.1c.5-.9 1.1-1.6 1.7-2 .6-.4 1.4-.6 2.2-.6"/><path d="m243.4 872l-4.9-12.7h1.2l3.3 8.7c.4 1.1.8 2.1 1 2.9h.1c.3-1.1.6-2 1-2.9l3.3-8.6h1.2l-4.9 12.7h-1.3v-.1"/><path d="m251.3 855.7c0-.8.2-1.1.7-1.1.2 0 .4.1.6.3.2.2.2.5.2.8 0 .4-.1.6-.2.8-.1.2-.3.3-.6.3-.4 0-.7-.4-.7-1.1m1.4 16.3h-1.2v-12.7h1.2v12.7"/><path d="m262 872.2c-1.8 0-3.2-.6-4.3-1.7-1.1-1.1-1.5-2.8-1.5-4.8 0-2.1.5-3.8 1.6-4.9 1.1-1.1 2.5-1.8 4.4-1.8 1.1 0 2.2.2 3.2.6l-.3 1c-1.1-.4-2.1-.6-2.9-.6-1.6 0-2.7.5-3.6 1.4-.9.9-1.2 2.4-1.2 4.2 0 1.7.4 3.1 1.2 4 .8.9 1.9 1.5 3.4 1.5 1.2 0 2.2-.2 3.2-.6v1.1c-.8.4-1.9.6-3.2.6"/><path d="m273.5 872.2c-1.9 0-3.3-.6-4.3-1.7-1-1.1-1.6-2.7-1.6-4.8 0-2 .5-3.7 1.5-4.9 1-1.2 2.3-1.8 4-1.8 1.5 0 2.7.5 3.6 1.6.9 1.1 1.3 2.5 1.3 4.3v.9h-9.2c0 1.8.4 3.1 1.2 4 .8.9 1.9 1.4 3.4 1.4.7 0 1.4-.1 1.9-.2.5-.1 1.2-.3 2.1-.7v1.1c-.7.3-1.4.5-2 .6-.6.1-1.2.2-1.9.2m-.4-12.2c-1.2 0-2.2.4-3 1.2-.8.8-1.2 2-1.3 3.5h7.9c0-1.5-.3-2.6-1-3.5-.7-.9-1.4-1.2-2.6-1.2"/><path d="m213 884.5c-2.1 0-3.8.7-5.1 2.1-1.3 1.4-1.9 3.3-1.9 5.6 0 2.4.6 4.3 1.7 5.7 1.1 1.4 2.8 2 5 2 1.4 0 2.8-.2 4-.6v1.1c-1.1.4-2.5.6-4.2.6-2.4 0-4.3-.8-5.7-2.3-1.4-1.5-2.1-3.7-2.1-6.5 0-1.7.3-3.3 1-4.6.7-1.3 1.6-2.4 2.8-3.1 1.2-.7 2.7-1.1 4.3-1.1 1.7 0 3.2.3 4.5.9l-.5 1.1c-1.1-.6-2.4-.9-3.8-.9"/><path d="m225.4 901c-1.9 0-3.3-.6-4.3-1.7-1-1.1-1.6-2.7-1.6-4.8 0-2 .5-3.7 1.5-4.9 1-1.2 2.3-1.8 4-1.8 1.5 0 2.7.5 3.6 1.6.9 1.1 1.3 2.5 1.3 4.3v.9h-9.2c0 1.8.4 3.1 1.2 4 .8.9 1.9 1.4 3.4 1.4.7 0 1.4-.1 1.9-.2.5-.1 1.2-.3 2.1-.7v1.1c-.7.3-1.4.5-2 .6-.6.1-1.1.2-1.9.2m-.3-12.2c-1.2 0-2.2.4-3 1.2-.8.8-1.2 2-1.3 3.5h7.9c0-1.5-.3-2.6-1-3.5-.7-.9-1.5-1.2-2.6-1.2"/><path d="m242.4 900.8v-8.3c0-1.3-.3-2.2-.8-2.8-.5-.6-1.4-.9-2.5-.9-1.5 0-2.6.4-3.3 1.2-.7.8-1.1 2-1.1 3.7v7h-1.2v-12.7h1l.2 1.7h.1c.8-1.3 2.3-2 4.4-2 2.9 0 4.3 1.6 4.3 4.7v8.3h-1.1v.1"/><path d="m251 900c.7 0 1.4-.1 1.9-.2v.9c-.6.2-1.2.3-1.9.3-1.1 0-2-.3-2.5-.9-.5-.6-.8-1.5-.8-2.8v-8.3h-1.9v-.7l1.9-.5.6-2.9h.6v3.1h3.7v1h-3.7v8.1c0 1 .2 1.7.5 2.2.3.5.9.7 1.6.7"/><path d="m260.8 901c-1.9 0-3.3-.6-4.3-1.7-1-1.1-1.6-2.7-1.6-4.8 0-2 .5-3.7 1.5-4.9 1-1.2 2.3-1.8 4-1.8 1.5 0 2.7.5 3.6 1.6.9 1.1 1.3 2.5 1.3 4.3v.9h-9.2c0 1.8.4 3.1 1.2 4 .8.9 1.9 1.4 3.4 1.4.7 0 1.4-.1 1.9-.2.5-.1 1.2-.3 2.1-.7v1.1c-.7.3-1.4.5-2 .6-.6.1-1.2.2-1.9.2m-.3-12.2c-1.2 0-2.2.4-3 1.2-.8.8-1.2 2-1.3 3.5h7.9c0-1.5-.3-2.6-1-3.5-.7-.9-1.5-1.2-2.6-1.2"/><path d="m273.9 887.8c.5 0 1.1.1 1.7.2l-.2 1.1c-.5-.1-1.1-.2-1.7-.2-1.1 0-2 .5-2.7 1.4-.7.9-1 2.1-1 3.5v7h-1.2v-12.8h1l.1 2.3h.1c.5-.9 1.1-1.6 1.7-2 .6-.4 1.3-.5 2.2-.5"/><path d="m212.1 845.3h-7v-12.8h7v.8h-6.1v4.9h5.8v.8h-5.8v5.5h6.1v.8"/><path d="m214.6 844.6c0-.6.2-.9.7-.9.5 0 .7.3.7.9 0 .6-.2.9-.7.9-.5 0-.7-.3-.7-.9"/><path d="m228.6 845.3h-.9v-6.3h-7.5v6.3h-.9v-12.8h.9v5.7h7.5v-5.7h.9v12.8"/><path d="m237.3 838.9h4.7v5.9c-1.2.5-2.6.8-4.2.8-2 0-3.6-.6-4.7-1.7-1.1-1.1-1.6-2.8-1.6-4.9 0-1.3.3-2.5.8-3.5.5-1 1.3-1.8 2.3-2.3 1-.5 2.1-.8 3.4-.8 1.4 0 2.7.3 3.8.8l-.4.8c-1.1-.5-2.3-.8-3.5-.8-1.7 0-3 .5-4 1.6-1 1-1.5 2.5-1.5 4.2 0 1.9.5 3.4 1.4 4.4.9 1 2.3 1.5 4.2 1.5 1.2 0 2.2-.2 3-.5v-4.5h-3.8v-1h.1"/><path d="m244.9 844.6c0-.6.2-.9.7-.9.5 0 .7.3.7.9 0 .6-.2.9-.7.9-.5 0-.7-.3-.7-.9"/><path d="m257 838.9c0 2.3-.3 3.9-1 5-.7 1.1-1.7 1.6-3.1 1.6-1.3 0-2.4-.6-3.1-1.7-.7-1.1-1-2.8-1-5 0-2.2.3-3.9 1-5 .7-1.1 1.7-1.6 3.1-1.6 1.4 0 2.4.6 3.1 1.7.6 1.2 1 2.8 1 5m-7.3 0c0 2 .3 3.5.8 4.4.5.9 1.3 1.4 2.4 1.4 1.1 0 1.9-.5 2.4-1.5.5-1 .8-2.4.8-4.4 0-1.9-.3-3.3-.8-4.3-.5-1-1.3-1.5-2.4-1.5-1.1 0-1.9.5-2.4 1.5-.5 1-.8 2.5-.8 4.4"/><path d="m267 845.3h-8v-.8l3.4-3.6c1-1 1.6-1.8 2-2.3.4-.5.7-1 .9-1.5.2-.5.3-1 .3-1.5 0-.8-.3-1.4-.8-1.9-.5-.5-1.2-.7-2-.7-1.1 0-2.1.4-3.1 1.2l-.5-.6c1.1-.9 2.3-1.4 3.6-1.4 1.1 0 2 .3 2.6.9.6.6 1 1.4 1 2.5 0 .8-.2 1.7-.6 2.5-.4.8-1.2 1.8-2.4 2.9l-3.3 3.4h6.9v.9"/><path d="m273 837.6c1.4 0 2.5.3 3.2 1 .7.7 1.2 1.6 1.2 2.7 0 1.3-.4 2.3-1.2 3.1-.8.8-2 1.1-3.4 1.1-.6 0-1.2-.1-1.8-.2-.6-.1-1.1-.3-1.4-.5v-.9c.6.3 1.2.5 1.7.7.5.1 1 .2 1.6.2 1.1 0 2-.3 2.7-.9.7-.6 1-1.4 1-2.4 0-1-.3-1.7-1-2.2-.7-.5-1.6-.8-2.7-.8-.8 0-1.6.1-2.4.3l-.5-.3.5-5.9h6.2v.8h-5.4l-.4 4.5c.9-.2 1.6-.3 2.1-.3"/><path d="m227.1 990.1h-7v-12.8h7v.8h-6.1v4.9h5.8v.8h-5.8v5.5h6.1v.8"/><path d="m229.6 989.5c0-.6.2-.9.7-.9.5 0 .7.3.7.9 0 .6-.2.9-.7.9-.5-.1-.7-.4-.7-.9"/><path d="m243.5 990.1h-.9v-6.3h-7.5v6.3h-.9v-12.8h.9v5.7h7.5v-5.7h.9v12.8"/><path d="m252.2 983.7h4.7v5.9c-1.2.5-2.6.8-4.2.8-2 0-3.6-.6-4.7-1.7-1.1-1.1-1.6-2.8-1.6-4.9 0-1.3.3-2.5.8-3.5.5-1 1.3-1.8 2.3-2.3 1-.5 2.1-.8 3.4-.8 1.4 0 2.7.3 3.8.8l-.4.8c-1.1-.5-2.3-.8-3.5-.8-1.7 0-3 .5-4 1.6-1 1-1.5 2.5-1.5 4.2 0 1.9.5 3.4 1.4 4.4.9 1 2.3 1.5 4.2 1.5 1.2 0 2.2-.2 3-.5v-4.5h-3.8v-1h.1"/><path d="m259.8 989.5c0-.6.2-.9.7-.9.5 0 .7.3.7.9 0 .6-.2.9-.7.9-.5-.1-.7-.4-.7-.9"/><path d="m271.9 983.7c0 2.3-.3 3.9-1 5-.7 1.1-1.7 1.6-3.1 1.6-1.3 0-2.4-.6-3.1-1.7-.7-1.1-1-2.8-1-5 0-2.2.3-3.9 1-5 .7-1.1 1.7-1.6 3.1-1.6 1.4 0 2.4.6 3.1 1.7.7 1.2 1 2.8 1 5m-7.3 0c0 2 .3 3.5.8 4.4.5.9 1.3 1.4 2.4 1.4 1.1 0 1.9-.5 2.4-1.5.5-1 .8-2.4.8-4.4 0-1.9-.3-3.3-.8-4.3-.5-1-1.3-1.5-2.4-1.5-1.1 0-1.9.5-2.4 1.5-.5 1-.8 2.5-.8 4.4"/><path d="m282 990.1h-8v-.8l3.4-3.6c1-1 1.6-1.8 2-2.3.4-.5.7-1 .9-1.5.2-.5.3-1 .3-1.5 0-.8-.3-1.4-.8-1.9-.5-.5-1.2-.7-2-.7-1.1 0-2.1.4-3.1 1.2l-.5-.6c1.1-.9 2.3-1.4 3.6-1.4 1.1 0 2 .3 2.6.9.6.6 1 1.4 1 2.5 0 .8-.2 1.7-.6 2.5-.4.8-1.2 1.8-2.4 2.9l-3.3 3.4h6.9v.9"/><path d="m293.2 986.9h-2.2v3.3h-.8v-3.3h-6.6v-.6l6.4-9.1h1.1v8.9h2.2v.8h-.1m-3-.8v-3.7c0-1.8 0-3.3.1-4.5h-.1c-.1.2-.5.8-1.1 1.7l-4.5 6.5h5.6"/><path d="m577.3 882.4v7h-12.8v-7h.8v6.1h4.9v-5.8h.8v5.8h5.5v-6.1h.8"/><path d="m576.6 879.9c-.6 0-.9-.2-.9-.7 0-.5.3-.7.9-.7.6 0 .9.2.9.7 0 .5-.3.7-.9.7"/><path d="m577.3 865.9v.9h-6.3v7.5h6.3v.9h-12.8v-.9h5.7v-7.5h-5.7v-.9h12.8"/><path d="m570.8 857.2v-4.7h5.9c.5 1.2.8 2.6.8 4.2 0 2-.6 3.6-1.7 4.7-1.1 1.1-2.8 1.6-4.9 1.6-1.3 0-2.5-.3-3.5-.8-1-.5-1.8-1.3-2.3-2.3-.5-1-.8-2.1-.8-3.4 0-1.4.3-2.7.8-3.8l.8.4c-.5 1.1-.8 2.3-.8 3.5 0 1.7.5 3 1.6 4 1 1 2.5 1.5 4.2 1.5 1.9 0 3.4-.5 4.4-1.4 1-.9 1.5-2.3 1.5-4.2 0-1.2-.2-2.2-.5-3h-4.5v3.8h-1v-.1"/><path d="m576.6 849.7c-.6 0-.9-.2-.9-.7 0-.5.3-.7.9-.7.6 0 .9.2.9.7 0 .4-.3.7-.9.7"/><path d="m570.9 837.5c2.3 0 3.9.3 5 1 1.1.7 1.6 1.7 1.6 3.1 0 1.3-.6 2.4-1.7 3.1-1.1.7-2.8 1-5 1-2.2 0-3.9-.3-5-1-1.1-.7-1.6-1.7-1.6-3.1 0-1.4.6-2.4 1.7-3.1 1.2-.6 2.8-1 5-1m0 7.3c2 0 3.5-.3 4.4-.8.9-.5 1.4-1.3 1.4-2.4 0-1.1-.5-1.9-1.5-2.4-1-.5-2.4-.8-4.4-.8-1.9 0-3.3.3-4.3.8-1 .5-1.5 1.3-1.5 2.4 0 1.1.5 1.9 1.5 2.4 1 .5 2.5.8 4.4.8"/><path d="m577.3 830.5v.9h-9.3c-.8 0-1.7 0-2.6-.1.1.1.2.2.3.3.1.1.8 1 2.1 2.7l-.6.5-2.6-3.5v-.8h12.7"/><path d="m571.8 825.1c-1.7 0-3.1-.2-4.2-.7-1.1-.5-2-1.1-2.5-1.9-.6-.8-.8-1.8-.8-3 0-.6.1-1.1.2-1.5h.8c-.2.4-.2.9-.2 1.5 0 1.4.5 2.6 1.6 3.4 1 .8 2.6 1.3 4.6 1.4v-.1c-.6-.4-1-1-1.3-1.5-.3-.5-.4-1.2-.4-1.8 0-1.2.3-2.1 1-2.8.7-.7 1.6-1 2.8-1 1.3 0 2.3.4 3.1 1.1.8.7 1.1 1.7 1.1 2.9 0 1.3-.5 2.3-1.5 3.1-1.1.5-2.5.9-4.3.9m4.9-4.2c0-1-.3-1.7-.9-2.2-.6-.5-1.5-.8-2.6-.8-1 0-1.8.3-2.3.8-.5.5-.8 1.2-.8 2.2 0 .6.1 1.2.4 1.7.3.5.6.9 1.1 1.2.5.3.9.5 1.3.5.7 0 1.3-.1 1.9-.4.6-.3 1.1-.7 1.4-1.2.3-.7.5-1.2.5-1.8"/><path d="m608.7 881.5v7h-12.8v-7h.8v6.1h4.9v-5.8h.8v5.8h5.5v-6.1h.8"/><path d="m608 879c-.6 0-.9-.2-.9-.7 0-.5.3-.7.9-.7.6 0 .9.2.9.7-.1.5-.4.7-.9.7"/><path d="m608.7 865v.9h-6.3v7.5h6.3v.9h-12.8v-.9h5.7v-7.5h-5.7v-.9h12.8"/><path d="m602.2 856.3v-4.7h5.9c.5 1.2.8 2.6.8 4.2 0 2-.6 3.6-1.7 4.7-1.1 1.1-2.8 1.6-4.9 1.6-1.3 0-2.5-.3-3.5-.8-1-.5-1.8-1.3-2.3-2.3-.5-1-.8-2.1-.8-3.4 0-1.4.3-2.7.8-3.8l.8.4c-.5 1.1-.8 2.3-.8 3.5 0 1.7.5 3 1.6 4 1 1 2.5 1.5 4.2 1.5 1.9 0 3.4-.5 4.4-1.4 1-.9 1.5-2.3 1.5-4.2 0-1.2-.2-2.2-.5-3h-4.7v3.8h-.8v-.1"/><path d="m608 848.8c-.6 0-.9-.2-.9-.7 0-.5.3-.7.9-.7.6 0 .9.2.9.7-.1.4-.4.7-.9.7"/><path d="m602.2 836.6c2.3 0 3.9.3 5 1 1.1.7 1.6 1.7 1.6 3.1 0 1.3-.6 2.4-1.7 3.1-1.1.7-2.8 1-5 1-2.2 0-3.9-.3-5-1-1.1-.7-1.6-1.7-1.6-3.1 0-1.4.6-2.4 1.7-3.1 1.2-.6 2.8-1 5-1m0 7.3c2 0 3.5-.3 4.4-.8.9-.5 1.4-1.3 1.4-2.4 0-1.1-.5-1.9-1.5-2.4-1-.5-2.4-.8-4.4-.8-1.9 0-3.3.3-4.3.8-1 .5-1.5 1.3-1.5 2.4 0 1.1.5 1.9 1.5 2.4 1 .5 2.5.8 4.4.8"/><path d="m608.7 829.6v.9h-9.4c-.8 0-1.7 0-2.6-.1.1.1.2.2.3.3.1.1.8 1 2.1 2.7l-.6.5-2.6-3.5v-.8h12.8"/><path d="m608.7 822.4l-12-5.3v7.3h-.8v-8.3h.6l12.2 5.3v1"/><path d="m608.7 807.7l-1.5.2v.1c.6.5 1.1 1 1.3 1.5.3.5.4 1.1.4 1.8 0 .9-.2 1.7-.7 2.2-.5.5-1.1.8-2 .8-.9 0-1.7-.4-2.2-1.2-.5-.8-.8-1.9-.8-3.4l-.1-1.8h-.6c-.9 0-1.6.2-2.1.6-.5.4-.7 1-.7 1.8 0 .9.2 1.8.7 2.8l-.8.3c-.5-1-.7-2.1-.7-3.1 0-1 .3-1.8.8-2.4.5-.5 1.4-.8 2.5-.8h6.4v.6h.1m-.7 3.5c0-1-.3-1.8-.9-2.4-.6-.6-1.4-.9-2.4-.9h-.9l.1 1.7c.1 1.3.3 2.3.6 2.9.4.6.9.9 1.7.9.6 0 1.1-.2 1.4-.5.3-.5.4-1 .4-1.7"/><path d="m650 881.5v7h-12.8v-7h.8v6.1h4.9v-5.8h.8v5.8h5.5v-6.1h.8"/><path d="m649.3 879c-.6 0-.9-.2-.9-.7 0-.5.3-.7.9-.7.6 0 .9.2.9.7 0 .5-.3.7-.9.7"/><path d="m650 865v.9h-6.3v7.5h6.3v.9h-12.8v-.9h5.7v-7.5h-5.7v-.9h12.8"/><path d="m643.5 856.3v-4.7h5.9c.5 1.2.8 2.6.8 4.2 0 2-.6 3.6-1.7 4.7-1.1 1.1-2.8 1.6-4.9 1.6-1.3 0-2.5-.3-3.5-.8-1-.5-1.8-1.3-2.3-2.3-.5-1-.8-2.1-.8-3.4 0-1.4.3-2.7.8-3.8l.8.4c-.5 1.1-.8 2.3-.8 3.5 0 1.7.5 3 1.6 4 1 1 2.5 1.5 4.2 1.5 1.9 0 3.4-.5 4.4-1.4 1-.9 1.5-2.3 1.5-4.2 0-1.2-.2-2.2-.5-3h-4.5v3.8h-1v-.1"/><path d="m649.3 848.8c-.6 0-.9-.2-.9-.7 0-.5.3-.7.9-.7.6 0 .9.2.9.7 0 .4-.3.7-.9.7"/><path d="m643.5 836.6c2.3 0 3.9.3 5 1 1.1.7 1.6 1.7 1.6 3.1 0 1.3-.6 2.4-1.7 3.1-1.1.7-2.8 1-5 1-2.2 0-3.9-.3-5-1-1.1-.7-1.6-1.7-1.6-3.1 0-1.4.6-2.4 1.7-3.1 1.2-.6 2.9-1 5-1m0 7.3c2 0 3.5-.3 4.4-.8.9-.5 1.4-1.3 1.4-2.4 0-1.1-.5-1.9-1.5-2.4-1-.5-2.4-.8-4.4-.8-1.9 0-3.3.3-4.3.8-1 .5-1.5 1.3-1.5 2.4 0 1.1.5 1.9 1.5 2.4 1 .5 2.5.8 4.4.8"/><path d="m650 829.6v.9h-9.4c-.8 0-1.7 0-2.6-.1.1.1.2.2.3.3.1.1.8 1 2.1 2.7l-.6.5-2.6-3.5v-.8h12.8"/><path d="m650 822.4l-12-5.3v7.3h-.8v-8.3h.6l12.2 5.3v1"/><path d="m640.3 809.4c0-1.3.4-2.3 1.3-3 .8-.7 2.1-1 3.7-1 1.6 0 2.8.4 3.7 1.1.9.7 1.3 1.7 1.3 3 0 .7-.1 1.3-.4 1.8-.3.5-.7 1-1.2 1.3v.1l1.4.2v.5h-13.7v-.9h5.5v-.1c-.6-.4-1-.8-1.3-1.3-.3-.5-.3-.9-.3-1.7m.7.1c0 1.1.3 1.9 1 2.4.7.5 1.7.7 3.2.7h.1c1.4 0 2.5-.3 3.1-.8.6-.5.9-1.3.9-2.4 0-1-.4-1.8-1.1-2.4-.7-.5-1.8-.8-3.1-.8-2.7.1-4.1 1.2-4.1 3.3"/><path d="m701.9 877.6v7h-12.9v-7h.8v6.1h4.9v-5.8h.8v5.8h5.5v-6.1h.9"/><path d="m701.2 875c-.6 0-.9-.2-.9-.7 0-.5.3-.7.9-.7.6 0 .9.2.9.7 0 .5-.3.7-.9.7"/><path d="m701.9 861.1v.9h-6.3v7.5h6.3v.9h-12.9v-.9h5.7v-7.5h-5.7v-.9h12.9"/><path d="m695.4 852.4v-4.7h5.9c.5 1.2.8 2.6.8 4.2 0 2-.6 3.6-1.7 4.7-1.1 1.1-2.8 1.6-4.9 1.6-1.3 0-2.5-.3-3.5-.8-1-.5-1.8-1.3-2.3-2.3-.5-1-.8-2.1-.8-3.4 0-1.4.3-2.7.8-3.8l.8.4c-.5 1.1-.8 2.3-.8 3.5 0 1.7.5 3 1.6 4 1 1 2.5 1.5 4.2 1.5 1.9 0 3.4-.5 4.4-1.4 1-.9 1.5-2.3 1.5-4.2 0-1.2-.2-2.2-.5-3h-4.5v3.8h-1v-.1"/><path d="m701.2 844.8c-.6 0-.9-.2-.9-.7 0-.5.3-.7.9-.7.6 0 .9.2.9.7 0 .5-.3.7-.9.7"/><path d="m695.4 832.7c2.3 0 3.9.3 5 1 1.1.7 1.6 1.7 1.6 3.1 0 1.3-.6 2.4-1.7 3.1-1.1.7-2.8 1-5 1-2.2 0-3.9-.3-5-1-1.1-.7-1.6-1.7-1.6-3.1 0-1.4.6-2.4 1.7-3.1 1.2-.7 2.9-1 5-1m0 7.3c2 0 3.5-.3 4.4-.8.9-.5 1.4-1.3 1.4-2.4 0-1.1-.5-1.9-1.5-2.4-1-.5-2.4-.8-4.4-.8-1.9 0-3.3.3-4.3.8-1 .5-1.5 1.3-1.5 2.4 0 1.1.5 1.9 1.5 2.4 1 .5 2.5.8 4.4.8"/><path d="m701.9 825.7v.9h-9.4c-.8 0-1.7 0-2.6-.1.1.1.2.2.3.3.1.1.8 1 2.1 2.7l-.6.5-2.6-3.5v-.8h12.8"/><path d="m701.9 818.5l-12-5.3v7.3h-.9v-8.3h.6l12.2 5.3v1h.1"/><path d="m702.1 805.7c0 1.4-.4 2.4-1.3 3.2-.9.8-2.1 1.2-3.6 1.2-1.6 0-2.8-.4-3.7-1.2-.9-.8-1.3-1.9-1.3-3.3 0-.8.1-1.6.4-2.4l.8.2c-.3.8-.4 1.5-.4 2.2 0 1.2.4 2.1 1.1 2.7.7.6 1.8.9 3.1.9 1.3 0 2.3-.3 3-.9.7-.6 1.1-1.4 1.1-2.5 0-.9-.2-1.7-.5-2.4h.8c.3.5.5 1.3.5 2.3"/><path d="m774.4 880v7h-12.8v-7h.8v6.1h4.9v-5.8h.8v5.8h5.5v-6.1h.8"/><path d="m773.7 877.4c-.6 0-.9-.2-.9-.7 0-.5.3-.7.9-.7.6 0 .9.2.9.7 0 .5-.3.7-.9.7"/><path d="m774.4 863.5v.9h-6.3v7.5h6.3v.9h-12.8v-.9h5.7v-7.5h-5.7v-.9h12.8"/><path d="m767.9 854.8v-4.8h5.9c.5 1.2.8 2.6.8 4.2 0 2-.6 3.6-1.7 4.7-1.1 1.1-2.8 1.6-4.9 1.6-1.3 0-2.5-.3-3.5-.8-1-.5-1.8-1.3-2.3-2.3-.5-1-.8-2.1-.8-3.4 0-1.4.3-2.7.8-3.8l.8.4c-.5 1.1-.8 2.3-.8 3.5 0 1.7.5 3 1.6 4 1 1 2.5 1.5 4.2 1.5 1.9 0 3.4-.5 4.4-1.4 1-.9 1.5-2.3 1.5-4.2 0-1.2-.2-2.2-.5-3h-4.5v3.8h-1"/><path d="m773.7 847.2c-.6 0-.9-.2-.9-.7 0-.5.3-.7.9-.7.6 0 .9.2.9.7 0 .5-.3.7-.9.7"/><path d="m768 835.1c2.3 0 3.9.3 5 1 1.1.7 1.6 1.7 1.6 3.1 0 1.3-.6 2.4-1.7 3.1-1.1.7-2.8 1-5 1-2.2 0-3.9-.3-5-1-1.1-.7-1.6-1.7-1.6-3.1 0-1.4.6-2.4 1.7-3.1 1.2-.7 2.8-1 5-1m0 7.3c2 0 3.5-.3 4.4-.8.9-.5 1.4-1.3 1.4-2.4 0-1.1-.5-1.9-1.5-2.4-1-.5-2.4-.8-4.4-.8-1.9 0-3.3.3-4.3.8-1 .5-1.5 1.3-1.5 2.4 0 1.1.5 1.9 1.5 2.4 1 .5 2.5.8 4.4.8"/><path d="m774.4 828.1v.9h-9.4c-.8 0-1.7 0-2.6-.1.1.1.2.2.3.3.1.1.8 1 2.1 2.7l-.6.5-2.6-3.5v-.8h12.8"/><path d="m761.3 818.7c0-1.1.3-2 .8-2.6.6-.7 1.3-1 2.3-1 .7 0 1.2.2 1.7.6.5.4 1 1.1 1.4 2 .5-1.1 1-1.9 1.5-2.4.5-.5 1.2-.7 2-.7 1.1 0 1.9.4 2.5 1.1.6.7.9 1.7.9 3 0 1.3-.3 2.3-.9 3-.6.7-1.5 1-2.6 1-.8 0-1.4-.2-2-.7-.6-.5-1.1-1.2-1.5-2.3-.4.9-.9 1.6-1.4 2-.5.4-1.1.6-1.8.6-.6 0-1.2-.2-1.6-.5-.5-.3-.8-.7-1.1-1.3 0-.5-.2-1.1-.2-1.8m.8 0c0 .8.2 1.5.6 2 .4.5 1 .8 1.7.8.4 0 .8-.1 1.1-.3.3-.2.6-.5.9-.8.3-.3.6-.9.9-1.8-.4-1-.8-1.6-1.2-2.1-.4-.5-1-.6-1.6-.6-.7 0-1.3.2-1.7.7-.4.5-.7 1.2-.7 2.1m9.2 3.1c.8 0 1.4-.3 1.9-.8.5-.5.7-1.3.7-2.3 0-1-.2-1.7-.7-2.3-.5-.6-1.1-.9-1.9-.9-.7 0-1.3.2-1.8.7-.5.5-.9 1.3-1.4 2.7.4 1.1.9 1.8 1.4 2.3.5.5 1 .6 1.8.6"/><path d="m774.4 806.1l-1.5.2v.1c.6.5 1.1 1 1.3 1.5.3.5.4 1.1.4 1.8 0 .9-.2 1.7-.7 2.2-.5.5-1.1.8-2 .8-.9 0-1.7-.4-2.2-1.2-.5-.8-.8-1.9-.8-3.4l-.1-1.8h-.6c-.9 0-1.6.2-2.1.6-.5.4-.7 1-.7 1.8 0 .9.2 1.8.7 2.8l-.8.3c-.5-1-.7-2.1-.7-3.1 0-1 .3-1.8.8-2.4.5-.5 1.4-.8 2.5-.8h6.4v.6h.1m-.6 3.5c0-1-.3-1.8-.9-2.4-.6-.6-1.4-.9-2.4-.9h-.9l.1 1.7c.1 1.3.3 2.3.6 2.9.4.6.9.9 1.7.9.6 0 1.1-.2 1.4-.5.2-.5.4-1 .4-1.7"/><path d="m843.2 880v7h-12.8v-7h.8v6.1h4.9v-5.8h.8v5.8h5.5v-6.1h.8"/><path d="m842.5 877.4c-.6 0-.9-.2-.9-.7 0-.5.3-.7.9-.7.6 0 .9.2.9.7 0 .5-.3.7-.9.7"/><path d="m843.2 863.5v.9h-6.3v7.5h6.3v.9h-12.8v-.9h5.7v-7.5h-5.7v-.9h12.8"/><path d="m836.7 854.8v-4.8h5.9c.5 1.2.8 2.6.8 4.2 0 2-.6 3.6-1.7 4.7-1.1 1.1-2.8 1.6-4.9 1.6-1.3 0-2.5-.3-3.5-.8-1-.5-1.8-1.3-2.3-2.3-.5-1-.8-2.1-.8-3.4 0-1.4.3-2.7.8-3.8l.8.4c-.5 1.1-.8 2.3-.8 3.5 0 1.7.5 3 1.6 4 1 1 2.5 1.5 4.2 1.5 1.9 0 3.4-.5 4.4-1.4 1-.9 1.5-2.3 1.5-4.2 0-1.2-.2-2.2-.5-3h-4.5v3.8h-1"/><path d="m842.5 847.2c-.6 0-.9-.2-.9-.7 0-.5.3-.7.9-.7.6 0 .9.2.9.7 0 .5-.3.7-.9.7"/><path d="m836.8 835.1c2.3 0 3.9.3 5 1 1.1.7 1.6 1.7 1.6 3.1 0 1.3-.6 2.4-1.7 3.1-1.1.7-2.8 1-5 1-2.2 0-3.9-.3-5-1-1.1-.7-1.6-1.7-1.6-3.1 0-1.4.6-2.4 1.7-3.1 1.2-.7 2.8-1 5-1m0 7.3c2 0 3.5-.3 4.4-.8.9-.5 1.4-1.3 1.4-2.4 0-1.1-.5-1.9-1.5-2.4-1-.5-2.4-.8-4.4-.8-1.9 0-3.3.3-4.3.8-1 .5-1.5 1.3-1.5 2.4 0 1.1.5 1.9 1.5 2.4 1 .5 2.5.8 4.4.8"/><path d="m843.2 828.1v.9h-9.4c-.8 0-1.7 0-2.6-.1.1.1.2.2.3.3.1.1.8 1 2.1 2.7l-.6.5-2.6-3.5v-.8h12.8"/><path d="m830.1 818.7c0-1.1.3-2 .8-2.6.6-.7 1.3-1 2.3-1 .7 0 1.2.2 1.7.6.5.4 1 1.1 1.4 2 .5-1.1 1-1.9 1.5-2.4.5-.5 1.2-.7 2-.7 1.1 0 1.9.4 2.5 1.1.6.7.9 1.7.9 3 0 1.3-.3 2.3-.9 3-.6.7-1.5 1-2.6 1-.8 0-1.4-.2-2-.7-.6-.5-1.1-1.2-1.5-2.3-.4.9-.9 1.6-1.4 2-.5.4-1.1.6-1.8.6-.6 0-1.2-.2-1.6-.5-.5-.3-.8-.7-1.1-1.3 0-.5-.2-1.1-.2-1.8m.8 0c0 .8.2 1.5.6 2 .4.5 1 .8 1.7.8.4 0 .8-.1 1.1-.3.3-.2.6-.5.9-.8.3-.3.6-.9.9-1.8-.4-1-.8-1.6-1.2-2.1-.4-.5-1-.6-1.6-.6-.7 0-1.3.2-1.7.7-.4.5-.7 1.2-.7 2.1m9.2 3.1c.8 0 1.4-.3 1.9-.8.5-.5.7-1.3.7-2.3 0-1-.2-1.7-.7-2.3-.5-.6-1.1-.9-1.9-.9-.7 0-1.3.2-1.8.7-.5.5-.9 1.3-1.4 2.7.4 1.1.9 1.8 1.4 2.3.5.5 1 .6 1.8.6"/><path d="m833.5 807.9c0-1.3.4-2.3 1.3-3 .8-.7 2.1-1 3.7-1 1.6 0 2.8.4 3.7 1.1.9.7 1.3 1.7 1.3 3 0 .7-.1 1.3-.4 1.8-.3.5-.7 1-1.2 1.3v.1l1.4.2v.5h-13.7v-.9h5.5v-.1c-.6-.4-1-.8-1.3-1.3-.3-.5-.3-1-.3-1.7m.8 0c0 1.1.3 1.9 1 2.4.7.5 1.7.7 3.2.7h.1c1.4 0 2.5-.3 3.1-.8.6-.5.9-1.3.9-2.4 0-1-.4-1.8-1.1-2.4-.7-.5-1.8-.8-3.1-.8-2.8.2-4.1 1.2-4.1 3.3"/><path d="m959.4 878.9v7h-12.8v-7h.8v6.1h4.9v-5.8h.8v5.8h5.5v-6.1h.8"/><path d="m958.7 876.4c-.6 0-.9-.2-.9-.7 0-.5.3-.7.9-.7.6 0 .9.2.9.7 0 .5-.3.7-.9.7"/><path d="m959.4 862.4v.9h-6.3v7.5h6.3v.9h-12.8v-.9h5.7v-7.5h-5.7v-.9h12.8"/><path d="m953 853.7v-4.7h5.9c.5 1.2.8 2.6.8 4.2 0 2-.6 3.6-1.7 4.7-1.1 1.1-2.8 1.6-4.9 1.6-1.3 0-2.5-.3-3.5-.8-1-.5-1.8-1.3-2.3-2.3-.5-1-.8-2.1-.8-3.4 0-1.4.3-2.7.8-3.8l.8.4c-.5 1.1-.8 2.3-.8 3.5 0 1.7.5 3 1.6 4 1 1 2.5 1.5 4.2 1.5 1.9 0 3.4-.5 4.4-1.4 1-.9 1.5-2.3 1.5-4.2 0-1.2-.2-2.2-.5-3h-4.5v3.8h-1v-.1"/><path d="m958.7 846.2c-.6 0-.9-.2-.9-.7 0-.5.3-.7.9-.7.6 0 .9.2.9.7 0 .4-.3.7-.9.7"/><path d="m953 834c2.3 0 3.9.3 5 1 1.1.7 1.6 1.7 1.6 3.1 0 1.3-.6 2.4-1.7 3.1-1.1.7-2.8 1-5 1-2.2 0-3.9-.3-5-1-1.1-.7-1.6-1.7-1.6-3.1 0-1.4.6-2.4 1.7-3.1 1.2-.6 2.8-1 5-1m0 7.3c2 0 3.5-.3 4.4-.8.9-.5 1.4-1.3 1.4-2.4 0-1.1-.5-1.9-1.5-2.4-1-.5-2.4-.8-4.4-.8-1.9 0-3.3.3-4.3.8-1 .5-1.5 1.3-1.5 2.4 0 1.1.5 1.9 1.5 2.4 1 .5 2.5.8 4.4.8"/><path d="m959.4 827v.9h-9.4c-.8 0-1.7 0-2.6-.1.1.1.2.2.3.3.1.1.8 1 2.1 2.7l-.6.5-2.6-3.5v-.8h12.8"/><path d="m952 813.7c1.7 0 3.1.2 4.2.7 1.1.5 2 1.1 2.5 1.9.5.8.8 1.9.8 3.1 0 .6-.1 1.2-.2 1.7h-.8c.1-.3.1-.6.2-.9 0-.4.1-.6.1-.8 0-1.4-.5-2.6-1.6-3.4-1-.8-2.6-1.3-4.6-1.4v.1c.6.4 1 .9 1.3 1.5.3.6.5 1.2.5 1.9 0 1.2-.3 2.1-1 2.8-.7.7-1.6 1-2.8 1-1.3 0-2.3-.4-3.1-1.1-.8-.7-1.2-1.7-1.2-2.8 0-.8.2-1.6.7-2.2.4-.6 1.1-1.1 1.9-1.5.9-.5 2-.6 3.1-.6m-4.8 4.1c0 .9.3 1.7.9 2.2.6.6 1.5.8 2.6.8 1 0 1.8-.3 2.3-.8.5-.5.8-1.2.8-2.2 0-.6-.1-1.1-.4-1.7-.3-.5-.6-.9-1.1-1.2-.4-.3-.9-.5-1.3-.5-.7 0-1.3.1-1.9.4-.6.3-1.1.7-1.4 1.1-.4.7-.5 1.3-.5 1.9"/><path d="m371.2 690.8h-7l-2.4 6h-1.3l6.9-17.2h.8l6.8 17.2h-1.3l-2.5-6m-6.6-1.1h6.1l-2.3-6.2c-.2-.5-.4-1.2-.7-2-.2.8-.4 1.4-.7 2l-2.4 6.2"/><path d="m378 684.1v8.2c0 1.3.3 2.2.8 2.8.5.6 1.4.9 2.5.9 1.5 0 2.6-.4 3.3-1.1.7-.7 1.1-2 1.1-3.7v-7h1.1v12.7h-1l-.2-1.8h-.1c-.8 1.3-2.3 2-4.4 2-2.9 0-4.3-1.6-4.3-4.7v-8.3h1.2"/><path d="m391.2 678.7h1.2v18.2h-1.2z"/><path d="m404.4 696.9l-.3-2h-.1c-.6.8-1.3 1.4-2 1.7-.7.3-1.5.5-2.4.5-1.2 0-2.2-.3-2.9-1-.7-.7-1-1.5-1-2.7 0-1.2.5-2.2 1.6-2.9 1.1-.7 2.5-1.1 4.5-1.1l2.4-.1v-.8c0-1.2-.2-2.1-.7-2.7-.5-.6-1.3-.9-2.4-.9-1.2 0-2.4.3-3.7 1l-.4-1c1.4-.7 2.8-1 4.1-1 1.4 0 2.4.4 3.1 1.1.7.7 1 1.9 1 3.4v8.5h-.8m-4.7-.8c1.4 0 2.4-.4 3.2-1.2.8-.8 1.2-1.9 1.2-3.2v-1.3l-2.2.1c-1.8.1-3.1.4-3.8.8-.7.4-1.1 1.2-1.1 2.2 0 .8.2 1.4.7 1.9.5.5 1.1.7 2 .7"/><path d="m369.2 440.2v-12.8h.9v12h6.1v.8h-7"/><path d="m378.1 428c0-.6.2-.8.6-.8.2 0 .3.1.4.2.1.1.2.4.2.6 0 .3-.1.5-.2.6-.1.1-.2.2-.4.2-.4.1-.6-.2-.6-.8m1 12.2h-.9v-9.6h.9v9.6"/><path d="m385.9 431.4h-2.2v8.8h-.9v-8.8h-1.8v-.5l1.8-.3v-.7c0-1.2.2-2 .6-2.6.4-.6 1.1-.8 2.1-.8.5 0 1.1.1 1.6.2l-.2.8c-.5-.1-.9-.2-1.4-.2-.7 0-1.2.2-1.4.6-.2.4-.4 1.1-.4 2v.9h2.2v.6"/><path d="m390.3 439.6c.6 0 1 0 1.4-.1v.7c-.4.1-.9.2-1.5.2-.8 0-1.5-.2-1.9-.7-.4-.5-.6-1.2-.6-2.1v-6.2h-1.4v-.5l1.4-.4.4-2.2h.4v2.3h2.8v.8h-2.8v6c0 .7.1 1.3.4 1.6.3.3.9.6 1.4.6"/><path d="m895.7 600h-7v-12.8h7v.8h-6.1v4.9h5.8v.8h-5.8v5.5h6.1v.8"/><path d="m898.2 599.3c0-.6.2-.9.7-.9.5 0 .7.3.7.9 0 .6-.2.9-.7.9-.4 0-.7-.3-.7-.9"/><path d="m912.2 600h-.9v-6.3h-7.5v6.3h-.9v-12.8h.9v5.7h7.5v-5.7h.9v12.8"/><path d="m920.9 593.5h4.7v5.9c-1.2.5-2.6.8-4.2.8-2 0-3.6-.6-4.7-1.7-1.1-1.1-1.6-2.8-1.6-4.9 0-1.3.3-2.5.8-3.5.5-1 1.3-1.8 2.3-2.3 1-.5 2.1-.8 3.4-.8 1.4 0 2.7.3 3.8.8l-.4.8c-1.1-.5-2.3-.8-3.5-.8-1.7 0-3 .5-4 1.6-1 1-1.5 2.5-1.5 4.2 0 1.9.5 3.4 1.4 4.4.9 1 2.3 1.5 4.2 1.5 1.2 0 2.2-.2 3-.5v-4.5h-3.8v-1h.1"/><path d="m928.5 599.3c0-.6.2-.9.7-.9.5 0 .7.3.7.9 0 .6-.2.9-.7.9-.5 0-.7-.3-.7-.9"/><path d="m940.6 593.5c0 2.3-.3 3.9-1 5-.7 1.1-1.7 1.6-3.1 1.6-1.3 0-2.4-.6-3.1-1.7-.7-1.1-1-2.8-1-5 0-2.2.3-3.9 1-5 .7-1.1 1.7-1.6 3.1-1.6 1.4 0 2.4.6 3.1 1.7.7 1.1 1 2.9 1 5m-7.3 0c0 2 .3 3.5.8 4.4.5.9 1.3 1.4 2.4 1.4 1.1 0 1.9-.5 2.4-1.5.5-1 .8-2.4.8-4.4 0-1.9-.3-3.3-.8-4.3-.5-1-1.3-1.5-2.4-1.5-1.1 0-1.9.5-2.4 1.5-.5 1-.8 2.5-.8 4.4"/><path d="m947.6 600h-.9v-9.4c0-.8 0-1.7.1-2.6-.1.1-.2.2-.3.3-.1.1-1 .8-2.7 2.1l-.5-.6 3.5-2.6h.8v12.8"/><path d="m960.9 600h-8v-.8l3.4-3.6c1-1 1.6-1.8 2-2.3.4-.5.7-1 .9-1.5.2-.5.3-1 .3-1.5 0-.8-.3-1.4-.8-1.9-.5-.5-1.2-.7-2-.7-1.1 0-2.1.4-3.1 1.2l-.5-.6c1.1-.9 2.3-1.4 3.6-1.4 1.1 0 2 .3 2.6.9.6.6 1 1.4 1 2.5 0 .8-.2 1.7-.6 2.5-.4.8-1.2 1.8-2.4 2.9l-3.3 3.4h6.9v.9"/><path d="m1085.3 553.4l-6.4-15.8h-.1c.1 1 .1 2 .1 3v12.8h-1.1v-17.1h1.9l6.1 15.1h.1l6.1-15.1h1.8v17.1h-1.2v-13c0-.9 0-1.8.1-2.8h-.1l-6.4 15.8h-.9"/><path d="m1103.4 553.7c-1.9 0-3.3-.6-4.3-1.7-1-1.1-1.6-2.7-1.6-4.8 0-2 .5-3.7 1.5-4.9 1-1.2 2.3-1.8 4-1.8 1.5 0 2.7.5 3.6 1.6.9 1.1 1.3 2.5 1.3 4.3v.9h-9.2c0 1.8.4 3.1 1.2 4 .8.9 1.9 1.4 3.4 1.4.7 0 1.4-.1 1.9-.2.5-.1 1.2-.3 2.1-.7v1.1c-.7.3-1.4.5-2 .6-.6.1-1.2.2-1.9.2m-.4-12.2c-1.2 0-2.2.4-3 1.2-.8.8-1.2 2-1.3 3.5h7.9c0-1.5-.3-2.6-1-3.5-.7-.9-1.4-1.2-2.6-1.2"/><path d="m1120.3 553.4v-8.3c0-1.3-.3-2.2-.8-2.8-.5-.6-1.4-.9-2.5-.9-1.5 0-2.6.4-3.3 1.2-.7.8-1.1 2-1.1 3.7v7h-1.2v-12.7h1l.2 1.7h.1c.8-1.3 2.3-2 4.4-2 2.9 0 4.3 1.6 4.3 4.7v8.3h-1.1v.1"/><path d="m1133.4 550.1c0 1.1-.4 2-1.3 2.6-.9.6-2.1.9-3.7.9-1.7 0-3.1-.3-4.1-.8v-1.3c1.3.6 2.6 1 4.1 1 1.3 0 2.2-.2 2.9-.6.7-.4 1-1 1-1.7 0-.6-.3-1.2-.8-1.6-.5-.4-1.4-.9-2.6-1.3-1.3-.5-2.2-.9-2.7-1.2-.5-.3-.9-.7-1.2-1.1-.3-.4-.4-.9-.4-1.5 0-1 .4-1.7 1.2-2.3.8-.6 1.9-.8 3.4-.8 1.4 0 2.7.3 3.9.8l-.4 1.1c-1.2-.5-2.4-.8-3.5-.8-1 0-1.9.2-2.5.5-.6.3-.9.8-.9 1.4 0 .7.2 1.2.7 1.6.5.4 1.4.8 2.8 1.3 1.1.4 2 .8 2.5 1.1.5.3.9.7 1.2 1.1.3.4.4 1.1.4 1.6"/><path d="m1144.5 553.4l-.3-2h-.1c-.6.8-1.3 1.4-2 1.7-.7.3-1.5.5-2.4.5-1.2 0-2.2-.3-2.9-1-.7-.7-1-1.5-1-2.7 0-1.2.5-2.2 1.6-2.9 1.1-.7 2.5-1.1 4.5-1.1l2.4-.1v-.8c0-1.2-.2-2.1-.7-2.7-.5-.6-1.3-.9-2.4-.9-1.2 0-2.4.3-3.7 1l-.4-1c1.4-.7 2.8-1 4.1-1 1.4 0 2.4.4 3.1 1.1.7.7 1 1.9 1 3.4v8.5h-.8m-4.7-.8c1.4 0 2.4-.4 3.2-1.2.8-.8 1.2-1.9 1.2-3.2v-1.2l-2.2.1c-1.8.1-3.1.4-3.8.8-.7.4-1.1 1.2-1.1 2.2 0 .8.2 1.4.7 1.9.5.5 1.1.6 2 .6"/><path d="m633 205.2h-7v-12.8h7v.8h-6.1v4.9h5.8v.8h-5.8v5.5h6.1v.8"/><path d="m635.5 204.5c0-.6.2-.9.7-.9.5 0 .7.3.7.9 0 .6-.2.9-.7.9-.5 0-.7-.3-.7-.9"/><path d="m649.5 205.2h-.9v-6.3h-7.6v6.3h-.9v-12.8h.9v5.7h7.5v-5.7h.9v12.8h.1"/><path d="m658.2 198.8h4.7v5.9c-1.2.5-2.6.8-4.2.8-2 0-3.6-.6-4.7-1.7-1.1-1.1-1.6-2.8-1.6-4.9 0-1.3.3-2.5.8-3.5.5-1 1.3-1.8 2.3-2.3 1-.5 2.1-.8 3.4-.8 1.4 0 2.7.3 3.8.8l-.4.8c-1.1-.5-2.3-.8-3.5-.8-1.7 0-3 .5-4 1.6-1 1.1-1.5 2.5-1.5 4.2 0 1.9.5 3.4 1.4 4.4.9 1 2.3 1.5 4.2 1.5 1.2 0 2.2-.2 3-.5v-4.5h-3.8v-1h.1"/><path d="m665.7 204.5c0-.6.2-.9.7-.9.5 0 .7.3.7.9 0 .6-.2.9-.7.9-.4 0-.7-.3-.7-.9"/><path d="m677.8 198.8c0 2.3-.3 3.9-1 5-.7 1.1-1.7 1.6-3.1 1.6-1.3 0-2.4-.6-3.1-1.7-.7-1.1-1-2.8-1-5 0-2.2.3-3.9 1-5 .7-1.1 1.7-1.6 3.1-1.6 1.4 0 2.4.6 3.1 1.7.7 1.1 1 2.8 1 5m-7.3 0c0 2 .3 3.5.8 4.4.5.9 1.3 1.4 2.4 1.4 1.1 0 1.9-.5 2.4-1.5.5-1 .8-2.4.8-4.4 0-1.9-.3-3.3-.8-4.3-.5-1-1.3-1.5-2.4-1.5-1.1 0-1.9.5-2.4 1.5-.5 1-.8 2.5-.8 4.4"/><path d="m688.1 198.8c0 2.3-.3 3.9-1 5-.7 1.1-1.7 1.6-3.1 1.6-1.3 0-2.4-.6-3.1-1.7-.7-1.1-1-2.8-1-5 0-2.2.3-3.9 1-5 .7-1.1 1.7-1.6 3.1-1.6 1.4 0 2.4.6 3.1 1.7.7 1.1 1 2.8 1 5m-7.3 0c0 2 .3 3.5.8 4.4.5.9 1.3 1.4 2.4 1.4 1.1 0 1.9-.5 2.4-1.5.5-1 .8-2.4.8-4.4 0-1.9-.3-3.3-.8-4.3-.5-1-1.3-1.5-2.4-1.5-1.1 0-1.9.5-2.4 1.5-.5 1-.8 2.5-.8 4.4"/><path d="m693.8 197.5c1.4 0 2.5.3 3.2 1 .7.7 1.2 1.6 1.2 2.7 0 1.3-.4 2.3-1.2 3.1-.8.8-2 1.1-3.4 1.1-.6 0-1.2-.1-1.8-.2-.6-.1-1.1-.3-1.4-.5v-.9c.6.3 1.2.5 1.7.7.5.2 1 .2 1.6.2 1.1 0 2-.3 2.7-.9.7-.6 1-1.4 1-2.4 0-1-.3-1.7-1-2.2-.7-.5-1.6-.8-2.7-.8-.8 0-1.6.1-2.4.3l-.5-.3.5-5.9h6.2v.8h-5.4l-.4 4.5c.9-.2 1.6-.3 2.1-.3"/><path d="m666.4 388.4v7h-12.8v-7h.8v6.1h4.9v-5.8h.8v5.8h5.5v-6.1h.8"/><path d="m665.8 385.9c-.6 0-.9-.2-.9-.7 0-.5.3-.7.9-.7.6 0 .9.2.9.7-.1.5-.4.7-.9.7"/><path d="m666.4 371.9v.9h-6.3v7.5h6.3v.9h-12.8v-.9h5.7v-7.5h-5.7v-.9h12.8"/><path d="m660 363.2v-4.7h5.9c.5 1.2.8 2.6.8 4.2 0 2-.6 3.6-1.7 4.7-1.1 1.1-2.8 1.6-4.9 1.6-1.3 0-2.5-.3-3.5-.8-1-.5-1.8-1.3-2.3-2.3-.5-1-.8-2.1-.8-3.4 0-1.4.3-2.7.8-3.8l.8.4c-.5 1.1-.8 2.3-.8 3.5 0 1.7.5 3 1.6 4 1.1 1 2.5 1.5 4.2 1.5 1.9 0 3.4-.5 4.4-1.4 1-.9 1.5-2.3 1.5-4.2 0-1.2-.2-2.2-.5-3h-4.5v3.8h-1v-.1"/><path d="m665.8 355.7c-.6 0-.9-.2-.9-.7 0-.5.3-.7.9-.7.6 0 .9.2.9.7-.1.4-.4.7-.9.7"/><path d="m666.4 347.3v.9h-9.4c-.8 0-1.7 0-2.6-.1.1.1.2.2.3.3.1.1.8 1 2.1 2.7l-.6.5-2.6-3.5v-.8h12.8"/><path d="m658.7 338.3c0-1.4.3-2.5 1-3.2.7-.7 1.6-1.2 2.7-1.2 1.3 0 2.3.4 3.1 1.2.8.8 1.1 2 1.1 3.4 0 .6-.1 1.2-.2 1.8-.1.6-.3 1.1-.5 1.4h-.9c.3-.6.5-1.2.7-1.7.2-.5.2-1 .2-1.6 0-1.1-.3-2-.9-2.7-.6-.7-1.4-1-2.4-1-1 0-1.7.3-2.2 1-.5.7-.8 1.6-.8 2.7 0 .8.1 1.6.3 2.4l-.3.5-5.9-.5v-6.2h.8v5.4l4.5.4c-.2-.9-.3-1.6-.3-2.1"/><path d="m666.4 325.3l-1.5.2v.1c.6.5 1 1 1.3 1.5.3.5.4 1.1.4 1.8 0 .9-.2 1.7-.7 2.2-.5.5-1.1.8-2 .8-.9 0-1.7-.4-2.2-1.2-.5-.8-.8-1.9-.8-3.4l-.1-1.8h-.6c-.9 0-1.6.2-2.1.6-.5.4-.7 1-.7 1.8 0 .9.2 1.8.7 2.8l-.8.3c-.5-1-.7-2.1-.7-3.1 0-1 .3-1.8.8-2.4.5-.6 1.4-.8 2.5-.8h6.4v.6h.1m-.6 3.5c0-1-.3-1.8-.9-2.4-.6-.6-1.4-.9-2.4-.9h-.9l.1 1.7c.1 1.3.3 2.3.6 2.9.3.6.9.9 1.7.9.6 0 1.1-.2 1.4-.5.3-.3.4-1 .4-1.7"/><path d="m572 389v7h-12.8v-7h.8v6.1h4.9v-5.8h.8v5.8h5.5v-6.1h.8"/><path d="m571.4 386.5c-.6 0-.9-.2-.9-.7 0-.5.3-.7.9-.7.6 0 .9.2.9.7-.1.5-.4.7-.9.7"/><path d="m572 372.5v.9h-6.3v7.5h6.3v.9h-12.8v-.9h5.7v-7.5h-5.7v-.9h12.8"/><path d="m565.6 363.8v-4.7h5.9c.5 1.2.8 2.6.8 4.2 0 2-.6 3.6-1.7 4.7-1.1 1.1-2.8 1.6-4.9 1.6-1.3 0-2.5-.3-3.5-.8-1-.5-1.8-1.3-2.3-2.3-.5-1-.8-2.1-.8-3.4 0-1.4.3-2.7.8-3.8l.8.4c-.5 1.1-.8 2.3-.8 3.5 0 1.7.5 3 1.6 4 1.1 1 2.5 1.5 4.2 1.5 1.9 0 3.4-.5 4.4-1.4 1-.9 1.5-2.3 1.5-4.2 0-1.2-.2-2.2-.5-3h-4.5v3.8h-1v-.1"/><path d="m571.4 356.3c-.6 0-.9-.2-.9-.7 0-.5.3-.7.9-.7.6 0 .9.2.9.7-.1.4-.4.7-.9.7"/><path d="m572 347.9v.9h-9.4c-.8 0-1.7 0-2.6-.1.1.1.2.2.3.3.1.1.8 1 2.1 2.7l-.6.5-2.6-3.5v-.8h12.8"/><path d="m564.3 338.9c0-1.4.3-2.5 1-3.2.7-.7 1.6-1.2 2.7-1.2 1.3 0 2.3.4 3.1 1.2.8.8 1.1 2 1.1 3.4 0 .6-.1 1.2-.2 1.8-.1.6-.3 1.1-.5 1.4h-.9c.3-.6.5-1.2.7-1.7.2-.5.2-1 .2-1.6 0-1.1-.3-2-.9-2.7-.6-.7-1.4-1-2.4-1-1 0-1.7.3-2.2 1-.5.7-.8 1.6-.8 2.7 0 .8.1 1.6.3 2.4l-.3.5-5.9-.5v-6.2h.8v5.4l4.5.4c-.2-.9-.3-1.6-.3-2.1"/><path d="m562.3 327.7c0-1.3.4-2.3 1.3-3 .9-.7 2.1-1 3.7-1 1.6 0 2.8.4 3.7 1.1.9.7 1.3 1.7 1.3 3 0 .7-.1 1.3-.4 1.8-.3.5-.7 1-1.2 1.3v.1l1.4.2v.5h-13.7v-.9h5.5v-.1c-.6-.4-1-.8-1.3-1.3-.3-.5-.3-1-.3-1.7m.8 0c0 1.1.3 1.9 1 2.4.7.5 1.7.7 3.2.7h.1c1.4 0 2.5-.3 3.1-.8.6-.5.9-1.3.9-2.4 0-1-.4-1.8-1.1-2.4-.7-.6-1.8-.8-3.1-.8-2.7.2-4.1 1.2-4.1 3.3"/><path d="m730.1 365.5h-.7l-2.8-9.9c-.2-.8-.4-1.5-.5-2-.1.5-.2 1.1-.4 1.8-.2.7-1.1 4-2.8 10.2h-.8l-3.5-12.8h.9l2.2 8.3c.1.3.2.6.2.9 0 .3.1.6.2.8.1.2.1.5.2.7.1.2.1.5.1.7.1-.8.4-2 .9-3.6l2.2-7.8h1l2.6 8.9c.3 1 .5 1.9.6 2.5.1-.4.2-.9.3-1.3.1-.4 1-3.8 2.7-10.1h.9l-3.5 12.7"/><path d="m741.1 353.3c-1.6 0-2.9.5-3.8 1.5-.9 1-1.4 2.4-1.4 4.2 0 1.8.4 3.3 1.3 4.3.9 1 2.1 1.5 3.7 1.5 1.1 0 2.1-.1 3-.4v.8c-.8.3-1.9.4-3.2.4-1.8 0-3.2-.6-4.3-1.7-1.1-1.1-1.6-2.8-1.6-4.9 0-1.3.2-2.5.7-3.5.5-1 1.2-1.8 2.1-2.3.9-.5 2-.8 3.2-.8 1.3 0 2.4.2 3.4.7l-.2.9c-.9-.5-1.9-.7-2.9-.7"/><path d="m779.1 365.5h-.7l-2.8-9.9c-.2-.8-.4-1.5-.5-2-.1.5-.2 1.1-.4 1.8-.2.7-1.1 4-2.8 10.2h-.8l-3.5-12.8h.9l2.2 8.3c.1.3.2.6.2.9 0 .3.1.6.2.8.1.2.1.5.2.7.1.2.1.5.1.7.1-.8.4-2 .9-3.6l2.2-7.8h1l2.6 8.9c.3 1 .5 1.9.6 2.5.1-.4.2-.9.3-1.3.1-.4 1-3.8 2.7-10.1h.9l-3.5 12.7"/><path d="m790.1 353.3c-1.6 0-2.9.5-3.8 1.5-.9 1-1.4 2.4-1.4 4.2 0 1.8.4 3.3 1.3 4.3.9 1 2.1 1.5 3.7 1.5 1.1 0 2.1-.1 3-.4v.8c-.8.3-1.9.4-3.2.4-1.8 0-3.2-.6-4.3-1.7-1.1-1.1-1.6-2.8-1.6-4.9 0-1.3.2-2.5.7-3.5.5-1 1.2-1.8 2.1-2.3.9-.5 2-.8 3.2-.8 1.3 0 2.4.2 3.4.7l-.2.9c-.9-.5-1.9-.7-2.9-.7"/><path d="m872.1 1001.3h-7v-12.8h7v.8h-6.1v4.9h5.8v.8h-5.8v5.5h6.1v.8"/><path d="m874.7 1000.6c0-.6.2-.9.7-.9.5 0 .7.3.7.9 0 .6-.2.9-.7.9-.5 0-.7-.3-.7-.9"/><path d="m888.6 1001.3h-.9v-6.3h-7.5v6.3h-.9v-12.8h.9v5.7h7.5v-5.7h.9v12.8"/><path d="m897.3 994.8h4.7v5.9c-1.2.5-2.6.8-4.2.8-2 0-3.6-.6-4.7-1.7-1.1-1.1-1.6-2.8-1.6-4.9 0-1.3.3-2.5.8-3.5.5-1 1.3-1.8 2.3-2.3 1-.6 2.1-.8 3.4-.8 1.4 0 2.7.3 3.8.8l-.4.8c-1.1-.5-2.3-.8-3.5-.8-1.7 0-3 .5-4 1.6-1 1-1.5 2.5-1.5 4.2 0 1.9.5 3.4 1.4 4.4.9 1 2.3 1.5 4.2 1.5 1.2 0 2.2-.2 3-.5v-4.5h-3.8v-1h.1"/><path d="m904.9 1000.6c0-.6.2-.9.7-.9.5 0 .7.3.7.9 0 .6-.2.9-.7.9-.5 0-.7-.3-.7-.9"/><path d="m917 994.8c0 2.3-.3 3.9-1 5-.7 1.1-1.7 1.6-3.1 1.6-1.3 0-2.4-.6-3.1-1.7-.7-1.1-1-2.8-1-5 0-2.2.3-3.9 1-5 .7-1.1 1.7-1.6 3.1-1.6 1.4 0 2.4.6 3.1 1.7.7 1.2 1 2.9 1 5m-7.3 0c0 2 .3 3.5.8 4.4.5.9 1.3 1.4 2.4 1.4 1.1 0 1.9-.5 2.4-1.5.5-1 .8-2.4.8-4.4 0-1.9-.3-3.3-.8-4.3-.5-1-1.3-1.5-2.4-1.5-1.1 0-1.9.5-2.4 1.5-.5 1-.8 2.5-.8 4.4"/><path d="m927.1 1001.3h-8v-.8l3.4-3.6c1-1 1.6-1.8 2-2.3.4-.5.7-1 .9-1.5.2-.5.3-1 .3-1.5 0-.8-.3-1.4-.8-1.9-.5-.5-1.2-.7-2-.7-1.1 0-2.1.4-3.1 1.2l-.5-.6c1.1-.9 2.3-1.4 3.6-1.4 1.1 0 2 .3 2.6.9.6.6 1 1.4 1 2.5 0 .8-.2 1.7-.6 2.5-.4.8-1.2 1.8-2.4 2.9l-3.3 3.4h6.9v.9"/><path d="m937.6 994.8c0 2.3-.3 3.9-1 5-.7 1.1-1.7 1.6-3.1 1.6-1.3 0-2.4-.6-3.1-1.7-.7-1.1-1-2.8-1-5 0-2.2.3-3.9 1-5 .7-1.1 1.7-1.6 3.1-1.6 1.4 0 2.4.6 3.1 1.7.6 1.2 1 2.9 1 5m-7.3 0c0 2 .3 3.5.8 4.4.5.9 1.3 1.4 2.4 1.4 1.1 0 1.9-.5 2.4-1.5.5-1 .8-2.4.8-4.4 0-1.9-.3-3.3-.8-4.3-.5-1-1.3-1.5-2.4-1.5-1.1 0-1.9.5-2.4 1.5-.5 1-.8 2.5-.8 4.4"/><path d="m726.9 1001.3h-7v-12.8h7v.8h-6.1v4.9h5.8v.8h-5.8v5.5h6.1v.8"/><path d="m729.4 1000.6c0-.6.2-.9.7-.9.5 0 .7.3.7.9 0 .6-.2.9-.7.9-.4 0-.7-.3-.7-.9"/><path d="m743.4 1001.3h-.9v-6.3h-7.5v6.3h-.9v-12.8h.9v5.7h7.5v-5.7h.9v12.8"/><path d="m752.1 994.8h4.7v5.9c-1.2.5-2.6.8-4.2.8-2 0-3.6-.6-4.7-1.7-1.1-1.1-1.6-2.8-1.6-4.9 0-1.3.3-2.5.8-3.5.5-1 1.3-1.8 2.3-2.3 1-.6 2.1-.8 3.4-.8 1.4 0 2.7.3 3.8.8l-.4.8c-1.1-.5-2.3-.8-3.5-.8-1.7 0-3 .5-4 1.6-1 1-1.5 2.5-1.5 4.2 0 1.9.5 3.4 1.4 4.4.9 1 2.3 1.5 4.2 1.5 1.2 0 2.2-.2 3-.5v-4.5h-3.8v-1h.1"/><path d="m759.7 1000.6c0-.6.2-.9.7-.9.5 0 .7.3.7.9 0 .6-.2.9-.7.9-.5 0-.7-.3-.7-.9"/><path d="m771.8 994.8c0 2.3-.3 3.9-1 5-.7 1.1-1.7 1.6-3.1 1.6-1.3 0-2.4-.6-3.1-1.7-.7-1.1-1-2.8-1-5 0-2.2.3-3.9 1-5 .7-1.1 1.7-1.6 3.1-1.6 1.4 0 2.4.6 3.1 1.7.7 1.2 1 2.9 1 5m-7.3 0c0 2 .3 3.5.8 4.4.5.9 1.3 1.4 2.4 1.4 1.1 0 1.9-.5 2.4-1.5.5-1 .8-2.4.8-4.4 0-1.9-.3-3.3-.8-4.3-.5-1-1.3-1.5-2.4-1.5-1.1 0-1.9.5-2.4 1.5-.5 1-.8 2.5-.8 4.4"/><path d="m781.9 1001.3h-8v-.8l3.4-3.6c1-1 1.6-1.8 2-2.3.4-.5.7-1 .9-1.5.2-.5.3-1 .3-1.5 0-.8-.3-1.4-.8-1.9-.5-.5-1.2-.7-2-.7-1.1 0-2.1.4-3.1 1.2l-.5-.6c1.1-.9 2.3-1.4 3.6-1.4 1.1 0 2 .3 2.6.9.6.6 1 1.4 1 2.5 0 .8-.2 1.7-.6 2.5-.4.8-1.2 1.8-2.4 2.9l-3.3 3.4h6.9v.9"/><path d="m789.1 1001.3h-.9v-9.4c0-.8 0-1.7.1-2.6-.1.1-.2.2-.3.3-.1.1-1 .8-2.7 2.1l-.5-.6 3.5-2.6h.8v12.8"/><path d="m616 1001.3h-7v-12.8h7v.8h-6.1v4.9h5.8v.8h-5.8v5.5h6.1v.8"/><path d="m618.5 1000.6c0-.6.2-.9.7-.9.5 0 .7.3.7.9 0 .6-.2.9-.7.9-.5 0-.7-.3-.7-.9"/><path d="m632.5 1001.3h-.9v-6.3h-7.5v6.3h-.9v-12.8h.9v5.7h7.5v-5.7h.9v12.8"/><path d="m641.2 994.8h4.7v5.9c-1.2.5-2.6.8-4.2.8-2 0-3.6-.6-4.7-1.7-1.1-1.1-1.6-2.8-1.6-4.9 0-1.3.3-2.5.8-3.5.5-1 1.3-1.8 2.3-2.3 1-.5 2.1-.8 3.4-.8 1.4 0 2.7.3 3.8.8l-.4.8c-1.1-.5-2.3-.8-3.5-.8-1.7 0-3 .5-4 1.6-1 1-1.5 2.5-1.5 4.2 0 1.9.5 3.4 1.4 4.4.9 1 2.3 1.5 4.2 1.5 1.2 0 2.2-.2 3-.5v-4.5h-3.8v-1h.1"/><path d="m648.7 1000.6c0-.6.2-.9.7-.9.5 0 .7.3.7.9 0 .6-.2.9-.7.9-.4 0-.7-.3-.7-.9"/><path d="m660.9 994.8c0 2.3-.3 3.9-1 5-.7 1.1-1.7 1.6-3.1 1.6-1.3 0-2.4-.6-3.1-1.7-.7-1.1-1-2.8-1-5 0-2.2.3-3.9 1-5 .7-1.1 1.7-1.6 3.1-1.6 1.4 0 2.4.6 3.1 1.7.6 1.2 1 2.9 1 5m-7.3 0c0 2 .3 3.5.8 4.4.5.9 1.3 1.4 2.4 1.4 1.1 0 1.9-.5 2.4-1.5.5-1 .8-2.4.8-4.4 0-1.9-.3-3.3-.8-4.3-.5-1-1.3-1.5-2.4-1.5-1.1 0-1.9.5-2.4 1.5-.5 1-.8 2.5-.8 4.4"/><path d="m670.9 1001.3h-8v-.8l3.4-3.6c1-1 1.6-1.8 2-2.3.4-.5.7-1 .9-1.5.2-.5.3-1 .3-1.5 0-.8-.3-1.4-.8-1.9-.5-.5-1.2-.7-2-.7-1.1 0-2.1.4-3.1 1.2l-.5-.6c1.1-.9 2.3-1.4 3.6-1.4 1.1 0 2 .3 2.6.9.6.6 1 1.4 1 2.5 0 .8-.2 1.7-.6 2.5-.4.8-1.2 1.8-2.4 2.9l-3.3 3.4h6.9v.9"/><path d="m681.2 1001.3h-8v-.8l3.4-3.6c1-1 1.6-1.8 2-2.3.4-.5.7-1 .9-1.5.2-.5.3-1 .3-1.5 0-.8-.3-1.4-.8-1.9-.5-.5-1.2-.7-2-.7-1.1 0-2.1.4-3.1 1.2l-.5-.6c1.1-.9 2.3-1.4 3.6-1.4 1.1 0 2 .3 2.6.9.6.6 1 1.4 1 2.5 0 .8-.2 1.7-.6 2.5-.4.8-1.2 1.8-2.4 2.9l-3.3 3.4h6.9v.9"/><path d="m486.6 1001.3h-7v-12.8h7v.8h-6.1v4.9h5.8v.8h-5.8v5.5h6.1v.8"/><path d="m489.2 1000.6c0-.6.2-.9.7-.9.5 0 .7.3.7.9 0 .6-.2.9-.7.9-.5 0-.7-.3-.7-.9"/><path d="m503.1 1001.3h-.9v-6.3h-7.5v6.3h-.9v-12.8h.9v5.7h7.5v-5.7h.9v12.8"/><path d="m511.8 994.8h4.7v5.9c-1.2.5-2.6.8-4.2.8-2 0-3.6-.6-4.7-1.7-1.1-1.1-1.6-2.8-1.6-4.9 0-1.3.3-2.5.8-3.5.5-1 1.3-1.8 2.3-2.3 1-.5 2.1-.8 3.4-.8 1.4 0 2.7.3 3.8.8l-.4.8c-1.1-.5-2.3-.8-3.5-.8-1.7 0-3 .5-4 1.6-1 1-1.5 2.5-1.5 4.2 0 1.9.5 3.4 1.4 4.4.9 1 2.3 1.5 4.2 1.5 1.2 0 2.2-.2 3-.5v-4.5h-3.8v-1h.1"/><path d="m519.4 1000.6c0-.6.2-.9.7-.9.5 0 .7.3.7.9 0 .6-.2.9-.7.9-.5 0-.7-.3-.7-.9"/><path d="m531.5 994.8c0 2.3-.3 3.9-1 5-.7 1.1-1.7 1.6-3.1 1.6-1.3 0-2.4-.6-3.1-1.7-.7-1.1-1-2.8-1-5 0-2.2.3-3.9 1-5 .7-1.1 1.7-1.6 3.1-1.6 1.4 0 2.4.6 3.1 1.7.7 1.2 1 2.9 1 5m-7.3 0c0 2 .3 3.5.8 4.4.5.9 1.3 1.4 2.4 1.4 1.1 0 1.9-.5 2.4-1.5.5-1 .8-2.4.8-4.4 0-1.9-.3-3.3-.8-4.3-.5-1-1.3-1.5-2.4-1.5-1.1 0-1.9.5-2.4 1.5-.5 1-.8 2.5-.8 4.4"/><path d="m541.6 1001.3h-8v-.8l3.4-3.6c1-1 1.6-1.8 2-2.3.4-.5.7-1 .9-1.5.2-.5.3-1 .3-1.5 0-.8-.3-1.4-.8-1.9-.5-.5-1.2-.7-2-.7-1.1 0-2.1.4-3.1 1.2l-.5-.6c1.1-.9 2.3-1.4 3.6-1.4 1.1 0 2 .3 2.6.9.6.6 1 1.4 1 2.5 0 .8-.2 1.7-.6 2.5-.4.8-1.2 1.8-2.4 2.9l-3.3 3.4h6.9v.9"/><path d="m551.4 991.5c0 .8-.3 1.5-.8 2-.5.5-1.2.9-2 1v.1c1 .1 1.8.5 2.4 1 .6.5.8 1.2.8 2.1 0 1.2-.4 2.1-1.2 2.8-.8.7-2 1-3.5 1-1.3 0-2.4-.2-3.4-.7v-.9c.5.3 1 .5 1.7.6.7.1 1.2.2 1.7.2 1.3 0 2.3-.3 2.9-.8.7-.5 1-1.3 1-2.2 0-.8-.3-1.5-1-2-.7-.5-1.6-.7-2.9-.7h-1.4v-.8h1.4c1.1 0 1.9-.3 2.5-.8.6-.5.9-1.2.9-2.1 0-.7-.3-1.3-.8-1.7-.5-.4-1.2-.6-2-.6-.6 0-1.2.1-1.7.3-.5.2-1.1.5-1.8.9l-.4-.6c.5-.4 1.1-.7 1.8-1 .7-.2 1.4-.4 2.1-.4 1.2 0 2.1.3 2.7.8.7.7 1 1.5 1 2.5"/><path d="m470.7 851.2h-.7l-2.8-9.9c-.2-.8-.4-1.5-.5-2-.1.5-.2 1.1-.4 1.8-.2.7-1.1 4-2.8 10.2h-.8l-3.5-12.8h.9l2.2 8.3c.1.3.2.6.2.9 0 .3.1.6.2.8.1.2.1.5.2.7.1.2.1.5.1.7.1-.8.4-2 .9-3.6l2.2-7.8h1l2.6 8.9c.3 1 .5 1.9.6 2.5.1-.4.2-.9.3-1.3.1-.4 1-3.8 2.7-10.1h.9l-3.5 12.7"/><path d="m481.6 839c-1.6 0-2.9.5-3.8 1.5-.9 1-1.4 2.4-1.4 4.2 0 1.8.4 3.3 1.3 4.3.9 1 2.1 1.5 3.7 1.5 1.1 0 2.1-.1 3-.4v.8c-.8.3-1.9.4-3.2.4-1.8 0-3.2-.6-4.3-1.7-1.1-1.1-1.6-2.8-1.6-4.9 0-1.3.2-2.5.7-3.5.5-1 1.2-1.8 2.1-2.3.9-.5 2-.8 3.2-.8 1.3 0 2.4.2 3.4.7l-.4.8c-.7-.4-1.7-.6-2.7-.6"/><path d="m524.7 850.8h-.7l-2.8-9.9c-.2-.8-.4-1.5-.5-2-.1.5-.2 1.1-.4 1.8-.2.7-1.1 4-2.8 10.2h-.8l-3.5-12.8h.9l2.2 8.3c.1.3.2.6.2.9 0 .3.1.6.2.8.1.2.1.5.2.7.1.2.1.5.1.7.1-.8.4-2 .9-3.6l2.2-7.8h1l2.6 8.9c.3 1 .5 1.9.6 2.5.1-.4.2-.9.3-1.3.1-.4 1-3.8 2.7-10.1h.9l-3.5 12.7"/><path d="m535.6 838.5c-1.6 0-2.9.5-3.8 1.5-.9 1-1.4 2.4-1.4 4.2 0 1.8.4 3.3 1.3 4.3.9 1 2.1 1.5 3.7 1.5 1.1 0 2.1-.1 3-.4v.8c-.8.3-1.9.4-3.2.4-1.8 0-3.2-.6-4.3-1.7-1.1-1.1-1.6-2.8-1.6-4.9 0-1.3.2-2.5.7-3.5.5-1 1.2-1.8 2.1-2.3.9-.5 2-.8 3.2-.8 1.3 0 2.4.2 3.4.7l-.4.8c-.7-.3-1.7-.6-2.7-.6"/><path d="m310.3 645.6v7h-12.8v-7h.8v6.1h4.9v-5.7h.8v5.8h5.5v-6.1h.8v-.1"/><path d="m309.6 643.1c-.6 0-.9-.2-.9-.7 0-.5.3-.7.9-.7.6 0 .9.2.9.7 0 .5-.3.7-.9.7"/><path d="m310.3 629.1v.9h-6.3v7.5h6.3v.9h-12.8v-.9h5.7v-7.5h-5.7v-.9h12.8"/><path d="m303.8 620.4v-4.7h5.9c.5 1.2.8 2.6.8 4.2 0 2-.6 3.6-1.7 4.7-1.1 1.1-2.8 1.6-4.9 1.6-1.3 0-2.5-.3-3.5-.8-1-.5-1.8-1.3-2.3-2.3-.6-1-.8-2.1-.8-3.4 0-1.4.3-2.7.8-3.8l.8.4c-.5 1.1-.8 2.3-.8 3.5 0 1.7.5 3 1.6 4 1 1 2.5 1.5 4.2 1.5 1.9 0 3.4-.5 4.4-1.4 1-.9 1.5-2.3 1.5-4.2 0-1.2-.2-2.2-.5-3h-4.5v3.8h-1v-.1"/><path d="m309.6 612.9c-.6 0-.9-.2-.9-.7 0-.5.3-.7.9-.7.6 0 .9.2.9.7 0 .4-.3.7-.9.7"/><path d="m303.8 600.7c2.3 0 3.9.3 5 1 1.1.7 1.6 1.7 1.6 3.1 0 1.3-.6 2.4-1.7 3.1-1.1.7-2.8 1-5 1-2.2 0-3.9-.3-5-1-1.1-.7-1.6-1.7-1.6-3.1 0-1.4.6-2.4 1.7-3.1 1.2-.6 2.9-1 5-1m0 7.4c2 0 3.5-.3 4.4-.8.9-.5 1.4-1.3 1.4-2.4 0-1.1-.5-1.9-1.5-2.4-1-.5-2.4-.8-4.4-.8-1.9 0-3.3.3-4.3.8-1 .5-1.5 1.3-1.5 2.4 0 1.1.5 1.9 1.5 2.4 1 .5 2.5.8 4.4.8"/><path d="m303.8 590.5c2.3 0 3.9.3 5 1 1.1.7 1.6 1.7 1.6 3.1 0 1.3-.6 2.4-1.7 3.1-1.1.7-2.8 1-5 1-2.2 0-3.9-.3-5-1-1.1-.7-1.6-1.7-1.6-3.1 0-1.4.6-2.4 1.7-3.1 1.2-.7 2.9-1 5-1m0 7.3c2 0 3.5-.3 4.4-.8.9-.5 1.4-1.3 1.4-2.4 0-1.1-.5-1.9-1.5-2.4-1-.5-2.4-.8-4.4-.8-1.9 0-3.3.3-4.3.8-1 .5-1.5 1.3-1.5 2.4 0 1.1.5 1.9 1.5 2.4 1 .5 2.5.8 4.4.8"/><path d="m310.3 583.5v.9h-9.4c-.8 0-1.7 0-2.6-.1.1.1.2.2.3.3.1.1.8 1 2.1 2.7l-.6.5-2.6-3.5v-.8h12.8"/><path d="m212.1 626.8h-7v-12.8h7v.8h-6.1v4.9h5.8v.8h-5.8v5.5h6.1v.8"/><path d="m214.6 626.2c0-.6.2-.9.7-.9.5 0 .7.3.7.9 0 .6-.2.9-.7.9-.5-.1-.7-.4-.7-.9"/><path d="m228.6 626.8h-.9v-6.3h-7.5v6.3h-.9v-12.8h.9v5.7h7.5v-5.7h.9v12.8"/><path d="m237.3 620.4h4.7v5.9c-1.2.5-2.6.8-4.2.8-2 0-3.6-.6-4.7-1.7-1.1-1.1-1.6-2.8-1.6-4.9 0-1.3.3-2.5.8-3.5.5-1 1.3-1.8 2.3-2.3 1-.5 2.1-.8 3.4-.8 1.4 0 2.7.3 3.8.8l-.4.8c-1.1-.5-2.3-.8-3.5-.8-1.7 0-3 .5-4 1.6-1 1-1.5 2.5-1.5 4.2 0 1.9.5 3.4 1.4 4.4.9 1 2.3 1.5 4.2 1.5 1.2 0 2.2-.2 3-.5v-4.5h-3.8v-1h.1"/><path d="m244.9 626.2c0-.6.2-.9.7-.9.5 0 .7.3.7.9 0 .6-.2.9-.7.9-.5-.1-.7-.4-.7-.9"/><path d="m257 620.4c0 2.3-.3 3.9-1 5-.7 1.1-1.7 1.6-3.1 1.6-1.3 0-2.4-.6-3.1-1.7-.7-1.1-1-2.8-1-5 0-2.2.3-3.9 1-5 .7-1.1 1.7-1.6 3.1-1.6 1.4 0 2.4.6 3.1 1.7.6 1.2 1 2.8 1 5m-7.3 0c0 2 .3 3.5.8 4.4.5.9 1.3 1.4 2.4 1.4 1.1 0 1.9-.5 2.4-1.5.5-1 .8-2.4.8-4.4 0-1.9-.3-3.3-.8-4.3-.5-1-1.3-1.5-2.4-1.5-1.1 0-1.9.5-2.4 1.5-.5 1-.8 2.5-.8 4.4"/><path d="m267.3 620.4c0 2.3-.3 3.9-1 5-.7 1.1-1.7 1.6-3.1 1.6-1.3 0-2.4-.6-3.1-1.7-.7-1.1-1-2.8-1-5 0-2.2.3-3.9 1-5 .7-1.1 1.7-1.6 3.1-1.6 1.4 0 2.4.6 3.1 1.7.6 1.2 1 2.8 1 5m-7.4 0c0 2 .3 3.5.8 4.4.5.9 1.3 1.4 2.4 1.4 1.1 0 1.9-.5 2.4-1.5.5-1 .8-2.4.8-4.4 0-1.9-.3-3.3-.8-4.3-.5-1-1.3-1.5-2.4-1.5-1.1 0-1.9.5-2.4 1.5-.5 1-.8 2.5-.8 4.4"/><path d="m277.3 626.8h-8v-.8l3.4-3.6c1-1 1.6-1.8 2-2.3.4-.5.7-1 .9-1.5.2-.5.3-1 .3-1.5 0-.8-.3-1.4-.8-1.9-.5-.5-1.2-.7-2-.7-1.1 0-2.1.4-3.1 1.2l-.5-.6c1.1-.9 2.3-1.4 3.6-1.4 1.1 0 2 .3 2.6.9.6.6 1 1.4 1 2.5 0 .8-.2 1.7-.6 2.5-.4.8-1.2 1.8-2.4 2.9l-3.3 3.4h6.9v.9"/><path d="m204.4 429.3h4.7c2.1 0 3.7.4 4.7 1.1 1 .7 1.5 1.8 1.5 3.3 0 1-.3 1.8-.9 2.5-.6.7-1.5 1.1-2.7 1.3v.1c1.4.2 2.4.6 3 1.3.6.7 1 1.6 1 2.8 0 1.6-.5 2.8-1.6 3.6-1.1.8-2.5 1.3-4.5 1.3h-5.2v-17.3m1.2 7.6h3.8c1.6 0 2.8-.3 3.5-.8.7-.5 1.1-1.4 1.1-2.5 0-1.1-.4-2-1.2-2.5-.8-.5-2.1-.8-3.7-.8h-3.5v6.6m0 1.1v7.4h4c3.2 0 4.8-1.3 4.8-3.9 0-2.4-1.7-3.5-5-3.5h-3.8"/><path d="m219 430.1c0-.8.2-1.1.7-1.1.2 0 .4.1.6.3.2.2.2.5.2.8 0 .4-.1.6-.2.8-.1.2-.3.3-.6.3-.4.1-.7-.3-.7-1.1m1.4 16.3h-1.2v-12.7h1.2v12.7"/><path d="m230.1 433.4c1.8 0 3.1.6 4 1.7.9 1.1 1.4 2.8 1.4 4.9 0 2.1-.5 3.8-1.4 4.9-.9 1.1-2.3 1.7-4 1.7-.9 0-1.7-.2-2.4-.6-.7-.4-1.3-.9-1.7-1.6h-.1l-.3 1.9h-.7v-18.2h1.2v7.5h.1c.5-.8 1.1-1.3 1.8-1.7.7-.4 1.1-.5 2.1-.5m0 1.1c-1.5 0-2.6.4-3.2 1.3-.6.9-1 2.3-1 4.3v.2c0 1.9.3 3.3 1 4.1.7.8 1.7 1.3 3.2 1.3 1.4 0 2.4-.5 3.1-1.5.7-1 1.1-2.4 1.1-4.2-.1-3.7-1.5-5.5-4.2-5.5"/><path d="m240.1 446.4h-1.1v-18.2h1.2v18.2h-.1"/><path d="m244.2 430.1c0-.8.2-1.1.7-1.1.2 0 .4.1.6.3.2.2.2.5.2.8 0 .4-.1.6-.2.8-.1.2-.3.3-.6.3-.4.1-.7-.3-.7-1.1m1.4 16.3h-1.2v-12.7h1.2v12.7"/><path d="m260.4 440c0 2.1-.5 3.7-1.5 4.9-1 1.2-2.4 1.8-4.2 1.8-1.1 0-2.1-.3-3-.8-.9-.5-1.5-1.3-2-2.3-.5-1-.7-2.2-.7-3.5 0-2.1.5-3.7 1.5-4.9 1-1.2 2.4-1.7 4.1-1.7 1.8 0 3.1.6 4.1 1.8 1 1.2 1.7 2.7 1.7 4.7m-10.1 0c0 1.8.4 3.1 1.2 4.1.8 1 1.9 1.5 3.3 1.5 1.4 0 2.5-.5 3.3-1.5.8-1 1.2-2.3 1.2-4.1 0-1.8-.4-3.1-1.2-4.1-.8-1-1.9-1.5-3.3-1.5-1.4 0-2.5.5-3.3 1.4-.8.9-1.2 2.5-1.2 4.2"/><path d="m266.8 445.6c.7 0 1.4-.1 1.9-.2v.9c-.6.2-1.2.3-1.9.3-1.1 0-2-.3-2.5-.9-.5-.6-.8-1.5-.8-2.8v-8.2h-1.9v-.7l1.9-.5.6-2.9h.6v3.1h3.7v1h-3.7v8.1c0 1 .2 1.7.5 2.2.3.5.9.6 1.6.6"/><path d="m280.4 446.4v-8.3c0-1.3-.3-2.2-.8-2.8-.5-.6-1.4-.9-2.5-.9-1.5 0-2.6.4-3.3 1.2-.7.8-1.1 2-1.1 3.7v7h-1.2v-18.2h1.2v5.8l-.1 1.6h.1c.5-.8 1.1-1.3 1.8-1.7.7-.4 1.6-.5 2.7-.5 2.9 0 4.3 1.6 4.3 4.7v8.3h-1.1v.1"/><path d="m290.9 446.6c-1.9 0-3.3-.6-4.3-1.7-1-1.1-1.6-2.7-1.6-4.8 0-2 .5-3.7 1.5-4.9 1-1.2 2.3-1.8 4-1.8 1.5 0 2.7.5 3.6 1.6.9 1.1 1.3 2.5 1.3 4.3v.9h-9.2c0 1.8.4 3.1 1.2 4 .8.9 1.9 1.4 3.4 1.4.7 0 1.4-.1 1.9-.2.5-.1 1.2-.3 2.1-.7v1.1c-.7.3-1.4.5-2 .6-.6.1-1.2.2-1.9.2m-.4-12.1c-1.2 0-2.2.4-3 1.2-.8.8-1.2 2-1.3 3.5h7.9c0-1.5-.3-2.6-1-3.5-.7-.9-1.5-1.2-2.6-1.2"/><path d="m300.1 440.8l6.5-7.1h1.4l-5 5.4 5.4 7.3h-1.4l-4.8-6.4-2.1 1.9v4.5h-1.2v-18.2h1.2v12.6"/><path d="m220.8 473.9h-7v-12.9h7v.8h-6.1v4.9h5.8v.8h-5.8v5.5h6.1v.9"/><path d="m223.3 473.2c0-.6.2-.9.7-.9.5 0 .7.3.7.9 0 .6-.2.9-.7.9-.4-.1-.7-.3-.7-.9"/><path d="m237.3 473.9h-.9v-6.3h-7.5v6.3h-.9v-12.9h.9v5.7h7.5v-5.7h.9v12.9"/><path d="m246 467.4h4.7v5.9c-1.2.5-2.6.8-4.2.8-2 0-3.6-.6-4.7-1.7-1.1-1.1-1.6-2.8-1.6-4.9 0-1.3.3-2.5.8-3.5.5-1 1.3-1.8 2.3-2.3 1-.5 2.1-.8 3.4-.8 1.4 0 2.7.3 3.8.8l-.4.8c-1.1-.5-2.3-.8-3.5-.8-1.7 0-3 .5-4 1.6-1 1.1-1.5 2.5-1.5 4.2 0 1.9.5 3.4 1.4 4.4.9 1 2.3 1.5 4.2 1.5 1.2 0 2.2-.2 3-.5v-4.5h-3.7v-1"/><path d="m253.6 473.2c0-.6.2-.9.7-.9.5 0 .7.3.7.9 0 .6-.2.9-.7.9-.5-.1-.7-.3-.7-.9"/><path d="m265.2 467.4c0 2.3-.3 3.9-1 5-.7 1.1-1.7 1.6-3.1 1.6-1.3 0-2.4-.6-3.1-1.7-.7-1.1-1-2.8-1-5 0-2.2.3-3.9 1-5 .7-1.1 1.7-1.6 3.1-1.6 1.4 0 2.4.6 3.1 1.7.7 1.1 1 2.8 1 5m-7.3 0c0 2 .3 3.5.8 4.4.5.9 1.3 1.4 2.4 1.4 1.1 0 1.9-.5 2.4-1.5.5-1 .8-2.4.8-4.4 0-1.9-.3-3.3-.8-4.3-.5-1-1.3-1.5-2.4-1.5-1.1 0-1.9.5-2.4 1.5-.5 1-.8 2.5-.8 4.4"/><path d="m275.5 467.4c0 2.3-.3 3.9-1 5-.7 1.1-1.7 1.6-3.1 1.6-1.3 0-2.4-.6-3.1-1.7-.7-1.1-1-2.8-1-5 0-2.2.3-3.9 1-5 .7-1.1 1.7-1.6 3.1-1.6 1.4 0 2.4.6 3.1 1.7.7 1.1 1 2.8 1 5m-7.3 0c0 2 .3 3.5.8 4.4.5.9 1.3 1.4 2.4 1.4 1.1 0 1.9-.5 2.4-1.5.5-1 .8-2.4.8-4.4 0-1.9-.3-3.3-.8-4.3-.5-1-1.3-1.5-2.4-1.5-1.1 0-1.9.5-2.4 1.5-.5 1-.8 2.5-.8 4.4"/><path d="m285.1 464c0 .8-.3 1.5-.8 2-.5.5-1.2.9-2 1v.1c1 .1 1.8.5 2.4 1 .6.5.8 1.2.8 2.1 0 1.2-.4 2.1-1.2 2.8-.8.7-2 1-3.5 1-1.3 0-2.4-.2-3.4-.7v-.9c.5.3 1 .5 1.7.6.7.1 1.2.2 1.7.2 1.3 0 2.3-.3 2.9-.8.6-.5 1-1.3 1-2.2 0-.8-.3-1.5-1-2-.7-.5-1.6-.7-2.9-.7h-1.4v-.8h1.4c1.1 0 1.9-.3 2.5-.8.6-.5.9-1.2.9-2.1 0-.7-.3-1.3-.8-1.7-.5-.4-1.2-.6-2-.6-.6 0-1.2.1-1.7.3-.5.2-1.1.5-1.8.9l-.4-.6c.5-.4 1.1-.7 1.8-1 .7-.3 1.4-.4 2.1-.4 1.2 0 2.1.3 2.7.8.6.5 1 1.5 1 2.5"/></g></g></g></svg>