<?xml version="1.0" encoding="utf-8"?>
<!-- Generator: Adobe Illustrator 20.0.0, SVG Export Plug-In . SVG Version: 6.00 Build 0)  -->
<svg version="1.1" xmlns="http://www.w3.org/2000/svg" xmlns:xlink="http://www.w3.org/1999/xlink" x="0px" y="0px"
	 viewBox="0 0 1400 1200" style="enable-background:new 0 0 1400 1200;" xml:space="preserve">
<style type="text/css">
	.st0{fill:#004570;fill-opacity:0.15;stroke:#0071AA;stroke-width:1.5;stroke-miterlimit:10;}
	.st1{fill:none;stroke:#005081;stroke-width:1.5;stroke-miterlimit:10;}
	.st2{fill:#005081;}
</style>
<g id="Plan">
	<rect x="194" y="168.2" class="st0" width="126.5" height="425.8"/>
	<rect x="437.3" y="304.3" class="st0" width="85.7" height="108.8"/>
	<rect x="437.3" y="150.9" class="st0" width="152.1" height="108.6"/>
	<rect x="589.4" y="150.9" class="st0" width="148.7" height="108.6"/>
	<rect x="523.1" y="304.3" class="st0" width="88.5" height="108.8"/>
	<polygon class="st0" points="738.1,150.9 738.1,259.5 808.7,259.5 808.7,151.3 	"/>
	<polygon class="st0" points="611.5,304.3 611.5,413.1 704.6,413.1 704.6,304.1 	"/>
	<rect x="739.1" y="303.7" class="st0" width="31.1" height="28.2"/>
	<polygon class="st0" points="704.6,304.1 704.6,394.7 756.7,394.7 756.7,331.9 739.1,331.9 739.1,303.7 	"/>
	<polygon class="st0" points="770.2,303.7 808.7,303.7 808.7,394.7 756.7,394.7 756.7,331.9 770.2,331.9 	"/>
	<rect x="926.7" y="150.9" class="st0" width="60.8" height="102.7"/>
	<rect x="926.7" y="253.6" class="st0" width="60.8" height="91.7"/>
	<rect x="926.7" y="345.3" class="st0" width="60.8" height="80.7"/>
	<rect x="704.6" y="413.1" class="st0" width="69.8" height="93.6"/>
	<rect x="704.6" y="506.7" class="st0" width="104.1" height="154.2"/>
	<rect x="856.1" y="528.9" class="st0" width="131.4" height="131.9"/>
	<rect x="987.5" y="426" class="st0" width="229" height="234.8"/>
	<rect x="856.1" y="426" class="st0" width="78" height="103"/>
	<rect x="934.1" y="426" class="st0" width="53.4" height="103"/>
	<rect x="904.2" y="394.7" class="st0" width="22.5" height="31.3"/>
	<rect x="856.1" y="394.7" class="st0" width="48.2" height="31.3"/>
	<rect x="774.4" y="446.4" class="st0" width="34.3" height="60.2"/>
	<rect x="774.4" y="428.2" class="st0" width="34.3" height="18.3"/>
	<rect x="774.4" y="413.1" class="st0" width="34.3" height="15.1"/>
	<rect x="704.6" y="394.7" class="st0" width="104.1" height="18.4"/>
	<polygon class="st0" points="194,925.2 297.3,925.2 297.3,939.4 320.5,939.4 320.5,1028.2 194,1028.2 	"/>
	<rect x="437.3" y="939.4" class="st0" width="152.5" height="109.9"/>
	<rect x="589.8" y="939.4" class="st0" width="109.8" height="109.9"/>
	<rect x="699.6" y="939.4" class="st0" width="107.7" height="109.9"/>
	<rect x="807.2" y="939.4" class="st0" width="180.3" height="109.9"/>
	<rect x="931.4" y="801" class="st0" width="56.1" height="93"/>
	<rect x="810.2" y="801" class="st0" width="53.1" height="93"/>
	<rect x="722.8" y="801" class="st0" width="87.4" height="93"/>
	<rect x="668.8" y="801" class="st0" width="54" height="93"/>
	<rect x="616.9" y="801" class="st0" width="51.9" height="93"/>
	<rect x="588.8" y="801" class="st0" width="28.1" height="93"/>
	<rect x="549.4" y="801" class="st0" width="39.4" height="93"/>
	<polygon class="st0" points="549.4,801 549.4,894 516.3,894 516.3,866.1 503.8,866.1 503.8,801 	"/>
	<rect x="481" y="866.1" class="st0" width="35.3" height="28"/>
	<polygon class="st0" points="437.3,801 437.3,894 481,894 481,866.1 503.8,866.1 503.8,801 	"/>
	<rect x="320.5" y="804.6" class="st0" width="3.6" height="89.4"/>
	<rect x="194" y="593.9" class="st0" width="89.6" height="65.9"/>
	<polygon class="st0" points="320.5,659.8 283.6,659.8 283.6,593.9 320.4,593.9 	"/>
	<rect x="283.7" y="696.3" class="st0" width="26.6" height="71.8"/>
	<g>
		<rect x="863.3" y="801" class="st0" width="68" height="93"/>
		<rect x="895.7" y="840.2" class="st1" width="3.2" height="53.8"/>
		<line class="st1" x1="868.3" y1="890.7" x2="893.1" y2="890.7"/>
		<line class="st1" x1="868.3" y1="886.1" x2="893.1" y2="886.1"/>
		<line class="st1" x1="868.3" y1="881.5" x2="893.1" y2="881.5"/>
		<line class="st1" x1="868.3" y1="877.1" x2="893.1" y2="877.1"/>
		<line class="st1" x1="868.3" y1="872.3" x2="893.1" y2="872.3"/>
		<line class="st1" x1="868.3" y1="867.8" x2="893.1" y2="867.8"/>
		<line class="st1" x1="868.3" y1="863.1" x2="893.1" y2="863.1"/>
		<line class="st1" x1="868.3" y1="858.6" x2="893.1" y2="858.6"/>
		<line class="st1" x1="868.3" y1="853.8" x2="893.1" y2="853.8"/>
		<line class="st1" x1="868.3" y1="849.4" x2="893.1" y2="849.4"/>
		<line class="st1" x1="868.3" y1="844.9" x2="893.1" y2="844.9"/>
		<polyline class="st1" points="868.3,849 880.7,844.9 893.1,849 		"/>
		<line class="st1" x1="926.3" y1="844.9" x2="901.5" y2="844.9"/>
		<line class="st1" x1="926.3" y1="849.4" x2="901.5" y2="849.4"/>
		<line class="st1" x1="926.3" y1="854" x2="901.5" y2="854"/>
		<line class="st1" x1="926.3" y1="858.4" x2="901.5" y2="858.4"/>
		<line class="st1" x1="926.3" y1="863.2" x2="901.5" y2="863.2"/>
		<line class="st1" x1="926.3" y1="867.8" x2="901.5" y2="867.8"/>
		<line class="st1" x1="926.3" y1="872.5" x2="901.5" y2="872.5"/>
		<line class="st1" x1="926.3" y1="876.9" x2="901.5" y2="876.9"/>
		<line class="st1" x1="926.3" y1="881.7" x2="901.5" y2="881.7"/>
		<line class="st1" x1="926.3" y1="886.1" x2="901.5" y2="886.1"/>
		<line class="st1" x1="926.3" y1="890.7" x2="901.5" y2="890.7"/>
		<polyline class="st1" points="926.3,886.5 913.9,890.7 901.5,886.5 		"/>
	</g>
	<g>
		<rect x="360.8" y="304.3" class="st0" width="76.5" height="89.4"/>
		<rect x="397.2" y="304.3" class="st1" width="3.6" height="51.8"/>
		<line class="st1" x1="366.4" y1="307.5" x2="394.3" y2="307.5"/>
		<line class="st1" x1="366.4" y1="311.9" x2="394.3" y2="311.9"/>
		<line class="st1" x1="366.4" y1="316.3" x2="394.3" y2="316.3"/>
		<line class="st1" x1="366.4" y1="320.5" x2="394.3" y2="320.5"/>
		<line class="st1" x1="366.4" y1="325.1" x2="394.3" y2="325.1"/>
		<line class="st1" x1="366.4" y1="329.5" x2="394.3" y2="329.5"/>
		<line class="st1" x1="366.4" y1="334" x2="394.3" y2="334"/>
		<line class="st1" x1="366.4" y1="338.3" x2="394.3" y2="338.3"/>
		<line class="st1" x1="366.4" y1="342.9" x2="394.3" y2="342.9"/>
		<line class="st1" x1="366.4" y1="347.1" x2="394.3" y2="347.1"/>
		<line class="st1" x1="366.4" y1="351.5" x2="394.3" y2="351.5"/>
		<polyline class="st1" points="366.4,347.5 380.4,351.5 394.3,347.5 		"/>
		<line class="st1" x1="431.7" y1="351.5" x2="403.8" y2="351.5"/>
		<line class="st1" x1="431.7" y1="347.1" x2="403.8" y2="347.1"/>
		<line class="st1" x1="431.7" y1="342.7" x2="403.8" y2="342.7"/>
		<line class="st1" x1="431.7" y1="338.5" x2="403.8" y2="338.5"/>
		<line class="st1" x1="431.7" y1="333.9" x2="403.8" y2="333.9"/>
		<line class="st1" x1="431.7" y1="329.5" x2="403.8" y2="329.5"/>
		<line class="st1" x1="431.7" y1="325" x2="403.8" y2="325"/>
		<line class="st1" x1="431.7" y1="320.7" x2="403.8" y2="320.7"/>
		<line class="st1" x1="431.7" y1="316.1" x2="403.8" y2="316.1"/>
		<line class="st1" x1="431.7" y1="311.9" x2="403.8" y2="311.9"/>
		<line class="st1" x1="431.7" y1="307.5" x2="403.8" y2="307.5"/>
		<polyline class="st1" points="431.7,311.5 417.7,307.5 403.8,311.5 		"/>
	</g>
	<g>
		<rect x="855.8" y="305.3" class="st0" width="71" height="89.4"/>
		<rect x="889.6" y="305.3" class="st1" width="3.3" height="51.8"/>
		<line class="st1" x1="860.9" y1="308.5" x2="886.9" y2="308.5"/>
		<line class="st1" x1="860.9" y1="312.9" x2="886.9" y2="312.9"/>
		<line class="st1" x1="860.9" y1="317.3" x2="886.9" y2="317.3"/>
		<line class="st1" x1="860.9" y1="321.5" x2="886.9" y2="321.5"/>
		<line class="st1" x1="860.9" y1="326.1" x2="886.9" y2="326.1"/>
		<line class="st1" x1="860.9" y1="330.5" x2="886.9" y2="330.5"/>
		<line class="st1" x1="860.9" y1="335" x2="886.9" y2="335"/>
		<line class="st1" x1="860.9" y1="339.3" x2="886.9" y2="339.3"/>
		<line class="st1" x1="860.9" y1="343.9" x2="886.9" y2="343.9"/>
		<line class="st1" x1="860.9" y1="348.1" x2="886.9" y2="348.1"/>
		<line class="st1" x1="860.9" y1="352.5" x2="886.9" y2="352.5"/>
		<polyline class="st1" points="860.9,348.5 873.9,352.5 886.9,348.5 		"/>
		<line class="st1" x1="921.5" y1="352.5" x2="895.6" y2="352.5"/>
		<line class="st1" x1="921.5" y1="348.1" x2="895.6" y2="348.1"/>
		<line class="st1" x1="921.5" y1="343.7" x2="895.6" y2="343.7"/>
		<line class="st1" x1="921.5" y1="339.5" x2="895.6" y2="339.5"/>
		<line class="st1" x1="921.5" y1="334.9" x2="895.6" y2="334.9"/>
		<line class="st1" x1="921.5" y1="330.5" x2="895.6" y2="330.5"/>
		<line class="st1" x1="921.5" y1="326" x2="895.6" y2="326"/>
		<line class="st1" x1="921.5" y1="321.7" x2="895.6" y2="321.7"/>
		<line class="st1" x1="921.5" y1="317.1" x2="895.6" y2="317.1"/>
		<line class="st1" x1="921.5" y1="312.9" x2="895.6" y2="312.9"/>
		<line class="st1" x1="921.5" y1="308.5" x2="895.6" y2="308.5"/>
		<polyline class="st1" points="921.5,312.5 908.6,308.5 895.6,312.5 		"/>
	</g>
	<rect x="807.4" y="539.2" class="st2" width="2.6" height="14.3"/>
	<rect x="807.4" y="467.4" class="st2" width="2.6" height="14.3"/>
	<rect x="773.1" y="467.4" class="st2" width="2.6" height="14.3"/>
	<rect x="854.8" y="539.2" class="st2" width="2.6" height="14.3"/>
	<rect x="854.8" y="485.9" class="st2" width="2.6" height="14.3"/>
	<rect x="854.8" y="397.7" class="st2" width="2.6" height="14.3"/>
	<rect x="925.4" y="221.7" class="st2" width="2.6" height="14.3"/>
	<rect x="925.4" y="265.5" class="st2" width="2.6" height="14.3"/>
	<rect x="925.4" y="403.2" class="st2" width="2.6" height="14.3"/>
	<rect x="932.8" y="485.9" class="st2" width="2.6" height="14.3"/>
	
		<rect x="831" y="646.6" transform="matrix(6.123234e-17 -1 1 6.123234e-17 171.4164 1493.0803)" class="st2" width="2.6" height="28.6"/>
	
		<rect x="1019.5" y="646.6" transform="matrix(6.123234e-17 -1 1 6.123234e-17 359.9164 1681.5803)" class="st2" width="2.6" height="28.6"/>
	
		<rect x="878.8" y="136.6" transform="matrix(6.123234e-17 -1 1 6.123234e-17 729.2054 1031.0555)" class="st2" width="2.6" height="28.6"/>
	
		<rect x="341" y="234.3" transform="matrix(6.123234e-17 -1 1 6.123234e-17 91.2265 593.2831)" class="st2" width="2.6" height="33.4"/>
	
		<rect x="486" y="297.1" transform="matrix(6.123234e-17 -1 1 6.123234e-17 183.0539 791.6001)" class="st2" width="2.6" height="14.3"/>
	
		<rect x="363.6" y="427.1" transform="matrix(-1 -1.224647e-16 1.224647e-16 -1 729.818 868.441)" class="st2" width="2.6" height="14.3"/>
	
		<rect x="486" y="252.4" transform="matrix(6.123234e-17 -1 1 6.123234e-17 227.7829 746.8711)" class="st2" width="2.6" height="14.3"/>
	
		<rect x="571.2" y="297.1" transform="matrix(6.123234e-17 -1 1 6.123234e-17 268.2415 876.7876)" class="st2" width="2.6" height="14.3"/>
	
		<rect x="659.4" y="297.1" transform="matrix(6.123234e-17 -1 1 6.123234e-17 356.4081 964.9542)" class="st2" width="2.6" height="14.3"/>
	
		<rect x="716.7" y="297.1" transform="matrix(6.123234e-17 -1 1 6.123234e-17 413.7415 1022.2876)" class="st2" width="2.6" height="14.3"/>
	
		<rect x="723.9" y="405.9" transform="matrix(6.123234e-17 -1 1 6.123234e-17 312.0905 1138.2185)" class="st2" width="2.6" height="14.3"/>
	
		<rect x="783.1" y="439.3" transform="matrix(6.123234e-17 -1 1 6.123234e-17 338.002 1230.828)" class="st2" width="2.6" height="14.3"/>
	
		<rect x="783.1" y="421" transform="matrix(6.123234e-17 -1 1 6.123234e-17 356.265 1212.5649)" class="st2" width="2.6" height="14.3"/>
	
		<rect x="747.6" y="297.1" transform="matrix(6.123234e-17 -1 1 6.123234e-17 444.5748 1053.121)" class="st2" width="2.6" height="14.3"/>
	
		<rect x="796.2" y="297.1" transform="matrix(6.123234e-17 -1 1 6.123234e-17 493.2415 1101.7876)" class="st2" width="2.6" height="14.3"/>
	
		<rect x="747.6" y="252.4" transform="matrix(6.123234e-17 -1 1 6.123234e-17 489.3038 1008.3919)" class="st2" width="2.6" height="14.3"/>
	
		<rect x="659.4" y="252.4" transform="matrix(6.123234e-17 -1 1 6.123234e-17 401.1371 920.2252)" class="st2" width="2.6" height="14.3"/>
	
		<rect x="319.2" y="548.3" transform="matrix(-1 -1.224647e-16 1.224647e-16 -1 640.9739 1130.0566)" class="st2" width="2.6" height="33.4"/>
	
		<rect x="309" y="698.2" transform="matrix(-1 -1.224647e-16 1.224647e-16 -1 620.586 1428.3798)" class="st2" width="2.6" height="32"/>
	
		<rect x="309" y="733.7" transform="matrix(-1 -1.224647e-16 1.224647e-16 -1 620.586 1499.3798)" class="st2" width="2.6" height="32"/>
	
		<rect x="436" y="698.2" transform="matrix(-1 -1.224647e-16 1.224647e-16 -1 874.638 1428.3798)" class="st2" width="2.6" height="32"/>
	
		<rect x="436" y="733.7" transform="matrix(-1 -1.224647e-16 1.224647e-16 -1 874.638 1499.3798)" class="st2" width="2.6" height="32"/>
	
		<rect x="282.3" y="698.2" transform="matrix(-1 -1.224647e-16 1.224647e-16 -1 567.11 1428.3798)" class="st2" width="2.6" height="32"/>
	
		<rect x="282.3" y="733.7" transform="matrix(-1 -1.224647e-16 1.224647e-16 -1 567.11 1499.3798)" class="st2" width="2.6" height="32"/>
	
		<rect x="282.4" y="606.9" transform="matrix(-1 -1.224647e-16 1.224647e-16 -1 567.468 1228.161)" class="st2" width="2.6" height="14.3"/>
	
		<rect x="253.1" y="586.8" transform="matrix(-1.836970e-16 1 -1 -1.836970e-16 848.3024 339.5258)" class="st2" width="2.6" height="14.3"/>
	
		<rect x="217.1" y="652.6" transform="matrix(-1.836970e-16 1 -1 -1.836970e-16 878.1633 441.3867)" class="st2" width="2.6" height="14.3"/>
	
		<rect x="217.1" y="793.9" transform="matrix(-1.836970e-16 1 -1 -1.836970e-16 1019.4048 582.6282)" class="st2" width="2.6" height="14.3"/>
	
		<rect x="306.9" y="932.2" transform="matrix(-1.836970e-16 1 -1 -1.836970e-16 1247.515 631.197)" class="st2" width="2.6" height="14.3"/>
	
		<rect x="479.7" y="932.2" transform="matrix(-1.836970e-16 1 -1 -1.836970e-16 1420.349 458.363)" class="st2" width="2.6" height="14.3"/>
	
		<rect x="650.5" y="932.2" transform="matrix(-1.836970e-16 1 -1 -1.836970e-16 1591.176 287.536)" class="st2" width="2.6" height="14.3"/>
	
		<rect x="765.2" y="932.2" transform="matrix(-1.836970e-16 1 -1 -1.836970e-16 1705.8738 172.8383)" class="st2" width="2.6" height="14.3"/>
	
		<rect x="913.7" y="932.2" transform="matrix(-1.836970e-16 1 -1 -1.836970e-16 1854.3738 24.3383)" class="st2" width="2.6" height="14.3"/>
	
		<rect x="465.4" y="886.9" transform="matrix(-1.836970e-16 1 -1 -1.836970e-16 1360.7379 427.3121)" class="st2" width="2.6" height="14.3"/>
	
		<rect x="488.9" y="886.9" transform="matrix(-1.836970e-16 1 -1 -1.836970e-16 1384.2379 403.8121)" class="st2" width="2.6" height="14.3"/>
	
		<rect x="537.2" y="886.9" transform="matrix(-1.836970e-16 1 -1 -1.836970e-16 1432.4879 355.5621)" class="st2" width="2.6" height="14.3"/>
	
		<rect x="557.9" y="886.9" transform="matrix(-1.836970e-16 1 -1 -1.836970e-16 1453.2379 334.8121)" class="st2" width="2.6" height="14.3"/>
	
		<rect x="605.8" y="886.9" transform="matrix(-1.836970e-16 1 -1 -1.836970e-16 1501.165 286.885)" class="st2" width="2.6" height="14.3"/>
	
		<rect x="648.7" y="886.9" transform="matrix(-1.836970e-16 1 -1 -1.836970e-16 1544.0145 244.0355)" class="st2" width="2.6" height="14.3"/>
	
		<rect x="685.4" y="886.9" transform="matrix(-1.836970e-16 1 -1 -1.836970e-16 1580.7645 207.2855)" class="st2" width="2.6" height="14.3"/>
	
		<rect x="821.4" y="886.9" transform="matrix(-1.836970e-16 1 -1 -1.836970e-16 1716.7645 71.2855)" class="st2" width="2.6" height="14.3"/>
	
		<rect x="941.9" y="886.9" transform="matrix(-1.836970e-16 1 -1 -1.836970e-16 1837.2645 -49.2145)" class="st2" width="2.6" height="14.3"/>
	
		<rect x="763.9" y="886.9" transform="matrix(-1.836970e-16 1 -1 -1.836970e-16 1659.2645 128.7855)" class="st2" width="2.6" height="14.3"/>
	
		<rect x="339.5" y="930.8" transform="matrix(6.123234e-17 -1 1 6.123234e-17 -606.7569 1288.3732)" class="st2" width="2.6" height="33.4"/>
	
		<rect x="986.2" y="900.7" transform="matrix(-1 -1.224647e-16 1.224647e-16 -1 1975.0031 1833.3811)" class="st2" width="2.6" height="32"/>
	<rect x="364.9" y="413.1" class="st0" width="31.5" height="38.8"/>
	<g>
		<rect x="363.6" y="801" class="st0" width="73.8" height="93"/>
		<rect x="397.2" y="842.3" class="st1" width="3.6" height="51.8"/>
		<line class="st1" x1="366.4" y1="890.8" x2="394.3" y2="890.8"/>
		<line class="st1" x1="366.4" y1="886.4" x2="394.3" y2="886.4"/>
		<line class="st1" x1="366.4" y1="882" x2="394.3" y2="882"/>
		<line class="st1" x1="366.4" y1="877.8" x2="394.3" y2="877.8"/>
		<line class="st1" x1="366.4" y1="873.2" x2="394.3" y2="873.2"/>
		<line class="st1" x1="366.4" y1="868.8" x2="394.3" y2="868.8"/>
		<line class="st1" x1="366.4" y1="864.3" x2="394.3" y2="864.3"/>
		<line class="st1" x1="366.4" y1="860" x2="394.3" y2="860"/>
		<line class="st1" x1="366.4" y1="855.4" x2="394.3" y2="855.4"/>
		<line class="st1" x1="366.4" y1="851.2" x2="394.3" y2="851.2"/>
		<line class="st1" x1="366.4" y1="846.8" x2="394.3" y2="846.8"/>
		<polyline class="st1" points="366.4,850.8 380.4,846.8 394.3,850.8 		"/>
		<line class="st1" x1="431.7" y1="846.8" x2="403.8" y2="846.8"/>
		<line class="st1" x1="431.7" y1="851.2" x2="403.8" y2="851.2"/>
		<line class="st1" x1="431.7" y1="855.6" x2="403.8" y2="855.6"/>
		<line class="st1" x1="431.7" y1="859.8" x2="403.8" y2="859.8"/>
		<line class="st1" x1="431.7" y1="864.4" x2="403.8" y2="864.4"/>
		<line class="st1" x1="431.7" y1="868.8" x2="403.8" y2="868.8"/>
		<line class="st1" x1="431.7" y1="873.3" x2="403.8" y2="873.3"/>
		<line class="st1" x1="431.7" y1="877.6" x2="403.8" y2="877.6"/>
		<line class="st1" x1="431.7" y1="882.2" x2="403.8" y2="882.2"/>
		<line class="st1" x1="431.7" y1="886.4" x2="403.8" y2="886.4"/>
		<line class="st1" x1="431.7" y1="890.8" x2="403.8" y2="890.8"/>
		<polyline class="st1" points="431.7,886.8 417.7,890.8 403.8,886.8 		"/>
	</g>
	<polygon class="st1" points="987.5,150.9 437.3,150.9 437.3,250.8 320.5,250.8 320.5,168.2 194,168.2 194,659.8 283.8,659.8 
		283.8,801 194,801 194,1028.2 320.5,1028.2 320.5,947.8 437.3,947.8 437.3,1049.3 987.5,1049.3 987.5,801 437.3,801 437.3,413.1 
		704.6,413.1 704.6,660.8 1216.5,660.8 1216.5,426 987.5,426 	"/>
</g>
<g id="Label">
	<g>
		<path class="st2" d="M516.4,749.7h-28.1v-51.4h28.1v3.3h-24.5V721H515v3.3h-23.1v22h24.5V749.7z"/>
		<path class="st2" d="M548.2,723.8h18.9v23.4c-5,2.1-10.6,3.2-16.8,3.2c-8.1,0-14.3-2.3-18.7-6.9s-6.5-11.1-6.5-19.5
			c0-5.2,1.1-9.9,3.2-13.9s5.2-7.2,9.2-9.4c4-2.2,8.6-3.3,13.8-3.3c5.6,0,10.6,1,15.1,3.1l-1.4,3.2c-4.5-2.1-9.1-3.1-13.9-3.1
			c-6.8,0-12.1,2.1-16.1,6.3s-6,9.8-6,16.9c0,7.7,1.9,13.6,5.7,17.5c3.8,3.9,9.3,5.9,16.6,5.9c4.7,0,8.8-0.7,12.1-2v-18.1h-15.3
			V723.8z"/>
	</g>
	<g>
		<path class="st2" d="M478.4,205.2h-7v-12.8h7v0.8h-6.1v4.9h5.8v0.8h-5.8v5.5h6.1V205.2z"/>
		<path class="st2" d="M480.9,204.5c0-0.6,0.2-0.9,0.7-0.9c0.5,0,0.7,0.3,0.7,0.9s-0.2,0.9-0.7,0.9
			C481.1,205.4,480.9,205.1,480.9,204.5z"/>
		<path class="st2" d="M494.9,205.2H494v-6.3h-7.5v6.3h-0.9v-12.8h0.9v5.7h7.5v-5.7h0.9V205.2z"/>
		<path class="st2" d="M503.6,198.8h4.7v5.9c-1.2,0.5-2.6,0.8-4.2,0.8c-2,0-3.6-0.6-4.7-1.7s-1.6-2.8-1.6-4.9c0-1.3,0.3-2.5,0.8-3.5
			s1.3-1.8,2.3-2.3s2.1-0.8,3.4-0.8c1.4,0,2.7,0.3,3.8,0.8l-0.4,0.8c-1.1-0.5-2.3-0.8-3.5-0.8c-1.7,0-3,0.5-4,1.6s-1.5,2.5-1.5,4.2
			c0,1.9,0.5,3.4,1.4,4.4s2.3,1.5,4.2,1.5c1.2,0,2.2-0.2,3-0.5v-4.5h-3.8V198.8z"/>
		<path class="st2" d="M511.1,204.5c0-0.6,0.2-0.9,0.7-0.9c0.5,0,0.7,0.3,0.7,0.9s-0.2,0.9-0.7,0.9
			C511.4,205.4,511.1,205.1,511.1,204.5z"/>
		<path class="st2" d="M523.3,198.8c0,2.3-0.3,3.9-1,5s-1.7,1.6-3.1,1.6c-1.3,0-2.4-0.6-3.1-1.7s-1-2.8-1-5c0-2.2,0.3-3.9,1-5
			s1.7-1.6,3.1-1.6c1.4,0,2.4,0.6,3.1,1.7S523.3,196.6,523.3,198.8z M516,198.8c0,2,0.3,3.5,0.8,4.4s1.3,1.4,2.4,1.4
			c1.1,0,1.9-0.5,2.4-1.5s0.8-2.4,0.8-4.4c0-1.9-0.3-3.3-0.8-4.3s-1.3-1.5-2.4-1.5s-1.9,0.5-2.4,1.5S516,196.9,516,198.8z"/>
		<path class="st2" d="M533.6,198.8c0,2.3-0.3,3.9-1,5s-1.7,1.6-3.1,1.6c-1.3,0-2.4-0.6-3.1-1.7s-1-2.8-1-5c0-2.2,0.3-3.9,1-5
			s1.7-1.6,3.1-1.6c1.4,0,2.4,0.6,3.1,1.7S533.6,196.6,533.6,198.8z M526.2,198.8c0,2,0.3,3.5,0.8,4.4s1.3,1.4,2.4,1.4
			c1.1,0,1.9-0.5,2.4-1.5s0.8-2.4,0.8-4.4c0-1.9-0.3-3.3-0.8-4.3s-1.3-1.5-2.4-1.5s-1.9,0.5-2.4,1.5S526.2,196.9,526.2,198.8z"/>
		<path class="st2" d="M544.6,202h-2.2v3.3h-0.8V202h-6.6v-0.6l6.4-9.1h1.1v8.9h2.2V202z M541.5,201.2v-3.7c0-1.8,0-3.3,0.1-4.5
			h-0.1c-0.1,0.2-0.5,0.8-1.1,1.7l-4.5,6.5H541.5z"/>
	</g>
	<g>
		<path class="st2" d="M485,387.9v7h-12.8v-7h0.8v6.1h4.9v-5.8h0.8v5.8h5.5v-6.1H485z"/>
		<path class="st2" d="M484.3,385.4c-0.6,0-0.9-0.2-0.9-0.7c0-0.5,0.3-0.7,0.9-0.7s0.9,0.2,0.9,0.7
			C485.2,385.2,484.9,385.4,484.3,385.4z"/>
		<path class="st2" d="M485,371.4v0.9h-6.3v7.5h6.3v0.9h-12.8v-0.9h5.7v-7.5h-5.7v-0.9H485z"/>
		<path class="st2" d="M478.6,362.7V358h5.9c0.5,1.2,0.8,2.6,0.8,4.2c0,2-0.6,3.6-1.7,4.7s-2.8,1.6-4.9,1.6c-1.3,0-2.5-0.3-3.5-0.8
			s-1.8-1.3-2.3-2.3s-0.8-2.1-0.8-3.4c0-1.4,0.3-2.7,0.8-3.8l0.8,0.4c-0.5,1.1-0.8,2.3-0.8,3.5c0,1.7,0.5,3,1.6,4s2.5,1.5,4.2,1.5
			c1.9,0,3.4-0.5,4.4-1.4s1.5-2.3,1.5-4.2c0-1.2-0.2-2.2-0.5-3h-4.5v3.8H478.6z"/>
		<path class="st2" d="M484.3,355.2c-0.6,0-0.9-0.2-0.9-0.7c0-0.5,0.3-0.7,0.9-0.7s0.9,0.2,0.9,0.7
			C485.2,354.9,484.9,355.2,484.3,355.2z"/>
		<path class="st2" d="M485,346.8v0.9h-9.4c-0.8,0-1.7,0-2.6-0.1c0.1,0.1,0.2,0.2,0.3,0.3s0.8,1,2.1,2.7l-0.6,0.5l-2.6-3.5v-0.8H485
			z"/>
		<path class="st2" d="M477.3,337.8c0-1.4,0.3-2.5,1-3.2s1.6-1.2,2.7-1.2c1.3,0,2.3,0.4,3.1,1.2s1.1,2,1.1,3.4
			c0,0.6-0.1,1.2-0.2,1.8s-0.3,1.1-0.5,1.4h-0.9c0.3-0.6,0.5-1.2,0.7-1.7s0.2-1,0.2-1.6c0-1.1-0.3-2-0.9-2.7s-1.4-1-2.4-1
			c-1,0-1.7,0.3-2.2,1s-0.8,1.6-0.8,2.7c0,0.8,0.1,1.6,0.3,2.4l-0.3,0.5l-5.9-0.5v-6.2h0.8v5.4l4.5,0.4
			C477.4,339,477.3,338.3,477.3,337.8z"/>
		<path class="st2" d="M485.2,326.8c0,1.4-0.4,2.4-1.3,3.2s-2.1,1.2-3.6,1.2c-1.6,0-2.8-0.4-3.7-1.2s-1.3-1.9-1.3-3.3
			c0-0.8,0.1-1.6,0.4-2.4l0.8,0.2c-0.3,0.8-0.4,1.5-0.4,2.2c0,1.2,0.4,2.1,1.1,2.7s1.8,0.9,3.1,0.9c1.3,0,2.3-0.3,3-0.9
			s1.1-1.4,1.1-2.5c0-0.9-0.2-1.7-0.5-2.4h0.8C485.1,325,485.2,325.8,485.2,326.8z"/>
	</g>
	<g>
		<path class="st2" d="M960.8,232v7h-12.8v-7h0.8v6.1h4.9v-5.8h0.8v5.8h5.5V232H960.8z"/>
		<path class="st2" d="M960.1,229.5c-0.6,0-0.9-0.2-0.9-0.7c0-0.5,0.3-0.7,0.9-0.7s0.9,0.2,0.9,0.7
			C961,229.3,960.7,229.5,960.1,229.5z"/>
		<path class="st2" d="M960.8,215.5v0.9h-6.3v7.5h6.3v0.9h-12.8v-0.9h5.7v-7.5h-5.7v-0.9H960.8z"/>
		<path class="st2" d="M954.3,206.8v-4.7h5.9c0.5,1.2,0.8,2.6,0.8,4.2c0,2-0.6,3.6-1.7,4.7c-1.1,1.1-2.8,1.6-4.9,1.6
			c-1.3,0-2.5-0.3-3.5-0.8c-1-0.5-1.8-1.3-2.3-2.3s-0.8-2.1-0.8-3.4c0-1.4,0.3-2.7,0.8-3.8l0.8,0.4c-0.5,1.1-0.8,2.3-0.8,3.5
			c0,1.7,0.5,3,1.6,4c1,1,2.5,1.5,4.2,1.5c1.9,0,3.4-0.5,4.4-1.4s1.5-2.3,1.5-4.2c0-1.2-0.2-2.2-0.5-3h-4.5v3.8H954.3z"/>
		<path class="st2" d="M960.1,199.3c-0.6,0-0.9-0.2-0.9-0.7c0-0.5,0.3-0.7,0.9-0.7s0.9,0.2,0.9,0.7C961,199,960.7,199.3,960.1,199.3
			z"/>
		<path class="st2" d="M954.3,187.1c2.3,0,3.9,0.3,5,1c1.1,0.7,1.6,1.7,1.6,3.1c0,1.3-0.6,2.4-1.7,3.1s-2.8,1-5,1
			c-2.2,0-3.9-0.3-5-1c-1.1-0.7-1.6-1.7-1.6-3.1c0-1.4,0.6-2.4,1.7-3.1S952.2,187.1,954.3,187.1z M954.3,194.4c2,0,3.5-0.3,4.4-0.8
			s1.4-1.3,1.4-2.4c0-1.1-0.5-1.9-1.5-2.4c-1-0.5-2.4-0.8-4.4-0.8c-1.9,0-3.3,0.3-4.3,0.8c-1,0.5-1.5,1.3-1.5,2.4s0.5,1.9,1.5,2.4
			S952.4,194.4,954.3,194.4z"/>
		<path class="st2" d="M954.3,176.9c2.3,0,3.9,0.3,5,1c1.1,0.7,1.6,1.7,1.6,3.1c0,1.3-0.6,2.4-1.7,3.1s-2.8,1-5,1
			c-2.2,0-3.9-0.3-5-1c-1.1-0.7-1.6-1.7-1.6-3.1c0-1.4,0.6-2.4,1.7-3.1S952.2,176.9,954.3,176.9z M954.3,184.2c2,0,3.5-0.3,4.4-0.8
			s1.4-1.3,1.4-2.4c0-1.1-0.5-1.9-1.5-2.4c-1-0.5-2.4-0.8-4.4-0.8c-1.9,0-3.3,0.3-4.3,0.8c-1,0.5-1.5,1.3-1.5,2.4s0.5,1.9,1.5,2.4
			S952.4,184.2,954.3,184.2z"/>
		<path class="st2" d="M960.8,172.9l-12-5.3v7.3h-0.8v-8.3h0.6l12.2,5.3V172.9z"/>
	</g>
	<g>
		<path class="st2" d="M960.8,329.7v7h-12.8v-7h0.8v6.1h4.9V330h0.8v5.8h5.5v-6.1H960.8z"/>
		<path class="st2" d="M960.1,327.1c-0.6,0-0.9-0.2-0.9-0.7c0-0.5,0.3-0.7,0.9-0.7s0.9,0.2,0.9,0.7
			C961,326.9,960.7,327.1,960.1,327.1z"/>
		<path class="st2" d="M960.8,313.2v0.9h-6.3v7.5h6.3v0.9h-12.8v-0.9h5.7v-7.5h-5.7v-0.9H960.8z"/>
		<path class="st2" d="M954.3,304.5v-4.7h5.9c0.5,1.2,0.8,2.6,0.8,4.2c0,2-0.6,3.6-1.7,4.7c-1.1,1.1-2.8,1.6-4.9,1.6
			c-1.3,0-2.5-0.3-3.5-0.8c-1-0.5-1.8-1.3-2.3-2.3s-0.8-2.1-0.8-3.4c0-1.4,0.3-2.7,0.8-3.8l0.8,0.4c-0.5,1.1-0.8,2.3-0.8,3.5
			c0,1.7,0.5,3,1.6,4c1,1,2.5,1.5,4.2,1.5c1.9,0,3.4-0.5,4.4-1.4s1.5-2.3,1.5-4.2c0-1.2-0.2-2.2-0.5-3h-4.5v3.8H954.3z"/>
		<path class="st2" d="M960.1,296.9c-0.6,0-0.9-0.2-0.9-0.7c0-0.5,0.3-0.7,0.9-0.7s0.9,0.2,0.9,0.7
			C961,296.7,960.7,296.9,960.1,296.9z"/>
		<path class="st2" d="M954.3,284.8c2.3,0,3.9,0.3,5,1c1.1,0.7,1.6,1.7,1.6,3.1c0,1.3-0.6,2.4-1.7,3.1s-2.8,1-5,1
			c-2.2,0-3.9-0.3-5-1c-1.1-0.7-1.6-1.7-1.6-3.1c0-1.4,0.6-2.4,1.7-3.1S952.2,284.8,954.3,284.8z M954.3,292.1c2,0,3.5-0.3,4.4-0.8
			s1.4-1.3,1.4-2.4c0-1.1-0.5-1.9-1.5-2.4c-1-0.5-2.4-0.8-4.4-0.8c-1.9,0-3.3,0.3-4.3,0.8c-1,0.5-1.5,1.3-1.5,2.4s0.5,1.9,1.5,2.4
			S952.4,292.1,954.3,292.1z"/>
		<path class="st2" d="M954.3,274.5c2.3,0,3.9,0.3,5,1c1.1,0.7,1.6,1.7,1.6,3.1c0,1.3-0.6,2.4-1.7,3.1s-2.8,1-5,1
			c-2.2,0-3.9-0.3-5-1c-1.1-0.7-1.6-1.7-1.6-3.1c0-1.4,0.6-2.4,1.7-3.1S952.2,274.5,954.3,274.5z M954.3,281.8c2,0,3.5-0.3,4.4-0.8
			s1.4-1.3,1.4-2.4c0-1.1-0.5-1.9-1.5-2.4c-1-0.5-2.4-0.8-4.4-0.8c-1.9,0-3.3,0.3-4.3,0.8c-1,0.5-1.5,1.3-1.5,2.4s0.5,1.9,1.5,2.4
			S952.4,281.8,954.3,281.8z"/>
		<path class="st2" d="M947.7,268.4c0-1.1,0.3-2,0.8-2.6c0.6-0.7,1.3-1,2.3-1c0.7,0,1.2,0.2,1.7,0.6c0.5,0.4,1,1.1,1.4,2
			c0.5-1.1,1-1.9,1.5-2.4s1.2-0.7,2-0.7c1.1,0,1.9,0.4,2.5,1.1c0.6,0.7,0.9,1.7,0.9,3c0,1.3-0.3,2.3-0.9,3s-1.5,1-2.6,1
			c-0.8,0-1.4-0.2-2-0.7s-1.1-1.2-1.5-2.3c-0.4,0.9-0.9,1.6-1.4,2s-1.1,0.6-1.8,0.6c-0.6,0-1.2-0.2-1.6-0.5s-0.8-0.7-1.1-1.3
			C947.8,269.7,947.7,269.1,947.7,268.4z M948.5,268.4c0,0.8,0.2,1.5,0.6,2c0.4,0.5,1,0.8,1.7,0.8c0.4,0,0.8-0.1,1.1-0.3
			c0.3-0.2,0.6-0.5,0.9-0.8s0.6-0.9,0.9-1.8c-0.4-1-0.8-1.6-1.2-2.1s-1-0.6-1.6-0.6c-0.7,0-1.3,0.2-1.7,0.7S948.5,267.5,948.5,268.4
			z M957.6,271.5c0.8,0,1.4-0.3,1.9-0.8s0.7-1.3,0.7-2.3c0-1-0.2-1.7-0.7-2.3s-1.1-0.9-1.9-0.9c-0.7,0-1.3,0.2-1.8,0.7
			c-0.5,0.5-0.9,1.3-1.4,2.7c0.4,1.1,0.9,1.8,1.4,2.3S956.9,271.5,957.6,271.5z"/>
	</g>
	<g>
		<path class="st2" d="M960.8,414.5v7h-12.8v-7h0.8v6.1h4.9v-5.8h0.8v5.8h5.5v-6.1H960.8z"/>
		<path class="st2" d="M960.1,412c-0.6,0-0.9-0.2-0.9-0.7c0-0.5,0.3-0.7,0.9-0.7s0.9,0.2,0.9,0.7C961,411.7,960.7,412,960.1,412z"/>
		<path class="st2" d="M960.8,398v0.9h-6.3v7.5h6.3v0.9h-12.8v-0.9h5.7v-7.5h-5.7V398H960.8z"/>
		<path class="st2" d="M954.3,389.3v-4.7h5.9c0.5,1.2,0.8,2.6,0.8,4.2c0,2-0.6,3.6-1.7,4.7c-1.1,1.1-2.8,1.6-4.9,1.6
			c-1.3,0-2.5-0.3-3.5-0.8c-1-0.5-1.8-1.3-2.3-2.3s-0.8-2.1-0.8-3.4c0-1.4,0.3-2.7,0.8-3.8l0.8,0.4c-0.5,1.1-0.8,2.3-0.8,3.5
			c0,1.7,0.5,3,1.6,4c1,1,2.5,1.5,4.2,1.5c1.9,0,3.4-0.5,4.4-1.4s1.5-2.3,1.5-4.2c0-1.2-0.2-2.2-0.5-3h-4.5v3.8H954.3z"/>
		<path class="st2" d="M960.1,381.7c-0.6,0-0.9-0.2-0.9-0.7c0-0.5,0.3-0.7,0.9-0.7s0.9,0.2,0.9,0.7
			C961,381.5,960.7,381.7,960.1,381.7z"/>
		<path class="st2" d="M954.3,369.6c2.3,0,3.9,0.3,5,1c1.1,0.7,1.6,1.7,1.6,3.1c0,1.3-0.6,2.4-1.7,3.1s-2.8,1-5,1
			c-2.2,0-3.9-0.3-5-1c-1.1-0.7-1.6-1.7-1.6-3.1c0-1.4,0.6-2.4,1.7-3.1S952.2,369.6,954.3,369.6z M954.3,376.9c2,0,3.5-0.3,4.4-0.8
			s1.4-1.3,1.4-2.4c0-1.1-0.5-1.9-1.5-2.4c-1-0.5-2.4-0.8-4.4-0.8c-1.9,0-3.3,0.3-4.3,0.8c-1,0.5-1.5,1.3-1.5,2.4s0.5,1.9,1.5,2.4
			S952.4,376.9,954.3,376.9z"/>
		<path class="st2" d="M954.3,359.3c2.3,0,3.9,0.3,5,1c1.1,0.7,1.6,1.7,1.6,3.1c0,1.3-0.6,2.4-1.7,3.1s-2.8,1-5,1
			c-2.2,0-3.9-0.3-5-1c-1.1-0.7-1.6-1.7-1.6-3.1c0-1.4,0.6-2.4,1.7-3.1S952.2,359.3,954.3,359.3z M954.3,366.6c2,0,3.5-0.3,4.4-0.8
			s1.4-1.3,1.4-2.4c0-1.1-0.5-1.9-1.5-2.4c-1-0.5-2.4-0.8-4.4-0.8c-1.9,0-3.3,0.3-4.3,0.8c-1,0.5-1.5,1.3-1.5,2.4s0.5,1.9,1.5,2.4
			S952.4,366.6,954.3,366.6z"/>
		<path class="st2" d="M953.4,349.2c1.7,0,3.1,0.2,4.2,0.7s2,1.1,2.5,1.9s0.8,1.9,0.8,3.1c0,0.6-0.1,1.2-0.2,1.7H960
			c0.1-0.3,0.1-0.6,0.2-0.9s0.1-0.6,0.1-0.8c0-1.4-0.5-2.6-1.6-3.4s-2.6-1.3-4.6-1.4v0.1c0.6,0.4,1,0.9,1.3,1.5s0.5,1.2,0.5,1.9
			c0,1.2-0.3,2.1-1,2.8s-1.6,1-2.8,1c-1.3,0-2.3-0.4-3.1-1.1c-0.8-0.7-1.2-1.7-1.2-2.8c0-0.8,0.2-1.6,0.7-2.2s1.1-1.1,1.9-1.5
			C951.2,349.4,952.2,349.2,953.4,349.2z M948.5,353.4c0,0.9,0.3,1.7,0.9,2.2s1.5,0.8,2.6,0.8c1,0,1.8-0.3,2.3-0.8s0.8-1.2,0.8-2.2
			c0-0.6-0.1-1.1-0.4-1.7c-0.3-0.5-0.6-0.9-1.1-1.2s-0.9-0.5-1.3-0.5c-0.7,0-1.3,0.1-1.9,0.4c-0.6,0.3-1.1,0.7-1.4,1.1
			C948.7,352.2,948.5,352.8,948.5,353.4z"/>
	</g>
	<g>
		<path class="st2" d="M748.8,490.9v7H736v-7h0.8v6.1h4.9v-5.8h0.8v5.8h5.5v-6.1H748.8z"/>
		<path class="st2" d="M748.2,488.4c-0.6,0-0.9-0.2-0.9-0.7c0-0.5,0.3-0.7,0.9-0.7s0.9,0.2,0.9,0.7
			C749,488.2,748.7,488.4,748.2,488.4z"/>
		<path class="st2" d="M748.8,474.4v0.9h-6.3v7.5h6.3v0.9H736v-0.9h5.7v-7.5H736v-0.9H748.8z"/>
		<path class="st2" d="M742.4,465.7V461h5.9c0.5,1.2,0.8,2.6,0.8,4.2c0,2-0.6,3.6-1.7,4.7c-1.1,1.1-2.8,1.6-4.9,1.6
			c-1.3,0-2.5-0.3-3.5-0.8c-1-0.5-1.8-1.3-2.3-2.3s-0.8-2.1-0.8-3.4c0-1.4,0.3-2.7,0.8-3.8l0.8,0.4c-0.5,1.1-0.8,2.3-0.8,3.5
			c0,1.7,0.5,3,1.6,4c1,1,2.5,1.5,4.2,1.5c1.9,0,3.4-0.5,4.4-1.4s1.5-2.3,1.5-4.2c0-1.2-0.2-2.2-0.5-3h-4.5v3.8H742.4z"/>
		<path class="st2" d="M748.2,458.2c-0.6,0-0.9-0.2-0.9-0.7c0-0.5,0.3-0.7,0.9-0.7s0.9,0.2,0.9,0.7
			C749,457.9,748.7,458.2,748.2,458.2z"/>
		<path class="st2" d="M742.4,446c2.3,0,3.9,0.3,5,1c1.1,0.7,1.6,1.7,1.6,3.1c0,1.3-0.6,2.4-1.7,3.1s-2.8,1-5,1c-2.2,0-3.9-0.3-5-1
			c-1.1-0.7-1.6-1.7-1.6-3.1c0-1.4,0.6-2.4,1.7-3.1S740.2,446,742.4,446z M742.4,453.3c2,0,3.5-0.3,4.4-0.8s1.4-1.3,1.4-2.4
			c0-1.1-0.5-1.9-1.5-2.4c-1-0.5-2.4-0.8-4.4-0.8c-1.9,0-3.3,0.3-4.3,0.8c-1,0.5-1.5,1.3-1.5,2.4s0.5,1.9,1.5,2.4
			S740.5,453.3,742.4,453.3z"/>
		<path class="st2" d="M748.8,439v0.9h-9.4c-0.8,0-1.7,0-2.6-0.1c0.1,0.1,0.2,0.2,0.3,0.3s0.8,1,2.1,2.7l-0.6,0.5l-2.6-3.5V439
			H748.8z"/>
		<path class="st2" d="M745.6,424.7v2.2h3.3v0.8h-3.3v6.6H745l-9.1-6.4v-1.1h8.9v-2.2H745.6z M744.8,427.8h-3.7
			c-1.8,0-3.3,0-4.5-0.1v0.1c0.2,0.1,0.8,0.5,1.7,1.1l6.5,4.5V427.8z"/>
	</g>
	<g>
		<path class="st2" d="M726.9,600h-7v-12.8h7v0.8h-6.1v4.9h5.8v0.8h-5.8v5.5h6.1V600z"/>
		<path class="st2" d="M729.4,599.3c0-0.6,0.2-0.9,0.7-0.9c0.5,0,0.7,0.3,0.7,0.9s-0.2,0.9-0.7,0.9
			C729.7,600.2,729.4,599.9,729.4,599.3z"/>
		<path class="st2" d="M743.4,600h-0.9v-6.3H735v6.3h-0.9v-12.8h0.9v5.7h7.5v-5.7h0.9V600z"/>
		<path class="st2" d="M752.1,593.5h4.7v5.9c-1.2,0.5-2.6,0.8-4.2,0.8c-2,0-3.6-0.6-4.7-1.7c-1.1-1.1-1.6-2.8-1.6-4.9
			c0-1.3,0.3-2.5,0.8-3.5c0.5-1,1.3-1.8,2.3-2.3s2.1-0.8,3.4-0.8c1.4,0,2.7,0.3,3.8,0.8l-0.4,0.8c-1.1-0.5-2.3-0.8-3.5-0.8
			c-1.7,0-3,0.5-4,1.6c-1,1-1.5,2.5-1.5,4.2c0,1.9,0.5,3.4,1.4,4.4s2.3,1.5,4.2,1.5c1.2,0,2.2-0.2,3-0.5v-4.5h-3.8V593.5z"/>
		<path class="st2" d="M759.7,599.3c0-0.6,0.2-0.9,0.7-0.9c0.5,0,0.7,0.3,0.7,0.9s-0.2,0.9-0.7,0.9
			C759.9,600.2,759.7,599.9,759.7,599.3z"/>
		<path class="st2" d="M771.8,593.5c0,2.3-0.3,3.9-1,5c-0.7,1.1-1.7,1.6-3.1,1.6c-1.3,0-2.4-0.6-3.1-1.7s-1-2.8-1-5
			c0-2.2,0.3-3.9,1-5c0.7-1.1,1.7-1.6,3.1-1.6c1.4,0,2.4,0.6,3.1,1.7S771.8,591.4,771.8,593.5z M764.5,593.5c0,2,0.3,3.5,0.8,4.4
			s1.3,1.4,2.4,1.4c1.1,0,1.9-0.5,2.4-1.5c0.5-1,0.8-2.4,0.8-4.4c0-1.9-0.3-3.3-0.8-4.3c-0.5-1-1.3-1.5-2.4-1.5s-1.9,0.5-2.4,1.5
			S764.5,591.6,764.5,593.5z"/>
		<path class="st2" d="M778.8,600h-0.9v-9.4c0-0.8,0-1.7,0.1-2.6c-0.1,0.1-0.2,0.2-0.3,0.3s-1,0.8-2.7,2.1l-0.5-0.6l3.5-2.6h0.8V600
			z"/>
		<path class="st2" d="M791.7,590.2c0,0.8-0.3,1.5-0.8,2c-0.5,0.5-1.2,0.9-2,1v0.1c1,0.1,1.8,0.5,2.4,1s0.8,1.2,0.8,2.1
			c0,1.2-0.4,2.1-1.2,2.8c-0.8,0.7-2,1-3.5,1c-1.3,0-2.4-0.2-3.4-0.7v-0.9c0.5,0.3,1,0.5,1.7,0.6s1.2,0.2,1.7,0.2
			c1.3,0,2.3-0.3,2.9-0.8s1-1.3,1-2.2c0-0.8-0.3-1.5-1-2s-1.6-0.7-2.9-0.7h-1.4v-0.8h1.4c1.1,0,1.9-0.3,2.5-0.8
			c0.6-0.5,0.9-1.2,0.9-2.1c0-0.7-0.3-1.3-0.8-1.7c-0.5-0.4-1.2-0.6-2-0.6c-0.6,0-1.2,0.1-1.7,0.3s-1.1,0.5-1.8,0.9l-0.4-0.6
			c0.5-0.4,1.1-0.7,1.8-1s1.4-0.4,2.1-0.4c1.2,0,2.1,0.3,2.7,0.8S791.7,589.2,791.7,590.2z"/>
	</g>
	<g>
		<path class="st2" d="M215.1,867.5c0,1.4-0.5,2.6-1.6,3.4s-2.4,1.3-4.2,1.3c-2.1,0-3.7-0.2-4.8-0.7v-1.2c1.2,0.5,2.8,0.8,4.7,0.8
			c1.4,0,2.5-0.3,3.3-1s1.2-1.5,1.2-2.5c0-0.6-0.1-1.2-0.4-1.6s-0.7-0.8-1.3-1.2s-1.5-0.7-2.7-1.1c-1.8-0.6-3-1.3-3.6-2
			s-1-1.6-1-2.8c0-1.3,0.5-2.3,1.5-3.1s2.3-1.2,3.9-1.2c1.6,0,3.1,0.3,4.5,0.9l-0.4,1c-1.4-0.6-2.8-0.9-4.1-0.9
			c-1.3,0-2.3,0.3-3,0.9s-1.1,1.4-1.1,2.4c0,0.6,0.1,1.2,0.3,1.6s0.6,0.8,1.1,1.1s1.4,0.7,2.7,1.2c1.3,0.5,2.3,0.9,3,1.3
			s1.2,0.9,1.5,1.5S215.1,866.8,215.1,867.5z"/>
		<path class="st2" d="M223.6,872.2c-1.9,0-3.3-0.6-4.3-1.7s-1.6-2.7-1.6-4.8c0-2,0.5-3.7,1.5-4.9s2.3-1.8,4-1.8
			c1.5,0,2.7,0.5,3.6,1.6s1.3,2.5,1.3,4.3v0.9h-9.2c0,1.8,0.4,3.1,1.2,4s1.9,1.4,3.4,1.4c0.7,0,1.4-0.1,1.9-0.2s1.2-0.3,2.1-0.7v1.1
			c-0.7,0.3-1.4,0.5-2,0.6S224.3,872.2,223.6,872.2z M223.3,860c-1.2,0-2.2,0.4-3,1.2s-1.2,2-1.3,3.5h7.9c0-1.5-0.3-2.6-1-3.5
			S224.4,860,223.3,860z"/>
		<path class="st2" d="M236.7,859c0.5,0,1.1,0.1,1.7,0.2l-0.2,1.1c-0.5-0.1-1.1-0.2-1.7-0.2c-1.1,0-2,0.5-2.7,1.4s-1,2.1-1,3.5v7
			h-1.2v-12.7h1l0.1,2.3h0.1c0.5-0.9,1.1-1.6,1.7-2S235.9,859,236.7,859z"/>
		<path class="st2" d="M243.4,872l-4.9-12.7h1.2l3.3,8.7c0.4,1.1,0.8,2.1,1,2.9h0.1c0.3-1.1,0.6-2,1-2.9l3.3-8.6h1.2l-4.9,12.7
			H243.4z"/>
		<path class="st2" d="M251.3,855.7c0-0.8,0.2-1.1,0.7-1.1c0.2,0,0.4,0.1,0.6,0.3s0.2,0.5,0.2,0.8c0,0.4-0.1,0.6-0.2,0.8
			s-0.3,0.3-0.6,0.3C251.6,856.8,251.3,856.4,251.3,855.7z M252.7,872h-1.2v-12.7h1.2V872z"/>
		<path class="st2" d="M262,872.2c-1.8,0-3.2-0.6-4.3-1.7s-1.5-2.8-1.5-4.8c0-2.1,0.5-3.8,1.6-4.9s2.5-1.8,4.4-1.8
			c1.1,0,2.2,0.2,3.2,0.6l-0.3,1c-1.1-0.4-2.1-0.6-2.9-0.6c-1.6,0-2.7,0.5-3.6,1.4s-1.2,2.4-1.2,4.2c0,1.7,0.4,3.1,1.2,4
			s1.9,1.5,3.4,1.5c1.2,0,2.2-0.2,3.2-0.6v1.1C264.4,872,263.3,872.2,262,872.2z"/>
		<path class="st2" d="M273.5,872.2c-1.9,0-3.3-0.6-4.3-1.7s-1.6-2.7-1.6-4.8c0-2,0.5-3.7,1.5-4.9s2.3-1.8,4-1.8
			c1.5,0,2.7,0.5,3.6,1.6s1.3,2.5,1.3,4.3v0.9h-9.2c0,1.8,0.4,3.1,1.2,4s1.9,1.4,3.4,1.4c0.7,0,1.4-0.1,1.9-0.2s1.2-0.3,2.1-0.7v1.1
			c-0.7,0.3-1.4,0.5-2,0.6S274.2,872.2,273.5,872.2z M273.1,860c-1.2,0-2.2,0.4-3,1.2s-1.2,2-1.3,3.5h7.9c0-1.5-0.3-2.6-1-3.5
			S274.3,860,273.1,860z"/>
		<path class="st2" d="M213,884.5c-2.1,0-3.8,0.7-5.1,2.1s-1.9,3.3-1.9,5.6c0,2.4,0.6,4.3,1.7,5.7s2.8,2,5,2c1.4,0,2.8-0.2,4-0.6
			v1.1c-1.1,0.4-2.5,0.6-4.2,0.6c-2.4,0-4.3-0.8-5.7-2.3s-2.1-3.7-2.1-6.5c0-1.7,0.3-3.3,1-4.6s1.6-2.4,2.8-3.1s2.7-1.1,4.3-1.1
			c1.7,0,3.2,0.3,4.5,0.9l-0.5,1.1C215.7,884.8,214.4,884.5,213,884.5z"/>
		<path class="st2" d="M225.4,901c-1.9,0-3.3-0.6-4.3-1.7s-1.6-2.7-1.6-4.8c0-2,0.5-3.7,1.5-4.9s2.3-1.8,4-1.8
			c1.5,0,2.7,0.5,3.6,1.6s1.3,2.5,1.3,4.3v0.9h-9.2c0,1.8,0.4,3.1,1.2,4s1.9,1.4,3.4,1.4c0.7,0,1.4-0.1,1.9-0.2s1.2-0.3,2.1-0.7v1.1
			c-0.7,0.3-1.4,0.5-2,0.6S226.2,901,225.4,901z M225.1,888.8c-1.2,0-2.2,0.4-3,1.2s-1.2,2-1.3,3.5h7.9c0-1.5-0.3-2.6-1-3.5
			S226.2,888.8,225.1,888.8z"/>
		<path class="st2" d="M242.4,900.8v-8.3c0-1.3-0.3-2.2-0.8-2.8s-1.4-0.9-2.5-0.9c-1.5,0-2.6,0.4-3.3,1.2s-1.1,2-1.1,3.7v7h-1.2V888
			h1l0.2,1.7h0.1c0.8-1.3,2.3-2,4.4-2c2.9,0,4.3,1.6,4.3,4.7v8.3H242.4z"/>
		<path class="st2" d="M251,900c0.7,0,1.4-0.1,1.9-0.2v0.9c-0.6,0.2-1.2,0.3-1.9,0.3c-1.1,0-2-0.3-2.5-0.9s-0.8-1.5-0.8-2.8V889
			h-1.9v-0.7l1.9-0.5l0.6-2.9h0.6v3.1h3.7v1h-3.7v8.1c0,1,0.2,1.7,0.5,2.2S250.3,900,251,900z"/>
		<path class="st2" d="M260.8,901c-1.9,0-3.3-0.6-4.3-1.7s-1.6-2.7-1.6-4.8c0-2,0.5-3.7,1.5-4.9s2.3-1.8,4-1.8
			c1.5,0,2.7,0.5,3.6,1.6s1.3,2.5,1.3,4.3v0.9h-9.2c0,1.8,0.4,3.1,1.2,4s1.9,1.4,3.4,1.4c0.7,0,1.4-0.1,1.9-0.2s1.2-0.3,2.1-0.7v1.1
			c-0.7,0.3-1.4,0.5-2,0.6S261.5,901,260.8,901z M260.5,888.8c-1.2,0-2.2,0.4-3,1.2s-1.2,2-1.3,3.5h7.9c0-1.5-0.3-2.6-1-3.5
			S261.6,888.8,260.5,888.8z"/>
		<path class="st2" d="M273.9,887.8c0.5,0,1.1,0.1,1.7,0.2l-0.2,1.1c-0.5-0.1-1.1-0.2-1.7-0.2c-1.1,0-2,0.5-2.7,1.4s-1,2.1-1,3.5v7
			h-1.2V888h1l0.1,2.3h0.1c0.5-0.9,1.1-1.6,1.7-2S273,887.8,273.9,887.8z"/>
	</g>
	<g>
		<path class="st2" d="M212.1,845.3h-7v-12.8h7v0.8H206v4.9h5.8v0.8H206v5.5h6.1V845.3z"/>
		<path class="st2" d="M214.6,844.6c0-0.6,0.2-0.9,0.7-0.9c0.5,0,0.7,0.3,0.7,0.9s-0.2,0.9-0.7,0.9
			C214.8,845.5,214.6,845.2,214.6,844.6z"/>
		<path class="st2" d="M228.6,845.3h-0.9V839h-7.5v6.3h-0.9v-12.8h0.9v5.7h7.5v-5.7h0.9V845.3z"/>
		<path class="st2" d="M237.3,838.9h4.7v5.9c-1.2,0.5-2.6,0.8-4.2,0.8c-2,0-3.6-0.6-4.7-1.7c-1.1-1.1-1.6-2.8-1.6-4.9
			c0-1.3,0.3-2.5,0.8-3.5c0.5-1,1.3-1.8,2.3-2.3s2.1-0.8,3.4-0.8c1.4,0,2.7,0.3,3.8,0.8l-0.4,0.8c-1.1-0.5-2.3-0.8-3.5-0.8
			c-1.7,0-3,0.5-4,1.6c-1,1-1.5,2.5-1.5,4.2c0,1.9,0.5,3.4,1.4,4.4c0.9,1,2.3,1.5,4.2,1.5c1.2,0,2.2-0.2,3-0.5v-4.5h-3.8V838.9z"/>
		<path class="st2" d="M244.9,844.6c0-0.6,0.2-0.9,0.7-0.9c0.5,0,0.7,0.3,0.7,0.9s-0.2,0.9-0.7,0.9
			C245.1,845.5,244.9,845.2,244.9,844.6z"/>
		<path class="st2" d="M257,838.9c0,2.3-0.3,3.9-1,5s-1.7,1.6-3.1,1.6c-1.3,0-2.4-0.6-3.1-1.7c-0.7-1.1-1-2.8-1-5c0-2.2,0.3-3.9,1-5
			s1.7-1.6,3.1-1.6c1.4,0,2.4,0.6,3.1,1.7C256.6,835.1,257,836.7,257,838.9z M249.7,838.9c0,2,0.3,3.5,0.8,4.4s1.3,1.4,2.4,1.4
			c1.1,0,1.9-0.5,2.4-1.5s0.8-2.4,0.8-4.4c0-1.9-0.3-3.3-0.8-4.3s-1.3-1.5-2.4-1.5s-1.9,0.5-2.4,1.5S249.7,837,249.7,838.9z"/>
		<path class="st2" d="M267,845.3h-8v-0.8l3.4-3.6c1-1,1.6-1.8,2-2.3s0.7-1,0.9-1.5s0.3-1,0.3-1.5c0-0.8-0.3-1.4-0.8-1.9
			s-1.2-0.7-2-0.7c-1.1,0-2.1,0.4-3.1,1.2l-0.5-0.6c1.1-0.9,2.3-1.4,3.6-1.4c1.1,0,2,0.3,2.6,0.9s1,1.4,1,2.5c0,0.8-0.2,1.7-0.6,2.5
			c-0.4,0.8-1.2,1.8-2.4,2.9l-3.3,3.4v0h6.9V845.3z"/>
		<path class="st2" d="M273,837.6c1.4,0,2.5,0.3,3.2,1s1.2,1.6,1.2,2.7c0,1.3-0.4,2.3-1.2,3.1s-2,1.1-3.4,1.1
			c-0.6,0-1.2-0.1-1.8-0.2c-0.6-0.1-1.1-0.3-1.4-0.5v-0.9c0.6,0.3,1.2,0.5,1.7,0.7c0.5,0.1,1,0.2,1.6,0.2c1.1,0,2-0.3,2.7-0.9
			c0.7-0.6,1-1.4,1-2.4c0-1-0.3-1.7-1-2.2s-1.6-0.8-2.7-0.8c-0.8,0-1.6,0.1-2.4,0.3l-0.5-0.3l0.5-5.9h6.2v0.8h-5.4l-0.4,4.5
			C271.8,837.7,272.5,837.6,273,837.6z"/>
	</g>
	<g>
		<path class="st2" d="M227.1,990.1h-7v-12.8h7v0.8h-6.1v4.9h5.8v0.8h-5.8v5.5h6.1V990.1z"/>
		<path class="st2" d="M229.6,989.5c0-0.6,0.2-0.9,0.7-0.9c0.5,0,0.7,0.3,0.7,0.9s-0.2,0.9-0.7,0.9
			C229.8,990.3,229.6,990,229.6,989.5z"/>
		<path class="st2" d="M243.5,990.1h-0.9v-6.3h-7.5v6.3h-0.9v-12.8h0.9v5.7h7.5v-5.7h0.9V990.1z"/>
		<path class="st2" d="M252.2,983.7h4.7v5.9c-1.2,0.5-2.6,0.8-4.2,0.8c-2,0-3.6-0.6-4.7-1.7c-1.1-1.1-1.6-2.8-1.6-4.9
			c0-1.3,0.3-2.5,0.8-3.5c0.5-1,1.3-1.8,2.3-2.3s2.1-0.8,3.4-0.8c1.4,0,2.7,0.3,3.8,0.8l-0.4,0.8c-1.1-0.5-2.3-0.8-3.5-0.8
			c-1.7,0-3,0.5-4,1.6c-1,1-1.5,2.5-1.5,4.2c0,1.9,0.5,3.4,1.4,4.4c0.9,1,2.3,1.5,4.2,1.5c1.2,0,2.2-0.2,3-0.5v-4.5h-3.8V983.7z"/>
		<path class="st2" d="M259.8,989.5c0-0.6,0.2-0.9,0.7-0.9c0.5,0,0.7,0.3,0.7,0.9s-0.2,0.9-0.7,0.9C260,990.3,259.8,990,259.8,989.5
			z"/>
		<path class="st2" d="M271.9,983.7c0,2.3-0.3,3.9-1,5s-1.7,1.6-3.1,1.6c-1.3,0-2.4-0.6-3.1-1.7c-0.7-1.1-1-2.8-1-5
			c0-2.2,0.3-3.9,1-5s1.7-1.6,3.1-1.6c1.4,0,2.4,0.6,3.1,1.7C271.6,979.9,271.9,981.5,271.9,983.7z M264.6,983.7
			c0,2,0.3,3.5,0.8,4.4s1.3,1.4,2.4,1.4c1.1,0,1.9-0.5,2.4-1.5s0.8-2.4,0.8-4.4c0-1.9-0.3-3.3-0.8-4.3s-1.3-1.5-2.4-1.5
			s-1.9,0.5-2.4,1.5S264.6,981.8,264.6,983.7z"/>
		<path class="st2" d="M282,990.1h-8v-0.8l3.4-3.6c1-1,1.6-1.8,2-2.3s0.7-1,0.9-1.5s0.3-1,0.3-1.5c0-0.8-0.3-1.4-0.8-1.9
			s-1.2-0.7-2-0.7c-1.1,0-2.1,0.4-3.1,1.2l-0.5-0.6c1.1-0.9,2.3-1.4,3.6-1.4c1.1,0,2,0.3,2.6,0.9s1,1.4,1,2.5c0,0.8-0.2,1.7-0.6,2.5
			c-0.4,0.8-1.2,1.8-2.4,2.9l-3.3,3.4v0h6.9V990.1z"/>
		<path class="st2" d="M293.2,986.9H291v3.3h-0.8v-3.3h-6.6v-0.6l6.4-9.1h1.1v8.9h2.2V986.9z M290.2,986.1v-3.7c0-1.8,0-3.3,0.1-4.5
			h-0.1c-0.1,0.2-0.5,0.8-1.1,1.7l-4.5,6.5H290.2z"/>
	</g>
	<g>
		<path class="st2" d="M577.3,882.4v7h-12.8v-7h0.8v6.1h4.9v-5.8h0.8v5.8h5.5v-6.1H577.3z"/>
		<path class="st2" d="M576.6,879.9c-0.6,0-0.9-0.2-0.9-0.7c0-0.5,0.3-0.7,0.9-0.7s0.9,0.2,0.9,0.7
			C577.5,879.7,577.2,879.9,576.6,879.9z"/>
		<path class="st2" d="M577.3,865.9v0.9H571v7.5h6.3v0.9h-12.8v-0.9h5.7v-7.5h-5.7v-0.9H577.3z"/>
		<path class="st2" d="M570.8,857.2v-4.7h5.9c0.5,1.2,0.8,2.6,0.8,4.2c0,2-0.6,3.6-1.7,4.7c-1.1,1.1-2.8,1.6-4.9,1.6
			c-1.3,0-2.5-0.3-3.5-0.8c-1-0.5-1.8-1.3-2.3-2.3s-0.8-2.1-0.8-3.4c0-1.4,0.3-2.7,0.8-3.8l0.8,0.4c-0.5,1.1-0.8,2.3-0.8,3.5
			c0,1.7,0.5,3,1.6,4c1,1,2.5,1.5,4.2,1.5c1.9,0,3.4-0.5,4.4-1.4c1-0.9,1.5-2.3,1.5-4.2c0-1.2-0.2-2.2-0.5-3h-4.5v3.8H570.8z"/>
		<path class="st2" d="M576.6,849.7c-0.6,0-0.9-0.2-0.9-0.7c0-0.5,0.3-0.7,0.9-0.7s0.9,0.2,0.9,0.7
			C577.5,849.4,577.2,849.7,576.6,849.7z"/>
		<path class="st2" d="M570.9,837.5c2.3,0,3.9,0.3,5,1c1.1,0.7,1.6,1.7,1.6,3.1c0,1.3-0.6,2.4-1.7,3.1c-1.1,0.7-2.8,1-5,1
			c-2.2,0-3.9-0.3-5-1c-1.1-0.7-1.6-1.7-1.6-3.1c0-1.4,0.6-2.4,1.7-3.1C567.1,837.9,568.7,837.5,570.9,837.5z M570.9,844.8
			c2,0,3.5-0.3,4.4-0.8s1.4-1.3,1.4-2.4c0-1.1-0.5-1.9-1.5-2.4c-1-0.5-2.4-0.8-4.4-0.8c-1.9,0-3.3,0.3-4.3,0.8
			c-1,0.5-1.5,1.3-1.5,2.4s0.5,1.9,1.5,2.4S569,844.8,570.9,844.8z"/>
		<path class="st2" d="M577.3,830.5v0.9H568c-0.8,0-1.7,0-2.6-0.1c0.1,0.1,0.2,0.2,0.3,0.3s0.8,1,2.1,2.7l-0.6,0.5l-2.6-3.5v-0.8
			H577.3z"/>
		<path class="st2" d="M571.8,825.1c-1.7,0-3.1-0.2-4.2-0.7s-2-1.1-2.5-1.9c-0.6-0.8-0.8-1.8-0.8-3c0-0.6,0.1-1.1,0.2-1.5h0.8
			c-0.2,0.4-0.2,0.9-0.2,1.5c0,1.4,0.5,2.6,1.6,3.4c1,0.8,2.6,1.3,4.6,1.4v-0.1c-0.6-0.4-1-1-1.3-1.5s-0.4-1.2-0.4-1.8
			c0-1.2,0.3-2.1,1-2.8c0.7-0.7,1.6-1,2.8-1c1.3,0,2.3,0.4,3.1,1.1c0.8,0.7,1.1,1.7,1.1,2.9c0,1.3-0.5,2.3-1.5,3.1
			C575,824.7,573.6,825.1,571.8,825.1z M576.7,820.9c0-1-0.3-1.7-0.9-2.2s-1.5-0.8-2.6-0.8c-1,0-1.8,0.3-2.3,0.8s-0.8,1.2-0.8,2.2
			c0,0.6,0.1,1.2,0.4,1.7c0.3,0.5,0.6,0.9,1.1,1.2s0.9,0.5,1.3,0.5c0.7,0,1.3-0.1,1.9-0.4c0.6-0.3,1.1-0.7,1.4-1.2
			C576.5,822,576.7,821.5,576.7,820.9z"/>
	</g>
	<g>
		<path class="st2" d="M608.7,881.5v7h-12.8v-7h0.8v6.1h4.9v-5.8h0.8v5.8h5.5v-6.1H608.7z"/>
		<path class="st2" d="M608,879c-0.6,0-0.9-0.2-0.9-0.7c0-0.5,0.3-0.7,0.9-0.7s0.9,0.2,0.9,0.7C608.8,878.8,608.5,879,608,879z"/>
		<path class="st2" d="M608.7,865v0.9h-6.3v7.5h6.3v0.9h-12.8v-0.9h5.7v-7.5h-5.7V865H608.7z"/>
		<path class="st2" d="M602.2,856.3v-4.7h5.9c0.5,1.2,0.8,2.6,0.8,4.2c0,2-0.6,3.6-1.7,4.7c-1.1,1.1-2.8,1.6-4.9,1.6
			c-1.3,0-2.5-0.3-3.5-0.8c-1-0.5-1.8-1.3-2.3-2.3s-0.8-2.1-0.8-3.4c0-1.4,0.3-2.7,0.8-3.8l0.8,0.4c-0.5,1.1-0.8,2.3-0.8,3.5
			c0,1.7,0.5,3,1.6,4c1,1,2.5,1.5,4.2,1.5c1.9,0,3.4-0.5,4.4-1.4c1-0.9,1.5-2.3,1.5-4.2c0-1.2-0.2-2.2-0.5-3H603v3.8H602.2z"/>
		<path class="st2" d="M608,848.8c-0.6,0-0.9-0.2-0.9-0.7c0-0.5,0.3-0.7,0.9-0.7s0.9,0.2,0.9,0.7C608.8,848.5,608.5,848.8,608,848.8
			z"/>
		<path class="st2" d="M602.2,836.6c2.3,0,3.9,0.3,5,1c1.1,0.7,1.6,1.7,1.6,3.1c0,1.3-0.6,2.4-1.7,3.1c-1.1,0.7-2.8,1-5,1
			c-2.2,0-3.9-0.3-5-1c-1.1-0.7-1.6-1.7-1.6-3.1c0-1.4,0.6-2.4,1.7-3.1C598.4,837,600,836.6,602.2,836.6z M602.2,843.9
			c2,0,3.5-0.3,4.4-0.8s1.4-1.3,1.4-2.4c0-1.1-0.5-1.9-1.5-2.4c-1-0.5-2.4-0.8-4.4-0.8c-1.9,0-3.3,0.3-4.3,0.8
			c-1,0.5-1.5,1.3-1.5,2.4s0.5,1.9,1.5,2.4S600.3,843.9,602.2,843.9z"/>
		<path class="st2" d="M608.7,829.6v0.9h-9.4c-0.8,0-1.7,0-2.6-0.1c0.1,0.1,0.2,0.2,0.3,0.3s0.8,1,2.1,2.7l-0.6,0.5l-2.6-3.5v-0.8
			H608.7z"/>
		<path class="st2" d="M608.7,822.4l-12-5.3v7.3h-0.8v-8.3h0.6l12.2,5.3V822.4z"/>
		<path class="st2" d="M608.7,807.7l-1.5,0.2v0.1c0.6,0.5,1.1,1,1.3,1.5c0.3,0.5,0.4,1.1,0.4,1.8c0,0.9-0.2,1.7-0.7,2.2
			s-1.1,0.8-2,0.8c-0.9,0-1.7-0.4-2.2-1.2s-0.8-1.9-0.8-3.4l-0.1-1.8h-0.6c-0.9,0-1.6,0.2-2.1,0.6s-0.7,1-0.7,1.8
			c0,0.9,0.2,1.8,0.7,2.8l-0.8,0.3c-0.5-1-0.7-2.1-0.7-3.1c0-1,0.3-1.8,0.8-2.4c0.5-0.5,1.4-0.8,2.5-0.8h6.4V807.7z M608,811.2
			c0-1-0.3-1.8-0.9-2.4c-0.6-0.6-1.4-0.9-2.4-0.9h-0.9l0.1,1.7c0.1,1.3,0.3,2.3,0.6,2.9c0.4,0.6,0.9,0.9,1.7,0.9
			c0.6,0,1.1-0.2,1.4-0.5C607.9,812.4,608,811.9,608,811.2z"/>
	</g>
	<g>
		<path class="st2" d="M650,881.5v7h-12.8v-7h0.8v6.1h4.9v-5.8h0.8v5.8h5.5v-6.1H650z"/>
		<path class="st2" d="M649.3,879c-0.6,0-0.9-0.2-0.9-0.7c0-0.5,0.3-0.7,0.9-0.7s0.9,0.2,0.9,0.7C650.2,878.8,649.9,879,649.3,879z"
			/>
		<path class="st2" d="M650,865v0.9h-6.3v7.5h6.3v0.9h-12.8v-0.9h5.7v-7.5h-5.7V865H650z"/>
		<path class="st2" d="M643.5,856.3v-4.7h5.9c0.5,1.2,0.8,2.6,0.8,4.2c0,2-0.6,3.6-1.7,4.7c-1.1,1.1-2.8,1.6-4.9,1.6
			c-1.3,0-2.5-0.3-3.5-0.8c-1-0.5-1.8-1.3-2.3-2.3s-0.8-2.1-0.8-3.4c0-1.4,0.3-2.7,0.8-3.8l0.8,0.4c-0.5,1.1-0.8,2.3-0.8,3.5
			c0,1.7,0.5,3,1.6,4c1,1,2.5,1.5,4.2,1.5c1.9,0,3.4-0.5,4.4-1.4c1-0.9,1.5-2.3,1.5-4.2c0-1.2-0.2-2.2-0.5-3h-4.5v3.8H643.5z"/>
		<path class="st2" d="M649.3,848.8c-0.6,0-0.9-0.2-0.9-0.7c0-0.5,0.3-0.7,0.9-0.7s0.9,0.2,0.9,0.7
			C650.2,848.5,649.9,848.8,649.3,848.8z"/>
		<path class="st2" d="M643.5,836.6c2.3,0,3.9,0.3,5,1c1.1,0.7,1.6,1.7,1.6,3.1c0,1.3-0.6,2.4-1.7,3.1c-1.1,0.7-2.8,1-5,1
			c-2.2,0-3.9-0.3-5-1c-1.1-0.7-1.6-1.7-1.6-3.1c0-1.4,0.6-2.4,1.7-3.1C639.7,837,641.4,836.6,643.5,836.6z M643.5,843.9
			c2,0,3.5-0.3,4.4-0.8s1.4-1.3,1.4-2.4c0-1.1-0.5-1.9-1.5-2.4c-1-0.5-2.4-0.8-4.4-0.8c-1.9,0-3.3,0.3-4.3,0.8
			c-1,0.5-1.5,1.3-1.5,2.4s0.5,1.9,1.5,2.4S641.6,843.9,643.5,843.9z"/>
		<path class="st2" d="M650,829.6v0.9h-9.4c-0.8,0-1.7,0-2.6-0.1c0.1,0.1,0.2,0.2,0.3,0.3s0.8,1,2.1,2.7l-0.6,0.5l-2.6-3.5v-0.8H650
			z"/>
		<path class="st2" d="M650,822.4l-12-5.3v7.3h-0.8v-8.3h0.6l12.2,5.3V822.4z"/>
		<path class="st2" d="M640.3,809.4c0-1.3,0.4-2.3,1.3-3c0.8-0.7,2.1-1,3.7-1c1.6,0,2.8,0.4,3.7,1.1c0.9,0.7,1.3,1.7,1.3,3
			c0,0.7-0.1,1.3-0.4,1.8s-0.7,1-1.2,1.3v0.1l1.4,0.2v0.5h-13.7v-0.9h3.4c0.5,0,1,0,1.4,0l0.7,0v-0.1c-0.6-0.4-1-0.8-1.3-1.3
			S640.3,810.2,640.3,809.4z M641,809.5c0,1.1,0.3,1.9,1,2.4s1.7,0.7,3.2,0.7h0.1c1.4,0,2.5-0.3,3.1-0.8c0.6-0.5,0.9-1.3,0.9-2.4
			c0-1-0.4-1.8-1.1-2.4c-0.7-0.5-1.8-0.8-3.1-0.8C642.4,806.3,641,807.4,641,809.5z"/>
	</g>
	<g>
		<path class="st2" d="M701.9,877.6v7H689v-7h0.8v6.1h4.9v-5.8h0.8v5.8h5.5v-6.1H701.9z"/>
		<path class="st2" d="M701.2,875c-0.6,0-0.9-0.2-0.9-0.7c0-0.5,0.3-0.7,0.9-0.7s0.9,0.2,0.9,0.7C702.1,874.8,701.8,875,701.2,875z"
			/>
		<path class="st2" d="M701.9,861.1v0.9h-6.3v7.5h6.3v0.9H689v-0.9h5.7V862H689v-0.9H701.9z"/>
		<path class="st2" d="M695.4,852.4v-4.7h5.9c0.5,1.2,0.8,2.6,0.8,4.2c0,2-0.6,3.6-1.7,4.7c-1.1,1.1-2.8,1.6-4.9,1.6
			c-1.3,0-2.5-0.3-3.5-0.8c-1-0.5-1.8-1.3-2.3-2.3s-0.8-2.1-0.8-3.4c0-1.4,0.3-2.7,0.8-3.8l0.8,0.4c-0.5,1.1-0.8,2.3-0.8,3.5
			c0,1.7,0.5,3,1.6,4c1,1,2.5,1.5,4.2,1.5c1.9,0,3.4-0.5,4.4-1.4c1-0.9,1.5-2.3,1.5-4.2c0-1.2-0.2-2.2-0.5-3h-4.5v3.8H695.4z"/>
		<path class="st2" d="M701.2,844.8c-0.6,0-0.9-0.2-0.9-0.7c0-0.5,0.3-0.7,0.9-0.7s0.9,0.2,0.9,0.7
			C702.1,844.6,701.8,844.8,701.2,844.8z"/>
		<path class="st2" d="M695.4,832.7c2.3,0,3.9,0.3,5,1c1.1,0.7,1.6,1.7,1.6,3.1c0,1.3-0.6,2.4-1.7,3.1c-1.1,0.7-2.8,1-5,1
			c-2.2,0-3.9-0.3-5-1c-1.1-0.7-1.6-1.7-1.6-3.1c0-1.4,0.6-2.4,1.7-3.1C691.6,833,693.3,832.7,695.4,832.7z M695.4,840
			c2,0,3.5-0.3,4.4-0.8s1.4-1.3,1.4-2.4c0-1.1-0.5-1.9-1.5-2.4c-1-0.5-2.4-0.8-4.4-0.8c-1.9,0-3.3,0.3-4.3,0.8
			c-1,0.5-1.5,1.3-1.5,2.4s0.5,1.9,1.5,2.4S693.5,840,695.4,840z"/>
		<path class="st2" d="M701.9,825.7v0.9h-9.4c-0.8,0-1.7,0-2.6-0.1c0.1,0.1,0.2,0.2,0.3,0.3s0.8,1,2.1,2.7l-0.6,0.5l-2.6-3.5v-0.8
			H701.9z"/>
		<path class="st2" d="M701.9,818.5l-12-5.3v7.3H689v-8.3h0.6l12.2,5.3V818.5z"/>
		<path class="st2" d="M702.1,805.7c0,1.4-0.4,2.4-1.3,3.2s-2.1,1.2-3.6,1.2c-1.6,0-2.8-0.4-3.7-1.2c-0.9-0.8-1.3-1.9-1.3-3.3
			c0-0.8,0.1-1.6,0.4-2.4l0.8,0.2c-0.3,0.8-0.4,1.5-0.4,2.2c0,1.2,0.4,2.1,1.1,2.7s1.8,0.9,3.1,0.9c1.3,0,2.3-0.3,3-0.9
			c0.7-0.6,1.1-1.4,1.1-2.5c0-0.9-0.2-1.7-0.5-2.4h0.8C701.9,803.9,702.1,804.7,702.1,805.7z"/>
	</g>
	<g>
		<path class="st2" d="M774.4,880v7h-12.8v-7h0.8v6.1h4.9v-5.8h0.8v5.8h5.5V880H774.4z"/>
		<path class="st2" d="M773.7,877.4c-0.6,0-0.9-0.2-0.9-0.7c0-0.5,0.3-0.7,0.9-0.7s0.9,0.2,0.9,0.7
			C774.6,877.2,774.3,877.4,773.7,877.4z"/>
		<path class="st2" d="M774.4,863.5v0.9h-6.3v7.5h6.3v0.9h-12.8v-0.9h5.7v-7.5h-5.7v-0.9H774.4z"/>
		<path class="st2" d="M767.9,854.8V850h5.9c0.5,1.2,0.8,2.6,0.8,4.2c0,2-0.6,3.6-1.7,4.7c-1.1,1.1-2.8,1.6-4.9,1.6
			c-1.3,0-2.5-0.3-3.5-0.8c-1-0.5-1.8-1.3-2.3-2.3s-0.8-2.1-0.8-3.4c0-1.4,0.3-2.7,0.8-3.8l0.8,0.4c-0.5,1.1-0.8,2.3-0.8,3.5
			c0,1.7,0.5,3,1.6,4c1,1,2.5,1.5,4.2,1.5c1.9,0,3.4-0.5,4.4-1.4c1-0.9,1.5-2.3,1.5-4.2c0-1.2-0.2-2.2-0.5-3h-4.5v3.8H767.9z"/>
		<path class="st2" d="M773.7,847.2c-0.6,0-0.9-0.2-0.9-0.7c0-0.5,0.3-0.7,0.9-0.7s0.9,0.2,0.9,0.7
			C774.6,847,774.3,847.2,773.7,847.2z"/>
		<path class="st2" d="M768,835.1c2.3,0,3.9,0.3,5,1c1.1,0.7,1.6,1.7,1.6,3.1c0,1.3-0.6,2.4-1.7,3.1c-1.1,0.7-2.8,1-5,1
			c-2.2,0-3.9-0.3-5-1c-1.1-0.7-1.6-1.7-1.6-3.1c0-1.4,0.6-2.4,1.7-3.1C764.2,835.4,765.8,835.1,768,835.1z M768,842.4
			c2,0,3.5-0.3,4.4-0.8s1.4-1.3,1.4-2.4c0-1.1-0.5-1.9-1.5-2.4c-1-0.5-2.4-0.8-4.4-0.8c-1.9,0-3.3,0.3-4.3,0.8
			c-1,0.5-1.5,1.3-1.5,2.4s0.5,1.9,1.5,2.4S766.1,842.4,768,842.4z"/>
		<path class="st2" d="M774.4,828.1v0.9h-9.4c-0.8,0-1.7,0-2.6-0.1c0.1,0.1,0.2,0.2,0.3,0.3s0.8,1,2.1,2.7l-0.6,0.5l-2.6-3.5v-0.8
			H774.4z"/>
		<path class="st2" d="M761.3,818.7c0-1.1,0.3-2,0.8-2.6c0.6-0.7,1.3-1,2.3-1c0.7,0,1.2,0.2,1.7,0.6c0.5,0.4,1,1.1,1.4,2
			c0.5-1.1,1-1.9,1.5-2.4s1.2-0.7,2-0.7c1.1,0,1.9,0.4,2.5,1.1c0.6,0.7,0.9,1.7,0.9,3c0,1.3-0.3,2.3-0.9,3s-1.5,1-2.6,1
			c-0.8,0-1.4-0.2-2-0.7s-1.1-1.2-1.5-2.3c-0.4,0.9-0.9,1.6-1.4,2s-1.1,0.6-1.8,0.6c-0.6,0-1.2-0.2-1.6-0.5
			c-0.5-0.3-0.8-0.7-1.1-1.3C761.5,820,761.3,819.4,761.3,818.7z M762.1,818.7c0,0.8,0.2,1.5,0.6,2c0.4,0.5,1,0.8,1.7,0.8
			c0.4,0,0.8-0.1,1.1-0.3c0.3-0.2,0.6-0.5,0.9-0.8c0.3-0.3,0.6-0.9,0.9-1.8c-0.4-1-0.8-1.6-1.2-2.1s-1-0.6-1.6-0.6
			c-0.7,0-1.3,0.2-1.7,0.7S762.1,817.8,762.1,818.7z M771.3,821.8c0.8,0,1.4-0.3,1.9-0.8s0.7-1.3,0.7-2.3c0-1-0.2-1.7-0.7-2.3
			s-1.1-0.9-1.9-0.9c-0.7,0-1.3,0.2-1.8,0.7c-0.5,0.5-0.9,1.3-1.4,2.7c0.4,1.1,0.9,1.8,1.4,2.3S770.5,821.8,771.3,821.8z"/>
		<path class="st2" d="M774.4,806.1l-1.5,0.2v0.1c0.6,0.5,1.1,1,1.3,1.5c0.3,0.5,0.4,1.1,0.4,1.8c0,0.9-0.2,1.7-0.7,2.2
			s-1.1,0.8-2,0.8c-0.9,0-1.7-0.4-2.2-1.2s-0.8-1.9-0.8-3.4l-0.1-1.8h-0.6c-0.9,0-1.6,0.2-2.1,0.6s-0.7,1-0.7,1.8
			c0,0.9,0.2,1.8,0.7,2.8l-0.8,0.3c-0.5-1-0.7-2.1-0.7-3.1c0-1,0.3-1.8,0.8-2.4c0.5-0.5,1.4-0.8,2.5-0.8h6.4V806.1z M773.8,809.6
			c0-1-0.3-1.8-0.9-2.4c-0.6-0.6-1.4-0.9-2.4-0.9h-0.9l0.1,1.7c0.1,1.3,0.3,2.3,0.6,2.9c0.4,0.6,0.9,0.9,1.7,0.9
			c0.6,0,1.1-0.2,1.4-0.5C773.6,810.8,773.8,810.3,773.8,809.6z"/>
	</g>
	<g>
		<path class="st2" d="M843.2,880v7h-12.8v-7h0.8v6.1h4.9v-5.8h0.8v5.8h5.5V880H843.2z"/>
		<path class="st2" d="M842.5,877.4c-0.6,0-0.9-0.2-0.9-0.7c0-0.5,0.3-0.7,0.9-0.7s0.9,0.2,0.9,0.7
			C843.4,877.2,843.1,877.4,842.5,877.4z"/>
		<path class="st2" d="M843.2,863.5v0.9h-6.3v7.5h6.3v0.9h-12.8v-0.9h5.7v-7.5h-5.7v-0.9H843.2z"/>
		<path class="st2" d="M836.7,854.8V850h5.9c0.5,1.2,0.8,2.6,0.8,4.2c0,2-0.6,3.6-1.7,4.7c-1.1,1.1-2.8,1.6-4.9,1.6
			c-1.3,0-2.5-0.3-3.5-0.8c-1-0.5-1.8-1.3-2.3-2.3s-0.8-2.1-0.8-3.4c0-1.4,0.3-2.7,0.8-3.8l0.8,0.4c-0.5,1.1-0.8,2.3-0.8,3.5
			c0,1.7,0.5,3,1.6,4c1,1,2.5,1.5,4.2,1.5c1.9,0,3.4-0.5,4.4-1.4c1-0.9,1.5-2.3,1.5-4.2c0-1.2-0.2-2.2-0.5-3h-4.5v3.8H836.7z"/>
		<path class="st2" d="M842.5,847.2c-0.6,0-0.9-0.2-0.9-0.7c0-0.5,0.3-0.7,0.9-0.7s0.9,0.2,0.9,0.7
			C843.4,847,843.1,847.2,842.5,847.2z"/>
		<path class="st2" d="M836.8,835.1c2.3,0,3.9,0.3,5,1c1.1,0.7,1.6,1.7,1.6,3.1c0,1.3-0.6,2.4-1.7,3.1c-1.1,0.7-2.8,1-5,1
			c-2.2,0-3.9-0.3-5-1c-1.1-0.7-1.6-1.7-1.6-3.1c0-1.4,0.6-2.4,1.7-3.1C833,835.4,834.6,835.1,836.8,835.1z M836.8,842.4
			c2,0,3.5-0.3,4.4-0.8s1.4-1.3,1.4-2.4c0-1.1-0.5-1.9-1.5-2.4c-1-0.5-2.4-0.8-4.4-0.8c-1.9,0-3.3,0.3-4.3,0.8
			c-1,0.5-1.5,1.3-1.5,2.4s0.5,1.9,1.5,2.4S834.9,842.4,836.8,842.4z"/>
		<path class="st2" d="M843.2,828.1v0.9h-9.4c-0.8,0-1.7,0-2.6-0.1c0.1,0.1,0.2,0.2,0.3,0.3s0.8,1,2.1,2.7l-0.6,0.5l-2.6-3.5v-0.8
			H843.2z"/>
		<path class="st2" d="M830.1,818.7c0-1.1,0.3-2,0.8-2.6c0.6-0.7,1.3-1,2.3-1c0.7,0,1.2,0.2,1.7,0.6c0.5,0.4,1,1.1,1.4,2
			c0.5-1.1,1-1.9,1.5-2.4s1.2-0.7,2-0.7c1.1,0,1.9,0.4,2.5,1.1c0.6,0.7,0.9,1.7,0.9,3c0,1.3-0.3,2.3-0.9,3s-1.5,1-2.6,1
			c-0.8,0-1.4-0.2-2-0.7s-1.1-1.2-1.5-2.3c-0.4,0.9-0.9,1.6-1.4,2s-1.1,0.6-1.8,0.6c-0.6,0-1.2-0.2-1.6-0.5
			c-0.5-0.3-0.8-0.7-1.1-1.3C830.3,820,830.1,819.4,830.1,818.7z M830.9,818.7c0,0.8,0.2,1.5,0.6,2c0.4,0.5,1,0.8,1.7,0.8
			c0.4,0,0.8-0.1,1.1-0.3c0.3-0.2,0.6-0.5,0.9-0.8c0.3-0.3,0.6-0.9,0.9-1.8c-0.4-1-0.8-1.6-1.2-2.1s-1-0.6-1.6-0.6
			c-0.7,0-1.3,0.2-1.7,0.7S830.9,817.8,830.9,818.7z M840.1,821.8c0.8,0,1.4-0.3,1.9-0.8s0.7-1.3,0.7-2.3c0-1-0.2-1.7-0.7-2.3
			s-1.1-0.9-1.9-0.9c-0.7,0-1.3,0.2-1.8,0.7c-0.5,0.5-0.9,1.3-1.4,2.7c0.4,1.1,0.9,1.8,1.4,2.3S839.3,821.8,840.1,821.8z"/>
		<path class="st2" d="M833.5,807.9c0-1.3,0.4-2.3,1.3-3c0.8-0.7,2.1-1,3.7-1c1.6,0,2.8,0.4,3.7,1.1c0.9,0.7,1.3,1.7,1.3,3
			c0,0.7-0.1,1.3-0.4,1.8s-0.7,1-1.2,1.3v0.1l1.4,0.2v0.5h-13.7v-0.9h3.4c0.5,0,1,0,1.4,0l0.7,0v-0.1c-0.6-0.4-1-0.8-1.3-1.3
			S833.5,808.6,833.5,807.9z M834.3,807.9c0,1.1,0.3,1.9,1,2.4s1.7,0.7,3.2,0.7h0.1c1.4,0,2.5-0.3,3.1-0.8c0.6-0.5,0.9-1.3,0.9-2.4
			c0-1-0.4-1.8-1.1-2.4c-0.7-0.5-1.8-0.8-3.1-0.8C835.6,804.8,834.3,805.8,834.3,807.9z"/>
	</g>
	<g>
		<path class="st2" d="M959.4,878.9v7h-12.8v-7h0.8v6.1h4.9v-5.8h0.8v5.8h5.5v-6.1H959.4z"/>
		<path class="st2" d="M958.7,876.4c-0.6,0-0.9-0.2-0.9-0.7c0-0.5,0.3-0.7,0.9-0.7s0.9,0.2,0.9,0.7
			C959.6,876.2,959.3,876.4,958.7,876.4z"/>
		<path class="st2" d="M959.4,862.4v0.9h-6.3v7.5h6.3v0.9h-12.8v-0.9h5.7v-7.5h-5.7v-0.9H959.4z"/>
		<path class="st2" d="M953,853.7V849h5.9c0.5,1.2,0.8,2.6,0.8,4.2c0,2-0.6,3.6-1.7,4.7c-1.1,1.1-2.8,1.6-4.9,1.6
			c-1.3,0-2.5-0.3-3.5-0.8c-1-0.5-1.8-1.3-2.3-2.3s-0.8-2.1-0.8-3.4c0-1.4,0.3-2.7,0.8-3.8l0.8,0.4c-0.5,1.1-0.8,2.3-0.8,3.5
			c0,1.7,0.5,3,1.6,4c1,1,2.5,1.5,4.2,1.5c1.9,0,3.4-0.5,4.4-1.4c1-0.9,1.5-2.3,1.5-4.2c0-1.2-0.2-2.2-0.5-3h-4.5v3.8H953z"/>
		<path class="st2" d="M958.7,846.2c-0.6,0-0.9-0.2-0.9-0.7c0-0.5,0.3-0.7,0.9-0.7s0.9,0.2,0.9,0.7
			C959.6,845.9,959.3,846.2,958.7,846.2z"/>
		<path class="st2" d="M953,834c2.3,0,3.9,0.3,5,1c1.1,0.7,1.6,1.7,1.6,3.1c0,1.3-0.6,2.4-1.7,3.1c-1.1,0.7-2.8,1-5,1
			c-2.2,0-3.9-0.3-5-1c-1.1-0.7-1.6-1.7-1.6-3.1c0-1.4,0.6-2.4,1.7-3.1C949.2,834.4,950.8,834,953,834z M953,841.3
			c2,0,3.5-0.3,4.4-0.8s1.4-1.3,1.4-2.4c0-1.1-0.5-1.9-1.5-2.4c-1-0.5-2.4-0.8-4.4-0.8c-1.9,0-3.3,0.3-4.3,0.8
			c-1,0.5-1.5,1.3-1.5,2.4s0.5,1.9,1.5,2.4S951.1,841.3,953,841.3z"/>
		<path class="st2" d="M959.4,827v0.9h-9.4c-0.8,0-1.7,0-2.6-0.1c0.1,0.1,0.2,0.2,0.3,0.3s0.8,1,2.1,2.7l-0.6,0.5l-2.6-3.5V827
			H959.4z"/>
		<path class="st2" d="M952,813.7c1.7,0,3.1,0.2,4.2,0.7s2,1.1,2.5,1.9s0.8,1.9,0.8,3.1c0,0.6-0.1,1.2-0.2,1.7h-0.8
			c0.1-0.3,0.1-0.6,0.2-0.9c0-0.4,0.1-0.6,0.1-0.8c0-1.4-0.5-2.6-1.6-3.4c-1-0.8-2.6-1.3-4.6-1.4v0.1c0.6,0.4,1,0.9,1.3,1.5
			s0.5,1.2,0.5,1.9c0,1.2-0.3,2.1-1,2.8s-1.6,1-2.8,1c-1.3,0-2.3-0.4-3.1-1.1c-0.8-0.7-1.2-1.7-1.2-2.8c0-0.8,0.2-1.6,0.7-2.2
			c0.4-0.6,1.1-1.1,1.9-1.5C949.8,813.8,950.9,813.7,952,813.7z M947.2,817.8c0,0.9,0.3,1.7,0.9,2.2c0.6,0.6,1.5,0.8,2.6,0.8
			c1,0,1.8-0.3,2.3-0.8s0.8-1.2,0.8-2.2c0-0.6-0.1-1.1-0.4-1.7c-0.3-0.5-0.6-0.9-1.1-1.2c-0.4-0.3-0.9-0.5-1.3-0.5
			c-0.7,0-1.3,0.1-1.9,0.4c-0.6,0.3-1.1,0.7-1.4,1.1C947.3,816.6,947.2,817.2,947.2,817.8z"/>
	</g>
	<g>
		<path class="st2" d="M371.2,690.8h-7l-2.4,6h-1.3l6.9-17.2h0.8l6.8,17.2h-1.3L371.2,690.8z M364.6,689.7h6.1l-2.3-6.2
			c-0.2-0.5-0.4-1.2-0.7-2c-0.2,0.8-0.4,1.4-0.7,2L364.6,689.7z"/>
		<path class="st2" d="M378,684.1v8.2c0,1.3,0.3,2.2,0.8,2.8s1.4,0.9,2.5,0.9c1.5,0,2.6-0.4,3.3-1.1s1.1-2,1.1-3.7v-7h1.1v12.7h-1
			l-0.2-1.8h-0.1c-0.8,1.3-2.3,2-4.4,2c-2.9,0-4.3-1.6-4.3-4.7v-8.3H378z"/>
		<path class="st2" d="M392.4,696.9h-1.2v-18.2h1.2V696.9z"/>
		<path class="st2" d="M404.4,696.9l-0.3-2H404c-0.6,0.8-1.3,1.4-2,1.7s-1.5,0.5-2.4,0.5c-1.2,0-2.2-0.3-2.9-1s-1-1.5-1-2.7
			c0-1.2,0.5-2.2,1.6-2.9s2.5-1.1,4.5-1.1l2.4-0.1v-0.8c0-1.2-0.2-2.1-0.7-2.7s-1.3-0.9-2.4-0.9c-1.2,0-2.4,0.3-3.7,1l-0.4-1
			c1.4-0.7,2.8-1,4.1-1c1.4,0,2.4,0.4,3.1,1.1s1,1.9,1,3.4v8.5H404.4z M399.7,696.1c1.4,0,2.4-0.4,3.2-1.2s1.2-1.9,1.2-3.2v-1.3
			l-2.2,0.1c-1.8,0.1-3.1,0.4-3.8,0.8s-1.1,1.2-1.1,2.2c0,0.8,0.2,1.4,0.7,1.9S398.8,696.1,399.7,696.1z"/>
	</g>
	<g>
		<path class="st2" d="M369.2,440.2v-12.8h0.9v12h6.1v0.8H369.2z"/>
		<path class="st2" d="M378.1,428c0-0.6,0.2-0.8,0.6-0.8c0.2,0,0.3,0.1,0.4,0.2s0.2,0.4,0.2,0.6c0,0.3-0.1,0.5-0.2,0.6
			s-0.2,0.2-0.4,0.2C378.3,428.9,378.1,428.6,378.1,428z M379.1,440.2h-0.9v-9.6h0.9V440.2z"/>
		<path class="st2" d="M385.9,431.4h-2.2v8.8h-0.9v-8.8H381v-0.5l1.8-0.3v-0.7c0-1.2,0.2-2,0.6-2.6s1.1-0.8,2.1-0.8
			c0.5,0,1.1,0.1,1.6,0.2l-0.2,0.8c-0.5-0.1-0.9-0.2-1.4-0.2c-0.7,0-1.2,0.2-1.4,0.6s-0.4,1.1-0.4,2v0.9h2.2V431.4z"/>
		<path class="st2" d="M390.3,439.6c0.6,0,1,0,1.4-0.1v0.7c-0.4,0.1-0.9,0.2-1.5,0.2c-0.8,0-1.5-0.2-1.9-0.7s-0.6-1.2-0.6-2.1v-6.2
			h-1.4v-0.5l1.4-0.4l0.4-2.2h0.4v2.3h2.8v0.8h-2.8v6c0,0.7,0.1,1.3,0.4,1.6S389.8,439.6,390.3,439.6z"/>
	</g>
	<g>
		<path class="st2" d="M895.7,600h-7v-12.8h7v0.8h-6.1v4.9h5.8v0.8h-5.8v5.5h6.1V600z"/>
		<path class="st2" d="M898.2,599.3c0-0.6,0.2-0.9,0.7-0.9c0.5,0,0.7,0.3,0.7,0.9s-0.2,0.9-0.7,0.9
			C898.5,600.2,898.2,599.9,898.2,599.3z"/>
		<path class="st2" d="M912.2,600h-0.9v-6.3h-7.5v6.3h-0.9v-12.8h0.9v5.7h7.5v-5.7h0.9V600z"/>
		<path class="st2" d="M920.9,593.5h4.7v5.9c-1.2,0.5-2.6,0.8-4.2,0.8c-2,0-3.6-0.6-4.7-1.7c-1.1-1.1-1.6-2.8-1.6-4.9
			c0-1.3,0.3-2.5,0.8-3.5c0.5-1,1.3-1.8,2.3-2.3s2.1-0.8,3.4-0.8c1.4,0,2.7,0.3,3.8,0.8l-0.4,0.8c-1.1-0.5-2.3-0.8-3.5-0.8
			c-1.7,0-3,0.5-4,1.6c-1,1-1.5,2.5-1.5,4.2c0,1.9,0.5,3.4,1.4,4.4s2.3,1.5,4.2,1.5c1.2,0,2.2-0.2,3-0.5v-4.5h-3.8V593.5z"/>
		<path class="st2" d="M928.5,599.3c0-0.6,0.2-0.9,0.7-0.9c0.5,0,0.7,0.3,0.7,0.9s-0.2,0.9-0.7,0.9
			C928.7,600.2,928.5,599.9,928.5,599.3z"/>
		<path class="st2" d="M940.6,593.5c0,2.3-0.3,3.9-1,5c-0.7,1.1-1.7,1.6-3.1,1.6c-1.3,0-2.4-0.6-3.1-1.7s-1-2.8-1-5
			c0-2.2,0.3-3.9,1-5c0.7-1.1,1.7-1.6,3.1-1.6c1.4,0,2.4,0.6,3.1,1.7S940.6,591.4,940.6,593.5z M933.3,593.5c0,2,0.3,3.5,0.8,4.4
			s1.3,1.4,2.4,1.4c1.1,0,1.9-0.5,2.4-1.5c0.5-1,0.8-2.4,0.8-4.4c0-1.9-0.3-3.3-0.8-4.3c-0.5-1-1.3-1.5-2.4-1.5s-1.9,0.5-2.4,1.5
			S933.3,591.6,933.3,593.5z"/>
		<path class="st2" d="M947.6,600h-0.9v-9.4c0-0.8,0-1.7,0.1-2.6c-0.1,0.1-0.2,0.2-0.3,0.3s-1,0.8-2.7,2.1l-0.5-0.6l3.5-2.6h0.8V600
			z"/>
		<path class="st2" d="M960.9,600h-8v-0.8l3.4-3.6c1-1,1.6-1.8,2-2.3s0.7-1,0.9-1.5s0.3-1,0.3-1.5c0-0.8-0.3-1.4-0.8-1.9
			s-1.2-0.7-2-0.7c-1.1,0-2.1,0.4-3.1,1.2l-0.5-0.6c1.1-0.9,2.3-1.4,3.6-1.4c1.1,0,2,0.3,2.6,0.9c0.6,0.6,1,1.4,1,2.5
			c0,0.8-0.2,1.7-0.6,2.5c-0.4,0.8-1.2,1.8-2.4,2.9l-3.3,3.4v0h6.9V600z"/>
	</g>
	<g>
		<path class="st2" d="M1085.3,553.4l-6.4-15.8h-0.1c0.1,1,0.1,2,0.1,3v12.8h-1.1v-17.1h1.9l6.1,15.1h0.1l6.1-15.1h1.8v17.1h-1.2
			v-13c0-0.9,0-1.8,0.1-2.8h-0.1l-6.4,15.8H1085.3z"/>
		<path class="st2" d="M1103.4,553.7c-1.9,0-3.3-0.6-4.3-1.7s-1.6-2.7-1.6-4.8c0-2,0.5-3.7,1.5-4.9s2.3-1.8,4-1.8
			c1.5,0,2.7,0.5,3.6,1.6s1.3,2.5,1.3,4.3v0.9h-9.2c0,1.8,0.4,3.1,1.2,4s1.9,1.4,3.4,1.4c0.7,0,1.4-0.1,1.9-0.2s1.2-0.3,2.1-0.7v1.1
			c-0.7,0.3-1.4,0.5-2,0.6S1104.1,553.7,1103.4,553.7z M1103,541.5c-1.2,0-2.2,0.4-3,1.2s-1.2,2-1.3,3.5h7.9c0-1.5-0.3-2.6-1-3.5
			S1104.2,541.5,1103,541.5z"/>
		<path class="st2" d="M1120.3,553.4v-8.3c0-1.3-0.3-2.2-0.8-2.8s-1.4-0.9-2.5-0.9c-1.5,0-2.6,0.4-3.3,1.2s-1.1,2-1.1,3.7v7h-1.2
			v-12.7h1l0.2,1.7h0.1c0.8-1.3,2.3-2,4.4-2c2.9,0,4.3,1.6,4.3,4.7v8.3H1120.3z"/>
		<path class="st2" d="M1133.4,550.1c0,1.1-0.4,2-1.3,2.6s-2.1,0.9-3.7,0.9c-1.7,0-3.1-0.3-4.1-0.8v-1.3c1.3,0.6,2.6,1,4.1,1
			c1.3,0,2.2-0.2,2.9-0.6s1-1,1-1.7c0-0.6-0.3-1.2-0.8-1.6s-1.4-0.9-2.6-1.3c-1.3-0.5-2.2-0.9-2.7-1.2s-0.9-0.7-1.2-1.1
			s-0.4-0.9-0.4-1.5c0-1,0.4-1.7,1.2-2.3s1.9-0.8,3.4-0.8c1.4,0,2.7,0.3,3.9,0.8l-0.4,1.1c-1.2-0.5-2.4-0.8-3.5-0.8
			c-1,0-1.9,0.2-2.5,0.5s-0.9,0.8-0.9,1.4c0,0.7,0.2,1.2,0.7,1.6s1.4,0.8,2.8,1.3c1.1,0.4,2,0.8,2.5,1.1s0.9,0.7,1.2,1.1
			S1133.4,549.6,1133.4,550.1z"/>
		<path class="st2" d="M1144.5,553.4l-0.3-2h-0.1c-0.6,0.8-1.3,1.4-2,1.7s-1.5,0.5-2.4,0.5c-1.2,0-2.2-0.3-2.9-1s-1-1.5-1-2.7
			c0-1.2,0.5-2.2,1.6-2.9s2.5-1.1,4.5-1.1l2.4-0.1v-0.8c0-1.2-0.2-2.1-0.7-2.7s-1.3-0.9-2.4-0.9c-1.2,0-2.4,0.3-3.7,1l-0.4-1
			c1.4-0.7,2.8-1,4.1-1c1.4,0,2.4,0.4,3.1,1.1s1,1.9,1,3.4v8.5H1144.5z M1139.8,552.6c1.4,0,2.4-0.4,3.2-1.2s1.2-1.9,1.2-3.2V547
			l-2.2,0.1c-1.8,0.1-3.1,0.4-3.8,0.8s-1.1,1.2-1.1,2.2c0,0.8,0.2,1.4,0.7,1.9S1138.9,552.6,1139.8,552.6z"/>
	</g>
	<g>
		<path class="st2" d="M633,205.2h-7v-12.8h7v0.8h-6.1v4.9h5.8v0.8h-5.8v5.5h6.1V205.2z"/>
		<path class="st2" d="M635.5,204.5c0-0.6,0.2-0.9,0.7-0.9c0.5,0,0.7,0.3,0.7,0.9s-0.2,0.9-0.7,0.9
			C635.7,205.4,635.5,205.1,635.5,204.5z"/>
		<path class="st2" d="M649.5,205.2h-0.9v-6.3H641v6.3h-0.9v-12.8h0.9v5.7h7.5v-5.7h0.9V205.2z"/>
		<path class="st2" d="M658.2,198.8h4.7v5.9c-1.2,0.5-2.6,0.8-4.2,0.8c-2,0-3.6-0.6-4.7-1.7s-1.6-2.8-1.6-4.9c0-1.3,0.3-2.5,0.8-3.5
			s1.3-1.8,2.3-2.3s2.1-0.8,3.4-0.8c1.4,0,2.7,0.3,3.8,0.8l-0.4,0.8c-1.1-0.5-2.3-0.8-3.5-0.8c-1.7,0-3,0.5-4,1.6s-1.5,2.5-1.5,4.2
			c0,1.9,0.5,3.4,1.4,4.4s2.3,1.5,4.2,1.5c1.2,0,2.2-0.2,3-0.5v-4.5h-3.8V198.8z"/>
		<path class="st2" d="M665.7,204.5c0-0.6,0.2-0.9,0.7-0.9c0.5,0,0.7,0.3,0.7,0.9s-0.2,0.9-0.7,0.9
			C666,205.4,665.7,205.1,665.7,204.5z"/>
		<path class="st2" d="M677.8,198.8c0,2.3-0.3,3.9-1,5s-1.7,1.6-3.1,1.6c-1.3,0-2.4-0.6-3.1-1.7s-1-2.8-1-5c0-2.2,0.3-3.9,1-5
			s1.7-1.6,3.1-1.6c1.4,0,2.4,0.6,3.1,1.7S677.8,196.6,677.8,198.8z M670.5,198.8c0,2,0.3,3.5,0.8,4.4s1.3,1.4,2.4,1.4
			c1.1,0,1.9-0.5,2.4-1.5s0.8-2.4,0.8-4.4c0-1.9-0.3-3.3-0.8-4.3s-1.3-1.5-2.4-1.5s-1.9,0.5-2.4,1.5S670.5,196.9,670.5,198.8z"/>
		<path class="st2" d="M688.1,198.8c0,2.3-0.3,3.9-1,5s-1.7,1.6-3.1,1.6c-1.3,0-2.4-0.6-3.1-1.7s-1-2.8-1-5c0-2.2,0.3-3.9,1-5
			s1.7-1.6,3.1-1.6c1.4,0,2.4,0.6,3.1,1.7S688.1,196.6,688.1,198.8z M680.8,198.8c0,2,0.3,3.5,0.8,4.4s1.3,1.4,2.4,1.4
			c1.1,0,1.9-0.5,2.4-1.5s0.8-2.4,0.8-4.4c0-1.9-0.3-3.3-0.8-4.3s-1.3-1.5-2.4-1.5s-1.9,0.5-2.4,1.5S680.8,196.9,680.8,198.8z"/>
		<path class="st2" d="M693.8,197.5c1.4,0,2.5,0.3,3.2,1s1.2,1.6,1.2,2.7c0,1.3-0.4,2.3-1.2,3.1s-2,1.1-3.4,1.1
			c-0.6,0-1.2-0.1-1.8-0.2s-1.1-0.3-1.4-0.5v-0.9c0.6,0.3,1.2,0.5,1.7,0.7s1,0.2,1.6,0.2c1.1,0,2-0.3,2.7-0.9s1-1.4,1-2.4
			c0-1-0.3-1.7-1-2.2s-1.6-0.8-2.7-0.8c-0.8,0-1.6,0.1-2.4,0.3l-0.5-0.3l0.5-5.9h6.2v0.8h-5.4l-0.4,4.5
			C692.6,197.6,693.3,197.5,693.8,197.5z"/>
	</g>
	<g>
		<path class="st2" d="M666.4,388.4v7h-12.8v-7h0.8v6.1h4.9v-5.8h0.8v5.8h5.5v-6.1H666.4z"/>
		<path class="st2" d="M665.8,385.9c-0.6,0-0.9-0.2-0.9-0.7c0-0.5,0.3-0.7,0.9-0.7s0.9,0.2,0.9,0.7
			C666.6,385.7,666.3,385.9,665.8,385.9z"/>
		<path class="st2" d="M666.4,371.9v0.9h-6.3v7.5h6.3v0.9h-12.8v-0.9h5.7v-7.5h-5.7v-0.9H666.4z"/>
		<path class="st2" d="M660,363.2v-4.7h5.9c0.5,1.2,0.8,2.6,0.8,4.2c0,2-0.6,3.6-1.7,4.7s-2.8,1.6-4.9,1.6c-1.3,0-2.5-0.3-3.5-0.8
			s-1.8-1.3-2.3-2.3s-0.8-2.1-0.8-3.4c0-1.4,0.3-2.7,0.8-3.8l0.8,0.4c-0.5,1.1-0.8,2.3-0.8,3.5c0,1.7,0.5,3,1.6,4s2.5,1.5,4.2,1.5
			c1.9,0,3.4-0.5,4.4-1.4s1.5-2.3,1.5-4.2c0-1.2-0.2-2.2-0.5-3h-4.5v3.8H660z"/>
		<path class="st2" d="M665.8,355.7c-0.6,0-0.9-0.2-0.9-0.7c0-0.5,0.3-0.7,0.9-0.7s0.9,0.2,0.9,0.7
			C666.6,355.4,666.3,355.7,665.8,355.7z"/>
		<path class="st2" d="M666.4,347.3v0.9h-9.4c-0.8,0-1.7,0-2.6-0.1c0.1,0.1,0.2,0.2,0.3,0.3s0.8,1,2.1,2.7l-0.6,0.5l-2.6-3.5v-0.8
			H666.4z"/>
		<path class="st2" d="M658.7,338.3c0-1.4,0.3-2.5,1-3.2s1.6-1.2,2.7-1.2c1.3,0,2.3,0.4,3.1,1.2s1.1,2,1.1,3.4
			c0,0.6-0.1,1.2-0.2,1.8s-0.3,1.1-0.5,1.4H665c0.3-0.6,0.5-1.2,0.7-1.7s0.2-1,0.2-1.6c0-1.1-0.3-2-0.9-2.7s-1.4-1-2.4-1
			c-1,0-1.7,0.3-2.2,1s-0.8,1.6-0.8,2.7c0,0.8,0.1,1.6,0.3,2.4l-0.3,0.5l-5.9-0.5v-6.2h0.8v5.4l4.5,0.4
			C658.8,339.5,658.7,338.8,658.7,338.3z"/>
		<path class="st2" d="M666.4,325.3l-1.5,0.2v0.1c0.6,0.5,1,1,1.3,1.5s0.4,1.1,0.4,1.8c0,0.9-0.2,1.7-0.7,2.2s-1.1,0.8-2,0.8
			c-0.9,0-1.7-0.4-2.2-1.2s-0.8-1.9-0.8-3.4l-0.1-1.8h-0.6c-0.9,0-1.6,0.2-2.1,0.6s-0.7,1-0.7,1.8c0,0.9,0.2,1.8,0.7,2.8l-0.8,0.3
			c-0.5-1-0.7-2.1-0.7-3.1c0-1,0.3-1.8,0.8-2.4s1.4-0.8,2.5-0.8h6.4V325.3z M665.8,328.8c0-1-0.3-1.8-0.9-2.4s-1.4-0.9-2.4-0.9h-0.9
			l0.1,1.7c0.1,1.3,0.3,2.3,0.6,2.9s0.9,0.9,1.7,0.9c0.6,0,1.1-0.2,1.4-0.5S665.8,329.5,665.8,328.8z"/>
	</g>
	<g>
		<path class="st2" d="M572,389v7h-12.8v-7h0.8v6.1h4.9v-5.8h0.8v5.8h5.5V389H572z"/>
		<path class="st2" d="M571.4,386.5c-0.6,0-0.9-0.2-0.9-0.7c0-0.5,0.3-0.7,0.9-0.7s0.9,0.2,0.9,0.7
			C572.2,386.3,571.9,386.5,571.4,386.5z"/>
		<path class="st2" d="M572,372.5v0.9h-6.3v7.5h6.3v0.9h-12.8v-0.9h5.7v-7.5h-5.7v-0.9H572z"/>
		<path class="st2" d="M565.6,363.8v-4.7h5.9c0.5,1.2,0.8,2.6,0.8,4.2c0,2-0.6,3.6-1.7,4.7s-2.8,1.6-4.9,1.6c-1.3,0-2.5-0.3-3.5-0.8
			s-1.8-1.3-2.3-2.3s-0.8-2.1-0.8-3.4c0-1.4,0.3-2.7,0.8-3.8l0.8,0.4c-0.5,1.1-0.8,2.3-0.8,3.5c0,1.7,0.5,3,1.6,4s2.5,1.5,4.2,1.5
			c1.9,0,3.4-0.5,4.4-1.4s1.5-2.3,1.5-4.2c0-1.2-0.2-2.2-0.5-3h-4.5v3.8H565.6z"/>
		<path class="st2" d="M571.4,356.3c-0.6,0-0.9-0.2-0.9-0.7c0-0.5,0.3-0.7,0.9-0.7s0.9,0.2,0.9,0.7
			C572.2,356,571.9,356.3,571.4,356.3z"/>
		<path class="st2" d="M572,347.9v0.9h-9.4c-0.8,0-1.7,0-2.6-0.1c0.1,0.1,0.2,0.2,0.3,0.3s0.8,1,2.1,2.7l-0.6,0.5l-2.6-3.5v-0.8H572
			z"/>
		<path class="st2" d="M564.3,338.9c0-1.4,0.3-2.5,1-3.2s1.6-1.2,2.7-1.2c1.3,0,2.3,0.4,3.1,1.2s1.1,2,1.1,3.4
			c0,0.6-0.1,1.2-0.2,1.8s-0.3,1.1-0.5,1.4h-0.9c0.3-0.6,0.5-1.2,0.7-1.7s0.2-1,0.2-1.6c0-1.1-0.3-2-0.9-2.7s-1.4-1-2.4-1
			c-1,0-1.7,0.3-2.2,1s-0.8,1.6-0.8,2.7c0,0.8,0.1,1.6,0.3,2.4l-0.3,0.5l-5.9-0.5v-6.2h0.8v5.4l4.5,0.4
			C564.4,340.1,564.3,339.4,564.3,338.9z"/>
		<path class="st2" d="M562.3,327.7c0-1.3,0.4-2.3,1.3-3s2.1-1,3.7-1c1.6,0,2.8,0.4,3.7,1.1s1.3,1.7,1.3,3c0,0.7-0.1,1.3-0.4,1.8
			s-0.7,1-1.2,1.3v0.1l1.4,0.2v0.5h-13.7v-0.9h3.4c0.5,0,1,0,1.4,0l0.7,0v-0.1c-0.6-0.4-1-0.8-1.3-1.3S562.3,328.4,562.3,327.7z
			 M563.1,327.7c0,1.1,0.3,1.9,1,2.4s1.7,0.7,3.2,0.7h0.1c1.4,0,2.5-0.3,3.1-0.8s0.9-1.3,0.9-2.4c0-1-0.4-1.8-1.1-2.4
			s-1.8-0.8-3.1-0.8C564.5,324.6,563.1,325.6,563.1,327.7z"/>
	</g>
	<g>
		<path class="st2" d="M730.1,365.5h-0.7l-2.8-9.9c-0.2-0.8-0.4-1.5-0.5-2c-0.1,0.5-0.2,1.1-0.4,1.8c-0.2,0.7-1.1,4-2.8,10.2h-0.8
			l-3.5-12.8h0.9l2.2,8.3c0.1,0.3,0.2,0.6,0.2,0.9s0.1,0.6,0.2,0.8c0.1,0.2,0.1,0.5,0.2,0.7s0.1,0.5,0.1,0.7c0.1-0.8,0.4-2,0.9-3.6
			l2.2-7.8h1l2.6,8.9c0.3,1,0.5,1.9,0.6,2.5c0.1-0.4,0.2-0.9,0.3-1.3s1-3.8,2.7-10.1h0.9L730.1,365.5z"/>
		<path class="st2" d="M741.1,353.3c-1.6,0-2.9,0.5-3.8,1.5s-1.4,2.4-1.4,4.2c0,1.8,0.4,3.3,1.3,4.3s2.1,1.5,3.7,1.5
			c1.1,0,2.1-0.1,3-0.4v0.8c-0.8,0.3-1.9,0.4-3.2,0.4c-1.8,0-3.2-0.6-4.3-1.7s-1.6-2.8-1.6-4.9c0-1.3,0.2-2.5,0.7-3.5
			c0.5-1,1.2-1.8,2.1-2.3s2-0.8,3.2-0.8c1.3,0,2.4,0.2,3.4,0.7L744,354C743.1,353.5,742.1,353.3,741.1,353.3z"/>
	</g>
	<g>
		<path class="st2" d="M779.1,365.5h-0.7l-2.8-9.9c-0.2-0.8-0.4-1.5-0.5-2c-0.1,0.5-0.2,1.1-0.4,1.8c-0.2,0.7-1.1,4-2.8,10.2h-0.8
			l-3.5-12.8h0.9l2.2,8.3c0.1,0.3,0.2,0.6,0.2,0.9s0.1,0.6,0.2,0.8c0.1,0.2,0.1,0.5,0.2,0.7s0.1,0.5,0.1,0.7c0.1-0.8,0.4-2,0.9-3.6
			l2.2-7.8h1l2.6,8.9c0.3,1,0.5,1.9,0.6,2.5c0.1-0.4,0.2-0.9,0.3-1.3s1-3.8,2.7-10.1h0.9L779.1,365.5z"/>
		<path class="st2" d="M790.1,353.3c-1.6,0-2.9,0.5-3.8,1.5s-1.4,2.4-1.4,4.2c0,1.8,0.4,3.3,1.3,4.3s2.1,1.5,3.7,1.5
			c1.1,0,2.1-0.1,3-0.4v0.8c-0.8,0.3-1.9,0.4-3.2,0.4c-1.8,0-3.2-0.6-4.3-1.7s-1.6-2.8-1.6-4.9c0-1.3,0.2-2.5,0.7-3.5
			c0.5-1,1.2-1.8,2.1-2.3s2-0.8,3.2-0.8c1.3,0,2.4,0.2,3.4,0.7L793,354C792.1,353.5,791.1,353.3,790.1,353.3z"/>
	</g>
	<g>
		<path class="st2" d="M872.1,1001.3h-7v-12.8h7v0.8H866v4.9h5.8v0.8H866v5.5h6.1V1001.3z"/>
		<path class="st2" d="M874.7,1000.6c0-0.6,0.2-0.9,0.7-0.9c0.5,0,0.7,0.3,0.7,0.9s-0.2,0.9-0.7,0.9
			C874.9,1001.5,874.7,1001.2,874.7,1000.6z"/>
		<path class="st2" d="M888.6,1001.3h-0.9V995h-7.5v6.3h-0.9v-12.8h0.9v5.7h7.5v-5.7h0.9V1001.3z"/>
		<path class="st2" d="M897.3,994.8h4.7v5.9c-1.2,0.5-2.6,0.8-4.2,0.8c-2,0-3.6-0.6-4.7-1.7c-1.1-1.1-1.6-2.8-1.6-4.9
			c0-1.3,0.3-2.5,0.8-3.5c0.5-1,1.3-1.8,2.3-2.3c1-0.6,2.1-0.8,3.4-0.8c1.4,0,2.7,0.3,3.8,0.8l-0.4,0.8c-1.1-0.5-2.3-0.8-3.5-0.8
			c-1.7,0-3,0.5-4,1.6c-1,1-1.5,2.5-1.5,4.2c0,1.9,0.5,3.4,1.4,4.4c0.9,1,2.3,1.5,4.2,1.5c1.2,0,2.2-0.2,3-0.5v-4.5h-3.8V994.8z"/>
		<path class="st2" d="M904.9,1000.6c0-0.6,0.2-0.9,0.7-0.9c0.5,0,0.7,0.3,0.7,0.9s-0.2,0.9-0.7,0.9
			C905.1,1001.5,904.9,1001.2,904.9,1000.6z"/>
		<path class="st2" d="M917,994.8c0,2.3-0.3,3.9-1,5c-0.7,1.1-1.7,1.6-3.1,1.6c-1.3,0-2.4-0.6-3.1-1.7c-0.7-1.1-1-2.8-1-5
			c0-2.2,0.3-3.9,1-5c0.7-1.1,1.7-1.6,3.1-1.6c1.4,0,2.4,0.6,3.1,1.7C916.7,991,917,992.7,917,994.8z M909.7,994.8
			c0,2,0.3,3.5,0.8,4.4s1.3,1.4,2.4,1.4c1.1,0,1.9-0.5,2.4-1.5c0.5-1,0.8-2.4,0.8-4.4c0-1.9-0.3-3.3-0.8-4.3c-0.5-1-1.3-1.5-2.4-1.5
			s-1.9,0.5-2.4,1.5S909.7,992.9,909.7,994.8z"/>
		<path class="st2" d="M927.1,1001.3h-8v-0.8l3.4-3.6c1-1,1.6-1.8,2-2.3s0.7-1,0.9-1.5s0.3-1,0.3-1.5c0-0.8-0.3-1.4-0.8-1.9
			s-1.2-0.7-2-0.7c-1.1,0-2.1,0.4-3.1,1.2l-0.5-0.6c1.1-0.9,2.3-1.4,3.6-1.4c1.1,0,2,0.3,2.6,0.9c0.6,0.6,1,1.4,1,2.5
			c0,0.8-0.2,1.7-0.6,2.5c-0.4,0.8-1.2,1.8-2.4,2.9l-3.3,3.4v0h6.9V1001.3z"/>
		<path class="st2" d="M937.6,994.8c0,2.3-0.3,3.9-1,5c-0.7,1.1-1.7,1.6-3.1,1.6c-1.3,0-2.4-0.6-3.1-1.7c-0.7-1.1-1-2.8-1-5
			c0-2.2,0.3-3.9,1-5c0.7-1.1,1.7-1.6,3.1-1.6c1.4,0,2.4,0.6,3.1,1.7C937.2,991,937.6,992.7,937.6,994.8z M930.3,994.8
			c0,2,0.3,3.5,0.8,4.4s1.3,1.4,2.4,1.4c1.1,0,1.9-0.5,2.4-1.5c0.5-1,0.8-2.4,0.8-4.4c0-1.9-0.3-3.3-0.8-4.3c-0.5-1-1.3-1.5-2.4-1.5
			s-1.9,0.5-2.4,1.5S930.3,992.9,930.3,994.8z"/>
	</g>
	<g>
		<path class="st2" d="M726.9,1001.3h-7v-12.8h7v0.8h-6.1v4.9h5.8v0.8h-5.8v5.5h6.1V1001.3z"/>
		<path class="st2" d="M729.4,1000.6c0-0.6,0.2-0.9,0.7-0.9c0.5,0,0.7,0.3,0.7,0.9s-0.2,0.9-0.7,0.9
			C729.7,1001.5,729.4,1001.2,729.4,1000.6z"/>
		<path class="st2" d="M743.4,1001.3h-0.9V995H735v6.3h-0.9v-12.8h0.9v5.7h7.5v-5.7h0.9V1001.3z"/>
		<path class="st2" d="M752.1,994.8h4.7v5.9c-1.2,0.5-2.6,0.8-4.2,0.8c-2,0-3.6-0.6-4.7-1.7c-1.1-1.1-1.6-2.8-1.6-4.9
			c0-1.3,0.3-2.5,0.8-3.5c0.5-1,1.3-1.8,2.3-2.3c1-0.6,2.1-0.8,3.4-0.8c1.4,0,2.7,0.3,3.8,0.8l-0.4,0.8c-1.1-0.5-2.3-0.8-3.5-0.8
			c-1.7,0-3,0.5-4,1.6c-1,1-1.5,2.5-1.5,4.2c0,1.9,0.5,3.4,1.4,4.4c0.9,1,2.3,1.5,4.2,1.5c1.2,0,2.2-0.2,3-0.5v-4.5h-3.8V994.8z"/>
		<path class="st2" d="M759.7,1000.6c0-0.6,0.2-0.9,0.7-0.9c0.5,0,0.7,0.3,0.7,0.9s-0.2,0.9-0.7,0.9
			C759.9,1001.5,759.7,1001.2,759.7,1000.6z"/>
		<path class="st2" d="M771.8,994.8c0,2.3-0.3,3.9-1,5c-0.7,1.1-1.7,1.6-3.1,1.6c-1.3,0-2.4-0.6-3.1-1.7c-0.7-1.1-1-2.8-1-5
			c0-2.2,0.3-3.9,1-5c0.7-1.1,1.7-1.6,3.1-1.6c1.4,0,2.4,0.6,3.1,1.7C771.5,991,771.8,992.7,771.8,994.8z M764.5,994.8
			c0,2,0.3,3.5,0.8,4.4s1.3,1.4,2.4,1.4c1.1,0,1.9-0.5,2.4-1.5c0.5-1,0.8-2.4,0.8-4.4c0-1.9-0.3-3.3-0.8-4.3c-0.5-1-1.3-1.5-2.4-1.5
			s-1.9,0.5-2.4,1.5S764.5,992.9,764.5,994.8z"/>
		<path class="st2" d="M781.9,1001.3h-8v-0.8l3.4-3.6c1-1,1.6-1.8,2-2.3s0.7-1,0.9-1.5s0.3-1,0.3-1.5c0-0.8-0.3-1.4-0.8-1.9
			s-1.2-0.7-2-0.7c-1.1,0-2.1,0.4-3.1,1.2l-0.5-0.6c1.1-0.9,2.3-1.4,3.6-1.4c1.1,0,2,0.3,2.6,0.9c0.6,0.6,1,1.4,1,2.5
			c0,0.8-0.2,1.7-0.6,2.5c-0.4,0.8-1.2,1.8-2.4,2.9l-3.3,3.4v0h6.9V1001.3z"/>
		<path class="st2" d="M789.1,1001.3h-0.9v-9.4c0-0.8,0-1.7,0.1-2.6c-0.1,0.1-0.2,0.2-0.3,0.3s-1,0.8-2.7,2.1l-0.5-0.6l3.5-2.6h0.8
			V1001.3z"/>
	</g>
	<g>
		<path class="st2" d="M616,1001.3h-7v-12.8h7v0.8h-6.1v4.9h5.8v0.8h-5.8v5.5h6.1V1001.3z"/>
		<path class="st2" d="M618.5,1000.6c0-0.6,0.2-0.9,0.7-0.9c0.5,0,0.7,0.3,0.7,0.9s-0.2,0.9-0.7,0.9
			C618.7,1001.5,618.5,1001.2,618.5,1000.6z"/>
		<path class="st2" d="M632.5,1001.3h-0.9V995h-7.5v6.3h-0.9v-12.8h0.9v5.7h7.5v-5.7h0.9V1001.3z"/>
		<path class="st2" d="M641.2,994.8h4.7v5.9c-1.2,0.5-2.6,0.8-4.2,0.8c-2,0-3.6-0.6-4.7-1.7c-1.1-1.1-1.6-2.8-1.6-4.9
			c0-1.3,0.3-2.5,0.8-3.5c0.5-1,1.3-1.8,2.3-2.3s2.1-0.8,3.4-0.8c1.4,0,2.7,0.3,3.8,0.8l-0.4,0.8c-1.1-0.5-2.3-0.8-3.5-0.8
			c-1.7,0-3,0.5-4,1.6c-1,1-1.5,2.5-1.5,4.2c0,1.9,0.5,3.4,1.4,4.4c0.9,1,2.3,1.5,4.2,1.5c1.2,0,2.2-0.2,3-0.5v-4.5h-3.8V994.8z"/>
		<path class="st2" d="M648.7,1000.6c0-0.6,0.2-0.9,0.7-0.9c0.5,0,0.7,0.3,0.7,0.9s-0.2,0.9-0.7,0.9
			C649,1001.5,648.7,1001.2,648.7,1000.6z"/>
		<path class="st2" d="M660.9,994.8c0,2.3-0.3,3.9-1,5s-1.7,1.6-3.1,1.6c-1.3,0-2.4-0.6-3.1-1.7c-0.7-1.1-1-2.8-1-5
			c0-2.2,0.3-3.9,1-5s1.7-1.6,3.1-1.6c1.4,0,2.4,0.6,3.1,1.7C660.5,991,660.9,992.7,660.9,994.8z M653.6,994.8c0,2,0.3,3.5,0.8,4.4
			s1.3,1.4,2.4,1.4c1.1,0,1.9-0.5,2.4-1.5s0.8-2.4,0.8-4.4c0-1.9-0.3-3.3-0.8-4.3s-1.3-1.5-2.4-1.5s-1.9,0.5-2.4,1.5
			S653.6,992.9,653.6,994.8z"/>
		<path class="st2" d="M670.9,1001.3h-8v-0.8l3.4-3.6c1-1,1.6-1.8,2-2.3s0.7-1,0.9-1.5s0.3-1,0.3-1.5c0-0.8-0.3-1.4-0.8-1.9
			s-1.2-0.7-2-0.7c-1.1,0-2.1,0.4-3.1,1.2l-0.5-0.6c1.1-0.9,2.3-1.4,3.6-1.4c1.1,0,2,0.3,2.6,0.9s1,1.4,1,2.5c0,0.8-0.2,1.7-0.6,2.5
			c-0.4,0.8-1.2,1.8-2.4,2.9l-3.3,3.4v0h6.9V1001.3z"/>
		<path class="st2" d="M681.2,1001.3h-8v-0.8l3.4-3.6c1-1,1.6-1.8,2-2.3s0.7-1,0.9-1.5s0.3-1,0.3-1.5c0-0.8-0.3-1.4-0.8-1.9
			s-1.2-0.7-2-0.7c-1.1,0-2.1,0.4-3.1,1.2l-0.5-0.6c1.1-0.9,2.3-1.4,3.6-1.4c1.1,0,2,0.3,2.6,0.9s1,1.4,1,2.5c0,0.8-0.2,1.7-0.6,2.5
			c-0.4,0.8-1.2,1.8-2.4,2.9l-3.3,3.4v0h6.9V1001.3z"/>
	</g>
	<g>
		<path class="st2" d="M486.6,1001.3h-7v-12.8h7v0.8h-6.1v4.9h5.8v0.8h-5.8v5.5h6.1V1001.3z"/>
		<path class="st2" d="M489.2,1000.6c0-0.6,0.2-0.9,0.7-0.9c0.5,0,0.7,0.3,0.7,0.9s-0.2,0.9-0.7,0.9
			C489.4,1001.5,489.2,1001.2,489.2,1000.6z"/>
		<path class="st2" d="M503.1,1001.3h-0.9V995h-7.5v6.3h-0.9v-12.8h0.9v5.7h7.5v-5.7h0.9V1001.3z"/>
		<path class="st2" d="M511.8,994.8h4.7v5.9c-1.2,0.5-2.6,0.8-4.2,0.8c-2,0-3.6-0.6-4.7-1.7c-1.1-1.1-1.6-2.8-1.6-4.9
			c0-1.3,0.3-2.5,0.8-3.5c0.5-1,1.3-1.8,2.3-2.3s2.1-0.8,3.4-0.8c1.4,0,2.7,0.3,3.8,0.8l-0.4,0.8c-1.1-0.5-2.3-0.8-3.5-0.8
			c-1.7,0-3,0.5-4,1.6c-1,1-1.5,2.5-1.5,4.2c0,1.9,0.5,3.4,1.4,4.4c0.9,1,2.3,1.5,4.2,1.5c1.2,0,2.2-0.2,3-0.5v-4.5h-3.8V994.8z"/>
		<path class="st2" d="M519.4,1000.6c0-0.6,0.2-0.9,0.7-0.9c0.5,0,0.7,0.3,0.7,0.9s-0.2,0.9-0.7,0.9
			C519.6,1001.5,519.4,1001.2,519.4,1000.6z"/>
		<path class="st2" d="M531.5,994.8c0,2.3-0.3,3.9-1,5s-1.7,1.6-3.1,1.6c-1.3,0-2.4-0.6-3.1-1.7c-0.7-1.1-1-2.8-1-5
			c0-2.2,0.3-3.9,1-5s1.7-1.6,3.1-1.6c1.4,0,2.4,0.6,3.1,1.7C531.2,991,531.5,992.7,531.5,994.8z M524.2,994.8c0,2,0.3,3.5,0.8,4.4
			s1.3,1.4,2.4,1.4c1.1,0,1.9-0.5,2.4-1.5s0.8-2.4,0.8-4.4c0-1.9-0.3-3.3-0.8-4.3s-1.3-1.5-2.4-1.5s-1.9,0.5-2.4,1.5
			S524.2,992.9,524.2,994.8z"/>
		<path class="st2" d="M541.6,1001.3h-8v-0.8l3.4-3.6c1-1,1.6-1.8,2-2.3s0.7-1,0.9-1.5s0.3-1,0.3-1.5c0-0.8-0.3-1.4-0.8-1.9
			s-1.2-0.7-2-0.7c-1.1,0-2.1,0.4-3.1,1.2l-0.5-0.6c1.1-0.9,2.3-1.4,3.6-1.4c1.1,0,2,0.3,2.6,0.9s1,1.4,1,2.5c0,0.8-0.2,1.7-0.6,2.5
			c-0.4,0.8-1.2,1.8-2.4,2.9l-3.3,3.4v0h6.9V1001.3z"/>
		<path class="st2" d="M551.4,991.5c0,0.8-0.3,1.5-0.8,2s-1.2,0.9-2,1v0.1c1,0.1,1.8,0.5,2.4,1s0.8,1.2,0.8,2.1
			c0,1.2-0.4,2.1-1.2,2.8c-0.8,0.7-2,1-3.5,1c-1.3,0-2.4-0.2-3.4-0.7v-0.9c0.5,0.3,1,0.5,1.7,0.6s1.2,0.2,1.7,0.2
			c1.3,0,2.3-0.3,2.9-0.8c0.7-0.5,1-1.3,1-2.2c0-0.8-0.3-1.5-1-2s-1.6-0.7-2.9-0.7h-1.4v-0.8h1.4c1.1,0,1.9-0.3,2.5-0.8
			c0.6-0.5,0.9-1.2,0.9-2.1c0-0.7-0.3-1.3-0.8-1.7c-0.5-0.4-1.2-0.6-2-0.6c-0.6,0-1.2,0.1-1.7,0.3s-1.1,0.5-1.8,0.9l-0.4-0.6
			c0.5-0.4,1.1-0.7,1.8-1c0.7-0.2,1.4-0.4,2.1-0.4c1.2,0,2.1,0.3,2.7,0.8C551.1,989.7,551.4,990.5,551.4,991.5z"/>
	</g>
	<g>
		<path class="st2" d="M470.7,851.2h-0.7l-2.8-9.9c-0.2-0.8-0.4-1.5-0.5-2c-0.1,0.5-0.2,1.1-0.4,1.8c-0.2,0.7-1.1,4-2.8,10.2h-0.8
			l-3.5-12.8h0.9l2.2,8.3c0.1,0.3,0.2,0.6,0.2,0.9s0.1,0.6,0.2,0.8c0.1,0.2,0.1,0.5,0.2,0.7s0.1,0.5,0.1,0.7c0.1-0.8,0.4-2,0.9-3.6
			l2.2-7.8h1l2.6,8.9c0.3,1,0.5,1.9,0.6,2.5c0.1-0.4,0.2-0.9,0.3-1.3s1-3.8,2.7-10.1h0.9L470.7,851.2z"/>
		<path class="st2" d="M481.6,839c-1.6,0-2.9,0.5-3.8,1.5s-1.4,2.4-1.4,4.2c0,1.8,0.4,3.3,1.3,4.3s2.1,1.5,3.7,1.5
			c1.1,0,2.1-0.1,3-0.4v0.8c-0.8,0.3-1.9,0.4-3.2,0.4c-1.8,0-3.2-0.6-4.3-1.7s-1.6-2.8-1.6-4.9c0-1.3,0.2-2.5,0.7-3.5
			c0.5-1,1.2-1.8,2.1-2.3s2-0.8,3.2-0.8c1.3,0,2.4,0.2,3.4,0.7l-0.4,0.8C483.6,839.2,482.6,839,481.6,839z"/>
	</g>
	<g>
		<path class="st2" d="M524.7,850.8H524l-2.8-9.9c-0.2-0.8-0.4-1.5-0.5-2c-0.1,0.5-0.2,1.1-0.4,1.8c-0.2,0.7-1.1,4-2.8,10.2h-0.8
			l-3.5-12.8h0.9l2.2,8.3c0.1,0.3,0.2,0.6,0.2,0.9s0.1,0.6,0.2,0.8c0.1,0.2,0.1,0.5,0.2,0.7s0.1,0.5,0.1,0.7c0.1-0.8,0.4-2,0.9-3.6
			l2.2-7.8h1l2.6,8.9c0.3,1,0.5,1.9,0.6,2.5c0.1-0.4,0.2-0.9,0.3-1.3s1-3.8,2.7-10.1h0.9L524.7,850.8z"/>
		<path class="st2" d="M535.6,838.5c-1.6,0-2.9,0.5-3.8,1.5s-1.4,2.4-1.4,4.2c0,1.8,0.4,3.3,1.3,4.3s2.1,1.5,3.7,1.5
			c1.1,0,2.1-0.1,3-0.4v0.8c-0.8,0.3-1.9,0.4-3.2,0.4c-1.8,0-3.2-0.6-4.3-1.7s-1.6-2.8-1.6-4.9c0-1.3,0.2-2.5,0.7-3.5
			c0.5-1,1.2-1.8,2.1-2.3s2-0.8,3.2-0.8c1.3,0,2.4,0.2,3.4,0.7l-0.4,0.8C537.6,838.8,536.6,838.5,535.6,838.5z"/>
	</g>
	<g>
		<path class="st2" d="M310.3,645.6v7h-12.8v-7h0.8v6.1h4.9V646h0.8v5.8h5.5v-6.1H310.3z"/>
		<path class="st2" d="M309.6,643.1c-0.6,0-0.9-0.2-0.9-0.7c0-0.5,0.3-0.7,0.9-0.7s0.9,0.2,0.9,0.7
			C310.5,642.9,310.2,643.1,309.6,643.1z"/>
		<path class="st2" d="M310.3,629.1v0.9H304v7.5h6.3v0.9h-12.8v-0.9h5.7V630h-5.7v-0.9H310.3z"/>
		<path class="st2" d="M303.8,620.4v-4.7h5.9c0.5,1.2,0.8,2.6,0.8,4.2c0,2-0.6,3.6-1.7,4.7c-1.1,1.1-2.8,1.6-4.9,1.6
			c-1.3,0-2.5-0.3-3.5-0.8c-1-0.5-1.8-1.3-2.3-2.3c-0.6-1-0.8-2.1-0.8-3.4c0-1.4,0.3-2.7,0.8-3.8l0.8,0.4c-0.5,1.1-0.8,2.3-0.8,3.5
			c0,1.7,0.5,3,1.6,4c1,1,2.5,1.5,4.2,1.5c1.9,0,3.4-0.5,4.4-1.4c1-0.9,1.5-2.3,1.5-4.2c0-1.2-0.2-2.2-0.5-3h-4.5v3.8H303.8z"/>
		<path class="st2" d="M309.6,612.9c-0.6,0-0.9-0.2-0.9-0.7c0-0.5,0.3-0.7,0.9-0.7s0.9,0.2,0.9,0.7
			C310.5,612.6,310.2,612.9,309.6,612.9z"/>
		<path class="st2" d="M303.8,600.7c2.3,0,3.9,0.3,5,1c1.1,0.7,1.6,1.7,1.6,3.1c0,1.3-0.6,2.4-1.7,3.1c-1.1,0.7-2.8,1-5,1
			c-2.2,0-3.9-0.3-5-1c-1.1-0.7-1.6-1.7-1.6-3.1c0-1.4,0.6-2.4,1.7-3.1C300,601.1,301.7,600.7,303.8,600.7z M303.8,608.1
			c2,0,3.5-0.3,4.4-0.8s1.4-1.3,1.4-2.4c0-1.1-0.5-1.9-1.5-2.4c-1-0.5-2.4-0.8-4.4-0.8c-1.9,0-3.3,0.3-4.3,0.8
			c-1,0.5-1.5,1.3-1.5,2.4s0.5,1.9,1.5,2.4S301.9,608.1,303.8,608.1z"/>
		<path class="st2" d="M303.8,590.5c2.3,0,3.9,0.3,5,1s1.6,1.7,1.6,3.1c0,1.3-0.6,2.4-1.7,3.1c-1.1,0.7-2.8,1-5,1
			c-2.2,0-3.9-0.3-5-1s-1.6-1.7-1.6-3.1c0-1.4,0.6-2.4,1.7-3.1C300,590.8,301.7,590.5,303.8,590.5z M303.8,597.8
			c2,0,3.5-0.3,4.4-0.8s1.4-1.3,1.4-2.4c0-1.1-0.5-1.9-1.5-2.4s-2.4-0.8-4.4-0.8c-1.9,0-3.3,0.3-4.3,0.8s-1.5,1.3-1.5,2.4
			s0.5,1.9,1.5,2.4S301.9,597.8,303.8,597.8z"/>
		<path class="st2" d="M310.3,583.5v0.9h-9.4c-0.8,0-1.7,0-2.6-0.1c0.1,0.1,0.2,0.2,0.3,0.3s0.8,1,2.1,2.7l-0.6,0.5l-2.6-3.5v-0.8
			H310.3z"/>
	</g>
	<g>
		<path class="st2" d="M212.1,626.8h-7V614h7v0.8H206v4.9h5.8v0.8H206v5.5h6.1V626.8z"/>
		<path class="st2" d="M214.6,626.2c0-0.6,0.2-0.9,0.7-0.9c0.5,0,0.7,0.3,0.7,0.9s-0.2,0.9-0.7,0.9
			C214.8,627,214.6,626.7,214.6,626.2z"/>
		<path class="st2" d="M228.6,626.8h-0.9v-6.3h-7.5v6.3h-0.9V614h0.9v5.7h7.5V614h0.9V626.8z"/>
		<path class="st2" d="M237.3,620.4h4.7v5.9c-1.2,0.5-2.6,0.8-4.2,0.8c-2,0-3.6-0.6-4.7-1.7c-1.1-1.1-1.6-2.8-1.6-4.9
			c0-1.3,0.3-2.5,0.8-3.5c0.5-1,1.3-1.8,2.3-2.3s2.1-0.8,3.4-0.8c1.4,0,2.7,0.3,3.8,0.8l-0.4,0.8c-1.1-0.5-2.3-0.8-3.5-0.8
			c-1.7,0-3,0.5-4,1.6c-1,1-1.5,2.5-1.5,4.2c0,1.9,0.5,3.4,1.4,4.4c0.9,1,2.3,1.5,4.2,1.5c1.2,0,2.2-0.2,3-0.5v-4.5h-3.8V620.4z"/>
		<path class="st2" d="M244.9,626.2c0-0.6,0.2-0.9,0.7-0.9c0.5,0,0.7,0.3,0.7,0.9s-0.2,0.9-0.7,0.9
			C245.1,627,244.9,626.7,244.9,626.2z"/>
		<path class="st2" d="M257,620.4c0,2.3-0.3,3.9-1,5s-1.7,1.6-3.1,1.6c-1.3,0-2.4-0.6-3.1-1.7c-0.7-1.1-1-2.8-1-5c0-2.2,0.3-3.9,1-5
			s1.7-1.6,3.1-1.6c1.4,0,2.4,0.6,3.1,1.7C256.6,616.6,257,618.2,257,620.4z M249.7,620.4c0,2,0.3,3.5,0.8,4.4s1.3,1.4,2.4,1.4
			c1.1,0,1.9-0.5,2.4-1.5s0.8-2.4,0.8-4.4c0-1.9-0.3-3.3-0.8-4.3s-1.3-1.5-2.4-1.5s-1.9,0.5-2.4,1.5S249.7,618.5,249.7,620.4z"/>
		<path class="st2" d="M267.3,620.4c0,2.3-0.3,3.9-1,5s-1.7,1.6-3.1,1.6c-1.3,0-2.4-0.6-3.1-1.7c-0.7-1.1-1-2.8-1-5
			c0-2.2,0.3-3.9,1-5s1.7-1.6,3.1-1.6c1.4,0,2.4,0.6,3.1,1.7C266.9,616.6,267.3,618.2,267.3,620.4z M259.9,620.4
			c0,2,0.3,3.5,0.8,4.4s1.3,1.4,2.4,1.4c1.1,0,1.9-0.5,2.4-1.5s0.8-2.4,0.8-4.4c0-1.9-0.3-3.3-0.8-4.3s-1.3-1.5-2.4-1.5
			s-1.9,0.5-2.4,1.5S259.9,618.5,259.9,620.4z"/>
		<path class="st2" d="M277.3,626.8h-8v-0.8l3.4-3.6c1-1,1.6-1.8,2-2.3s0.7-1,0.9-1.5s0.3-1,0.3-1.5c0-0.8-0.3-1.4-0.8-1.9
			s-1.2-0.7-2-0.7c-1.1,0-2.1,0.4-3.1,1.2l-0.5-0.6c1.1-0.9,2.3-1.4,3.6-1.4c1.1,0,2,0.3,2.6,0.9s1,1.4,1,2.5c0,0.8-0.2,1.7-0.6,2.5
			c-0.4,0.8-1.2,1.8-2.4,2.9l-3.3,3.4v0h6.9V626.8z"/>
	</g>
	<g>
		<path class="st2" d="M204.4,429.3h4.7c2.1,0,3.7,0.4,4.7,1.1s1.5,1.8,1.5,3.3c0,1-0.3,1.8-0.9,2.5s-1.5,1.1-2.7,1.3v0.1
			c1.4,0.2,2.4,0.6,3,1.3s1,1.6,1,2.8c0,1.6-0.5,2.8-1.6,3.6s-2.5,1.3-4.5,1.3h-5.2V429.3z M205.6,436.9h3.8c1.6,0,2.8-0.3,3.5-0.8
			s1.1-1.4,1.1-2.5s-0.4-2-1.2-2.5s-2.1-0.8-3.7-0.8h-3.5V436.9z M205.6,438v7.4h4c3.2,0,4.8-1.3,4.8-3.9c0-2.4-1.7-3.5-5-3.5H205.6
			z"/>
		<path class="st2" d="M219,430.1c0-0.8,0.2-1.1,0.7-1.1c0.2,0,0.4,0.1,0.6,0.3s0.2,0.5,0.2,0.8c0,0.4-0.1,0.6-0.2,0.8
			s-0.3,0.3-0.6,0.3C219.3,431.3,219,430.9,219,430.1z M220.4,446.4h-1.2v-12.7h1.2V446.4z"/>
		<path class="st2" d="M230.1,433.4c1.8,0,3.1,0.6,4,1.7s1.4,2.8,1.4,4.9c0,2.1-0.5,3.8-1.4,4.9s-2.3,1.7-4,1.7
			c-0.9,0-1.7-0.2-2.4-0.6s-1.3-0.9-1.7-1.6h-0.1l-0.3,1.9h-0.7v-18.2h1.2v4.6c0,0.7,0,1.3,0,1.9l0,1h0.1c0.5-0.8,1.1-1.3,1.8-1.7
			S229.1,433.4,230.1,433.4z M230.1,434.5c-1.5,0-2.6,0.4-3.2,1.3s-1,2.3-1,4.3v0.2c0,1.9,0.3,3.3,1,4.1s1.7,1.3,3.2,1.3
			c1.4,0,2.4-0.5,3.1-1.5s1.1-2.4,1.1-4.2C234.2,436.3,232.8,434.5,230.1,434.5z"/>
		<path class="st2" d="M240.1,446.4H239v-18.2h1.2V446.4z"/>
		<path class="st2" d="M244.2,430.1c0-0.8,0.2-1.1,0.7-1.1c0.2,0,0.4,0.1,0.6,0.3s0.2,0.5,0.2,0.8c0,0.4-0.1,0.6-0.2,0.8
			s-0.3,0.3-0.6,0.3C244.5,431.3,244.2,430.9,244.2,430.1z M245.6,446.4h-1.2v-12.7h1.2V446.4z"/>
		<path class="st2" d="M260.4,440c0,2.1-0.5,3.7-1.5,4.9s-2.4,1.8-4.2,1.8c-1.1,0-2.1-0.3-3-0.8s-1.5-1.3-2-2.3s-0.7-2.2-0.7-3.5
			c0-2.1,0.5-3.7,1.5-4.9s2.4-1.7,4.1-1.7c1.8,0,3.1,0.6,4.1,1.8S260.4,438,260.4,440z M250.3,440c0,1.8,0.4,3.1,1.2,4.1
			s1.9,1.5,3.3,1.5s2.5-0.5,3.3-1.5s1.2-2.3,1.2-4.1c0-1.8-0.4-3.1-1.2-4.1s-1.9-1.5-3.3-1.5s-2.5,0.5-3.3,1.4
			S250.3,438.3,250.3,440z"/>
		<path class="st2" d="M266.8,445.6c0.7,0,1.4-0.1,1.9-0.2v0.9c-0.6,0.2-1.2,0.3-1.9,0.3c-1.1,0-2-0.3-2.5-0.9s-0.8-1.5-0.8-2.8
			v-8.2h-1.9V434l1.9-0.5l0.6-2.9h0.6v3.1h3.7v1h-3.7v8.1c0,1,0.2,1.7,0.5,2.2S266.1,445.6,266.8,445.6z"/>
		<path class="st2" d="M280.4,446.4v-8.3c0-1.3-0.3-2.2-0.8-2.8s-1.4-0.9-2.5-0.9c-1.5,0-2.6,0.4-3.3,1.2s-1.1,2-1.1,3.7v7h-1.2
			v-18.2h1.2v5.8l-0.1,1.6h0.1c0.5-0.8,1.1-1.3,1.8-1.7s1.6-0.5,2.7-0.5c2.9,0,4.3,1.6,4.3,4.7v8.3H280.4z"/>
		<path class="st2" d="M290.9,446.6c-1.9,0-3.3-0.6-4.3-1.7s-1.6-2.7-1.6-4.8c0-2,0.5-3.7,1.5-4.9s2.3-1.8,4-1.8
			c1.5,0,2.7,0.5,3.6,1.6s1.3,2.5,1.3,4.3v0.9h-9.2c0,1.8,0.4,3.1,1.2,4s1.9,1.4,3.4,1.4c0.7,0,1.4-0.1,1.9-0.2s1.2-0.3,2.1-0.7v1.1
			c-0.7,0.3-1.4,0.5-2,0.6S291.6,446.6,290.9,446.6z M290.5,434.5c-1.2,0-2.2,0.4-3,1.2s-1.2,2-1.3,3.5h7.9c0-1.5-0.3-2.6-1-3.5
			S291.6,434.5,290.5,434.5z"/>
		<path class="st2" d="M300.1,440.8l6.5-7.1h1.4l-5,5.4l5.4,7.3H307l-4.8-6.4l-2.1,1.9v4.5h-1.2v-18.2h1.2v9.1L300.1,440.8
			L300.1,440.8z"/>
	</g>
	<g>
		<path class="st2" d="M220.8,473.9h-7V461h7v0.8h-6.1v4.9h5.8v0.8h-5.8v5.5h6.1V473.9z"/>
		<path class="st2" d="M223.3,473.2c0-0.6,0.2-0.9,0.7-0.9c0.5,0,0.7,0.3,0.7,0.9s-0.2,0.9-0.7,0.9
			C223.6,474,223.3,473.8,223.3,473.2z"/>
		<path class="st2" d="M237.3,473.9h-0.9v-6.3h-7.5v6.3H228V461h0.9v5.7h7.5V461h0.9V473.9z"/>
		<path class="st2" d="M246,467.4h4.7v5.9c-1.2,0.5-2.6,0.8-4.2,0.8c-2,0-3.6-0.6-4.7-1.7s-1.6-2.8-1.6-4.9c0-1.3,0.3-2.5,0.8-3.5
			s1.3-1.8,2.3-2.3s2.1-0.8,3.4-0.8c1.4,0,2.7,0.3,3.8,0.8l-0.4,0.8c-1.1-0.5-2.3-0.8-3.5-0.8c-1.7,0-3,0.5-4,1.6s-1.5,2.5-1.5,4.2
			c0,1.9,0.5,3.4,1.4,4.4s2.3,1.5,4.2,1.5c1.2,0,2.2-0.2,3-0.5v-4.5H246V467.4z"/>
		<path class="st2" d="M253.6,473.2c0-0.6,0.2-0.9,0.7-0.9c0.5,0,0.7,0.3,0.7,0.9s-0.2,0.9-0.7,0.9
			C253.8,474,253.6,473.8,253.6,473.2z"/>
		<path class="st2" d="M265.2,467.4c0,2.3-0.3,3.9-1,5s-1.7,1.6-3.1,1.6c-1.3,0-2.4-0.6-3.1-1.7s-1-2.8-1-5c0-2.2,0.3-3.9,1-5
			s1.7-1.6,3.1-1.6c1.4,0,2.4,0.6,3.1,1.7S265.2,465.2,265.2,467.4z M257.9,467.4c0,2,0.3,3.5,0.8,4.4s1.3,1.4,2.4,1.4
			c1.1,0,1.9-0.5,2.4-1.5s0.8-2.4,0.8-4.4c0-1.9-0.3-3.3-0.8-4.3s-1.3-1.5-2.4-1.5s-1.9,0.5-2.4,1.5S257.9,465.5,257.9,467.4z"/>
		<path class="st2" d="M275.5,467.4c0,2.3-0.3,3.9-1,5s-1.7,1.6-3.1,1.6c-1.3,0-2.4-0.6-3.1-1.7s-1-2.8-1-5c0-2.2,0.3-3.9,1-5
			s1.7-1.6,3.1-1.6c1.4,0,2.4,0.6,3.1,1.7S275.5,465.2,275.5,467.4z M268.2,467.4c0,2,0.3,3.5,0.8,4.4s1.3,1.4,2.4,1.4
			c1.1,0,1.9-0.5,2.4-1.5s0.8-2.4,0.8-4.4c0-1.9-0.3-3.3-0.8-4.3s-1.3-1.5-2.4-1.5s-1.9,0.5-2.4,1.5S268.2,465.5,268.2,467.4z"/>
		<path class="st2" d="M285.1,464c0,0.8-0.3,1.5-0.8,2s-1.2,0.9-2,1v0.1c1,0.1,1.8,0.5,2.4,1s0.8,1.2,0.8,2.1c0,1.2-0.4,2.1-1.2,2.8
			s-2,1-3.5,1c-1.3,0-2.4-0.2-3.4-0.7v-0.9c0.5,0.3,1,0.5,1.7,0.6s1.2,0.2,1.7,0.2c1.3,0,2.3-0.3,2.9-0.8s1-1.3,1-2.2
			c0-0.8-0.3-1.5-1-2s-1.6-0.7-2.9-0.7h-1.4v-0.8h1.4c1.1,0,1.9-0.3,2.5-0.8s0.9-1.2,0.9-2.1c0-0.7-0.3-1.3-0.8-1.7s-1.2-0.6-2-0.6
			c-0.6,0-1.2,0.1-1.7,0.3s-1.1,0.5-1.8,0.9l-0.4-0.6c0.5-0.4,1.1-0.7,1.8-1s1.4-0.4,2.1-0.4c1.2,0,2.1,0.3,2.7,0.8
			S285.1,463,285.1,464z"/>
	</g>
</g>
</svg>
