<?xml version="1.0" encoding="utf-8"?>
<!-- Generator: Adobe Illustrator 20.0.0, SVG Export Plug-In . SVG Version: 6.00 Build 0)  -->
<svg version="1.1" xmlns="http://www.w3.org/2000/svg" xmlns:xlink="http://www.w3.org/1999/xlink" x="0px" y="0px"
	 viewBox="0 0 1400 1200" style="enable-background:new 0 0 1400 1200;" xml:space="preserve">
<style type="text/css">
	.st0{fill:#004570;fill-opacity:0.15;stroke:#0071AA;stroke-width:1.5;stroke-miterlimit:10;}
	.st1{fill:none;stroke:#005081;stroke-width:1.5;stroke-miterlimit:10;}
	.st2{fill:#005081;}
</style>
<g id="Plan">
	<rect x="47.9" y="150.9" class="st0" width="242.8" height="246.8"/>
	<rect x="47.9" y="397.7" class="st0" width="242.8" height="154.5"/>
	<rect x="47.9" y="552.3" class="st0" width="242.8" height="154.5"/>
	<rect x="47.9" y="706.8" class="st0" width="242.8" height="154.5"/>
	<rect x="47.9" y="862.1" class="st0" width="242.8" height="187.2"/>
	<rect x="437.3" y="304.3" class="st0" width="85.7" height="108.8"/>
	<rect x="364.9" y="150.9" class="st0" width="143.5" height="106"/>
	<rect x="508.4" y="150.9" class="st0" width="90.1" height="106"/>
	<rect x="598.7" y="150.9" class="st0" width="124" height="106"/>
	<rect x="523.1" y="304.3" class="st0" width="88.5" height="108.8"/>
	<polygon class="st0" points="722.7,150.9 722.7,257 808.7,257 808.7,151.3 	"/>
	<polygon class="st0" points="611.5,304.3 611.5,413.1 704.6,413.1 704.6,304.1 	"/>
	<rect x="739.1" y="303.7" class="st0" width="31.1" height="28.2"/>
	<polygon class="st0" points="704.6,304.1 704.6,394.7 756.7,394.7 756.7,331.9 739.1,331.9 739.1,303.7 	"/>
	<polygon class="st0" points="770.2,303.7 808.7,303.7 808.7,394.7 756.7,394.7 756.7,331.9 770.2,331.9 	"/>
	<rect x="926.7" y="150.9" class="st0" width="44" height="106"/>
	<rect x="970.7" y="150.9" class="st0" width="123.7" height="106"/>
	<rect x="1094.4" y="150.9" class="st0" width="122.1" height="106"/>
	<rect x="837.8" y="558.6" class="st0" width="97.5" height="102.2"/>
	<rect x="682.2" y="558.6" class="st0" width="155.6" height="102.2"/>
	<rect x="583.7" y="558.6" class="st0" width="98.5" height="102.2"/>
	<rect x="437.7" y="558.6" class="st0" width="146" height="102.2"/>
	<rect x="1121.1" y="559.3" class="st0" width="95.4" height="101.6"/>
	<rect x="987.5" y="559.3" class="st0" width="133.6" height="101.6"/>
	<rect x="1071.1" y="426" class="st0" width="145.4" height="98"/>
	<rect x="903.1" y="426" class="st0" width="84.4" height="98"/>
	<rect x="856.1" y="477.9" class="st0" width="47" height="46"/>
	<rect x="856.1" y="426" class="st0" width="47" height="52"/>
	<rect x="987.5" y="426" class="st0" width="83.6" height="98"/>
	<polygon class="st0" points="904.2,394.7 856.1,394.7 856.1,426 904.2,426 926.7,426 926.7,394.7 	"/>
	<rect x="704.6" y="394.7" class="st0" width="104.1" height="18.4"/>
	<rect x="492.7" y="939.4" class="st0" width="140.8" height="109.9"/>
	<rect x="367" y="939.4" class="st0" width="125.7" height="109.9"/>
	<rect x="633.7" y="939.4" class="st0" width="212.2" height="109.9"/>
	<rect x="942.4" y="939.4" class="st0" width="58.7" height="109.9"/>
	<rect x="884.6" y="939.4" class="st0" width="58.7" height="109.9"/>
	<rect x="846.2" y="939.4" class="st0" width="38.3" height="109.9"/>
	<rect x="987.5" y="801" class="st0" width="110.9" height="93"/>
	<rect x="1098.4" y="801" class="st0" width="118.1" height="93"/>
	<rect x="1111.7" y="939.4" class="st0" width="104.8" height="109.9"/>
	<rect x="1001.1" y="939.4" class="st0" width="110.7" height="109.9"/>
	<rect x="810.2" y="801" class="st0" width="53.1" height="93"/>
	<rect x="758.4" y="801" class="st0" width="51.8" height="93"/>
	<rect x="704.4" y="801" class="st0" width="54" height="93"/>
	<rect x="652.5" y="801" class="st0" width="51.9" height="93"/>
	<rect x="598.7" y="801" class="st0" width="53.7" height="93"/>
	<rect x="549.4" y="801" class="st0" width="49.3" height="93"/>
	<polygon class="st0" points="549.4,801 549.4,894 516.3,894 516.3,866.1 503.8,866.1 503.8,801 	"/>
	<rect x="481" y="866.1" class="st0" width="35.3" height="28"/>
	<polygon class="st0" points="437.3,801 437.3,894 481,894 481,866.1 503.8,866.1 503.8,801 	"/>
	<g>
		<rect x="863.3" y="801" class="st0" width="68" height="93"/>
		<rect x="895.7" y="840.2" class="st1" width="3.2" height="53.8"/>
		<line class="st1" x1="868.3" y1="890.7" x2="893.1" y2="890.7"/>
		<line class="st1" x1="868.3" y1="886.1" x2="893.1" y2="886.1"/>
		<line class="st1" x1="868.3" y1="881.5" x2="893.1" y2="881.5"/>
		<line class="st1" x1="868.3" y1="877.1" x2="893.1" y2="877.1"/>
		<line class="st1" x1="868.3" y1="872.3" x2="893.1" y2="872.3"/>
		<line class="st1" x1="868.3" y1="867.8" x2="893.1" y2="867.8"/>
		<line class="st1" x1="868.3" y1="863.1" x2="893.1" y2="863.1"/>
		<line class="st1" x1="868.3" y1="858.6" x2="893.1" y2="858.6"/>
		<line class="st1" x1="868.3" y1="853.8" x2="893.1" y2="853.8"/>
		<line class="st1" x1="868.3" y1="849.4" x2="893.1" y2="849.4"/>
		<line class="st1" x1="868.3" y1="844.9" x2="893.1" y2="844.9"/>
		<polyline class="st1" points="868.3,849 880.7,844.9 893.1,849 		"/>
		<line class="st1" x1="926.3" y1="844.9" x2="901.5" y2="844.9"/>
		<line class="st1" x1="926.3" y1="849.4" x2="901.5" y2="849.4"/>
		<line class="st1" x1="926.3" y1="854" x2="901.5" y2="854"/>
		<line class="st1" x1="926.3" y1="858.4" x2="901.5" y2="858.4"/>
		<line class="st1" x1="926.3" y1="863.2" x2="901.5" y2="863.2"/>
		<line class="st1" x1="926.3" y1="867.8" x2="901.5" y2="867.8"/>
		<line class="st1" x1="926.3" y1="872.5" x2="901.5" y2="872.5"/>
		<line class="st1" x1="926.3" y1="876.9" x2="901.5" y2="876.9"/>
		<line class="st1" x1="926.3" y1="881.7" x2="901.5" y2="881.7"/>
		<line class="st1" x1="926.3" y1="886.1" x2="901.5" y2="886.1"/>
		<line class="st1" x1="926.3" y1="890.7" x2="901.5" y2="890.7"/>
		<polyline class="st1" points="926.3,886.5 913.9,890.7 901.5,886.5 		"/>
	</g>
	<g>
		<rect x="855.8" y="305.3" class="st0" width="71" height="89.4"/>
		<rect x="889.6" y="305.3" class="st1" width="3.3" height="51.8"/>
		<line class="st1" x1="860.9" y1="308.5" x2="886.9" y2="308.5"/>
		<line class="st1" x1="860.9" y1="312.9" x2="886.9" y2="312.9"/>
		<line class="st1" x1="860.9" y1="317.3" x2="886.9" y2="317.3"/>
		<line class="st1" x1="860.9" y1="321.5" x2="886.9" y2="321.5"/>
		<line class="st1" x1="860.9" y1="326.1" x2="886.9" y2="326.1"/>
		<line class="st1" x1="860.9" y1="330.5" x2="886.9" y2="330.5"/>
		<line class="st1" x1="860.9" y1="335" x2="886.9" y2="335"/>
		<line class="st1" x1="860.9" y1="339.3" x2="886.9" y2="339.3"/>
		<line class="st1" x1="860.9" y1="343.9" x2="886.9" y2="343.9"/>
		<line class="st1" x1="860.9" y1="348.1" x2="886.9" y2="348.1"/>
		<line class="st1" x1="860.9" y1="352.5" x2="886.9" y2="352.5"/>
		<polyline class="st1" points="860.9,348.5 873.9,352.5 886.9,348.5 		"/>
		<line class="st1" x1="921.5" y1="352.5" x2="895.6" y2="352.5"/>
		<line class="st1" x1="921.5" y1="348.1" x2="895.6" y2="348.1"/>
		<line class="st1" x1="921.5" y1="343.7" x2="895.6" y2="343.7"/>
		<line class="st1" x1="921.5" y1="339.5" x2="895.6" y2="339.5"/>
		<line class="st1" x1="921.5" y1="334.9" x2="895.6" y2="334.9"/>
		<line class="st1" x1="921.5" y1="330.5" x2="895.6" y2="330.5"/>
		<line class="st1" x1="921.5" y1="326" x2="895.6" y2="326"/>
		<line class="st1" x1="921.5" y1="321.7" x2="895.6" y2="321.7"/>
		<line class="st1" x1="921.5" y1="317.1" x2="895.6" y2="317.1"/>
		<line class="st1" x1="921.5" y1="312.9" x2="895.6" y2="312.9"/>
		<line class="st1" x1="921.5" y1="308.5" x2="895.6" y2="308.5"/>
		<polyline class="st1" points="921.5,312.5 908.6,308.5 895.6,312.5 		"/>
	</g>
	<rect x="854.8" y="460.3" class="st2" width="2.6" height="14.3"/>
	<rect x="854.8" y="493" class="st2" width="2.6" height="14.3"/>
	<rect x="854.8" y="397.7" class="st2" width="2.6" height="14.3"/>
	<rect x="925.4" y="228.9" class="st2" width="2.6" height="14.3"/>
	<rect x="1069.8" y="462.3" class="st2" width="2.6" height="14.3"/>
	<rect x="986.2" y="500.9" class="st2" width="2.6" height="14.3"/>
	
		<rect x="831" y="646.6" transform="matrix(6.123234e-17 -1 1 6.123234e-17 171.4164 1493.0803)" class="st2" width="2.6" height="28.6"/>
	
		<rect x="486" y="297.1" transform="matrix(6.123234e-17 -1 1 6.123234e-17 183.0539 791.6001)" class="st2" width="2.6" height="14.3"/>
	
		<rect x="486" y="249.8" transform="matrix(6.123234e-17 -1 1 6.123234e-17 230.363 744.2911)" class="st2" width="2.6" height="14.3"/>
	
		<rect x="556.9" y="249.8" transform="matrix(6.123234e-17 -1 1 6.123234e-17 301.2704 815.1985)" class="st2" width="2.6" height="14.3"/>
	
		<rect x="556.2" y="297.1" transform="matrix(6.123234e-17 -1 1 6.123234e-17 253.2276 861.7737)" class="st2" width="2.6" height="14.3"/>
	
		<rect x="640.4" y="297.1" transform="matrix(6.123234e-17 -1 1 6.123234e-17 337.4081 945.9542)" class="st2" width="2.6" height="14.3"/>
	
		<rect x="716.7" y="297.1" transform="matrix(6.123234e-17 -1 1 6.123234e-17 413.7415 1022.2876)" class="st2" width="2.6" height="14.3"/>
	
		<rect x="958.5" y="516.8" transform="matrix(6.123234e-17 -1 1 6.123234e-17 435.8066 1483.6899)" class="st2" width="2.6" height="14.3"/>
	
		<rect x="1011.5" y="516.8" transform="matrix(6.123234e-17 -1 1 6.123234e-17 488.8066 1536.6899)" class="st2" width="2.6" height="14.3"/>
	
		<rect x="1144.8" y="516.8" transform="matrix(6.123234e-17 -1 1 6.123234e-17 622.14 1670.0233)" class="st2" width="2.6" height="14.3"/>
	
		<rect x="1142.5" y="552.1" transform="matrix(6.123234e-17 -1 1 6.123234e-17 584.5032 1703.0532)" class="st2" width="2.6" height="14.3"/>
	
		<rect x="1011.5" y="552.1" transform="matrix(6.123234e-17 -1 1 6.123234e-17 453.4733 1572.0233)" class="st2" width="2.6" height="14.3"/>
	
		<rect x="860.6" y="551.5" transform="matrix(6.123234e-17 -1 1 6.123234e-17 303.2982 1420.5118)" class="st2" width="2.6" height="14.3"/>
	
		<rect x="764.7" y="551.5" transform="matrix(6.123234e-17 -1 1 6.123234e-17 207.3515 1324.5651)" class="st2" width="2.6" height="14.3"/>
	
		<rect x="619" y="551.5" transform="matrix(6.123234e-17 -1 1 6.123234e-17 61.6848 1178.8984)" class="st2" width="2.6" height="14.3"/>
	
		<rect x="498.6" y="551.5" transform="matrix(6.123234e-17 -1 1 6.123234e-17 -58.6676 1058.546)" class="st2" width="2.6" height="14.3"/>
	
		<rect x="747.6" y="297.1" transform="matrix(6.123234e-17 -1 1 6.123234e-17 444.5748 1053.121)" class="st2" width="2.6" height="14.3"/>
	
		<rect x="796.2" y="297.1" transform="matrix(6.123234e-17 -1 1 6.123234e-17 493.2415 1101.7876)" class="st2" width="2.6" height="14.3"/>
	
		<rect x="747.6" y="249.8" transform="matrix(6.123234e-17 -1 1 6.123234e-17 491.8838 1005.8119)" class="st2" width="2.6" height="14.3"/>
	
		<rect x="1051.4" y="249.8" transform="matrix(6.123234e-17 -1 1 6.123234e-17 795.7576 1309.6857)" class="st2" width="2.6" height="14.3"/>
	
		<rect x="1104.8" y="249.8" transform="matrix(6.123234e-17 -1 1 6.123234e-17 849.0909 1363.019)" class="st2" width="2.6" height="14.3"/>
	
		<rect x="640.4" y="249.8" transform="matrix(6.123234e-17 -1 1 6.123234e-17 384.7171 898.6452)" class="st2" width="2.6" height="14.3"/>
	
		<rect x="289.4" y="870.1" transform="matrix(-1 -1.224647e-16 1.224647e-16 -1 581.4433 1773.608)" class="st2" width="2.6" height="33.4"/>
	
		<rect x="289.4" y="716.1" transform="matrix(-1 -1.224647e-16 1.224647e-16 -1 581.4433 1465.608)" class="st2" width="2.6" height="33.4"/>
	
		<rect x="289.4" y="817.3" transform="matrix(-1 -1.224647e-16 1.224647e-16 -1 581.4433 1668.1138)" class="st2" width="2.6" height="33.4"/>
	
		<rect x="289.4" y="562.2" transform="matrix(-1 -1.224647e-16 1.224647e-16 -1 581.4433 1157.8273)" class="st2" width="2.6" height="33.4"/>
	
		<rect x="289.4" y="663.4" transform="matrix(-1 -1.224647e-16 1.224647e-16 -1 581.4433 1360.3329)" class="st2" width="2.6" height="33.4"/>
	
		<rect x="289.4" y="408.3" transform="matrix(-1 -1.224647e-16 1.224647e-16 -1 581.4433 850.0464)" class="st2" width="2.6" height="33.4"/>
	
		<rect x="289.4" y="354.4" transform="matrix(-1 -1.224647e-16 1.224647e-16 -1 581.4433 742.2128)" class="st2" width="2.6" height="33.4"/>
	
		<rect x="289.4" y="159.7" transform="matrix(-1 -1.224647e-16 1.224647e-16 -1 581.4433 352.8795)" class="st2" width="2.6" height="33.4"/>
	
		<rect x="289.4" y="509.6" transform="matrix(-1 -1.224647e-16 1.224647e-16 -1 581.4433 1052.5521)" class="st2" width="2.6" height="33.4"/>
	
		<rect x="289.4" y="1004.1" transform="matrix(-1 -1.224647e-16 1.224647e-16 -1 581.4433 2041.608)" class="st2" width="2.6" height="33.4"/>
	
		<rect x="471" y="932.2" transform="matrix(-1.836970e-16 1 -1 -1.836970e-16 1411.6893 467.0227)" class="st2" width="2.6" height="14.3"/>
	
		<rect x="570.9" y="932.2" transform="matrix(-1.836970e-16 1 -1 -1.836970e-16 1511.5183 367.1937)" class="st2" width="2.6" height="14.3"/>
	
		<rect x="676.9" y="932.2" transform="matrix(-1.836970e-16 1 -1 -1.836970e-16 1617.5094 261.2027)" class="st2" width="2.6" height="14.3"/>
	
		<rect x="781.6" y="932.2" transform="matrix(-1.836970e-16 1 -1 -1.836970e-16 1722.2072 156.5049)" class="st2" width="2.6" height="14.3"/>
	
		<rect x="928" y="932.2" transform="matrix(-1.836970e-16 1 -1 -1.836970e-16 1868.6538 10.0582)" class="st2" width="2.6" height="14.3"/>
	
		<rect x="872" y="932.2" transform="matrix(-1.836970e-16 1 -1 -1.836970e-16 1812.6432 66.0688)" class="st2" width="2.6" height="14.3"/>
	
		<rect x="963.3" y="932.2" transform="matrix(-1.836970e-16 1 -1 -1.836970e-16 1903.9376 -25.2256)" class="st2" width="2.6" height="14.3"/>
	
		<rect x="465.4" y="886.9" transform="matrix(-1.836970e-16 1 -1 -1.836970e-16 1360.7379 427.3121)" class="st2" width="2.6" height="14.3"/>
	
		<rect x="488.9" y="886.9" transform="matrix(-1.836970e-16 1 -1 -1.836970e-16 1384.2379 403.8121)" class="st2" width="2.6" height="14.3"/>
	
		<rect x="537.2" y="886.9" transform="matrix(-1.836970e-16 1 -1 -1.836970e-16 1432.4879 355.5621)" class="st2" width="2.6" height="14.3"/>
	
		<rect x="570.9" y="886.9" transform="matrix(-1.836970e-16 1 -1 -1.836970e-16 1466.1874 321.8627)" class="st2" width="2.6" height="14.3"/>
	
		<rect x="610.7" y="886.9" transform="matrix(-1.836970e-16 1 -1 -1.836970e-16 1506.0568 281.9933)" class="st2" width="2.6" height="14.3"/>
	
		<rect x="676.9" y="886.9" transform="matrix(-1.836970e-16 1 -1 -1.836970e-16 1572.1783 215.8717)" class="st2" width="2.6" height="14.3"/>
	
		<rect x="730.1" y="886.9" transform="matrix(-1.836970e-16 1 -1 -1.836970e-16 1625.4014 162.6487)" class="st2" width="2.6" height="14.3"/>
	
		<rect x="821.4" y="886.9" transform="matrix(-1.836970e-16 1 -1 -1.836970e-16 1716.7645 71.2855)" class="st2" width="2.6" height="14.3"/>
	
		<rect x="1052.4" y="886.9" transform="matrix(-1.836970e-16 1 -1 -1.836970e-16 1947.7467 -159.6966)" class="st2" width="2.6" height="14.3"/>
	
		<rect x="1169.4" y="886.9" transform="matrix(-1.836970e-16 1 -1 -1.836970e-16 2064.7466 -276.6966)" class="st2" width="2.6" height="14.3"/>
	
		<rect x="1169.4" y="932.2" transform="matrix(-1.836970e-16 1 -1 -1.836970e-16 2110.0776 -231.3656)" class="st2" width="2.6" height="14.3"/>
	
		<rect x="1052.4" y="932.2" transform="matrix(-1.836970e-16 1 -1 -1.836970e-16 1993.0776 -114.3656)" class="st2" width="2.6" height="14.3"/>
	
		<rect x="781.6" y="886.9" transform="matrix(-1.836970e-16 1 -1 -1.836970e-16 1676.8761 111.1739)" class="st2" width="2.6" height="14.3"/>
	<g>
		<rect x="363.6" y="801" class="st0" width="73.8" height="93"/>
		<rect x="397.2" y="842.3" class="st1" width="3.6" height="51.8"/>
		<line class="st1" x1="366.4" y1="890.8" x2="394.3" y2="890.8"/>
		<line class="st1" x1="366.4" y1="886.4" x2="394.3" y2="886.4"/>
		<line class="st1" x1="366.4" y1="882" x2="394.3" y2="882"/>
		<line class="st1" x1="366.4" y1="877.8" x2="394.3" y2="877.8"/>
		<line class="st1" x1="366.4" y1="873.2" x2="394.3" y2="873.2"/>
		<line class="st1" x1="366.4" y1="868.8" x2="394.3" y2="868.8"/>
		<line class="st1" x1="366.4" y1="864.3" x2="394.3" y2="864.3"/>
		<line class="st1" x1="366.4" y1="860" x2="394.3" y2="860"/>
		<line class="st1" x1="366.4" y1="855.4" x2="394.3" y2="855.4"/>
		<line class="st1" x1="366.4" y1="851.2" x2="394.3" y2="851.2"/>
		<line class="st1" x1="366.4" y1="846.8" x2="394.3" y2="846.8"/>
		<polyline class="st1" points="366.4,850.8 380.4,846.8 394.3,850.8 		"/>
		<line class="st1" x1="431.7" y1="846.8" x2="403.8" y2="846.8"/>
		<line class="st1" x1="431.7" y1="851.2" x2="403.8" y2="851.2"/>
		<line class="st1" x1="431.7" y1="855.6" x2="403.8" y2="855.6"/>
		<line class="st1" x1="431.7" y1="859.8" x2="403.8" y2="859.8"/>
		<line class="st1" x1="431.7" y1="864.4" x2="403.8" y2="864.4"/>
		<line class="st1" x1="431.7" y1="868.8" x2="403.8" y2="868.8"/>
		<line class="st1" x1="431.7" y1="873.3" x2="403.8" y2="873.3"/>
		<line class="st1" x1="431.7" y1="877.6" x2="403.8" y2="877.6"/>
		<line class="st1" x1="431.7" y1="882.2" x2="403.8" y2="882.2"/>
		<line class="st1" x1="431.7" y1="886.4" x2="403.8" y2="886.4"/>
		<line class="st1" x1="431.7" y1="890.8" x2="403.8" y2="890.8"/>
		<polyline class="st1" points="431.7,886.8 417.7,890.8 403.8,886.8 		"/>
	</g>
	<g>
		<rect x="360.8" y="304.3" class="st0" width="76.5" height="89.4"/>
		<rect x="397.2" y="304.3" class="st1" width="3.6" height="51.8"/>
		<line class="st1" x1="366.4" y1="307.5" x2="394.3" y2="307.5"/>
		<line class="st1" x1="366.4" y1="311.9" x2="394.3" y2="311.9"/>
		<line class="st1" x1="366.4" y1="316.3" x2="394.3" y2="316.3"/>
		<line class="st1" x1="366.4" y1="320.5" x2="394.3" y2="320.5"/>
		<line class="st1" x1="366.4" y1="325.1" x2="394.3" y2="325.1"/>
		<line class="st1" x1="366.4" y1="329.5" x2="394.3" y2="329.5"/>
		<line class="st1" x1="366.4" y1="334" x2="394.3" y2="334"/>
		<line class="st1" x1="366.4" y1="338.3" x2="394.3" y2="338.3"/>
		<line class="st1" x1="366.4" y1="342.9" x2="394.3" y2="342.9"/>
		<line class="st1" x1="366.4" y1="347.1" x2="394.3" y2="347.1"/>
		<line class="st1" x1="366.4" y1="351.5" x2="394.3" y2="351.5"/>
		<polyline class="st1" points="366.4,347.5 380.4,351.5 394.3,347.5 		"/>
		<line class="st1" x1="431.7" y1="351.5" x2="403.8" y2="351.5"/>
		<line class="st1" x1="431.7" y1="347.1" x2="403.8" y2="347.1"/>
		<line class="st1" x1="431.7" y1="342.7" x2="403.8" y2="342.7"/>
		<line class="st1" x1="431.7" y1="338.5" x2="403.8" y2="338.5"/>
		<line class="st1" x1="431.7" y1="333.9" x2="403.8" y2="333.9"/>
		<line class="st1" x1="431.7" y1="329.5" x2="403.8" y2="329.5"/>
		<line class="st1" x1="431.7" y1="325" x2="403.8" y2="325"/>
		<line class="st1" x1="431.7" y1="320.7" x2="403.8" y2="320.7"/>
		<line class="st1" x1="431.7" y1="316.1" x2="403.8" y2="316.1"/>
		<line class="st1" x1="431.7" y1="311.9" x2="403.8" y2="311.9"/>
		<line class="st1" x1="431.7" y1="307.5" x2="403.8" y2="307.5"/>
		<polyline class="st1" points="431.7,311.5 417.7,307.5 403.8,311.5 		"/>
	</g>
	
		<rect x="363.6" y="427.1" transform="matrix(-1 -1.224647e-16 1.224647e-16 -1 729.818 868.441)" class="st2" width="2.6" height="14.3"/>
	<rect x="364.9" y="413.1" class="st0" width="31.5" height="38.8"/>
	<path class="st1" d="M1216.5,660.8V426l-289.8,0V305.3l289.8,0V150.9H47.9v898.4h1168.6V801h-229l0-140.2H1216.5z M364.9,393.7
		h72.4l0,19.4h267.3v107.2l-339.7-1.3V393.7z M364.9,801l0-241.7h72.4v101.6h498l0,140.2H364.9z"/>
</g>
<g id="Label">
	<g>
		<path class="st2" d="M383.1,211.5h-7v-12.8h7v0.8H377v4.9h5.8v0.8H377v5.5h6.1V211.5z"/>
		<path class="st2" d="M385.6,210.8c0-0.6,0.2-0.9,0.7-0.9c0.5,0,0.7,0.3,0.7,0.9s-0.2,0.9-0.7,0.9
			C385.9,211.7,385.6,211.4,385.6,210.8z"/>
		<path class="st2" d="M399.6,211.5h-0.9v-6.3h-7.5v6.3h-0.9v-12.8h0.9v5.7h7.5v-5.7h0.9V211.5z"/>
		<path class="st2" d="M408.3,205h4.7v5.9c-1.2,0.5-2.6,0.8-4.2,0.8c-2,0-3.6-0.6-4.7-1.7s-1.6-2.8-1.6-4.9c0-1.3,0.3-2.5,0.8-3.5
			s1.3-1.8,2.3-2.3s2.1-0.8,3.4-0.8c1.4,0,2.7,0.3,3.8,0.8l-0.4,0.8c-1.1-0.5-2.3-0.8-3.5-0.8c-1.7,0-3,0.5-4,1.6s-1.5,2.5-1.5,4.2
			c0,1.9,0.5,3.4,1.4,4.4s2.3,1.5,4.2,1.5c1.2,0,2.2-0.2,3-0.5v-4.5h-3.8V205z"/>
		<path class="st2" d="M415.9,210.8c0-0.6,0.2-0.9,0.7-0.9c0.5,0,0.7,0.3,0.7,0.9s-0.2,0.9-0.7,0.9
			C416.1,211.7,415.9,211.4,415.9,210.8z"/>
		<path class="st2" d="M427.8,211.5h-8v-0.8l3.4-3.6c1-1,1.6-1.8,2-2.3s0.7-1,0.9-1.5s0.3-1,0.3-1.5c0-0.8-0.3-1.4-0.8-1.9
			s-1.2-0.7-2-0.7c-1.1,0-2.1,0.4-3.1,1.2l-0.5-0.6c1.1-0.9,2.3-1.4,3.6-1.4c1.1,0,2,0.3,2.6,0.9s1,1.4,1,2.5c0,0.8-0.2,1.7-0.6,2.5
			s-1.2,1.8-2.4,2.9l-3.3,3.4v0h6.9V211.5z"/>
		<path class="st2" d="M438.3,205c0,2.3-0.3,3.9-1,5s-1.7,1.6-3.1,1.6c-1.3,0-2.4-0.6-3.1-1.7s-1-2.8-1-5c0-2.2,0.3-3.9,1-5
			s1.7-1.6,3.1-1.6c1.4,0,2.4,0.6,3.1,1.7S438.3,202.9,438.3,205z M431,205c0,2,0.3,3.5,0.8,4.4s1.3,1.4,2.4,1.4
			c1.1,0,1.9-0.5,2.4-1.5s0.8-2.4,0.8-4.4c0-1.9-0.3-3.3-0.8-4.3s-1.3-1.5-2.4-1.5s-1.9,0.5-2.4,1.5S431,203.1,431,205z"/>
		<path class="st2" d="M445.3,211.5h-0.9v-9.4c0-0.8,0-1.7,0.1-2.6c-0.1,0.1-0.2,0.2-0.3,0.3s-1,0.8-2.7,2.1l-0.5-0.6l3.5-2.6h0.8
			V211.5z"/>
	</g>
	<g>
		<path class="st2" d="M142.8,281.2h-7v-12.8h7v0.8h-6.1v4.9h5.8v0.8h-5.8v5.5h6.1V281.2z"/>
		<path class="st2" d="M145.3,280.5c0-0.6,0.2-0.9,0.7-0.9c0.5,0,0.7,0.3,0.7,0.9s-0.2,0.9-0.7,0.9
			C145.6,281.4,145.3,281.1,145.3,280.5z"/>
		<path class="st2" d="M159.3,281.2h-0.9v-6.3h-7.5v6.3H150v-12.8h0.9v5.7h7.5v-5.7h0.9V281.2z"/>
		<path class="st2" d="M168,274.7h4.7v5.9c-1.2,0.5-2.6,0.8-4.2,0.8c-2,0-3.6-0.6-4.7-1.7s-1.6-2.8-1.6-4.9c0-1.3,0.3-2.5,0.8-3.5
			s1.3-1.8,2.3-2.3s2.1-0.8,3.4-0.8c1.4,0,2.7,0.3,3.8,0.8l-0.4,0.8c-1.1-0.5-2.3-0.8-3.5-0.8c-1.7,0-3,0.5-4,1.6s-1.5,2.5-1.5,4.2
			c0,1.9,0.5,3.4,1.4,4.4s2.3,1.5,4.2,1.5c1.2,0,2.2-0.2,3-0.5v-4.5H168V274.7z"/>
		<path class="st2" d="M175.6,280.5c0-0.6,0.2-0.9,0.7-0.9c0.5,0,0.7,0.3,0.7,0.9s-0.2,0.9-0.7,0.9
			C175.8,281.4,175.6,281.1,175.6,280.5z"/>
		<path class="st2" d="M189.6,281.2h-0.9v-6.3h-7.5v6.3h-0.9v-12.8h0.9v5.7h7.5v-5.7h0.9V281.2z"/>
		<path class="st2" d="M200.3,277.9c0,1.1-0.4,1.9-1.2,2.5s-1.8,0.9-3.1,0.9c-1.6,0-2.8-0.2-3.6-0.5V280c0.9,0.4,2.1,0.6,3.5,0.6
			c1.1,0,1.9-0.2,2.5-0.7s0.9-1.1,0.9-1.9c0-0.5-0.1-0.9-0.3-1.2s-0.5-0.6-1-0.9s-1.1-0.5-2-0.9c-1.3-0.5-2.2-0.9-2.7-1.5
			s-0.8-1.2-0.8-2.1c0-1,0.4-1.7,1.1-2.4s1.7-0.9,2.9-0.9c1.2,0,2.3,0.2,3.4,0.7l-0.3,0.8c-1.1-0.4-2.1-0.7-3.1-0.7
			c-0.9,0-1.7,0.2-2.3,0.7s-0.8,1-0.8,1.8c0,0.5,0.1,0.9,0.3,1.2s0.5,0.6,0.8,0.8s1.1,0.5,2,0.9c1,0.3,1.8,0.7,2.3,1
			s0.9,0.7,1.1,1.1S200.3,277.3,200.3,277.9z"/>
		<path class="st2" d="M207.2,281.2h-0.9v-9.4c0-0.8,0-1.7,0.1-2.6c-0.1,0.1-0.2,0.2-0.3,0.3s-1,0.8-2.7,2.1L203,271l3.5-2.6h0.8
			V281.2z"/>
	</g>
	<g>
		<path class="st2" d="M398.4,999.6h-7v-12.8h7v0.8h-6.1v4.9h5.8v0.8h-5.8v5.5h6.1V999.6z"/>
		<path class="st2" d="M400.9,998.9c0-0.6,0.2-0.9,0.7-0.9c0.5,0,0.7,0.3,0.7,0.9s-0.2,0.9-0.7,0.9
			C401.2,999.7,400.9,999.5,400.9,998.9z"/>
		<path class="st2" d="M414.9,999.6H414v-6.3h-7.5v6.3h-0.9v-12.8h0.9v5.7h7.5v-5.7h0.9V999.6z"/>
		<path class="st2" d="M423.6,993.1h4.7v5.9c-1.2,0.5-2.6,0.8-4.2,0.8c-2,0-3.6-0.6-4.7-1.7c-1.1-1.1-1.6-2.8-1.6-4.9
			c0-1.3,0.3-2.5,0.8-3.5c0.5-1,1.3-1.8,2.3-2.3s2.1-0.8,3.4-0.8c1.4,0,2.7,0.3,3.8,0.8l-0.4,0.8c-1.1-0.5-2.3-0.8-3.5-0.8
			c-1.7,0-3,0.5-4,1.6c-1,1-1.5,2.5-1.5,4.2c0,1.9,0.5,3.4,1.4,4.4c0.9,1,2.3,1.5,4.2,1.5c1.2,0,2.2-0.2,3-0.5v-4.5h-3.8V993.1z"/>
		<path class="st2" d="M431.2,998.9c0-0.6,0.2-0.9,0.7-0.9c0.5,0,0.7,0.3,0.7,0.9s-0.2,0.9-0.7,0.9
			C431.4,999.7,431.2,999.5,431.2,998.9z"/>
		<path class="st2" d="M443.1,999.6h-8v-0.8l3.4-3.6c1-1,1.6-1.8,2-2.3s0.7-1,0.9-1.5s0.3-1,0.3-1.5c0-0.8-0.3-1.4-0.8-1.9
			s-1.2-0.7-2-0.7c-1.1,0-2.1,0.4-3.1,1.2l-0.5-0.6c1.1-0.9,2.3-1.4,3.6-1.4c1.1,0,2,0.3,2.6,0.9s1,1.4,1,2.5c0,0.8-0.2,1.7-0.6,2.5
			c-0.4,0.8-1.2,1.8-2.4,2.9l-3.3,3.4v0h6.9V999.6z"/>
		<path class="st2" d="M452.9,989.7c0,0.8-0.3,1.5-0.8,2s-1.2,0.9-2,1v0.1c1,0.1,1.8,0.5,2.4,1s0.8,1.2,0.8,2.1
			c0,1.2-0.4,2.1-1.2,2.8c-0.8,0.7-2,1-3.5,1c-1.3,0-2.4-0.2-3.4-0.7v-0.9c0.5,0.3,1,0.5,1.7,0.6s1.2,0.2,1.7,0.2
			c1.3,0,2.3-0.3,2.9-0.8c0.7-0.5,1-1.3,1-2.2c0-0.8-0.3-1.5-1-2s-1.6-0.7-2.9-0.7h-1.4v-0.8h1.4c1.1,0,1.9-0.3,2.5-0.8
			c0.6-0.5,0.9-1.2,0.9-2.1c0-0.7-0.3-1.3-0.8-1.7c-0.5-0.4-1.2-0.6-2-0.6c-0.6,0-1.2,0.1-1.7,0.3s-1.1,0.5-1.8,0.9l-0.4-0.6
			c0.5-0.4,1.1-0.7,1.8-1c0.7-0.2,1.4-0.4,2.1-0.4c1.2,0,2.1,0.3,2.7,0.8C452.6,987.9,452.9,988.7,452.9,989.7z"/>
		<path class="st2" d="M457.5,999.6l5.3-12h-7.3v-0.8h8.3v0.6l-5.3,12.2H457.5z"/>
	</g>
	<g>
		<path class="st2" d="M142.8,482.1h-7v-12.8h7v0.8h-6.1v4.9h5.8v0.8h-5.8v5.5h6.1V482.1z"/>
		<path class="st2" d="M145.3,481.4c0-0.6,0.2-0.9,0.7-0.9c0.5,0,0.7,0.3,0.7,0.9s-0.2,0.9-0.7,0.9
			C145.6,482.2,145.3,482,145.3,481.4z"/>
		<path class="st2" d="M159.3,482.1h-0.9v-6.3h-7.5v6.3H150v-12.8h0.9v5.7h7.5v-5.7h0.9V482.1z"/>
		<path class="st2" d="M168,475.6h4.7v5.9c-1.2,0.5-2.6,0.8-4.2,0.8c-2,0-3.6-0.6-4.7-1.7s-1.6-2.8-1.6-4.9c0-1.3,0.3-2.5,0.8-3.5
			s1.3-1.8,2.3-2.3s2.1-0.8,3.4-0.8c1.4,0,2.7,0.3,3.8,0.8l-0.4,0.8c-1.1-0.5-2.3-0.8-3.5-0.8c-1.7,0-3,0.5-4,1.6s-1.5,2.5-1.5,4.2
			c0,1.9,0.5,3.4,1.4,4.4s2.3,1.5,4.2,1.5c1.2,0,2.2-0.2,3-0.5v-4.5H168V475.6z"/>
		<path class="st2" d="M175.6,481.4c0-0.6,0.2-0.9,0.7-0.9c0.5,0,0.7,0.3,0.7,0.9s-0.2,0.9-0.7,0.9
			C175.8,482.2,175.6,482,175.6,481.4z"/>
		<path class="st2" d="M189.6,482.1h-0.9v-6.3h-7.5v6.3h-0.9v-12.8h0.9v5.7h7.5v-5.7h0.9V482.1z"/>
		<path class="st2" d="M200.3,478.8c0,1.1-0.4,1.9-1.2,2.5s-1.8,0.9-3.1,0.9c-1.6,0-2.8-0.2-3.6-0.5v-0.9c0.9,0.4,2.1,0.6,3.5,0.6
			c1.1,0,1.9-0.2,2.5-0.7s0.9-1.1,0.9-1.9c0-0.5-0.1-0.9-0.3-1.2s-0.5-0.6-1-0.9s-1.1-0.5-2-0.9c-1.3-0.5-2.2-0.9-2.7-1.5
			s-0.8-1.2-0.8-2.1c0-1,0.4-1.7,1.1-2.4s1.7-0.9,2.9-0.9c1.2,0,2.3,0.2,3.4,0.7l-0.3,0.8c-1.1-0.4-2.1-0.7-3.1-0.7
			c-0.9,0-1.7,0.2-2.3,0.7s-0.8,1-0.8,1.8c0,0.5,0.1,0.9,0.3,1.2s0.5,0.6,0.8,0.8s1.1,0.5,2,0.9c1,0.3,1.8,0.7,2.3,1
			s0.9,0.7,1.1,1.1S200.3,478.2,200.3,478.8z"/>
		<path class="st2" d="M210.2,482.1h-8v-0.8l3.4-3.6c1-1,1.6-1.8,2-2.3s0.7-1,0.9-1.5s0.3-1,0.3-1.5c0-0.8-0.3-1.4-0.8-1.9
			s-1.2-0.7-2-0.7c-1.1,0-2.1,0.4-3.1,1.2l-0.5-0.6c1.1-0.9,2.3-1.4,3.6-1.4c1.1,0,2,0.3,2.6,0.9s1,1.4,1,2.5c0,0.8-0.2,1.7-0.6,2.5
			s-1.2,1.8-2.4,2.9l-3.3,3.4v0h6.9V482.1z"/>
	</g>
	<g>
		<path class="st2" d="M142.8,638.4h-7v-12.8h7v0.8h-6.1v4.9h5.8v0.8h-5.8v5.5h6.1V638.4z"/>
		<path class="st2" d="M145.3,637.7c0-0.6,0.2-0.9,0.7-0.9c0.5,0,0.7,0.3,0.7,0.9s-0.2,0.9-0.7,0.9
			C145.6,638.6,145.3,638.3,145.3,637.7z"/>
		<path class="st2" d="M159.3,638.4h-0.9v-6.3h-7.5v6.3H150v-12.8h0.9v5.7h7.5v-5.7h0.9V638.4z"/>
		<path class="st2" d="M168,631.9h4.7v5.9c-1.2,0.5-2.6,0.8-4.2,0.8c-2,0-3.6-0.6-4.7-1.7c-1.1-1.1-1.6-2.8-1.6-4.9
			c0-1.3,0.3-2.5,0.8-3.5c0.5-1,1.3-1.8,2.3-2.3s2.1-0.8,3.4-0.8c1.4,0,2.7,0.3,3.8,0.8l-0.4,0.8c-1.1-0.5-2.3-0.8-3.5-0.8
			c-1.7,0-3,0.5-4,1.6c-1,1-1.5,2.5-1.5,4.2c0,1.9,0.5,3.4,1.4,4.4c0.9,1,2.3,1.5,4.2,1.5c1.2,0,2.2-0.2,3-0.5v-4.5H168V631.9z"/>
		<path class="st2" d="M175.6,637.7c0-0.6,0.2-0.9,0.7-0.9c0.5,0,0.7,0.3,0.7,0.9s-0.2,0.9-0.7,0.9
			C175.8,638.6,175.6,638.3,175.6,637.7z"/>
		<path class="st2" d="M189.6,638.4h-0.9v-6.3h-7.5v6.3h-0.9v-12.8h0.9v5.7h7.5v-5.7h0.9V638.4z"/>
		<path class="st2" d="M200.3,635.1c0,1.1-0.4,1.9-1.2,2.5s-1.8,0.9-3.1,0.9c-1.6,0-2.8-0.2-3.6-0.5v-0.9c0.9,0.4,2.1,0.6,3.5,0.6
			c1.1,0,1.9-0.2,2.5-0.7c0.6-0.5,0.9-1.1,0.9-1.9c0-0.5-0.1-0.9-0.3-1.2s-0.5-0.6-1-0.9s-1.1-0.5-2-0.9c-1.3-0.5-2.2-0.9-2.7-1.5
			c-0.5-0.5-0.8-1.2-0.8-2.1c0-1,0.4-1.7,1.1-2.4c0.8-0.6,1.7-0.9,2.9-0.9c1.2,0,2.3,0.2,3.4,0.7l-0.3,0.8c-1.1-0.4-2.1-0.7-3.1-0.7
			c-0.9,0-1.7,0.2-2.3,0.7s-0.8,1-0.8,1.8c0,0.5,0.1,0.9,0.3,1.2s0.5,0.6,0.8,0.8c0.4,0.2,1.1,0.5,2,0.9c1,0.3,1.8,0.7,2.3,1
			c0.5,0.3,0.9,0.7,1.1,1.1C200.2,634,200.3,634.5,200.3,635.1z"/>
		<path class="st2" d="M209.8,628.6c0,0.8-0.3,1.5-0.8,2s-1.2,0.9-2,1v0.1c1,0.1,1.8,0.5,2.4,1s0.8,1.2,0.8,2.1
			c0,1.2-0.4,2.1-1.2,2.8c-0.8,0.7-2,1-3.5,1c-1.3,0-2.4-0.2-3.4-0.7V637c0.5,0.3,1,0.5,1.7,0.6s1.2,0.2,1.7,0.2
			c1.3,0,2.3-0.3,2.9-0.8c0.7-0.5,1-1.3,1-2.2c0-0.8-0.3-1.5-1-2s-1.6-0.7-2.9-0.7H204v-0.8h1.4c1.1,0,1.9-0.3,2.5-0.8
			c0.6-0.5,0.9-1.2,0.9-2.1c0-0.7-0.3-1.3-0.8-1.7c-0.5-0.4-1.2-0.6-2-0.6c-0.6,0-1.2,0.1-1.7,0.3s-1.1,0.5-1.8,0.9l-0.4-0.6
			c0.5-0.4,1.1-0.7,1.8-1c0.7-0.2,1.4-0.4,2.1-0.4c1.2,0,2.1,0.3,2.7,0.8C209.5,626.8,209.8,627.6,209.8,628.6z"/>
	</g>
	<g>
		<path class="st2" d="M142.8,792.2h-7v-12.8h7v0.8h-6.1v4.9h5.8v0.8h-5.8v5.5h6.1V792.2z"/>
		<path class="st2" d="M145.3,791.5c0-0.6,0.2-0.9,0.7-0.9c0.5,0,0.7,0.3,0.7,0.9s-0.2,0.9-0.7,0.9
			C145.6,792.4,145.3,792.1,145.3,791.5z"/>
		<path class="st2" d="M159.3,792.2h-0.9v-6.3h-7.5v6.3H150v-12.8h0.9v5.7h7.5v-5.7h0.9V792.2z"/>
		<path class="st2" d="M168,785.7h4.7v5.9c-1.2,0.5-2.6,0.8-4.2,0.8c-2,0-3.6-0.6-4.7-1.7c-1.1-1.1-1.6-2.8-1.6-4.9
			c0-1.3,0.3-2.5,0.8-3.5c0.5-1,1.3-1.8,2.3-2.3s2.1-0.8,3.4-0.8c1.4,0,2.7,0.3,3.8,0.8l-0.4,0.8c-1.1-0.5-2.3-0.8-3.5-0.8
			c-1.7,0-3,0.5-4,1.6c-1,1-1.5,2.5-1.5,4.2c0,1.9,0.5,3.4,1.4,4.4c0.9,1,2.3,1.5,4.2,1.5c1.2,0,2.2-0.2,3-0.5v-4.5H168V785.7z"/>
		<path class="st2" d="M175.6,791.5c0-0.6,0.2-0.9,0.7-0.9c0.5,0,0.7,0.3,0.7,0.9s-0.2,0.9-0.7,0.9
			C175.8,792.4,175.6,792.1,175.6,791.5z"/>
		<path class="st2" d="M189.6,792.2h-0.9v-6.3h-7.5v6.3h-0.9v-12.8h0.9v5.7h7.5v-5.7h0.9V792.2z"/>
		<path class="st2" d="M200.3,788.9c0,1.1-0.4,1.9-1.2,2.5s-1.8,0.9-3.1,0.9c-1.6,0-2.8-0.2-3.6-0.5V791c0.9,0.4,2.1,0.6,3.5,0.6
			c1.1,0,1.9-0.2,2.5-0.7c0.6-0.5,0.9-1.1,0.9-1.9c0-0.5-0.1-0.9-0.3-1.2s-0.5-0.6-1-0.9s-1.1-0.5-2-0.9c-1.3-0.5-2.2-0.9-2.7-1.5
			c-0.5-0.5-0.8-1.2-0.8-2.1c0-1,0.4-1.7,1.1-2.4c0.8-0.6,1.7-0.9,2.9-0.9c1.2,0,2.3,0.2,3.4,0.7l-0.3,0.8c-1.1-0.4-2.1-0.7-3.1-0.7
			c-0.9,0-1.7,0.2-2.3,0.7s-0.8,1-0.8,1.8c0,0.5,0.1,0.9,0.3,1.2s0.5,0.6,0.8,0.8c0.4,0.2,1.1,0.5,2,0.9c1,0.3,1.8,0.7,2.3,1
			c0.5,0.3,0.9,0.7,1.1,1.1C200.2,787.8,200.3,788.3,200.3,788.9z"/>
		<path class="st2" d="M211.2,788.9H209v3.3h-0.8v-3.3h-6.6v-0.6l6.4-9.1h1.1v8.9h2.2V788.9z M208.2,788.2v-3.7c0-1.8,0-3.3,0.1-4.5
			h-0.1c-0.1,0.2-0.5,0.8-1.1,1.7l-4.5,6.5H208.2z"/>
	</g>
	<g>
		<path class="st2" d="M142.8,959h-7v-12.8h7v0.8h-6.1v4.9h5.8v0.8h-5.8v5.5h6.1V959z"/>
		<path class="st2" d="M145.3,958.3c0-0.6,0.2-0.9,0.7-0.9c0.5,0,0.7,0.3,0.7,0.9s-0.2,0.9-0.7,0.9
			C145.6,959.1,145.3,958.8,145.3,958.3z"/>
		<path class="st2" d="M159.3,959h-0.9v-6.3h-7.5v6.3H150v-12.8h0.9v5.7h7.5v-5.7h0.9V959z"/>
		<path class="st2" d="M168,952.5h4.7v5.9c-1.2,0.5-2.6,0.8-4.2,0.8c-2,0-3.6-0.6-4.7-1.7c-1.1-1.1-1.6-2.8-1.6-4.9
			c0-1.3,0.3-2.5,0.8-3.5c0.5-1,1.3-1.8,2.3-2.3s2.1-0.8,3.4-0.8c1.4,0,2.7,0.3,3.8,0.8l-0.4,0.8c-1.1-0.5-2.3-0.8-3.5-0.8
			c-1.7,0-3,0.5-4,1.6c-1,1-1.5,2.5-1.5,4.2c0,1.9,0.5,3.4,1.4,4.4c0.9,1,2.3,1.5,4.2,1.5c1.2,0,2.2-0.2,3-0.5v-4.5H168V952.5z"/>
		<path class="st2" d="M175.6,958.3c0-0.6,0.2-0.9,0.7-0.9c0.5,0,0.7,0.3,0.7,0.9s-0.2,0.9-0.7,0.9
			C175.8,959.1,175.6,958.8,175.6,958.3z"/>
		<path class="st2" d="M189.6,959h-0.9v-6.3h-7.5v6.3h-0.9v-12.8h0.9v5.7h7.5v-5.7h0.9V959z"/>
		<path class="st2" d="M200.3,955.6c0,1.1-0.4,1.9-1.2,2.5s-1.8,0.9-3.1,0.9c-1.6,0-2.8-0.2-3.6-0.5v-0.9c0.9,0.4,2.1,0.6,3.5,0.6
			c1.1,0,1.9-0.2,2.5-0.7c0.6-0.5,0.9-1.1,0.9-1.9c0-0.5-0.1-0.9-0.3-1.2s-0.5-0.6-1-0.9s-1.1-0.5-2-0.9c-1.3-0.5-2.2-0.9-2.7-1.5
			c-0.5-0.5-0.8-1.2-0.8-2.1c0-1,0.4-1.7,1.1-2.4c0.8-0.6,1.7-0.9,2.9-0.9c1.2,0,2.3,0.2,3.4,0.7l-0.3,0.8c-1.1-0.4-2.1-0.7-3.1-0.7
			c-0.9,0-1.7,0.2-2.3,0.7s-0.8,1-0.8,1.8c0,0.5,0.1,0.9,0.3,1.2s0.5,0.6,0.8,0.8c0.4,0.2,1.1,0.5,2,0.9c1,0.3,1.8,0.7,2.3,1
			c0.5,0.3,0.9,0.7,1.1,1.1C200.2,954.6,200.3,955.1,200.3,955.6z"/>
		<path class="st2" d="M205.9,951.2c1.4,0,2.5,0.3,3.2,1s1.2,1.6,1.2,2.7c0,1.3-0.4,2.3-1.2,3.1s-2,1.1-3.4,1.1
			c-0.6,0-1.2-0.1-1.8-0.2c-0.6-0.1-1.1-0.3-1.4-0.5v-0.9c0.6,0.3,1.2,0.5,1.7,0.7c0.5,0.1,1,0.2,1.6,0.2c1.1,0,2-0.3,2.7-0.9
			c0.7-0.6,1-1.4,1-2.4c0-1-0.3-1.7-1-2.2s-1.6-0.8-2.7-0.8c-0.8,0-1.6,0.1-2.4,0.3l-0.5-0.3l0.5-5.9h6.2v0.8h-5.4l-0.4,4.5
			C204.7,951.3,205.4,951.2,205.9,951.2z"/>
	</g>
	<g>
		<path class="st2" d="M537.6,999.6h-7v-12.8h7v0.8h-6.1v4.9h5.8v0.8h-5.8v5.5h6.1V999.6z"/>
		<path class="st2" d="M540.2,998.9c0-0.6,0.2-0.9,0.7-0.9c0.5,0,0.7,0.3,0.7,0.9s-0.2,0.9-0.7,0.9
			C540.4,999.7,540.2,999.5,540.2,998.9z"/>
		<path class="st2" d="M554.1,999.6h-0.9v-6.3h-7.5v6.3h-0.9v-12.8h0.9v5.7h7.5v-5.7h0.9V999.6z"/>
		<path class="st2" d="M562.8,993.1h4.7v5.9c-1.2,0.5-2.6,0.8-4.2,0.8c-2,0-3.6-0.6-4.7-1.7c-1.1-1.1-1.6-2.8-1.6-4.9
			c0-1.3,0.3-2.5,0.8-3.5c0.5-1,1.3-1.8,2.3-2.3s2.1-0.8,3.4-0.8c1.4,0,2.7,0.3,3.8,0.8l-0.4,0.8c-1.1-0.5-2.3-0.8-3.5-0.8
			c-1.7,0-3,0.5-4,1.6c-1,1-1.5,2.5-1.5,4.2c0,1.9,0.5,3.4,1.4,4.4c0.9,1,2.3,1.5,4.2,1.5c1.2,0,2.2-0.2,3-0.5v-4.5h-3.8V993.1z"/>
		<path class="st2" d="M570.4,998.9c0-0.6,0.2-0.9,0.7-0.9c0.5,0,0.7,0.3,0.7,0.9s-0.2,0.9-0.7,0.9
			C570.6,999.7,570.4,999.5,570.4,998.9z"/>
		<path class="st2" d="M582.3,999.6h-8v-0.8l3.4-3.6c1-1,1.6-1.8,2-2.3s0.7-1,0.9-1.5s0.3-1,0.3-1.5c0-0.8-0.3-1.4-0.8-1.9
			s-1.2-0.7-2-0.7c-1.1,0-2.1,0.4-3.1,1.2l-0.5-0.6c1.1-0.9,2.3-1.4,3.6-1.4c1.1,0,2,0.3,2.6,0.9s1,1.4,1,2.5c0,0.8-0.2,1.7-0.6,2.5
			c-0.4,0.8-1.2,1.8-2.4,2.9l-3.3,3.4v0h6.9V999.6z"/>
		<path class="st2" d="M592.1,989.7c0,0.8-0.3,1.5-0.8,2s-1.2,0.9-2,1v0.1c1,0.1,1.8,0.5,2.4,1s0.8,1.2,0.8,2.1
			c0,1.2-0.4,2.1-1.2,2.8c-0.8,0.7-2,1-3.5,1c-1.3,0-2.4-0.2-3.4-0.7v-0.9c0.5,0.3,1,0.5,1.7,0.6s1.2,0.2,1.7,0.2
			c1.3,0,2.3-0.3,2.9-0.8c0.7-0.5,1-1.3,1-2.2c0-0.8-0.3-1.5-1-2s-1.6-0.7-2.9-0.7h-1.4v-0.8h1.4c1.1,0,1.9-0.3,2.5-0.8
			c0.6-0.5,0.9-1.2,0.9-2.1c0-0.7-0.3-1.3-0.8-1.7c-0.5-0.4-1.2-0.6-2-0.6c-0.6,0-1.2,0.1-1.7,0.3s-1.1,0.5-1.8,0.9l-0.4-0.6
			c0.5-0.4,1.1-0.7,1.8-1c0.7-0.2,1.4-0.4,2.1-0.4c1.2,0,2.1,0.3,2.7,0.8C591.8,987.9,592.1,988.7,592.1,989.7z"/>
		<path class="st2" d="M595,994.1c0-1.7,0.2-3.1,0.7-4.2s1.1-2,1.9-2.5s1.8-0.8,3-0.8c0.6,0,1.1,0.1,1.5,0.2v0.8
			c-0.4-0.2-0.9-0.2-1.5-0.2c-1.4,0-2.6,0.5-3.4,1.6s-1.3,2.6-1.4,4.6h0.1c0.4-0.6,1-1,1.5-1.3s1.2-0.4,1.8-0.4c1.2,0,2.1,0.3,2.8,1
			s1,1.6,1,2.8c0,1.3-0.4,2.3-1.1,3.1c-0.7,0.8-1.7,1.1-2.9,1.1c-1.3,0-2.3-0.5-3.1-1.5C595.3,997.3,595,995.9,595,994.1z
			 M599.2,999c1,0,1.7-0.3,2.2-0.9s0.8-1.5,0.8-2.6c0-1-0.3-1.8-0.8-2.3s-1.2-0.8-2.2-0.8c-0.6,0-1.2,0.1-1.7,0.4s-0.9,0.6-1.2,1.1
			s-0.5,0.9-0.5,1.3c0,0.7,0.1,1.3,0.4,1.9s0.7,1.1,1.2,1.4S598.6,999,599.2,999z"/>
	</g>
	<g>
		<path class="st2" d="M956.5,235.9v7h-12.8v-7h0.8v6.1h4.9v-5.8h0.8v5.8h5.5v-6.1H956.5z"/>
		<path class="st2" d="M955.8,233.4c-0.6,0-0.9-0.2-0.9-0.7c0-0.5,0.3-0.7,0.9-0.7s0.9,0.2,0.9,0.7
			C956.6,233.1,956.3,233.4,955.8,233.4z"/>
		<path class="st2" d="M956.5,219.4v0.9h-6.3v7.5h6.3v0.9h-12.8v-0.9h5.7v-7.5h-5.7v-0.9H956.5z"/>
		<path class="st2" d="M950,210.7V206h5.9c0.5,1.2,0.8,2.6,0.8,4.2c0,2-0.6,3.6-1.7,4.7c-1.1,1.1-2.8,1.6-4.9,1.6
			c-1.3,0-2.5-0.3-3.5-0.8c-1-0.5-1.8-1.3-2.3-2.3s-0.8-2.1-0.8-3.4c0-1.4,0.3-2.7,0.8-3.8l0.8,0.4c-0.5,1.1-0.8,2.3-0.8,3.5
			c0,1.7,0.5,3,1.6,4c1,1,2.5,1.5,4.2,1.5c1.9,0,3.4-0.5,4.4-1.4c1-0.9,1.5-2.3,1.5-4.2c0-1.2-0.2-2.2-0.5-3h-4.5v3.8H950z"/>
		<path class="st2" d="M955.8,203.1c-0.6,0-0.9-0.2-0.9-0.7c0-0.5,0.3-0.7,0.9-0.7s0.9,0.2,0.9,0.7
			C956.6,202.9,956.3,203.1,955.8,203.1z"/>
		<path class="st2" d="M956.5,191.2v8h-0.8l-3.6-3.4c-1-1-1.8-1.6-2.3-2s-1-0.7-1.5-0.9s-1-0.3-1.5-0.3c-0.8,0-1.4,0.3-1.9,0.8
			s-0.7,1.2-0.7,2c0,1.1,0.4,2.1,1.2,3.1l-0.6,0.5c-0.9-1.1-1.4-2.3-1.4-3.6c0-1.1,0.3-2,0.9-2.6s1.4-1,2.5-1c0.8,0,1.7,0.2,2.5,0.6
			c0.8,0.4,1.8,1.2,2.9,2.4l3.4,3.3h0v-6.9H956.5z"/>
		<path class="st2" d="M950,180.7c2.3,0,3.9,0.3,5,1s1.6,1.7,1.6,3.1c0,1.3-0.6,2.4-1.7,3.1c-1.1,0.7-2.8,1-5,1c-2.2,0-3.9-0.3-5-1
			s-1.6-1.7-1.6-3.1c0-1.4,0.6-2.4,1.7-3.1C946.2,181.1,947.8,180.7,950,180.7z M950,188c2,0,3.5-0.3,4.4-0.8s1.4-1.3,1.4-2.4
			c0-1.1-0.5-1.9-1.5-2.4s-2.4-0.8-4.4-0.8c-1.9,0-3.3,0.3-4.3,0.8s-1.5,1.3-1.5,2.4s0.5,1.9,1.5,2.4S948.1,188,950,188z"/>
		<path class="st2" d="M948.7,175c0-1.4,0.3-2.5,1-3.2s1.6-1.2,2.7-1.2c1.3,0,2.3,0.4,3.1,1.2s1.1,2,1.1,3.4c0,0.6-0.1,1.2-0.2,1.8
			c-0.1,0.6-0.3,1.1-0.5,1.4H955c0.3-0.6,0.5-1.2,0.7-1.7c0.1-0.5,0.2-1,0.2-1.6c0-1.1-0.3-2-0.9-2.7c-0.6-0.7-1.4-1-2.4-1
			c-1,0-1.7,0.3-2.2,1s-0.8,1.6-0.8,2.7c0,0.8,0.1,1.6,0.3,2.4l-0.3,0.5l-5.9-0.5v-6.2h0.8v5.4l4.5,0.4
			C948.8,176.2,948.7,175.5,948.7,175z"/>
	</g>
	<g>
		<path class="st2" d="M1017.2,852.2h-7v-12.8h7v0.8h-6.1v4.9h5.8v0.8h-5.8v5.5h6.1V852.2z"/>
		<path class="st2" d="M1019.7,851.5c0-0.6,0.2-0.9,0.7-0.9c0.5,0,0.7,0.3,0.7,0.9s-0.2,0.9-0.7,0.9
			C1019.9,852.4,1019.7,852.1,1019.7,851.5z"/>
		<path class="st2" d="M1033.7,852.2h-0.9v-6.3h-7.5v6.3h-0.9v-12.8h0.9v5.7h7.5v-5.7h0.9V852.2z"/>
		<path class="st2" d="M1042.4,845.7h4.7v5.9c-1.2,0.5-2.6,0.8-4.2,0.8c-2,0-3.6-0.6-4.7-1.7c-1.1-1.1-1.6-2.8-1.6-4.9
			c0-1.3,0.3-2.5,0.8-3.5c0.5-1,1.3-1.8,2.3-2.3s2.1-0.8,3.4-0.8c1.4,0,2.7,0.3,3.8,0.8l-0.4,0.8c-1.1-0.5-2.3-0.8-3.5-0.8
			c-1.7,0-3,0.5-4,1.6c-1,1-1.5,2.5-1.5,4.2c0,1.9,0.5,3.4,1.4,4.4c0.9,1,2.3,1.5,4.2,1.5c1.2,0,2.2-0.2,3-0.5v-4.5h-3.8V845.7z"/>
		<path class="st2" d="M1050,851.5c0-0.6,0.2-0.9,0.7-0.9c0.5,0,0.7,0.3,0.7,0.9s-0.2,0.9-0.7,0.9
			C1050.2,852.4,1050,852.1,1050,851.5z"/>
		<path class="st2" d="M1061.8,852.2h-8v-0.8l3.4-3.6c1-1,1.6-1.8,2-2.3s0.7-1,0.9-1.5s0.3-1,0.3-1.5c0-0.8-0.3-1.4-0.8-1.9
			s-1.2-0.7-2-0.7c-1.1,0-2.1,0.4-3.1,1.2l-0.5-0.6c1.1-0.9,2.3-1.4,3.6-1.4c1.1,0,2,0.3,2.6,0.9c0.6,0.6,1,1.4,1,2.5
			c0,0.8-0.2,1.7-0.6,2.5c-0.4,0.8-1.2,1.8-2.4,2.9l-3.3,3.4v0h6.9V852.2z"/>
		<path class="st2" d="M1072.1,852.2h-8v-0.8l3.4-3.6c1-1,1.6-1.8,2-2.3s0.7-1,0.9-1.5s0.3-1,0.3-1.5c0-0.8-0.3-1.4-0.8-1.9
			s-1.2-0.7-2-0.7c-1.1,0-2.1,0.4-3.1,1.2l-0.5-0.6c1.1-0.9,2.3-1.4,3.6-1.4c1.1,0,2,0.3,2.6,0.9c0.6,0.6,1,1.4,1,2.5
			c0,0.8-0.2,1.7-0.6,2.5c-0.4,0.8-1.2,1.8-2.4,2.9l-3.3,3.4v0h6.9V852.2z"/>
		<path class="st2" d="M1078.5,839.1c1.1,0,2,0.3,2.6,0.8c0.7,0.6,1,1.3,1,2.3c0,0.7-0.2,1.2-0.6,1.7c-0.4,0.5-1.1,1-2,1.4
			c1.1,0.5,1.9,1,2.4,1.5s0.7,1.2,0.7,2c0,1.1-0.4,1.9-1.1,2.5c-0.7,0.6-1.7,0.9-3,0.9c-1.3,0-2.3-0.3-3-0.9s-1-1.5-1-2.6
			c0-0.8,0.2-1.4,0.7-2s1.2-1.1,2.3-1.5c-0.9-0.4-1.6-0.9-2-1.4s-0.6-1.1-0.6-1.8c0-0.6,0.2-1.2,0.5-1.6c0.3-0.5,0.7-0.8,1.3-1.1
			C1077.2,839.3,1077.8,839.1,1078.5,839.1z M1075.3,849c0,0.8,0.3,1.4,0.8,1.9s1.3,0.7,2.3,0.7c1,0,1.7-0.2,2.3-0.7
			s0.9-1.1,0.9-1.9c0-0.7-0.2-1.3-0.7-1.8c-0.5-0.5-1.3-0.9-2.7-1.4c-1.1,0.4-1.8,0.9-2.3,1.4S1075.3,848.3,1075.3,849z
			 M1078.5,839.9c-0.8,0-1.5,0.2-2,0.6c-0.5,0.4-0.8,1-0.8,1.7c0,0.4,0.1,0.8,0.3,1.1c0.2,0.3,0.5,0.6,0.8,0.9
			c0.3,0.3,0.9,0.6,1.8,0.9c1-0.4,1.6-0.8,2.1-1.2s0.6-1,0.6-1.6c0-0.7-0.2-1.3-0.7-1.7S1079.3,839.9,1078.5,839.9z"/>
	</g>
	<g>
		<path class="st2" d="M1024.3,999.6h-7v-12.8h7v0.8h-6.1v4.9h5.8v0.8h-5.8v5.5h6.1V999.6z"/>
		<path class="st2" d="M1026.8,998.9c0-0.6,0.2-0.9,0.7-0.9c0.5,0,0.7,0.3,0.7,0.9s-0.2,0.9-0.7,0.9
			C1027.1,999.7,1026.8,999.4,1026.8,998.9z"/>
		<path class="st2" d="M1040.8,999.6h-0.9v-6.3h-7.5v6.3h-0.9v-12.8h0.9v5.7h7.5v-5.7h0.9V999.6z"/>
		<path class="st2" d="M1049.5,993.1h4.7v5.9c-1.2,0.5-2.6,0.8-4.2,0.8c-2,0-3.6-0.6-4.7-1.7c-1.1-1.1-1.6-2.8-1.6-4.9
			c0-1.3,0.3-2.5,0.8-3.5c0.5-1,1.3-1.8,2.3-2.3s2.1-0.8,3.4-0.8c1.4,0,2.7,0.3,3.8,0.8l-0.4,0.8c-1.1-0.5-2.3-0.8-3.5-0.8
			c-1.7,0-3,0.5-4,1.6c-1,1-1.5,2.5-1.5,4.2c0,1.9,0.5,3.4,1.4,4.4c0.9,1,2.3,1.5,4.2,1.5c1.2,0,2.2-0.2,3-0.5v-4.5h-3.8V993.1z"/>
		<path class="st2" d="M1057.1,998.9c0-0.6,0.2-0.9,0.7-0.9c0.5,0,0.7,0.3,0.7,0.9s-0.2,0.9-0.7,0.9
			C1057.3,999.7,1057.1,999.4,1057.1,998.9z"/>
		<path class="st2" d="M1069,999.6h-8v-0.8l3.4-3.6c1-1,1.6-1.8,2-2.3s0.7-1,0.9-1.5s0.3-1,0.3-1.5c0-0.8-0.3-1.4-0.8-1.9
			s-1.2-0.7-2-0.7c-1.1,0-2.1,0.4-3.1,1.2l-0.5-0.6c1.1-0.9,2.3-1.4,3.6-1.4c1.1,0,2,0.3,2.6,0.9c0.6,0.6,1,1.4,1,2.5
			c0,0.8-0.2,1.7-0.6,2.5c-0.4,0.8-1.2,1.8-2.4,2.9l-3.3,3.4v0h6.9V999.6z"/>
		<path class="st2" d="M1078.8,989.7c0,0.8-0.3,1.5-0.8,2c-0.5,0.5-1.2,0.9-2,1v0.1c1,0.1,1.8,0.5,2.4,1s0.8,1.2,0.8,2.1
			c0,1.2-0.4,2.1-1.2,2.8c-0.8,0.7-2,1-3.5,1c-1.3,0-2.4-0.2-3.4-0.7v-0.9c0.5,0.3,1,0.5,1.7,0.6s1.2,0.2,1.7,0.2
			c1.3,0,2.3-0.3,2.9-0.8c0.7-0.5,1-1.3,1-2.2c0-0.8-0.3-1.5-1-2s-1.6-0.7-2.9-0.7h-1.4v-0.8h1.4c1.1,0,1.9-0.3,2.5-0.8
			c0.6-0.5,0.9-1.2,0.9-2.1c0-0.7-0.3-1.3-0.8-1.7c-0.5-0.4-1.2-0.6-2-0.6c-0.6,0-1.2,0.1-1.7,0.3s-1.1,0.5-1.8,0.9l-0.4-0.6
			c0.5-0.4,1.1-0.7,1.8-1c0.7-0.2,1.4-0.4,2.1-0.4c1.2,0,2.1,0.3,2.7,0.8C1078.5,987.9,1078.8,988.7,1078.8,989.7z"/>
		<path class="st2" d="M1086.5,999.6h-0.9v-9.4c0-0.8,0-1.7,0.1-2.6c-0.1,0.1-0.2,0.2-0.3,0.3s-1,0.8-2.7,2.1l-0.5-0.6l3.5-2.6h0.8
			V999.6z"/>
	</g>
	<g>
		<path class="st2" d="M920.7,1028.1v7h-12.8v-7h0.8v6.1h4.9v-5.8h0.8v5.8h5.5v-6.1H920.7z"/>
		<path class="st2" d="M920,1025.6c-0.6,0-0.9-0.2-0.9-0.7c0-0.5,0.3-0.7,0.9-0.7s0.9,0.2,0.9,0.7
			C920.9,1025.3,920.6,1025.6,920,1025.6z"/>
		<path class="st2" d="M920.7,1011.6v0.9h-6.3v7.5h6.3v0.9h-12.8v-0.9h5.7v-7.5h-5.7v-0.9H920.7z"/>
		<path class="st2" d="M914.2,1002.9v-4.7h5.9c0.5,1.2,0.8,2.6,0.8,4.2c0,2-0.6,3.6-1.7,4.7c-1.1,1.1-2.8,1.6-4.9,1.6
			c-1.3,0-2.5-0.3-3.5-0.8c-1-0.5-1.8-1.3-2.3-2.3s-0.8-2.1-0.8-3.4c0-1.4,0.3-2.7,0.8-3.8l0.8,0.4c-0.5,1.1-0.8,2.3-0.8,3.5
			c0,1.7,0.5,3,1.6,4c1,1,2.5,1.5,4.2,1.5c1.9,0,3.4-0.5,4.4-1.4c1-0.9,1.5-2.3,1.5-4.2c0-1.2-0.2-2.2-0.5-3h-4.5v3.8H914.2z"/>
		<path class="st2" d="M920,995.3c-0.6,0-0.9-0.2-0.9-0.7c0-0.5,0.3-0.7,0.9-0.7s0.9,0.2,0.9,0.7C920.9,995.1,920.6,995.3,920,995.3
			z"/>
		<path class="st2" d="M920.7,983.4v8h-0.8l-3.6-3.4c-1-1-1.8-1.6-2.3-2s-1-0.7-1.5-0.9s-1-0.3-1.5-0.3c-0.8,0-1.4,0.3-1.9,0.8
			s-0.7,1.2-0.7,2c0,1.1,0.4,2.1,1.2,3.1l-0.6,0.5c-0.9-1.1-1.4-2.3-1.4-3.6c0-1.1,0.3-2,0.9-2.6c0.6-0.6,1.4-1,2.5-1
			c0.8,0,1.7,0.2,2.5,0.6c0.8,0.4,1.8,1.2,2.9,2.4l3.4,3.3h0v-6.9H920.7z"/>
		<path class="st2" d="M910.9,973.6c0.8,0,1.5,0.3,2,0.8c0.5,0.5,0.9,1.2,1,2h0.1c0.1-1,0.5-1.8,1-2.4s1.2-0.8,2.1-0.8
			c1.2,0,2.1,0.4,2.8,1.2c0.7,0.8,1,2,1,3.5c0,1.3-0.2,2.4-0.7,3.4h-0.9c0.3-0.5,0.5-1,0.6-1.7s0.2-1.2,0.2-1.7
			c0-1.3-0.3-2.3-0.8-2.9c-0.5-0.7-1.3-1-2.2-1c-0.8,0-1.5,0.3-2,1s-0.7,1.6-0.7,2.9v1.4h-0.8V978c0-1.1-0.3-1.9-0.8-2.5
			c-0.5-0.6-1.2-0.9-2.1-0.9c-0.7,0-1.3,0.3-1.7,0.8c-0.4,0.5-0.6,1.2-0.6,2c0,0.6,0.1,1.2,0.3,1.7s0.5,1.1,0.9,1.8l-0.6,0.4
			c-0.4-0.5-0.7-1.1-1-1.8c-0.2-0.7-0.4-1.4-0.4-2.1c0-1.2,0.3-2.1,0.8-2.7C909.1,973.9,909.8,973.6,910.9,973.6z"/>
		<path class="st2" d="M910.9,963.3c0.8,0,1.5,0.3,2,0.8c0.5,0.5,0.9,1.2,1,2h0.1c0.1-1,0.5-1.8,1-2.4s1.2-0.8,2.1-0.8
			c1.2,0,2.1,0.4,2.8,1.2c0.7,0.8,1,2,1,3.5c0,1.3-0.2,2.4-0.7,3.4h-0.9c0.3-0.5,0.5-1,0.6-1.7s0.2-1.2,0.2-1.7
			c0-1.3-0.3-2.3-0.8-2.9c-0.5-0.7-1.3-1-2.2-1c-0.8,0-1.5,0.3-2,1s-0.7,1.6-0.7,2.9v1.4h-0.8v-1.4c0-1.1-0.3-1.9-0.8-2.5
			c-0.5-0.6-1.2-0.9-2.1-0.9c-0.7,0-1.3,0.3-1.7,0.8c-0.4,0.5-0.6,1.2-0.6,2c0,0.6,0.1,1.2,0.3,1.7s0.5,1.1,0.9,1.8L909,971
			c-0.4-0.5-0.7-1.1-1-1.8c-0.2-0.7-0.4-1.4-0.4-2.1c0-1.2,0.3-2.1,0.8-2.7C909.1,963.6,909.8,963.3,910.9,963.3z"/>
	</g>
	<g>
		<path class="st2" d="M977,1028.1v7h-12.8v-7h0.8v6.1h4.9v-5.8h0.8v5.8h5.5v-6.1H977z"/>
		<path class="st2" d="M976.3,1025.6c-0.6,0-0.9-0.2-0.9-0.7c0-0.5,0.3-0.7,0.9-0.7s0.9,0.2,0.9,0.7
			C977.2,1025.3,976.9,1025.6,976.3,1025.6z"/>
		<path class="st2" d="M977,1011.6v0.9h-6.3v7.5h6.3v0.9h-12.8v-0.9h5.7v-7.5h-5.7v-0.9H977z"/>
		<path class="st2" d="M970.5,1002.9v-4.7h5.9c0.5,1.2,0.8,2.6,0.8,4.2c0,2-0.6,3.6-1.7,4.7c-1.1,1.1-2.8,1.6-4.9,1.6
			c-1.3,0-2.5-0.3-3.5-0.8c-1-0.5-1.8-1.3-2.3-2.3s-0.8-2.1-0.8-3.4c0-1.4,0.3-2.7,0.8-3.8l0.8,0.4c-0.5,1.1-0.8,2.3-0.8,3.5
			c0,1.7,0.5,3,1.6,4c1,1,2.5,1.5,4.2,1.5c1.9,0,3.4-0.5,4.4-1.4c1-0.9,1.5-2.3,1.5-4.2c0-1.2-0.2-2.2-0.5-3h-4.5v3.8H970.5z"/>
		<path class="st2" d="M976.3,995.3c-0.6,0-0.9-0.2-0.9-0.7c0-0.5,0.3-0.7,0.9-0.7s0.9,0.2,0.9,0.7
			C977.2,995.1,976.9,995.3,976.3,995.3z"/>
		<path class="st2" d="M977,983.4v8h-0.8l-3.6-3.4c-1-1-1.8-1.6-2.3-2s-1-0.7-1.5-0.9s-1-0.3-1.5-0.3c-0.8,0-1.4,0.3-1.9,0.8
			s-0.7,1.2-0.7,2c0,1.1,0.4,2.1,1.2,3.1l-0.6,0.5c-0.9-1.1-1.4-2.3-1.4-3.6c0-1.1,0.3-2,0.9-2.6c0.6-0.6,1.4-1,2.5-1
			c0.8,0,1.7,0.2,2.5,0.6c0.8,0.4,1.8,1.2,2.9,2.4l3.4,3.3h0v-6.9H977z"/>
		<path class="st2" d="M967.2,973.6c0.8,0,1.5,0.3,2,0.8c0.5,0.5,0.9,1.2,1,2h0.1c0.1-1,0.5-1.8,1-2.4s1.2-0.8,2.1-0.8
			c1.2,0,2.1,0.4,2.8,1.2c0.7,0.8,1,2,1,3.5c0,1.3-0.2,2.4-0.7,3.4h-0.9c0.3-0.5,0.5-1,0.6-1.7s0.2-1.2,0.2-1.7
			c0-1.3-0.3-2.3-0.8-2.9c-0.5-0.7-1.3-1-2.2-1c-0.8,0-1.5,0.3-2,1s-0.7,1.6-0.7,2.9v1.4h-0.8V978c0-1.1-0.3-1.9-0.8-2.5
			c-0.5-0.6-1.2-0.9-2.1-0.9c-0.7,0-1.3,0.3-1.7,0.8c-0.4,0.5-0.6,1.2-0.6,2c0,0.6,0.1,1.2,0.3,1.7s0.5,1.1,0.9,1.8l-0.6,0.4
			c-0.4-0.5-0.7-1.1-1-1.8c-0.2-0.7-0.4-1.4-0.4-2.1c0-1.2,0.3-2.1,0.8-2.7C965.4,973.9,966.1,973.6,967.2,973.6z"/>
		<path class="st2" d="M977,962.9v8h-0.8l-3.6-3.4c-1-1-1.8-1.6-2.3-2s-1-0.7-1.5-0.9s-1-0.3-1.5-0.3c-0.8,0-1.4,0.3-1.9,0.8
			s-0.7,1.2-0.7,2c0,1.1,0.4,2.1,1.2,3.1l-0.6,0.5c-0.9-1.1-1.4-2.3-1.4-3.6c0-1.1,0.3-2,0.9-2.6c0.6-0.6,1.4-1,2.5-1
			c0.8,0,1.7,0.2,2.5,0.6c0.8,0.4,1.8,1.2,2.9,2.4l3.4,3.3h0v-6.9H977z"/>
	</g>
	<g>
		<path class="st2" d="M633.7,881.7v7h-12.8v-7h0.8v6.1h4.9v-5.8h0.8v5.8h5.5v-6.1H633.7z"/>
		<path class="st2" d="M633,879.2c-0.6,0-0.9-0.2-0.9-0.7c0-0.5,0.3-0.7,0.9-0.7s0.9,0.2,0.9,0.7C633.9,879,633.6,879.2,633,879.2z"
			/>
		<path class="st2" d="M633.7,865.2v0.9h-6.3v7.5h6.3v0.9h-12.8v-0.9h5.7v-7.5h-5.7v-0.9H633.7z"/>
		<path class="st2" d="M627.2,856.6v-4.7h5.9c0.5,1.2,0.8,2.6,0.8,4.2c0,2-0.6,3.6-1.7,4.7c-1.1,1.1-2.8,1.6-4.9,1.6
			c-1.3,0-2.5-0.3-3.5-0.8c-1-0.5-1.8-1.3-2.3-2.3s-0.8-2.1-0.8-3.4c0-1.4,0.3-2.7,0.8-3.8l0.8,0.4c-0.5,1.1-0.8,2.3-0.8,3.5
			c0,1.7,0.5,3,1.6,4c1,1,2.5,1.5,4.2,1.5c1.9,0,3.4-0.5,4.4-1.4c1-0.9,1.5-2.3,1.5-4.2c0-1.2-0.2-2.2-0.5-3h-4.5v3.8H627.2z"/>
		<path class="st2" d="M633,849c-0.6,0-0.9-0.2-0.9-0.7c0-0.5,0.3-0.7,0.9-0.7s0.9,0.2,0.9,0.7C633.9,848.8,633.6,849,633,849z"/>
		<path class="st2" d="M633.7,837.1v8h-0.8l-3.6-3.4c-1-1-1.8-1.6-2.3-2s-1-0.7-1.5-0.9s-1-0.3-1.5-0.3c-0.8,0-1.4,0.3-1.9,0.8
			s-0.7,1.2-0.7,2c0,1.1,0.4,2.1,1.2,3.1l-0.6,0.5c-0.9-1.1-1.4-2.3-1.4-3.6c0-1.1,0.3-2,0.9-2.6c0.6-0.6,1.4-1,2.5-1
			c0.8,0,1.7,0.2,2.5,0.6c0.8,0.4,1.8,1.2,2.9,2.4l3.4,3.3h0v-6.9H633.7z"/>
		<path class="st2" d="M633.7,826.8v8h-0.8l-3.6-3.4c-1-1-1.8-1.6-2.3-2s-1-0.7-1.5-0.9s-1-0.3-1.5-0.3c-0.8,0-1.4,0.3-1.9,0.8
			s-0.7,1.2-0.7,2c0,1.1,0.4,2.1,1.2,3.1l-0.6,0.5c-0.9-1.1-1.4-2.3-1.4-3.6c0-1.1,0.3-2,0.9-2.6c0.6-0.6,1.4-1,2.5-1
			c0.8,0,1.7,0.2,2.5,0.6c0.8,0.4,1.8,1.2,2.9,2.4l3.4,3.3h0v-6.9H633.7z"/>
		<path class="st2" d="M623.9,817c0.8,0,1.5,0.3,2,0.8c0.5,0.5,0.9,1.2,1,2h0.1c0.1-1,0.5-1.8,1-2.4s1.2-0.8,2.1-0.8
			c1.2,0,2.1,0.4,2.8,1.2c0.7,0.8,1,2,1,3.5c0,1.3-0.2,2.4-0.7,3.4h-0.9c0.3-0.5,0.5-1,0.6-1.7s0.2-1.2,0.2-1.7
			c0-1.3-0.3-2.3-0.8-2.9c-0.5-0.7-1.3-1-2.2-1c-0.8,0-1.5,0.3-2,1s-0.7,1.6-0.7,2.9v1.4h-0.8v-1.4c0-1.1-0.3-1.9-0.8-2.5
			c-0.5-0.6-1.2-0.9-2.1-0.9c-0.7,0-1.3,0.3-1.7,0.8c-0.4,0.5-0.6,1.2-0.6,2c0,0.6,0.1,1.2,0.3,1.7s0.5,1.1,0.9,1.8l-0.6,0.4
			c-0.4-0.5-0.7-1.1-1-1.8c-0.2-0.7-0.4-1.4-0.4-2.1c0-1.2,0.3-2.1,0.8-2.7C622.1,817.3,622.9,817,623.9,817z"/>
	</g>
	<g>
		<path class="st2" d="M684.8,881.7v7H672v-7h0.8v6.1h4.9v-5.8h0.8v5.8h5.5v-6.1H684.8z"/>
		<path class="st2" d="M684.2,879.2c-0.6,0-0.9-0.2-0.9-0.7c0-0.5,0.3-0.7,0.9-0.7s0.9,0.2,0.9,0.7C685,879,684.7,879.2,684.2,879.2
			z"/>
		<path class="st2" d="M684.8,865.2v0.9h-6.3v7.5h6.3v0.9H672v-0.9h5.7v-7.5H672v-0.9H684.8z"/>
		<path class="st2" d="M678.4,856.6v-4.7h5.9c0.5,1.2,0.8,2.6,0.8,4.2c0,2-0.6,3.6-1.7,4.7c-1.1,1.1-2.8,1.6-4.9,1.6
			c-1.3,0-2.5-0.3-3.5-0.8c-1-0.5-1.8-1.3-2.3-2.3s-0.8-2.1-0.8-3.4c0-1.4,0.3-2.7,0.8-3.8l0.8,0.4c-0.5,1.1-0.8,2.3-0.8,3.5
			c0,1.7,0.5,3,1.6,4c1,1,2.5,1.5,4.2,1.5c1.9,0,3.4-0.5,4.4-1.4c1-0.9,1.5-2.3,1.5-4.2c0-1.2-0.2-2.2-0.5-3h-4.5v3.8H678.4z"/>
		<path class="st2" d="M684.2,849c-0.6,0-0.9-0.2-0.9-0.7c0-0.5,0.3-0.7,0.9-0.7s0.9,0.2,0.9,0.7C685,848.8,684.7,849,684.2,849z"/>
		<path class="st2" d="M684.8,837.1v8h-0.8l-3.6-3.4c-1-1-1.8-1.6-2.3-2s-1-0.7-1.5-0.9s-1-0.3-1.5-0.3c-0.8,0-1.4,0.3-1.9,0.8
			s-0.7,1.2-0.7,2c0,1.1,0.4,2.1,1.2,3.1l-0.6,0.5c-0.9-1.1-1.4-2.3-1.4-3.6c0-1.1,0.3-2,0.9-2.6c0.6-0.6,1.4-1,2.5-1
			c0.8,0,1.7,0.2,2.5,0.6c0.8,0.4,1.8,1.2,2.9,2.4l3.4,3.3h0v-6.9H684.8z"/>
		<path class="st2" d="M684.8,826.8v8h-0.8l-3.6-3.4c-1-1-1.8-1.6-2.3-2s-1-0.7-1.5-0.9s-1-0.3-1.5-0.3c-0.8,0-1.4,0.3-1.9,0.8
			s-0.7,1.2-0.7,2c0,1.1,0.4,2.1,1.2,3.1l-0.6,0.5c-0.9-1.1-1.4-2.3-1.4-3.6c0-1.1,0.3-2,0.9-2.6c0.6-0.6,1.4-1,2.5-1
			c0.8,0,1.7,0.2,2.5,0.6c0.8,0.4,1.8,1.2,2.9,2.4l3.4,3.3h0v-6.9H684.8z"/>
		<path class="st2" d="M681.6,815.6v2.2h3.3v0.8h-3.3v6.6H681l-9.1-6.4v-1.1h8.9v-2.2H681.6z M680.8,818.6h-3.7
			c-1.8,0-3.3,0-4.5-0.1v0.1c0.2,0.1,0.8,0.5,1.7,1.1l6.5,4.5V818.6z"/>
	</g>
	<g>
		<path class="st2" d="M739.2,881.7v7h-12.8v-7h0.8v6.1h4.9v-5.8h0.8v5.8h5.5v-6.1H739.2z"/>
		<path class="st2" d="M738.6,879.2c-0.6,0-0.9-0.2-0.9-0.7c0-0.5,0.3-0.7,0.9-0.7s0.9,0.2,0.9,0.7
			C739.4,879,739.1,879.2,738.6,879.2z"/>
		<path class="st2" d="M739.2,865.3v0.9h-6.3v7.5h6.3v0.9h-12.8v-0.9h5.7v-7.5h-5.7v-0.9H739.2z"/>
		<path class="st2" d="M732.8,856.6v-4.7h5.9c0.5,1.2,0.8,2.6,0.8,4.2c0,2-0.6,3.6-1.7,4.7c-1.1,1.1-2.8,1.6-4.9,1.6
			c-1.3,0-2.5-0.3-3.5-0.8c-1-0.5-1.8-1.3-2.3-2.3s-0.8-2.1-0.8-3.4c0-1.4,0.3-2.7,0.8-3.8l0.8,0.4c-0.5,1.1-0.8,2.3-0.8,3.5
			c0,1.7,0.5,3,1.6,4c1,1,2.5,1.5,4.2,1.5c1.9,0,3.4-0.5,4.4-1.4c1-0.9,1.5-2.3,1.5-4.2c0-1.2-0.2-2.2-0.5-3h-4.5v3.8H732.8z"/>
		<path class="st2" d="M738.6,849c-0.6,0-0.9-0.2-0.9-0.7c0-0.5,0.3-0.7,0.9-0.7s0.9,0.2,0.9,0.7C739.4,848.8,739.1,849,738.6,849z"
			/>
		<path class="st2" d="M739.2,837.1v8h-0.8l-3.6-3.4c-1-1-1.8-1.6-2.3-2s-1-0.7-1.5-0.9s-1-0.3-1.5-0.3c-0.8,0-1.4,0.3-1.9,0.8
			s-0.7,1.2-0.7,2c0,1.1,0.4,2.1,1.2,3.1l-0.6,0.5c-0.9-1.1-1.4-2.3-1.4-3.6c0-1.1,0.3-2,0.9-2.6c0.6-0.6,1.4-1,2.5-1
			c0.8,0,1.7,0.2,2.5,0.6c0.8,0.4,1.8,1.2,2.9,2.4l3.4,3.3h0v-6.9H739.2z"/>
		<path class="st2" d="M739.2,826.8v8h-0.8l-3.6-3.4c-1-1-1.8-1.6-2.3-2s-1-0.7-1.5-0.9s-1-0.3-1.5-0.3c-0.8,0-1.4,0.3-1.9,0.8
			s-0.7,1.2-0.7,2c0,1.1,0.4,2.1,1.2,3.1l-0.6,0.5c-0.9-1.1-1.4-2.3-1.4-3.6c0-1.1,0.3-2,0.9-2.6c0.6-0.6,1.4-1,2.5-1
			c0.8,0,1.7,0.2,2.5,0.6c0.8,0.4,1.8,1.2,2.9,2.4l3.4,3.3h0v-6.9H739.2z"/>
		<path class="st2" d="M731.5,820.9c0-1.4,0.3-2.5,1-3.2c0.7-0.8,1.6-1.2,2.7-1.2c1.3,0,2.3,0.4,3.1,1.2s1.1,2,1.1,3.4
			c0,0.6-0.1,1.2-0.2,1.8c-0.1,0.6-0.3,1.1-0.5,1.4h-0.9c0.3-0.6,0.5-1.2,0.7-1.7c0.1-0.5,0.2-1,0.2-1.6c0-1.1-0.3-2-0.9-2.7
			c-0.6-0.7-1.4-1-2.4-1c-1,0-1.7,0.3-2.2,1s-0.8,1.6-0.8,2.7c0,0.8,0.1,1.6,0.3,2.4l-0.3,0.5l-5.9-0.5v-6.2h0.8v5.4l4.5,0.4
			C731.6,822.1,731.5,821.4,731.5,820.9z"/>
	</g>
	<g>
		<path class="st2" d="M792.3,881.7v7h-12.8v-7h0.8v6.1h4.9v-5.8h0.8v5.8h5.5v-6.1H792.3z"/>
		<path class="st2" d="M791.6,879.2c-0.6,0-0.9-0.2-0.9-0.7c0-0.5,0.3-0.7,0.9-0.7s0.9,0.2,0.9,0.7
			C792.5,879,792.2,879.2,791.6,879.2z"/>
		<path class="st2" d="M792.3,865.3v0.9H786v7.5h6.3v0.9h-12.8v-0.9h5.7v-7.5h-5.7v-0.9H792.3z"/>
		<path class="st2" d="M785.8,856.6v-4.7h5.9c0.5,1.2,0.8,2.6,0.8,4.2c0,2-0.6,3.6-1.7,4.7c-1.1,1.1-2.8,1.6-4.9,1.6
			c-1.3,0-2.5-0.3-3.5-0.8c-1-0.5-1.8-1.3-2.3-2.3s-0.8-2.1-0.8-3.4c0-1.4,0.3-2.7,0.8-3.8l0.8,0.4c-0.5,1.1-0.8,2.3-0.8,3.5
			c0,1.7,0.5,3,1.6,4c1,1,2.5,1.5,4.2,1.5c1.9,0,3.4-0.5,4.4-1.4c1-0.9,1.5-2.3,1.5-4.2c0-1.2-0.2-2.2-0.5-3h-4.5v3.8H785.8z"/>
		<path class="st2" d="M791.6,849c-0.6,0-0.9-0.2-0.9-0.7c0-0.5,0.3-0.7,0.9-0.7s0.9,0.2,0.9,0.7C792.5,848.8,792.2,849,791.6,849z"
			/>
		<path class="st2" d="M792.3,837.1v8h-0.8l-3.6-3.4c-1-1-1.8-1.6-2.3-2s-1-0.7-1.5-0.9s-1-0.3-1.5-0.3c-0.8,0-1.4,0.3-1.9,0.8
			s-0.7,1.2-0.7,2c0,1.1,0.4,2.1,1.2,3.1l-0.6,0.5c-0.9-1.1-1.4-2.3-1.4-3.6c0-1.1,0.3-2,0.9-2.6c0.6-0.6,1.4-1,2.5-1
			c0.8,0,1.7,0.2,2.5,0.6c0.8,0.4,1.8,1.2,2.9,2.4l3.4,3.3h0v-6.9H792.3z"/>
		<path class="st2" d="M792.3,826.8v8h-0.8l-3.6-3.4c-1-1-1.8-1.6-2.3-2s-1-0.7-1.5-0.9s-1-0.3-1.5-0.3c-0.8,0-1.4,0.3-1.9,0.8
			s-0.7,1.2-0.7,2c0,1.1,0.4,2.1,1.2,3.1l-0.6,0.5c-0.9-1.1-1.4-2.3-1.4-3.6c0-1.1,0.3-2,0.9-2.6c0.6-0.6,1.4-1,2.5-1
			c0.8,0,1.7,0.2,2.5,0.6c0.8,0.4,1.8,1.2,2.9,2.4l3.4,3.3h0v-6.9H792.3z"/>
		<path class="st2" d="M786.8,824.5c-1.7,0-3.1-0.2-4.2-0.7s-2-1.1-2.5-1.9c-0.6-0.8-0.8-1.8-0.8-3c0-0.6,0.1-1.1,0.2-1.5h0.8
			c-0.2,0.4-0.2,0.9-0.2,1.5c0,1.4,0.5,2.6,1.6,3.4c1,0.8,2.6,1.3,4.6,1.4v-0.1c-0.6-0.4-1-1-1.3-1.5s-0.4-1.2-0.4-1.8
			c0-1.2,0.3-2.1,1-2.8c0.7-0.7,1.6-1,2.8-1c1.3,0,2.3,0.4,3.1,1.1c0.8,0.7,1.1,1.7,1.1,2.9c0,1.3-0.5,2.3-1.5,3.1
			C790,824.1,788.6,824.5,786.8,824.5z M791.7,820.2c0-1-0.3-1.7-0.9-2.2s-1.5-0.8-2.6-0.8c-1,0-1.8,0.3-2.3,0.8s-0.8,1.2-0.8,2.2
			c0,0.6,0.1,1.2,0.4,1.7c0.3,0.5,0.6,0.9,1.1,1.2s0.9,0.5,1.3,0.5c0.7,0,1.3-0.1,1.9-0.4c0.6-0.3,1.1-0.7,1.4-1.2
			C791.5,821.4,791.7,820.8,791.7,820.2z"/>
	</g>
	<g>
		<path class="st2" d="M845.4,881.7v7h-12.8v-7h0.8v6.1h4.9v-5.8h0.8v5.8h5.5v-6.1H845.4z"/>
		<path class="st2" d="M844.7,879.2c-0.6,0-0.9-0.2-0.9-0.7c0-0.5,0.3-0.7,0.9-0.7s0.9,0.2,0.9,0.7
			C845.6,879,845.3,879.2,844.7,879.2z"/>
		<path class="st2" d="M845.4,865.2v0.9h-6.3v7.5h6.3v0.9h-12.8v-0.9h5.7v-7.5h-5.7v-0.9H845.4z"/>
		<path class="st2" d="M838.9,856.6v-4.7h5.9c0.5,1.2,0.8,2.6,0.8,4.2c0,2-0.6,3.6-1.7,4.7c-1.1,1.1-2.8,1.6-4.9,1.6
			c-1.3,0-2.5-0.3-3.5-0.8c-1-0.5-1.8-1.3-2.3-2.3s-0.8-2.1-0.8-3.4c0-1.4,0.3-2.7,0.8-3.8l0.8,0.4c-0.5,1.1-0.8,2.3-0.8,3.5
			c0,1.7,0.5,3,1.6,4c1,1,2.5,1.5,4.2,1.5c1.9,0,3.4-0.5,4.4-1.4c1-0.9,1.5-2.3,1.5-4.2c0-1.2-0.2-2.2-0.5-3h-4.5v3.8H838.9z"/>
		<path class="st2" d="M844.7,849c-0.6,0-0.9-0.2-0.9-0.7c0-0.5,0.3-0.7,0.9-0.7s0.9,0.2,0.9,0.7C845.6,848.8,845.3,849,844.7,849z"
			/>
		<path class="st2" d="M845.4,837.1v8h-0.8l-3.6-3.4c-1-1-1.8-1.6-2.3-2s-1-0.7-1.5-0.9s-1-0.3-1.5-0.3c-0.8,0-1.4,0.3-1.9,0.8
			s-0.7,1.2-0.7,2c0,1.1,0.4,2.1,1.2,3.1l-0.6,0.5c-0.9-1.1-1.4-2.3-1.4-3.6c0-1.1,0.3-2,0.9-2.6c0.6-0.6,1.4-1,2.5-1
			c0.8,0,1.7,0.2,2.5,0.6c0.8,0.4,1.8,1.2,2.9,2.4l3.4,3.3h0v-6.9H845.4z"/>
		<path class="st2" d="M845.4,826.8v8h-0.8l-3.6-3.4c-1-1-1.8-1.6-2.3-2s-1-0.7-1.5-0.9s-1-0.3-1.5-0.3c-0.8,0-1.4,0.3-1.9,0.8
			s-0.7,1.2-0.7,2c0,1.1,0.4,2.1,1.2,3.1l-0.6,0.5c-0.9-1.1-1.4-2.3-1.4-3.6c0-1.1,0.3-2,0.9-2.6c0.6-0.6,1.4-1,2.5-1
			c0.8,0,1.7,0.2,2.5,0.6c0.8,0.4,1.8,1.2,2.9,2.4l3.4,3.3h0v-6.9H845.4z"/>
		<path class="st2" d="M845.4,822.6l-12-5.3v7.3h-0.8v-8.3h0.6l12.2,5.3V822.6z"/>
	</g>
	<g>
		<path class="st2" d="M517.1,749.7H485v-3.1l13.7-14.3c3.8-4,6.5-7,8.1-9.1s2.7-4.1,3.4-6c0.7-1.9,1.1-3.9,1.1-6c0-3.1-1-5.6-3-7.5
			c-2-1.9-4.6-2.9-7.8-2.9c-4.3,0-8.4,1.6-12.3,4.7l-1.9-2.4c4.3-3.6,9-5.4,14.3-5.4c4.5,0,8,1.2,10.6,3.6s3.8,5.7,3.8,9.9
			c0,3.4-0.9,6.7-2.6,9.9s-4.9,7.1-9.4,11.8l-13.2,13.5v0.1h27.5V749.7z"/>
		<path class="st2" d="M528,746.9c0-2.3,0.9-3.4,2.8-3.4c1.9,0,2.9,1.1,2.9,3.4s-1,3.4-2.9,3.4C528.9,750.4,528,749.2,528,746.9z"/>
		<path class="st2" d="M590.1,723.9c0,8.2-2,14.6-6.1,19.4s-9.7,7.1-16.9,7.1c-7.1,0-12.8-2.4-16.8-7.1s-6.1-11.2-6.1-19.4
			c0-8.2,2.1-14.6,6.2-19.3c4.1-4.7,9.7-7,16.9-7c7.2,0,12.8,2.4,16.8,7.1S590.1,715.7,590.1,723.9z M548.1,723.9
			c0,7.4,1.6,13,4.9,17.1s8,6,14.1,6c6.2,0,10.9-2,14.2-6s4.9-9.7,4.9-17.1c0-7.4-1.6-13.1-4.9-17s-8-5.9-14.1-5.9
			c-6.1,0-10.8,2-14.2,6S548.1,716.6,548.1,723.9z"/>
		<path class="st2" d="M622.4,723.8h18.9v23.4c-5,2.1-10.6,3.2-16.8,3.2c-8.1,0-14.3-2.3-18.7-6.9s-6.5-11.1-6.5-19.5
			c0-5.2,1.1-9.9,3.2-13.9s5.2-7.2,9.2-9.4c4-2.2,8.6-3.3,13.8-3.3c5.6,0,10.6,1,15.1,3.1l-1.4,3.2c-4.5-2.1-9.1-3.1-13.9-3.1
			c-6.8,0-12.1,2.1-16.1,6.3s-6,9.8-6,16.9c0,7.7,1.9,13.6,5.7,17.5s9.3,5.9,16.6,5.9c4.7,0,8.8-0.7,12.1-2v-18.1h-15.3V723.8z"/>
	</g>
	<g>
		<path class="st2" d="M730.1,365.5h-0.7l-2.8-9.9c-0.2-0.8-0.4-1.5-0.5-2c-0.1,0.5-0.2,1.1-0.4,1.8c-0.2,0.7-1.1,4-2.8,10.2h-0.8
			l-3.5-12.8h0.9l2.2,8.3c0.1,0.3,0.2,0.6,0.2,0.9s0.1,0.6,0.2,0.8c0.1,0.2,0.1,0.5,0.2,0.7s0.1,0.5,0.1,0.7c0.1-0.8,0.4-2,0.9-3.6
			l2.2-7.8h1l2.6,8.9c0.3,1,0.5,1.9,0.6,2.5c0.1-0.4,0.2-0.9,0.3-1.3s1-3.8,2.7-10.1h0.9L730.1,365.5z"/>
		<path class="st2" d="M741.1,353.3c-1.6,0-2.9,0.5-3.8,1.5s-1.4,2.4-1.4,4.2c0,1.8,0.4,3.3,1.3,4.3s2.1,1.5,3.7,1.5
			c1.1,0,2.1-0.1,3-0.4v0.8c-0.8,0.3-1.9,0.4-3.2,0.4c-1.8,0-3.2-0.6-4.3-1.7s-1.6-2.8-1.6-4.9c0-1.3,0.2-2.5,0.7-3.5
			c0.5-1,1.2-1.8,2.1-2.3s2-0.8,3.2-0.8c1.3,0,2.4,0.2,3.4,0.7L744,354C743.1,353.5,742.1,353.3,741.1,353.3z"/>
	</g>
	<g>
		<path class="st2" d="M779.1,365.5h-0.7l-2.8-9.9c-0.2-0.8-0.4-1.5-0.5-2c-0.1,0.5-0.2,1.1-0.4,1.8c-0.2,0.7-1.1,4-2.8,10.2h-0.8
			l-3.5-12.8h0.9l2.2,8.3c0.1,0.3,0.2,0.6,0.2,0.9s0.1,0.6,0.2,0.8c0.1,0.2,0.1,0.5,0.2,0.7s0.1,0.5,0.1,0.7c0.1-0.8,0.4-2,0.9-3.6
			l2.2-7.8h1l2.6,8.9c0.3,1,0.5,1.9,0.6,2.5c0.1-0.4,0.2-0.9,0.3-1.3s1-3.8,2.7-10.1h0.9L779.1,365.5z"/>
		<path class="st2" d="M790.1,353.3c-1.6,0-2.9,0.5-3.8,1.5s-1.4,2.4-1.4,4.2c0,1.8,0.4,3.3,1.3,4.3s2.1,1.5,3.7,1.5
			c1.1,0,2.1-0.1,3-0.4v0.8c-0.8,0.3-1.9,0.4-3.2,0.4c-1.8,0-3.2-0.6-4.3-1.7s-1.6-2.8-1.6-4.9c0-1.3,0.2-2.5,0.7-3.5
			c0.5-1,1.2-1.8,2.1-2.3s2-0.8,3.2-0.8c1.3,0,2.4,0.2,3.4,0.7L793,354C792.1,353.5,791.1,353.3,790.1,353.3z"/>
	</g>
	<g>
		<path class="st2" d="M470.7,851.2h-0.7l-2.8-9.9c-0.2-0.8-0.4-1.5-0.5-2c-0.1,0.5-0.2,1.1-0.4,1.8c-0.2,0.7-1.1,4-2.8,10.2h-0.8
			l-3.5-12.8h0.9l2.2,8.3c0.1,0.3,0.2,0.6,0.2,0.9s0.1,0.6,0.2,0.8c0.1,0.2,0.1,0.5,0.2,0.7s0.1,0.5,0.1,0.7c0.1-0.8,0.4-2,0.9-3.6
			l2.2-7.8h1l2.6,8.9c0.3,1,0.5,1.9,0.6,2.5c0.1-0.4,0.2-0.9,0.3-1.3s1-3.8,2.7-10.1h0.9L470.7,851.2z"/>
		<path class="st2" d="M481.6,839c-1.6,0-2.9,0.5-3.8,1.5s-1.4,2.4-1.4,4.2c0,1.8,0.4,3.3,1.3,4.3s2.1,1.5,3.7,1.5
			c1.1,0,2.1-0.1,3-0.4v0.8c-0.8,0.3-1.9,0.4-3.2,0.4c-1.8,0-3.2-0.6-4.3-1.7s-1.6-2.8-1.6-4.9c0-1.3,0.2-2.5,0.7-3.5
			c0.5-1,1.2-1.8,2.1-2.3s2-0.8,3.2-0.8c1.3,0,2.4,0.2,3.4,0.7l-0.4,0.8C483.6,839.2,482.6,839,481.6,839z"/>
	</g>
	<g>
		<path class="st2" d="M524.7,850.8H524l-2.8-9.9c-0.2-0.8-0.4-1.5-0.5-2c-0.1,0.5-0.2,1.1-0.4,1.8c-0.2,0.7-1.1,4-2.8,10.2h-0.8
			l-3.5-12.8h0.9l2.2,8.3c0.1,0.3,0.2,0.6,0.2,0.9s0.1,0.6,0.2,0.8c0.1,0.2,0.1,0.5,0.2,0.7s0.1,0.5,0.1,0.7c0.1-0.8,0.4-2,0.9-3.6
			l2.2-7.8h1l2.6,8.9c0.3,1,0.5,1.9,0.6,2.5c0.1-0.4,0.2-0.9,0.3-1.3s1-3.8,2.7-10.1h0.9L524.7,850.8z"/>
		<path class="st2" d="M535.6,838.5c-1.6,0-2.9,0.5-3.8,1.5s-1.4,2.4-1.4,4.2c0,1.8,0.4,3.3,1.3,4.3s2.1,1.5,3.7,1.5
			c1.1,0,2.1-0.1,3-0.4v0.8c-0.8,0.3-1.9,0.4-3.2,0.4c-1.8,0-3.2-0.6-4.3-1.7s-1.6-2.8-1.6-4.9c0-1.3,0.2-2.5,0.7-3.5
			c0.5-1,1.2-1.8,2.1-2.3s2-0.8,3.2-0.8c1.3,0,2.4,0.2,3.4,0.7l-0.4,0.8C537.6,838.8,536.6,838.5,535.6,838.5z"/>
	</g>
	<g>
		<path class="st2" d="M369.2,443.1v-12.8h0.9v12h6.1v0.8H369.2z"/>
		<path class="st2" d="M378.1,430.9c0-0.6,0.2-0.8,0.6-0.8c0.2,0,0.3,0.1,0.4,0.2s0.2,0.4,0.2,0.6c0,0.3-0.1,0.5-0.2,0.6
			s-0.2,0.2-0.4,0.2C378.3,431.7,378.1,431.4,378.1,430.9z M379.1,443.1h-0.9v-9.6h0.9V443.1z"/>
		<path class="st2" d="M385.9,434.3h-2.2v8.8h-0.9v-8.8H381v-0.5l1.8-0.3v-0.7c0-1.2,0.2-2,0.6-2.6s1.1-0.8,2.1-0.8
			c0.5,0,1.1,0.1,1.6,0.2l-0.2,0.8c-0.5-0.1-0.9-0.2-1.4-0.2c-0.7,0-1.2,0.2-1.4,0.6s-0.4,1.1-0.4,2v0.9h2.2V434.3z"/>
		<path class="st2" d="M390.3,442.5c0.6,0,1,0,1.4-0.1v0.7c-0.4,0.1-0.9,0.2-1.5,0.2c-0.8,0-1.5-0.2-1.9-0.7s-0.6-1.2-0.6-2.1v-6.2
			h-1.4v-0.5l1.4-0.4l0.4-2.2h0.4v2.3h2.8v0.8h-2.8v6c0,0.7,0.1,1.3,0.4,1.6S389.8,442.5,390.3,442.5z"/>
	</g>
	<g>
		<path class="st2" d="M1129.9,853.8h-7V841h7v0.8h-6.1v4.9h5.8v0.8h-5.8v5.5h6.1V853.8z"/>
		<path class="st2" d="M1132.4,853.1c0-0.6,0.2-0.9,0.7-0.9c0.5,0,0.7,0.3,0.7,0.9s-0.2,0.9-0.7,0.9
			C1132.6,854,1132.4,853.7,1132.4,853.1z"/>
		<path class="st2" d="M1146.4,853.8h-0.9v-6.3h-7.5v6.3h-0.9V841h0.9v5.7h7.5V841h0.9V853.8z"/>
		<path class="st2" d="M1155.1,847.4h4.7v5.9c-1.2,0.5-2.6,0.8-4.2,0.8c-2,0-3.6-0.6-4.7-1.7c-1.1-1.1-1.6-2.8-1.6-4.9
			c0-1.3,0.3-2.5,0.8-3.5c0.5-1,1.3-1.8,2.3-2.3s2.1-0.8,3.4-0.8c1.4,0,2.7,0.3,3.8,0.8l-0.4,0.8c-1.1-0.5-2.3-0.8-3.5-0.8
			c-1.7,0-3,0.5-4,1.6c-1,1-1.5,2.5-1.5,4.2c0,1.9,0.5,3.4,1.4,4.4c0.9,1,2.3,1.5,4.2,1.5c1.2,0,2.2-0.2,3-0.5v-4.5h-3.8V847.4z"/>
		<path class="st2" d="M1162.7,853.1c0-0.6,0.2-0.9,0.7-0.9c0.5,0,0.7,0.3,0.7,0.9s-0.2,0.9-0.7,0.9
			C1162.9,854,1162.7,853.7,1162.7,853.1z"/>
		<path class="st2" d="M1174.5,853.8h-8v-0.8l3.4-3.6c1-1,1.6-1.8,2-2.3s0.7-1,0.9-1.5s0.3-1,0.3-1.5c0-0.8-0.3-1.4-0.8-1.9
			s-1.2-0.7-2-0.7c-1.1,0-2.1,0.4-3.1,1.2l-0.5-0.6c1.1-0.9,2.3-1.4,3.6-1.4c1.1,0,2,0.3,2.6,0.9c0.6,0.6,1,1.4,1,2.5
			c0,0.8-0.2,1.7-0.6,2.5c-0.4,0.8-1.2,1.8-2.4,2.9l-3.3,3.4v0h6.9V853.8z"/>
		<path class="st2" d="M1184.8,853.8h-8v-0.8l3.4-3.6c1-1,1.6-1.8,2-2.3s0.7-1,0.9-1.5s0.3-1,0.3-1.5c0-0.8-0.3-1.4-0.8-1.9
			s-1.2-0.7-2-0.7c-1.1,0-2.1,0.4-3.1,1.2l-0.5-0.6c1.1-0.9,2.3-1.4,3.6-1.4c1.1,0,2,0.3,2.6,0.9c0.6,0.6,1,1.4,1,2.5
			c0,0.8-0.2,1.7-0.6,2.5c-0.4,0.8-1.2,1.8-2.4,2.9l-3.3,3.4v0h6.9V853.8z"/>
		<path class="st2" d="M1195.2,846.4c0,1.7-0.2,3.1-0.7,4.2s-1.1,2-1.9,2.5s-1.9,0.8-3.1,0.8c-0.6,0-1.2-0.1-1.7-0.2V853
			c0.3,0.1,0.6,0.1,0.9,0.2c0.4,0,0.6,0.1,0.8,0.1c1.4,0,2.6-0.5,3.4-1.6c0.8-1,1.3-2.6,1.4-4.6h-0.1c-0.4,0.6-0.9,1-1.5,1.3
			s-1.2,0.5-1.9,0.5c-1.2,0-2.1-0.3-2.8-1s-1-1.6-1-2.8c0-1.3,0.4-2.3,1.1-3.1c0.7-0.8,1.7-1.2,2.8-1.2c0.8,0,1.6,0.2,2.2,0.7
			c0.6,0.4,1.1,1.1,1.5,1.9C1195,844.2,1195.2,845.3,1195.2,846.4z M1191,841.6c-0.9,0-1.7,0.3-2.2,0.9c-0.6,0.6-0.8,1.5-0.8,2.6
			c0,1,0.3,1.8,0.8,2.3s1.2,0.8,2.2,0.8c0.6,0,1.1-0.1,1.7-0.4c0.5-0.3,0.9-0.6,1.2-1.1c0.3-0.4,0.5-0.9,0.5-1.3
			c0-0.7-0.1-1.3-0.4-1.9c-0.3-0.6-0.7-1.1-1.1-1.4C1192.2,841.7,1191.6,841.6,1191,841.6z"/>
	</g>
	<g>
		<path class="st2" d="M1136.3,999.6h-7v-12.8h7v0.8h-6.1v4.9h5.8v0.8h-5.8v5.5h6.1V999.6z"/>
		<path class="st2" d="M1138.8,998.9c0-0.6,0.2-0.9,0.7-0.9c0.5,0,0.7,0.3,0.7,0.9s-0.2,0.9-0.7,0.9
			C1139.1,999.7,1138.8,999.4,1138.8,998.9z"/>
		<path class="st2" d="M1152.8,999.6h-0.9v-6.3h-7.5v6.3h-0.9v-12.8h0.9v5.7h7.5v-5.7h0.9V999.6z"/>
		<path class="st2" d="M1161.5,993.1h4.7v5.9c-1.2,0.5-2.6,0.8-4.2,0.8c-2,0-3.6-0.6-4.7-1.7c-1.1-1.1-1.6-2.8-1.6-4.9
			c0-1.3,0.3-2.5,0.8-3.5c0.5-1,1.3-1.8,2.3-2.3s2.1-0.8,3.4-0.8c1.4,0,2.7,0.3,3.8,0.8l-0.4,0.8c-1.1-0.5-2.3-0.8-3.5-0.8
			c-1.7,0-3,0.5-4,1.6c-1,1-1.5,2.5-1.5,4.2c0,1.9,0.5,3.4,1.4,4.4c0.9,1,2.3,1.5,4.2,1.5c1.2,0,2.2-0.2,3-0.5v-4.5h-3.8V993.1z"/>
		<path class="st2" d="M1169.1,998.9c0-0.6,0.2-0.9,0.7-0.9c0.5,0,0.7,0.3,0.7,0.9s-0.2,0.9-0.7,0.9
			C1169.3,999.7,1169.1,999.4,1169.1,998.9z"/>
		<path class="st2" d="M1181,999.6h-8v-0.8l3.4-3.6c1-1,1.6-1.8,2-2.3s0.7-1,0.9-1.5s0.3-1,0.3-1.5c0-0.8-0.3-1.4-0.8-1.9
			s-1.2-0.7-2-0.7c-1.1,0-2.1,0.4-3.1,1.2l-0.5-0.6c1.1-0.9,2.3-1.4,3.6-1.4c1.1,0,2,0.3,2.6,0.9c0.6,0.6,1,1.4,1,2.5
			c0,0.8-0.2,1.7-0.6,2.5c-0.4,0.8-1.2,1.8-2.4,2.9l-3.3,3.4v0h6.9V999.6z"/>
		<path class="st2" d="M1190.8,989.7c0,0.8-0.3,1.5-0.8,2c-0.5,0.5-1.2,0.9-2,1v0.1c1,0.1,1.8,0.5,2.4,1s0.8,1.2,0.8,2.1
			c0,1.2-0.4,2.1-1.2,2.8c-0.8,0.7-2,1-3.5,1c-1.3,0-2.4-0.2-3.4-0.7v-0.9c0.5,0.3,1,0.5,1.7,0.6s1.2,0.2,1.7,0.2
			c1.3,0,2.3-0.3,2.9-0.8c0.7-0.5,1-1.3,1-2.2c0-0.8-0.3-1.5-1-2s-1.6-0.7-2.9-0.7h-1.4v-0.8h1.4c1.1,0,1.9-0.3,2.5-0.8
			c0.6-0.5,0.9-1.2,0.9-2.1c0-0.7-0.3-1.3-0.8-1.7c-0.5-0.4-1.2-0.6-2-0.6c-0.6,0-1.2,0.1-1.7,0.3s-1.1,0.5-1.8,0.9l-0.4-0.6
			c0.5-0.4,1.1-0.7,1.8-1c0.7-0.2,1.4-0.4,2.1-0.4c1.2,0,2.1,0.3,2.7,0.8C1190.5,987.9,1190.8,988.7,1190.8,989.7z"/>
		<path class="st2" d="M1201.8,993.1c0,2.3-0.3,3.9-1,5c-0.7,1.1-1.7,1.6-3.1,1.6c-1.3,0-2.4-0.6-3.1-1.7c-0.7-1.1-1-2.8-1-5
			c0-2.2,0.3-3.9,1-5c0.7-1.1,1.7-1.6,3.1-1.6c1.4,0,2.4,0.6,3.1,1.7C1201.4,989.3,1201.8,990.9,1201.8,993.1z M1194.4,993.1
			c0,2,0.3,3.5,0.8,4.4s1.3,1.4,2.4,1.4c1.1,0,1.9-0.5,2.4-1.5c0.5-1,0.8-2.4,0.8-4.4c0-1.9-0.3-3.3-0.8-4.3c-0.5-1-1.3-1.5-2.4-1.5
			s-1.9,0.5-2.4,1.5S1194.4,991.2,1194.4,993.1z"/>
	</g>
	<g>
		<path class="st2" d="M699.3,999.6h-7v-12.8h7v0.8h-6.1v4.9h5.8v0.8h-5.8v5.5h6.1V999.6z"/>
		<path class="st2" d="M701.8,998.9c0-0.6,0.2-0.9,0.7-0.9c0.5,0,0.7,0.3,0.7,0.9s-0.2,0.9-0.7,0.9
			C702.1,999.7,701.8,999.5,701.8,998.9z"/>
		<path class="st2" d="M715.8,999.6h-0.9v-6.3h-7.5v6.3h-0.9v-12.8h0.9v5.7h7.5v-5.7h0.9V999.6z"/>
		<path class="st2" d="M724.5,993.1h4.7v5.9c-1.2,0.5-2.6,0.8-4.2,0.8c-2,0-3.6-0.6-4.7-1.7c-1.1-1.1-1.6-2.8-1.6-4.9
			c0-1.3,0.3-2.5,0.8-3.5c0.5-1,1.3-1.8,2.3-2.3s2.1-0.8,3.4-0.8c1.4,0,2.7,0.3,3.8,0.8l-0.4,0.8c-1.1-0.5-2.3-0.8-3.5-0.8
			c-1.7,0-3,0.5-4,1.6c-1,1-1.5,2.5-1.5,4.2c0,1.9,0.5,3.4,1.4,4.4c0.9,1,2.3,1.5,4.2,1.5c1.2,0,2.2-0.2,3-0.5v-4.5h-3.8V993.1z"/>
		<path class="st2" d="M732.1,998.9c0-0.6,0.2-0.9,0.7-0.9c0.5,0,0.7,0.3,0.7,0.9s-0.2,0.9-0.7,0.9
			C732.3,999.7,732.1,999.5,732.1,998.9z"/>
		<path class="st2" d="M744,999.6h-8v-0.8l3.4-3.6c1-1,1.6-1.8,2-2.3s0.7-1,0.9-1.5s0.3-1,0.3-1.5c0-0.8-0.3-1.4-0.8-1.9
			s-1.2-0.7-2-0.7c-1.1,0-2.1,0.4-3.1,1.2l-0.5-0.6c1.1-0.9,2.3-1.4,3.6-1.4c1.1,0,2,0.3,2.6,0.9s1,1.4,1,2.5c0,0.8-0.2,1.7-0.6,2.5
			c-0.4,0.8-1.2,1.8-2.4,2.9l-3.3,3.4v0h6.9V999.6z"/>
		<path class="st2" d="M753.8,989.7c0,0.8-0.2,1.5-0.8,2s-1.2,0.9-2,1v0.1c1,0.1,1.8,0.5,2.4,1s0.8,1.2,0.8,2.1
			c0,1.2-0.4,2.1-1.2,2.8c-0.8,0.7-2,1-3.5,1c-1.3,0-2.4-0.2-3.4-0.7v-0.9c0.5,0.3,1,0.5,1.7,0.6s1.2,0.2,1.7,0.2
			c1.3,0,2.3-0.3,2.9-0.8c0.7-0.5,1-1.3,1-2.2c0-0.8-0.3-1.5-1-2s-1.6-0.7-2.9-0.7H748v-0.8h1.4c1.1,0,1.9-0.3,2.5-0.8
			c0.6-0.5,0.9-1.2,0.9-2.1c0-0.7-0.3-1.3-0.8-1.7c-0.5-0.4-1.2-0.6-2-0.6c-0.6,0-1.2,0.1-1.7,0.3s-1.1,0.5-1.8,0.9l-0.4-0.6
			c0.5-0.4,1.1-0.7,1.8-1c0.7-0.2,1.4-0.4,2.1-0.4c1.2,0,2.1,0.3,2.7,0.8C753.5,987.9,753.8,988.7,753.8,989.7z"/>
		<path class="st2" d="M760.2,991.8c1.4,0,2.5,0.3,3.2,1c0.8,0.7,1.2,1.6,1.2,2.7c0,1.3-0.4,2.3-1.2,3.1s-2,1.1-3.4,1.1
			c-0.6,0-1.2-0.1-1.8-0.2c-0.6-0.1-1.1-0.3-1.4-0.5v-0.9c0.6,0.3,1.2,0.5,1.7,0.7c0.5,0.1,1,0.2,1.6,0.2c1.1,0,2-0.3,2.7-0.9
			c0.7-0.6,1-1.4,1-2.4c0-1-0.3-1.7-1-2.2s-1.6-0.8-2.7-0.8c-0.8,0-1.6,0.1-2.4,0.3l-0.5-0.3l0.5-5.9h6.2v0.8h-5.4l-0.4,4.5
			C759,991.9,759.7,991.8,760.2,991.8z"/>
	</g>
	<g>
		<path class="st2" d="M489.8,613.8h-7V601h7v0.8h-6.1v4.9h5.8v0.8h-5.8v5.5h6.1V613.8z"/>
		<path class="st2" d="M492.3,613.2c0-0.6,0.2-0.9,0.7-0.9c0.5,0,0.7,0.3,0.7,0.9s-0.2,0.9-0.7,0.9
			C492.6,614,492.3,613.7,492.3,613.2z"/>
		<path class="st2" d="M506.3,613.8h-0.9v-6.3h-7.5v6.3H497V601h0.9v5.7h7.5V601h0.9V613.8z"/>
		<path class="st2" d="M515,607.4h4.7v5.9c-1.2,0.5-2.6,0.8-4.2,0.8c-2,0-3.6-0.6-4.7-1.7s-1.6-2.8-1.6-4.9c0-1.3,0.3-2.5,0.8-3.5
			s1.3-1.8,2.3-2.3s2.1-0.8,3.4-0.8c1.4,0,2.7,0.3,3.8,0.8l-0.4,0.8c-1.1-0.5-2.3-0.8-3.5-0.8c-1.7,0-3,0.5-4,1.6s-1.5,2.5-1.5,4.2
			c0,1.9,0.5,3.4,1.4,4.4s2.3,1.5,4.2,1.5c1.2,0,2.2-0.2,3-0.5v-4.5H515V607.4z"/>
		<path class="st2" d="M522.6,613.2c0-0.6,0.2-0.9,0.7-0.9c0.5,0,0.7,0.3,0.7,0.9s-0.2,0.9-0.7,0.9
			C522.8,614,522.6,613.7,522.6,613.2z"/>
		<path class="st2" d="M534.5,613.8h-8v-0.8l3.4-3.6c1-1,1.6-1.8,2-2.3s0.7-1,0.9-1.5s0.3-1,0.3-1.5c0-0.8-0.3-1.4-0.8-1.9
			s-1.2-0.7-2-0.7c-1.1,0-2.1,0.4-3.1,1.2l-0.5-0.6c1.1-0.9,2.3-1.4,3.6-1.4c1.1,0,2,0.3,2.6,0.9s1,1.4,1,2.5c0,0.8-0.2,1.7-0.6,2.5
			s-1.2,1.8-2.4,2.9l-3.3,3.4v0h6.9V613.8z"/>
		<path class="st2" d="M544.8,613.8h-8v-0.8l3.4-3.6c1-1,1.6-1.8,2-2.3s0.7-1,0.9-1.5s0.3-1,0.3-1.5c0-0.8-0.3-1.4-0.8-1.9
			s-1.2-0.7-2-0.7c-1.1,0-2.1,0.4-3.1,1.2l-0.5-0.6c1.1-0.9,2.3-1.4,3.6-1.4c1.1,0,2,0.3,2.6,0.9s1,1.4,1,2.5c0,0.8-0.2,1.7-0.6,2.5
			s-1.2,1.8-2.4,2.9l-3.3,3.4v0h6.9V613.8z"/>
		<path class="st2" d="M552,613.8h-0.9v-9.4c0-0.8,0-1.7,0.1-2.6c-0.1,0.1-0.2,0.2-0.3,0.3s-1,0.8-2.7,2.1l-0.5-0.6l3.5-2.6h0.8
			V613.8z"/>
	</g>
	<g>
		<path class="st2" d="M602.5,613.8h-7V601h7v0.8h-6.1v4.9h5.8v0.8h-5.8v5.5h6.1V613.8z"/>
		<path class="st2" d="M605,613.2c0-0.6,0.2-0.9,0.7-0.9c0.5,0,0.7,0.3,0.7,0.9s-0.2,0.9-0.7,0.9C605.3,614,605,613.7,605,613.2z"/>
		<path class="st2" d="M619,613.8h-0.9v-6.3h-7.5v6.3h-0.9V601h0.9v5.7h7.5V601h0.9V613.8z"/>
		<path class="st2" d="M627.7,607.4h4.7v5.9c-1.2,0.5-2.6,0.8-4.2,0.8c-2,0-3.6-0.6-4.7-1.7s-1.6-2.8-1.6-4.9c0-1.3,0.3-2.5,0.8-3.5
			s1.3-1.8,2.3-2.3s2.1-0.8,3.4-0.8c1.4,0,2.7,0.3,3.8,0.8l-0.4,0.8c-1.1-0.5-2.3-0.8-3.5-0.8c-1.7,0-3,0.5-4,1.6s-1.5,2.5-1.5,4.2
			c0,1.9,0.5,3.4,1.4,4.4s2.3,1.5,4.2,1.5c1.2,0,2.2-0.2,3-0.5v-4.5h-3.8V607.4z"/>
		<path class="st2" d="M635.3,613.2c0-0.6,0.2-0.9,0.7-0.9c0.5,0,0.7,0.3,0.7,0.9s-0.2,0.9-0.7,0.9
			C635.5,614,635.3,613.7,635.3,613.2z"/>
		<path class="st2" d="M647.2,613.8h-8v-0.8l3.4-3.6c1-1,1.6-1.8,2-2.3s0.7-1,0.9-1.5s0.3-1,0.3-1.5c0-0.8-0.3-1.4-0.8-1.9
			s-1.2-0.7-2-0.7c-1.1,0-2.1,0.4-3.1,1.2l-0.5-0.6c1.1-0.9,2.3-1.4,3.6-1.4c1.1,0,2,0.3,2.6,0.9s1,1.4,1,2.5c0,0.8-0.2,1.7-0.6,2.5
			s-1.2,1.8-2.4,2.9l-3.3,3.4v0h6.9V613.8z"/>
		<path class="st2" d="M657.4,613.8h-8v-0.8l3.4-3.6c1-1,1.6-1.8,2-2.3s0.7-1,0.9-1.5s0.3-1,0.3-1.5c0-0.8-0.3-1.4-0.8-1.9
			s-1.2-0.7-2-0.7c-1.1,0-2.1,0.4-3.1,1.2l-0.5-0.6c1.1-0.9,2.3-1.4,3.6-1.4c1.1,0,2,0.3,2.6,0.9s1,1.4,1,2.5c0,0.8-0.2,1.7-0.6,2.5
			s-1.2,1.8-2.4,2.9l-3.3,3.4v0h6.9V613.8z"/>
		<path class="st2" d="M667.9,607.4c0,2.3-0.3,3.9-1,5s-1.7,1.6-3.1,1.6c-1.3,0-2.4-0.6-3.1-1.7s-1-2.8-1-5c0-2.2,0.3-3.9,1-5
			s1.7-1.6,3.1-1.6c1.4,0,2.4,0.6,3.1,1.7S667.9,605.2,667.9,607.4z M660.6,607.4c0,2,0.3,3.5,0.8,4.4s1.3,1.4,2.4,1.4
			c1.1,0,1.9-0.5,2.4-1.5s0.8-2.4,0.8-4.4c0-1.9-0.3-3.3-0.8-4.3s-1.3-1.5-2.4-1.5s-1.9,0.5-2.4,1.5S660.6,605.5,660.6,607.4z"/>
	</g>
	<g>
		<path class="st2" d="M731.6,613.8h-7V601h7v0.8h-6.1v4.9h5.8v0.8h-5.8v5.5h6.1V613.8z"/>
		<path class="st2" d="M734.1,613.2c0-0.6,0.2-0.9,0.7-0.9c0.5,0,0.7,0.3,0.7,0.9s-0.2,0.9-0.7,0.9
			C734.3,614,734.1,613.7,734.1,613.2z"/>
		<path class="st2" d="M748.1,613.8h-0.9v-6.3h-7.5v6.3h-0.9V601h0.9v5.7h7.5V601h0.9V613.8z"/>
		<path class="st2" d="M756.8,607.4h4.7v5.9c-1.2,0.5-2.6,0.8-4.2,0.8c-2,0-3.6-0.6-4.7-1.7s-1.6-2.8-1.6-4.9c0-1.3,0.3-2.5,0.8-3.5
			s1.3-1.8,2.3-2.3s2.1-0.8,3.4-0.8c1.4,0,2.7,0.3,3.8,0.8l-0.4,0.8c-1.1-0.5-2.3-0.8-3.5-0.8c-1.7,0-3,0.5-4,1.6s-1.5,2.5-1.5,4.2
			c0,1.9,0.5,3.4,1.4,4.4s2.3,1.5,4.2,1.5c1.2,0,2.2-0.2,3-0.5v-4.5h-3.8V607.4z"/>
		<path class="st2" d="M764.3,613.2c0-0.6,0.2-0.9,0.7-0.9c0.5,0,0.7,0.3,0.7,0.9s-0.2,0.9-0.7,0.9
			C764.6,614,764.3,613.7,764.3,613.2z"/>
		<path class="st2" d="M776.2,613.8h-8v-0.8l3.4-3.6c1-1,1.6-1.8,2-2.3s0.7-1,0.9-1.5s0.3-1,0.3-1.5c0-0.8-0.3-1.4-0.8-1.9
			s-1.2-0.7-2-0.7c-1.1,0-2.1,0.4-3.1,1.2l-0.5-0.6c1.1-0.9,2.3-1.4,3.6-1.4c1.1,0,2,0.3,2.6,0.9s1,1.4,1,2.5c0,0.8-0.2,1.7-0.6,2.5
			s-1.2,1.8-2.4,2.9l-3.3,3.4v0h6.9V613.8z"/>
		<path class="st2" d="M783.4,613.8h-0.9v-9.4c0-0.8,0-1.7,0.1-2.6c-0.1,0.1-0.2,0.2-0.3,0.3s-1,0.8-2.7,2.1l-0.5-0.6l3.5-2.6h0.8
			V613.8z"/>
		<path class="st2" d="M796.8,606.4c0,1.7-0.2,3.1-0.7,4.2s-1.1,2-1.9,2.5s-1.9,0.8-3.1,0.8c-0.6,0-1.2-0.1-1.7-0.2V613
			c0.3,0.1,0.6,0.1,0.9,0.2s0.6,0.1,0.8,0.1c1.4,0,2.6-0.5,3.4-1.6s1.3-2.6,1.4-4.6h-0.1c-0.4,0.6-0.9,1-1.5,1.3s-1.2,0.5-1.9,0.5
			c-1.2,0-2.1-0.3-2.8-1s-1-1.6-1-2.8c0-1.3,0.4-2.3,1.1-3.1s1.7-1.2,2.8-1.2c0.8,0,1.6,0.2,2.2,0.7s1.1,1.1,1.5,1.9
			S796.8,605.3,796.8,606.4z M792.6,601.6c-0.9,0-1.7,0.3-2.2,0.9s-0.8,1.5-0.8,2.6c0,1,0.3,1.8,0.8,2.3s1.2,0.8,2.2,0.8
			c0.6,0,1.1-0.1,1.7-0.4s0.9-0.6,1.2-1.1s0.5-0.9,0.5-1.3c0-0.7-0.1-1.3-0.4-1.9s-0.7-1.1-1.1-1.4S793.3,601.6,792.6,601.6z"/>
	</g>
	<g>
		<path class="st2" d="M858.2,613.8h-7V601h7v0.8h-6.1v4.9h5.8v0.8h-5.8v5.5h6.1V613.8z"/>
		<path class="st2" d="M860.7,613.2c0-0.6,0.2-0.9,0.7-0.9c0.5,0,0.7,0.3,0.7,0.9s-0.2,0.9-0.7,0.9C861,614,860.7,613.7,860.7,613.2
			z"/>
		<path class="st2" d="M874.7,613.8h-0.9v-6.3h-7.5v6.3h-0.9V601h0.9v5.7h7.5V601h0.9V613.8z"/>
		<path class="st2" d="M883.4,607.4h4.7v5.9c-1.2,0.5-2.6,0.8-4.2,0.8c-2,0-3.6-0.6-4.7-1.7s-1.6-2.8-1.6-4.9c0-1.3,0.3-2.5,0.8-3.5
			s1.3-1.8,2.3-2.3s2.1-0.8,3.4-0.8c1.4,0,2.7,0.3,3.8,0.8l-0.4,0.8c-1.1-0.5-2.3-0.8-3.5-0.8c-1.7,0-3,0.5-4,1.6s-1.5,2.5-1.5,4.2
			c0,1.9,0.5,3.4,1.4,4.4s2.3,1.5,4.2,1.5c1.2,0,2.2-0.2,3-0.5v-4.5h-3.8V607.4z"/>
		<path class="st2" d="M891,613.2c0-0.6,0.2-0.9,0.7-0.9c0.5,0,0.7,0.3,0.7,0.9s-0.2,0.9-0.7,0.9C891.2,614,891,613.7,891,613.2z"/>
		<path class="st2" d="M902.9,613.8h-8v-0.8l3.4-3.6c1-1,1.6-1.8,2-2.3s0.7-1,0.9-1.5s0.3-1,0.3-1.5c0-0.8-0.3-1.4-0.8-1.9
			s-1.2-0.7-2-0.7c-1.1,0-2.1,0.4-3.1,1.2l-0.5-0.6c1.1-0.9,2.3-1.4,3.6-1.4c1.1,0,2,0.3,2.6,0.9s1,1.4,1,2.5c0,0.8-0.2,1.7-0.6,2.5
			s-1.2,1.8-2.4,2.9L896,613v0h6.9V613.8z"/>
		<path class="st2" d="M910.1,613.8h-0.9v-9.4c0-0.8,0-1.7,0.1-2.6c-0.1,0.1-0.2,0.2-0.3,0.3s-1,0.8-2.7,2.1l-0.5-0.6l3.5-2.6h0.8
			V613.8z"/>
		<path class="st2" d="M919.5,600.8c1.1,0,2,0.3,2.6,0.8s1,1.3,1,2.3c0,0.7-0.2,1.2-0.6,1.7s-1.1,1-2,1.4c1.1,0.5,1.9,1,2.4,1.5
			s0.7,1.2,0.7,2c0,1.1-0.4,1.9-1.1,2.5s-1.7,0.9-3,0.9c-1.3,0-2.3-0.3-3-0.9s-1-1.5-1-2.6c0-0.8,0.2-1.4,0.7-2s1.2-1.1,2.3-1.5
			c-0.9-0.4-1.6-0.9-2-1.4s-0.6-1.1-0.6-1.8c0-0.6,0.2-1.2,0.5-1.6s0.7-0.8,1.3-1.1S918.8,600.8,919.5,600.8z M916.4,610.7
			c0,0.8,0.3,1.4,0.8,1.9s1.3,0.7,2.3,0.7c1,0,1.7-0.2,2.3-0.7s0.9-1.1,0.9-1.9c0-0.7-0.2-1.3-0.7-1.8s-1.3-0.9-2.7-1.4
			c-1.1,0.4-1.8,0.9-2.3,1.4S916.4,609.9,916.4,610.7z M919.5,601.6c-0.8,0-1.5,0.2-2,0.6s-0.8,1-0.8,1.7c0,0.4,0.1,0.8,0.3,1.1
			s0.5,0.6,0.8,0.9s0.9,0.6,1.8,0.9c1-0.4,1.6-0.8,2.1-1.2s0.6-1,0.6-1.6c0-0.7-0.2-1.3-0.7-1.7S920.3,601.6,919.5,601.6z"/>
	</g>
	<g>
		<path class="st2" d="M1021.7,613.8h-7V601h7v0.8h-6.1v4.9h5.8v0.8h-5.8v5.5h6.1V613.8z"/>
		<path class="st2" d="M1024.3,613.2c0-0.6,0.2-0.9,0.7-0.9c0.5,0,0.7,0.3,0.7,0.9s-0.2,0.9-0.7,0.9
			C1024.5,614,1024.3,613.7,1024.3,613.2z"/>
		<path class="st2" d="M1038.2,613.8h-0.9v-6.3h-7.5v6.3h-0.9V601h0.9v5.7h7.5V601h0.9V613.8z"/>
		<path class="st2" d="M1046.9,607.4h4.7v5.9c-1.2,0.5-2.6,0.8-4.2,0.8c-2,0-3.6-0.6-4.7-1.7s-1.6-2.8-1.6-4.9
			c0-1.3,0.3-2.5,0.8-3.5s1.3-1.8,2.3-2.3s2.1-0.8,3.4-0.8c1.4,0,2.7,0.3,3.8,0.8l-0.4,0.8c-1.1-0.5-2.3-0.8-3.5-0.8
			c-1.7,0-3,0.5-4,1.6s-1.5,2.5-1.5,4.2c0,1.9,0.5,3.4,1.4,4.4s2.3,1.5,4.2,1.5c1.2,0,2.2-0.2,3-0.5v-4.5h-3.8V607.4z"/>
		<path class="st2" d="M1054.5,613.2c0-0.6,0.2-0.9,0.7-0.9c0.5,0,0.7,0.3,0.7,0.9s-0.2,0.9-0.7,0.9
			C1054.7,614,1054.5,613.7,1054.5,613.2z"/>
		<path class="st2" d="M1066.4,613.8h-8v-0.8l3.4-3.6c1-1,1.6-1.8,2-2.3s0.7-1,0.9-1.5s0.3-1,0.3-1.5c0-0.8-0.3-1.4-0.8-1.9
			s-1.2-0.7-2-0.7c-1.1,0-2.1,0.4-3.1,1.2l-0.5-0.6c1.1-0.9,2.3-1.4,3.6-1.4c1.1,0,2,0.3,2.6,0.9s1,1.4,1,2.5c0,0.8-0.2,1.7-0.6,2.5
			s-1.2,1.8-2.4,2.9l-3.3,3.4v0h6.9V613.8z"/>
		<path class="st2" d="M1073.6,613.8h-0.9v-9.4c0-0.8,0-1.7,0.1-2.6c-0.1,0.1-0.2,0.2-0.3,0.3s-1,0.8-2.7,2.1l-0.5-0.6l3.5-2.6h0.8
			V613.8z"/>
		<path class="st2" d="M1080.8,613.8l5.3-12h-7.3V601h8.3v0.6l-5.3,12.2H1080.8z"/>
		<path class="st2" d="M1093.8,604.1c1.3,0,2.3,0.4,3,1.3s1,2.1,1,3.7c0,1.6-0.4,2.8-1.1,3.7s-1.7,1.3-3,1.3c-0.7,0-1.3-0.1-1.8-0.4
			s-1-0.7-1.3-1.2h-0.1l-0.2,1.4h-0.5v-13.7h0.9v3.4c0,0.5,0,1,0,1.4l0,0.7h0.1c0.4-0.6,0.8-1,1.3-1.3S1093.1,604.1,1093.8,604.1z
			 M1093.8,604.9c-1.1,0-1.9,0.3-2.4,1s-0.7,1.7-0.7,3.2v0.1c0,1.4,0.3,2.5,0.8,3.1s1.3,0.9,2.4,0.9c1,0,1.8-0.4,2.4-1.1
			s0.8-1.8,0.8-3.1C1096.9,606.3,1095.9,604.9,1093.8,604.9z"/>
	</g>
	<g>
		<path class="st2" d="M1133.1,613.8h-7V601h7v0.8h-6.1v4.9h5.8v0.8h-5.8v5.5h6.1V613.8z"/>
		<path class="st2" d="M1135.6,613.2c0-0.6,0.2-0.9,0.7-0.9c0.5,0,0.7,0.3,0.7,0.9s-0.2,0.9-0.7,0.9
			C1135.8,614,1135.6,613.7,1135.6,613.2z"/>
		<path class="st2" d="M1149.6,613.8h-0.9v-6.3h-7.5v6.3h-0.9V601h0.9v5.7h7.5V601h0.9V613.8z"/>
		<path class="st2" d="M1158.3,607.4h4.7v5.9c-1.2,0.5-2.6,0.8-4.2,0.8c-2,0-3.6-0.6-4.7-1.7s-1.6-2.8-1.6-4.9
			c0-1.3,0.3-2.5,0.8-3.5s1.3-1.8,2.3-2.3s2.1-0.8,3.4-0.8c1.4,0,2.7,0.3,3.8,0.8l-0.4,0.8c-1.1-0.5-2.3-0.8-3.5-0.8
			c-1.7,0-3,0.5-4,1.6s-1.5,2.5-1.5,4.2c0,1.9,0.5,3.4,1.4,4.4s2.3,1.5,4.2,1.5c1.2,0,2.2-0.2,3-0.5v-4.5h-3.8V607.4z"/>
		<path class="st2" d="M1165.8,613.2c0-0.6,0.2-0.9,0.7-0.9c0.5,0,0.7,0.3,0.7,0.9s-0.2,0.9-0.7,0.9
			C1166.1,614,1165.8,613.7,1165.8,613.2z"/>
		<path class="st2" d="M1177.7,613.8h-8v-0.8l3.4-3.6c1-1,1.6-1.8,2-2.3s0.7-1,0.9-1.5s0.3-1,0.3-1.5c0-0.8-0.3-1.4-0.8-1.9
			s-1.2-0.7-2-0.7c-1.1,0-2.1,0.4-3.1,1.2l-0.5-0.6c1.1-0.9,2.3-1.4,3.6-1.4c1.1,0,2,0.3,2.6,0.9s1,1.4,1,2.5c0,0.8-0.2,1.7-0.6,2.5
			s-1.2,1.8-2.4,2.9l-3.3,3.4v0h6.9V613.8z"/>
		<path class="st2" d="M1185,613.8h-0.9v-9.4c0-0.8,0-1.7,0.1-2.6c-0.1,0.1-0.2,0.2-0.3,0.3s-1,0.8-2.7,2.1l-0.5-0.6l3.5-2.6h0.8
			V613.8z"/>
		<path class="st2" d="M1192.2,613.8l5.3-12h-7.3V601h8.3v0.6l-5.3,12.2H1192.2z"/>
		<path class="st2" d="M1206.9,613.8l-0.2-1.5h-0.1c-0.5,0.6-1,1-1.5,1.3s-1.1,0.4-1.8,0.4c-0.9,0-1.7-0.2-2.2-0.7s-0.8-1.1-0.8-2
			c0-0.9,0.4-1.7,1.2-2.2s1.9-0.8,3.4-0.8l1.8-0.1v-0.6c0-0.9-0.2-1.6-0.6-2.1s-1-0.7-1.8-0.7c-0.9,0-1.8,0.2-2.8,0.7l-0.3-0.8
			c1-0.5,2.1-0.7,3.1-0.7c1,0,1.8,0.3,2.4,0.8s0.8,1.4,0.8,2.5v6.4H1206.9z M1203.4,613.2c1,0,1.8-0.3,2.4-0.9s0.9-1.4,0.9-2.4V609
			l-1.7,0.1c-1.3,0.1-2.3,0.3-2.9,0.6s-0.9,0.9-0.9,1.7c0,0.6,0.2,1.1,0.5,1.4S1202.7,613.2,1203.4,613.2z"/>
	</g>
	<g>
		<path class="st2" d="M915.3,482.1h-7v-12.8h7v0.8h-6.1v4.9h5.8v0.8h-5.8v5.5h6.1V482.1z"/>
		<path class="st2" d="M917.8,481.4c0-0.6,0.2-0.9,0.7-0.9c0.5,0,0.7,0.3,0.7,0.9s-0.2,0.9-0.7,0.9
			C918.1,482.2,917.8,482,917.8,481.4z"/>
		<path class="st2" d="M931.8,482.1h-0.9v-6.3h-7.5v6.3h-0.9v-12.8h0.9v5.7h7.5v-5.7h0.9V482.1z"/>
		<path class="st2" d="M940.5,475.6h4.7v5.9c-1.2,0.5-2.6,0.8-4.2,0.8c-2,0-3.6-0.6-4.7-1.7s-1.6-2.8-1.6-4.9c0-1.3,0.3-2.5,0.8-3.5
			s1.3-1.8,2.3-2.3s2.1-0.8,3.4-0.8c1.4,0,2.7,0.3,3.8,0.8l-0.4,0.8c-1.1-0.5-2.3-0.8-3.5-0.8c-1.7,0-3,0.5-4,1.6s-1.5,2.5-1.5,4.2
			c0,1.9,0.5,3.4,1.4,4.4s2.3,1.5,4.2,1.5c1.2,0,2.2-0.2,3-0.5v-4.5h-3.8V475.6z"/>
		<path class="st2" d="M948.1,481.4c0-0.6,0.2-0.9,0.7-0.9c0.5,0,0.7,0.3,0.7,0.9s-0.2,0.9-0.7,0.9
			C948.3,482.2,948.1,482,948.1,481.4z"/>
		<path class="st2" d="M960,482.1h-8v-0.8l3.4-3.6c1-1,1.6-1.8,2-2.3s0.7-1,0.9-1.5s0.3-1,0.3-1.5c0-0.8-0.3-1.4-0.8-1.9
			s-1.2-0.7-2-0.7c-1.1,0-2.1,0.4-3.1,1.2l-0.5-0.6c1.1-0.9,2.3-1.4,3.6-1.4c1.1,0,2,0.3,2.6,0.9s1,1.4,1,2.5c0,0.8-0.2,1.7-0.6,2.5
			s-1.2,1.8-2.4,2.9l-3.3,3.4v0h6.9V482.1z"/>
		<path class="st2" d="M967.2,482.1h-0.9v-9.4c0-0.8,0-1.7,0.1-2.6c-0.1,0.1-0.2,0.2-0.3,0.3s-1,0.8-2.7,2.1l-0.5-0.6l3.5-2.6h0.8
			V482.1z"/>
		<path class="st2" d="M981.5,478.8h-2.2v3.3h-0.8v-3.3h-6.6v-0.6l6.4-9.1h1.1v8.9h2.2V478.8z M978.5,478v-3.7c0-1.8,0-3.3,0.1-4.5
			h-0.1c-0.1,0.2-0.5,0.8-1.1,1.7l-4.5,6.5H978.5z"/>
	</g>
	<g>
		<path class="st2" d="M1001.3,482.1h-7v-12.8h7v0.8h-6.1v4.9h5.8v0.8h-5.8v5.5h6.1V482.1z"/>
		<path class="st2" d="M1003.8,481.4c0-0.6,0.2-0.9,0.7-0.9c0.5,0,0.7,0.3,0.7,0.9s-0.2,0.9-0.7,0.9
			C1004.1,482.2,1003.8,482,1003.8,481.4z"/>
		<path class="st2" d="M1017.8,482.1h-0.9v-6.3h-7.5v6.3h-0.9v-12.8h0.9v5.7h7.5v-5.7h0.9V482.1z"/>
		<path class="st2" d="M1026.5,475.6h4.7v5.9c-1.2,0.5-2.6,0.8-4.2,0.8c-2,0-3.6-0.6-4.7-1.7s-1.6-2.8-1.6-4.9
			c0-1.3,0.3-2.5,0.8-3.5s1.3-1.8,2.3-2.3c1-0.6,2.1-0.8,3.4-0.8c1.4,0,2.7,0.3,3.8,0.8l-0.4,0.8c-1.1-0.5-2.3-0.8-3.5-0.8
			c-1.7,0-3,0.5-4,1.6c-1,1-1.5,2.5-1.5,4.2c0,1.9,0.5,3.4,1.4,4.4c0.9,1,2.3,1.5,4.2,1.5c1.2,0,2.2-0.2,3-0.5v-4.5h-3.8V475.6z"/>
		<path class="st2" d="M1034.1,481.4c0-0.6,0.2-0.9,0.7-0.9c0.5,0,0.7,0.3,0.7,0.9s-0.2,0.9-0.7,0.9
			C1034.3,482.2,1034.1,482,1034.1,481.4z"/>
		<path class="st2" d="M1046,482.1h-8v-0.8l3.4-3.6c1-1,1.6-1.8,2-2.3s0.7-1,0.9-1.5s0.3-1,0.3-1.5c0-0.8-0.3-1.4-0.8-1.9
			s-1.2-0.7-2-0.7c-1.1,0-2.1,0.4-3.1,1.2l-0.5-0.6c1.1-0.9,2.3-1.4,3.6-1.4c1.1,0,2,0.3,2.6,0.9s1,1.4,1,2.5c0,0.8-0.2,1.7-0.6,2.5
			s-1.2,1.8-2.4,2.9l-3.3,3.4v0h6.9V482.1z"/>
		<path class="st2" d="M1053.2,482.1h-0.9v-9.4c0-0.8,0-1.7,0.1-2.6c-0.1,0.1-0.2,0.2-0.3,0.3s-1,0.8-2.7,2.1l-0.5-0.6l3.5-2.6h0.8
			V482.1z"/>
		<path class="st2" d="M1062.2,474.3c1.4,0,2.5,0.3,3.2,1s1.2,1.6,1.2,2.7c0,1.3-0.4,2.3-1.2,3.1s-2,1.1-3.4,1.1
			c-0.6,0-1.2-0.1-1.8-0.2s-1.1-0.3-1.4-0.5v-0.9c0.6,0.3,1.2,0.5,1.7,0.7s1,0.2,1.6,0.2c1.1,0,2-0.3,2.7-0.9s1-1.4,1-2.4
			c0-1-0.3-1.7-1-2.2s-1.6-0.8-2.7-0.8c-0.8,0-1.6,0.1-2.4,0.3l-0.5-0.3l0.5-5.9h6.2v0.8h-5.4l-0.4,4.5
			C1061,474.4,1061.7,474.3,1062.2,474.3z"/>
	</g>
	<g>
		<path class="st2" d="M1114.9,482.1h-7v-12.8h7v0.8h-6.1v4.9h5.8v0.8h-5.8v5.5h6.1V482.1z"/>
		<path class="st2" d="M1117.4,481.4c0-0.6,0.2-0.9,0.7-0.9c0.5,0,0.7,0.3,0.7,0.9s-0.2,0.9-0.7,0.9
			C1117.6,482.2,1117.4,482,1117.4,481.4z"/>
		<path class="st2" d="M1131.4,482.1h-0.9v-6.3h-7.5v6.3h-0.9v-12.8h0.9v5.7h7.5v-5.7h0.9V482.1z"/>
		<path class="st2" d="M1140.1,475.6h4.7v5.9c-1.2,0.5-2.6,0.8-4.2,0.8c-2,0-3.6-0.6-4.7-1.7s-1.6-2.8-1.6-4.9
			c0-1.3,0.3-2.5,0.8-3.5s1.3-1.8,2.3-2.3s2.1-0.8,3.4-0.8c1.4,0,2.7,0.3,3.8,0.8l-0.4,0.8c-1.1-0.5-2.3-0.8-3.5-0.8
			c-1.7,0-3,0.5-4,1.6s-1.5,2.5-1.5,4.2c0,1.9,0.5,3.4,1.4,4.4s2.3,1.5,4.2,1.5c1.2,0,2.2-0.2,3-0.5v-4.5h-3.8V475.6z"/>
		<path class="st2" d="M1147.7,481.4c0-0.6,0.2-0.9,0.7-0.9c0.5,0,0.7,0.3,0.7,0.9s-0.2,0.9-0.7,0.9
			C1147.9,482.2,1147.7,482,1147.7,481.4z"/>
		<path class="st2" d="M1159.5,482.1h-8v-0.8l3.4-3.6c1-1,1.6-1.8,2-2.3s0.7-1,0.9-1.5s0.3-1,0.3-1.5c0-0.8-0.3-1.4-0.8-1.9
			s-1.2-0.7-2-0.7c-1.1,0-2.1,0.4-3.1,1.2l-0.5-0.6c1.1-0.9,2.3-1.4,3.6-1.4c1.1,0,2,0.3,2.6,0.9s1,1.4,1,2.5c0,0.8-0.2,1.7-0.6,2.5
			s-1.2,1.8-2.4,2.9l-3.3,3.4v0h6.9V482.1z"/>
		<path class="st2" d="M1166.8,482.1h-0.9v-9.4c0-0.8,0-1.7,0.1-2.6c-0.1,0.1-0.2,0.2-0.3,0.3s-1,0.8-2.7,2.1l-0.5-0.6l3.5-2.6h0.8
			V482.1z"/>
		<path class="st2" d="M1172.2,476.6c0-1.7,0.2-3.1,0.7-4.2s1.1-2,1.9-2.5s1.8-0.8,3-0.8c0.6,0,1.1,0.1,1.5,0.2v0.8
			c-0.4-0.2-0.9-0.2-1.5-0.2c-1.4,0-2.6,0.5-3.4,1.6s-1.3,2.6-1.4,4.6h0.1c0.4-0.6,1-1,1.5-1.3s1.2-0.4,1.8-0.4c1.2,0,2.1,0.3,2.8,1
			s1,1.6,1,2.8c0,1.3-0.4,2.3-1.1,3.1s-1.7,1.1-2.9,1.1c-1.3,0-2.3-0.5-3.1-1.5S1172.2,478.4,1172.2,476.6z M1176.4,481.5
			c1,0,1.7-0.3,2.2-0.9s0.8-1.5,0.8-2.6c0-1-0.3-1.8-0.8-2.3s-1.2-0.8-2.2-0.8c-0.6,0-1.2,0.1-1.7,0.4s-0.9,0.6-1.2,1.1
			s-0.5,0.9-0.5,1.3c0,0.7,0.1,1.3,0.4,1.9s0.7,1.1,1.2,1.4S1175.8,481.5,1176.4,481.5z"/>
	</g>
	<g>
		<path class="st2" d="M451.5,388.7h-7v-12.8h7v0.8h-6.1v4.9h5.8v0.8h-5.8v5.5h6.1V388.7z"/>
		<path class="st2" d="M454,388.1c0-0.6,0.2-0.9,0.7-0.9c0.5,0,0.7,0.3,0.7,0.9s-0.2,0.9-0.7,0.9C454.3,388.9,454,388.6,454,388.1z"
			/>
		<path class="st2" d="M468,388.7h-0.9v-6.3h-7.5v6.3h-0.9v-12.8h0.9v5.7h7.5v-5.7h0.9V388.7z"/>
		<path class="st2" d="M476.7,382.3h4.7v5.9c-1.2,0.5-2.6,0.8-4.2,0.8c-2,0-3.6-0.6-4.7-1.7s-1.6-2.8-1.6-4.9c0-1.3,0.3-2.5,0.8-3.5
			s1.3-1.8,2.3-2.3s2.1-0.8,3.4-0.8c1.4,0,2.7,0.3,3.8,0.8l-0.4,0.8c-1.1-0.5-2.3-0.8-3.5-0.8c-1.7,0-3,0.5-4,1.6s-1.5,2.5-1.5,4.2
			c0,1.9,0.5,3.4,1.4,4.4s2.3,1.5,4.2,1.5c1.2,0,2.2-0.2,3-0.5v-4.5h-3.8V382.3z"/>
		<path class="st2" d="M484.3,388.1c0-0.6,0.2-0.9,0.7-0.9c0.5,0,0.7,0.3,0.7,0.9s-0.2,0.9-0.7,0.9
			C484.5,388.9,484.3,388.6,484.3,388.1z"/>
		<path class="st2" d="M496.2,388.7h-8V388l3.4-3.6c1-1,1.6-1.8,2-2.3s0.7-1,0.9-1.5s0.3-1,0.3-1.5c0-0.8-0.3-1.4-0.8-1.9
			s-1.2-0.7-2-0.7c-1.1,0-2.1,0.4-3.1,1.2l-0.5-0.6c1.1-0.9,2.3-1.4,3.6-1.4c1.1,0,2,0.3,2.6,0.9s1,1.4,1,2.5c0,0.8-0.2,1.7-0.6,2.5
			s-1.2,1.8-2.4,2.9l-3.3,3.4v0h6.9V388.7z"/>
		<path class="st2" d="M503.4,388.7h-0.9v-9.4c0-0.8,0-1.7,0.1-2.6c-0.1,0.1-0.2,0.2-0.3,0.3s-1,0.8-2.7,2.1l-0.5-0.6l3.5-2.6h0.8
			V388.7z"/>
		<path class="st2" d="M517,382.3c0,2.3-0.3,3.9-1,5s-1.7,1.6-3.1,1.6c-1.3,0-2.4-0.6-3.1-1.7s-1-2.8-1-5c0-2.2,0.3-3.9,1-5
			s1.7-1.6,3.1-1.6c1.4,0,2.4,0.6,3.1,1.7S517,380.1,517,382.3z M509.7,382.3c0,2,0.3,3.5,0.8,4.4s1.3,1.4,2.4,1.4
			c1.1,0,1.9-0.5,2.4-1.5s0.8-2.4,0.8-4.4c0-1.9-0.3-3.3-0.8-4.3s-1.3-1.5-2.4-1.5s-1.9,0.5-2.4,1.5S509.7,380.4,509.7,382.3z"/>
	</g>
	<g>
		<path class="st2" d="M537.5,388.7h-7v-12.8h7v0.8h-6.1v4.9h5.8v0.8h-5.8v5.5h6.1V388.7z"/>
		<path class="st2" d="M540,388.1c0-0.6,0.2-0.9,0.7-0.9c0.5,0,0.7,0.3,0.7,0.9s-0.2,0.9-0.7,0.9C540.3,388.9,540,388.6,540,388.1z"
			/>
		<path class="st2" d="M554,388.7h-0.9v-6.3h-7.5v6.3h-0.9v-12.8h0.9v5.7h7.5v-5.7h0.9V388.7z"/>
		<path class="st2" d="M562.7,382.3h4.7v5.9c-1.2,0.5-2.6,0.8-4.2,0.8c-2,0-3.6-0.6-4.7-1.7s-1.6-2.8-1.6-4.9c0-1.3,0.3-2.5,0.8-3.5
			s1.3-1.8,2.3-2.3s2.1-0.8,3.4-0.8c1.4,0,2.7,0.3,3.8,0.8l-0.4,0.8c-1.1-0.5-2.3-0.8-3.5-0.8c-1.7,0-3,0.5-4,1.6s-1.5,2.5-1.5,4.2
			c0,1.9,0.5,3.4,1.4,4.4s2.3,1.5,4.2,1.5c1.2,0,2.2-0.2,3-0.5v-4.5h-3.8V382.3z"/>
		<path class="st2" d="M570.3,388.1c0-0.6,0.2-0.9,0.7-0.9c0.5,0,0.7,0.3,0.7,0.9s-0.2,0.9-0.7,0.9
			C570.5,388.9,570.3,388.6,570.3,388.1z"/>
		<path class="st2" d="M582.2,388.7h-8V388l3.4-3.6c1-1,1.6-1.8,2-2.3s0.7-1,0.9-1.5s0.3-1,0.3-1.5c0-0.8-0.3-1.4-0.8-1.9
			s-1.2-0.7-2-0.7c-1.1,0-2.1,0.4-3.1,1.2l-0.5-0.6c1.1-0.9,2.3-1.4,3.6-1.4c1.1,0,2,0.3,2.6,0.9s1,1.4,1,2.5c0,0.8-0.2,1.7-0.6,2.5
			s-1.2,1.8-2.4,2.9l-3.3,3.4v0h6.9V388.7z"/>
		<path class="st2" d="M592.7,382.3c0,2.3-0.3,3.9-1,5s-1.7,1.6-3.1,1.6c-1.3,0-2.4-0.6-3.1-1.7s-1-2.8-1-5c0-2.2,0.3-3.9,1-5
			s1.7-1.6,3.1-1.6c1.4,0,2.4,0.6,3.1,1.7S592.7,380.1,592.7,382.3z M585.4,382.3c0,2,0.3,3.5,0.8,4.4s1.3,1.4,2.4,1.4
			c1.1,0,1.9-0.5,2.4-1.5s0.8-2.4,0.8-4.4c0-1.9-0.3-3.3-0.8-4.3s-1.3-1.5-2.4-1.5s-1.9,0.5-2.4,1.5S585.4,380.4,585.4,382.3z"/>
		<path class="st2" d="M602.8,381.3c0,1.7-0.2,3.1-0.7,4.2s-1.1,2-1.9,2.5s-1.9,0.8-3.1,0.8c-0.6,0-1.2-0.1-1.7-0.2v-0.8
			c0.3,0.1,0.6,0.1,0.9,0.2s0.6,0.1,0.8,0.1c1.4,0,2.6-0.5,3.4-1.6s1.3-2.6,1.4-4.6h-0.1c-0.4,0.6-0.9,1-1.5,1.3s-1.2,0.5-1.9,0.5
			c-1.2,0-2.1-0.3-2.8-1s-1-1.6-1-2.8c0-1.3,0.4-2.3,1.1-3.1s1.7-1.2,2.8-1.2c0.8,0,1.6,0.2,2.2,0.7s1.1,1.1,1.5,1.9
			S602.8,380.2,602.8,381.3z M598.6,376.5c-0.9,0-1.7,0.3-2.2,0.9s-0.8,1.5-0.8,2.6c0,1,0.3,1.8,0.8,2.3s1.2,0.8,2.2,0.8
			c0.6,0,1.1-0.1,1.7-0.4s0.9-0.6,1.2-1.1s0.5-0.9,0.5-1.3c0-0.7-0.1-1.3-0.4-1.9s-0.7-1.1-1.1-1.4S599.2,376.5,598.6,376.5z"/>
	</g>
	<g>
		<path class="st2" d="M629.1,388.7h-7v-12.8h7v0.8H623v4.9h5.8v0.8H623v5.5h6.1V388.7z"/>
		<path class="st2" d="M631.6,388.1c0-0.6,0.2-0.9,0.7-0.9c0.5,0,0.7,0.3,0.7,0.9s-0.2,0.9-0.7,0.9
			C631.9,388.9,631.6,388.6,631.6,388.1z"/>
		<path class="st2" d="M645.6,388.7h-0.9v-6.3h-7.5v6.3h-0.9v-12.8h0.9v5.7h7.5v-5.7h0.9V388.7z"/>
		<path class="st2" d="M654.3,382.3h4.7v5.9c-1.2,0.5-2.6,0.8-4.2,0.8c-2,0-3.6-0.6-4.7-1.7s-1.6-2.8-1.6-4.9c0-1.3,0.3-2.5,0.8-3.5
			s1.3-1.8,2.3-2.3s2.1-0.8,3.4-0.8c1.4,0,2.7,0.3,3.8,0.8l-0.4,0.8c-1.1-0.5-2.3-0.8-3.5-0.8c-1.7,0-3,0.5-4,1.6s-1.5,2.5-1.5,4.2
			c0,1.9,0.5,3.4,1.4,4.4s2.3,1.5,4.2,1.5c1.2,0,2.2-0.2,3-0.5v-4.5h-3.8V382.3z"/>
		<path class="st2" d="M661.9,388.1c0-0.6,0.2-0.9,0.7-0.9c0.5,0,0.7,0.3,0.7,0.9s-0.2,0.9-0.7,0.9
			C662.1,388.9,661.9,388.6,661.9,388.1z"/>
		<path class="st2" d="M673.8,388.7h-8V388l3.4-3.6c1-1,1.6-1.8,2-2.3s0.7-1,0.9-1.5s0.3-1,0.3-1.5c0-0.8-0.3-1.4-0.8-1.9
			s-1.2-0.7-2-0.7c-1.1,0-2.1,0.4-3.1,1.2l-0.5-0.6c1.1-0.9,2.3-1.4,3.6-1.4c1.1,0,2,0.3,2.6,0.9s1,1.4,1,2.5c0,0.8-0.2,1.7-0.6,2.5
			s-1.2,1.8-2.4,2.9l-3.3,3.4v0h6.9V388.7z"/>
		<path class="st2" d="M684.3,382.3c0,2.3-0.3,3.9-1,5s-1.7,1.6-3.1,1.6c-1.3,0-2.4-0.6-3.1-1.7s-1-2.8-1-5c0-2.2,0.3-3.9,1-5
			s1.7-1.6,3.1-1.6c1.4,0,2.4,0.6,3.1,1.7S684.3,380.1,684.3,382.3z M677,382.3c0,2,0.3,3.5,0.8,4.4s1.3,1.4,2.4,1.4
			c1.1,0,1.9-0.5,2.4-1.5s0.8-2.4,0.8-4.4c0-1.9-0.3-3.3-0.8-4.3s-1.3-1.5-2.4-1.5s-1.9,0.5-2.4,1.5S677,380.4,677,382.3z"/>
		<path class="st2" d="M690.4,375.7c1.1,0,2,0.3,2.6,0.8s1,1.3,1,2.3c0,0.7-0.2,1.2-0.6,1.7s-1.1,1-2,1.4c1.1,0.5,1.9,1,2.4,1.5
			s0.7,1.2,0.7,2c0,1.1-0.4,1.9-1.1,2.5s-1.7,0.9-3,0.9c-1.3,0-2.3-0.3-3-0.9s-1-1.5-1-2.6c0-0.8,0.2-1.4,0.7-2s1.2-1.1,2.3-1.5
			c-0.9-0.4-1.6-0.9-2-1.4s-0.6-1.1-0.6-1.8c0-0.6,0.2-1.2,0.5-1.6s0.7-0.8,1.3-1.1S689.7,375.7,690.4,375.7z M687.3,385.6
			c0,0.8,0.3,1.4,0.8,1.9s1.3,0.7,2.3,0.7c1,0,1.7-0.2,2.3-0.7s0.9-1.1,0.9-1.9c0-0.7-0.2-1.3-0.7-1.8s-1.3-0.9-2.7-1.4
			c-1.1,0.4-1.8,0.9-2.3,1.4S687.3,384.8,687.3,385.6z M690.4,376.5c-0.8,0-1.5,0.2-2,0.6s-0.8,1-0.8,1.7c0,0.4,0.1,0.8,0.3,1.1
			s0.5,0.6,0.8,0.9s0.9,0.6,1.8,0.9c1-0.4,1.6-0.8,2.1-1.2s0.6-1,0.6-1.6c0-0.7-0.2-1.3-0.7-1.7S691.2,376.5,690.4,376.5z"/>
	</g>
	<g>
		<path class="st2" d="M527.5,211.5h-7v-12.8h7v0.8h-6.1v4.9h5.8v0.8h-5.8v5.5h6.1V211.5z"/>
		<path class="st2" d="M530,210.8c0-0.6,0.2-0.9,0.7-0.9c0.5,0,0.7,0.3,0.7,0.9s-0.2,0.9-0.7,0.9C530.3,211.7,530,211.4,530,210.8z"
			/>
		<path class="st2" d="M544,211.5h-0.9v-6.3h-7.5v6.3h-0.9v-12.8h0.9v5.7h7.5v-5.7h0.9V211.5z"/>
		<path class="st2" d="M552.7,205h4.7v5.9c-1.2,0.5-2.6,0.8-4.2,0.8c-2,0-3.6-0.6-4.7-1.7s-1.6-2.8-1.6-4.9c0-1.3,0.3-2.5,0.8-3.5
			s1.3-1.8,2.3-2.3s2.1-0.8,3.4-0.8c1.4,0,2.7,0.3,3.8,0.8l-0.4,0.8c-1.1-0.5-2.3-0.8-3.5-0.8c-1.7,0-3,0.5-4,1.6s-1.5,2.5-1.5,4.2
			c0,1.9,0.5,3.4,1.4,4.4s2.3,1.5,4.2,1.5c1.2,0,2.2-0.2,3-0.5v-4.5h-3.8V205z"/>
		<path class="st2" d="M560.3,210.8c0-0.6,0.2-0.9,0.7-0.9c0.5,0,0.7,0.3,0.7,0.9s-0.2,0.9-0.7,0.9
			C560.5,211.7,560.3,211.4,560.3,210.8z"/>
		<path class="st2" d="M572.2,211.5h-8v-0.8l3.4-3.6c1-1,1.6-1.8,2-2.3s0.7-1,0.9-1.5s0.3-1,0.3-1.5c0-0.8-0.3-1.4-0.8-1.9
			s-1.2-0.7-2-0.7c-1.1,0-2.1,0.4-3.1,1.2l-0.5-0.6c1.1-0.9,2.3-1.4,3.6-1.4c1.1,0,2,0.3,2.6,0.9s1,1.4,1,2.5c0,0.8-0.2,1.7-0.6,2.5
			s-1.2,1.8-2.4,2.9l-3.3,3.4v0h6.9V211.5z"/>
		<path class="st2" d="M582.7,205c0,2.3-0.3,3.9-1,5s-1.7,1.6-3.1,1.6c-1.3,0-2.4-0.6-3.1-1.7s-1-2.8-1-5c0-2.2,0.3-3.9,1-5
			s1.7-1.6,3.1-1.6c1.4,0,2.4,0.6,3.1,1.7S582.7,202.9,582.7,205z M575.4,205c0,2,0.3,3.5,0.8,4.4s1.3,1.4,2.4,1.4
			c1.1,0,1.9-0.5,2.4-1.5s0.8-2.4,0.8-4.4c0-1.9-0.3-3.3-0.8-4.3s-1.3-1.5-2.4-1.5s-1.9,0.5-2.4,1.5S575.4,203.1,575.4,205z"/>
		<path class="st2" d="M592.7,211.5h-8v-0.8l3.4-3.6c1-1,1.6-1.8,2-2.3s0.7-1,0.9-1.5s0.3-1,0.3-1.5c0-0.8-0.3-1.4-0.8-1.9
			s-1.2-0.7-2-0.7c-1.1,0-2.1,0.4-3.1,1.2l-0.5-0.6c1.1-0.9,2.3-1.4,3.6-1.4c1.1,0,2,0.3,2.6,0.9s1,1.4,1,2.5c0,0.8-0.2,1.7-0.6,2.5
			s-1.2,1.8-2.4,2.9l-3.3,3.4v0h6.9V211.5z"/>
	</g>
	<g>
		<path class="st2" d="M633.5,211.5h-7v-12.8h7v0.8h-6.1v4.9h5.8v0.8h-5.8v5.5h6.1V211.5z"/>
		<path class="st2" d="M636,210.8c0-0.6,0.2-0.9,0.7-0.9c0.5,0,0.7,0.3,0.7,0.9s-0.2,0.9-0.7,0.9C636.3,211.7,636,211.4,636,210.8z"
			/>
		<path class="st2" d="M650,211.5h-0.9v-6.3h-7.5v6.3h-0.9v-12.8h0.9v5.7h7.5v-5.7h0.9V211.5z"/>
		<path class="st2" d="M658.7,205h4.7v5.9c-1.2,0.5-2.6,0.8-4.2,0.8c-2,0-3.6-0.6-4.7-1.7s-1.6-2.8-1.6-4.9c0-1.3,0.3-2.5,0.8-3.5
			s1.3-1.8,2.3-2.3s2.1-0.8,3.4-0.8c1.4,0,2.7,0.3,3.8,0.8l-0.4,0.8c-1.1-0.5-2.3-0.8-3.5-0.8c-1.7,0-3,0.5-4,1.6s-1.5,2.5-1.5,4.2
			c0,1.9,0.5,3.4,1.4,4.4s2.3,1.5,4.2,1.5c1.2,0,2.2-0.2,3-0.5v-4.5h-3.8V205z"/>
		<path class="st2" d="M666.3,210.8c0-0.6,0.2-0.9,0.7-0.9c0.5,0,0.7,0.3,0.7,0.9s-0.2,0.9-0.7,0.9
			C666.5,211.7,666.3,211.4,666.3,210.8z"/>
		<path class="st2" d="M678.2,211.5h-8v-0.8l3.4-3.6c1-1,1.6-1.8,2-2.3s0.7-1,0.9-1.5s0.3-1,0.3-1.5c0-0.8-0.3-1.4-0.8-1.9
			s-1.2-0.7-2-0.7c-1.1,0-2.1,0.4-3.1,1.2l-0.5-0.6c1.1-0.9,2.3-1.4,3.6-1.4c1.1,0,2,0.3,2.6,0.9s1,1.4,1,2.5c0,0.8-0.2,1.7-0.6,2.5
			s-1.2,1.8-2.4,2.9l-3.3,3.4v0h6.9V211.5z"/>
		<path class="st2" d="M688.7,205c0,2.3-0.3,3.9-1,5s-1.7,1.6-3.1,1.6c-1.3,0-2.4-0.6-3.1-1.7s-1-2.8-1-5c0-2.2,0.3-3.9,1-5
			s1.7-1.6,3.1-1.6c1.4,0,2.4,0.6,3.1,1.7S688.7,202.9,688.7,205z M681.4,205c0,2,0.3,3.5,0.8,4.4s1.3,1.4,2.4,1.4
			c1.1,0,1.9-0.5,2.4-1.5s0.8-2.4,0.8-4.4c0-1.9-0.3-3.3-0.8-4.3s-1.3-1.5-2.4-1.5s-1.9,0.5-2.4,1.5S681.4,203.1,681.4,205z"/>
		<path class="st2" d="M698.3,201.7c0,0.8-0.2,1.5-0.8,2s-1.2,0.9-2,1v0.1c1,0.1,1.8,0.5,2.4,1s0.8,1.2,0.8,2.1
			c0,1.2-0.4,2.1-1.2,2.8s-2,1-3.5,1c-1.3,0-2.4-0.2-3.4-0.7v-0.9c0.5,0.3,1,0.5,1.7,0.6s1.2,0.2,1.7,0.2c1.3,0,2.3-0.3,2.9-0.8
			s1-1.3,1-2.2c0-0.8-0.3-1.5-1-2s-1.6-0.7-2.9-0.7h-1.4v-0.8h1.4c1.1,0,1.9-0.3,2.5-0.8s0.9-1.2,0.9-2.1c0-0.7-0.3-1.3-0.8-1.7
			s-1.2-0.6-2-0.6c-0.6,0-1.2,0.1-1.7,0.3s-1.1,0.5-1.8,0.9l-0.4-0.6c0.5-0.4,1.1-0.7,1.8-1s1.4-0.4,2.1-0.4c1.2,0,2.1,0.3,2.7,0.8
			S698.3,200.6,698.3,201.7z"/>
	</g>
	<g>
		<path class="st2" d="M739.5,211.5h-7v-12.8h7v0.8h-6.1v4.9h5.8v0.8h-5.8v5.5h6.1V211.5z"/>
		<path class="st2" d="M742,210.8c0-0.6,0.2-0.9,0.7-0.9c0.5,0,0.7,0.3,0.7,0.9s-0.2,0.9-0.7,0.9C742.3,211.7,742,211.4,742,210.8z"
			/>
		<path class="st2" d="M756,211.5h-0.9v-6.3h-7.5v6.3h-0.9v-12.8h0.9v5.7h7.5v-5.7h0.9V211.5z"/>
		<path class="st2" d="M764.7,205h4.7v5.9c-1.2,0.5-2.6,0.8-4.2,0.8c-2,0-3.6-0.6-4.7-1.7s-1.6-2.8-1.6-4.9c0-1.3,0.3-2.5,0.8-3.5
			s1.3-1.8,2.3-2.3s2.1-0.8,3.4-0.8c1.4,0,2.7,0.3,3.8,0.8l-0.4,0.8c-1.1-0.5-2.3-0.8-3.5-0.8c-1.7,0-3,0.5-4,1.6s-1.5,2.5-1.5,4.2
			c0,1.9,0.5,3.4,1.4,4.4s2.3,1.5,4.2,1.5c1.2,0,2.2-0.2,3-0.5v-4.5h-3.8V205z"/>
		<path class="st2" d="M772.3,210.8c0-0.6,0.2-0.9,0.7-0.9c0.5,0,0.7,0.3,0.7,0.9s-0.2,0.9-0.7,0.9
			C772.5,211.7,772.3,211.4,772.3,210.8z"/>
		<path class="st2" d="M784.2,211.5h-8v-0.8l3.4-3.6c1-1,1.6-1.8,2-2.3s0.7-1,0.9-1.5s0.3-1,0.3-1.5c0-0.8-0.3-1.4-0.8-1.9
			s-1.2-0.7-2-0.7c-1.1,0-2.1,0.4-3.1,1.2l-0.5-0.6c1.1-0.9,2.3-1.4,3.6-1.4c1.1,0,2,0.3,2.6,0.9s1,1.4,1,2.5c0,0.8-0.2,1.7-0.6,2.5
			s-1.2,1.8-2.4,2.9l-3.3,3.4v0h6.9V211.5z"/>
		<path class="st2" d="M794.7,205c0,2.3-0.3,3.9-1,5s-1.7,1.6-3.1,1.6c-1.3,0-2.4-0.6-3.1-1.7s-1-2.8-1-5c0-2.2,0.3-3.9,1-5
			s1.7-1.6,3.1-1.6c1.4,0,2.4,0.6,3.1,1.7S794.7,202.9,794.7,205z M787.4,205c0,2,0.3,3.5,0.8,4.4s1.3,1.4,2.4,1.4
			c1.1,0,1.9-0.5,2.4-1.5s0.8-2.4,0.8-4.4c0-1.9-0.3-3.3-0.8-4.3s-1.3-1.5-2.4-1.5s-1.9,0.5-2.4,1.5S787.4,203.1,787.4,205z"/>
		<path class="st2" d="M805.7,208.2h-2.2v3.3h-0.8v-3.3h-6.6v-0.6l6.4-9.1h1.1v8.9h2.2V208.2z M802.7,207.4v-3.7
			c0-1.8,0-3.3,0.1-4.5h-0.1c-0.1,0.2-0.5,0.8-1.1,1.7l-4.5,6.5H802.7z"/>
	</g>
	<g>
		<path class="st2" d="M1001.4,211.5h-7v-12.8h7v0.8h-6.1v4.9h5.8v0.8h-5.8v5.5h6.1V211.5z"/>
		<path class="st2" d="M1003.9,210.8c0-0.6,0.2-0.9,0.7-0.9c0.5,0,0.7,0.3,0.7,0.9s-0.2,0.9-0.7,0.9
			C1004.2,211.7,1003.9,211.4,1003.9,210.8z"/>
		<path class="st2" d="M1017.9,211.5h-0.9v-6.3h-7.5v6.3h-0.9v-12.8h0.9v5.7h7.5v-5.7h0.9V211.5z"/>
		<path class="st2" d="M1026.6,205h4.7v5.9c-1.2,0.5-2.6,0.8-4.2,0.8c-2,0-3.6-0.6-4.7-1.7s-1.6-2.8-1.6-4.9c0-1.3,0.3-2.5,0.8-3.5
			s1.3-1.8,2.3-2.3c1-0.6,2.1-0.8,3.4-0.8c1.4,0,2.7,0.3,3.8,0.8l-0.4,0.8c-1.1-0.5-2.3-0.8-3.5-0.8c-1.7,0-3,0.5-4,1.6
			c-1,1-1.5,2.5-1.5,4.2c0,1.9,0.5,3.4,1.4,4.4c0.9,1,2.3,1.5,4.2,1.5c1.2,0,2.2-0.2,3-0.5v-4.5h-3.8V205z"/>
		<path class="st2" d="M1034.2,210.8c0-0.6,0.2-0.9,0.7-0.9c0.5,0,0.7,0.3,0.7,0.9s-0.2,0.9-0.7,0.9
			C1034.4,211.7,1034.2,211.4,1034.2,210.8z"/>
		<path class="st2" d="M1046.1,211.5h-8v-0.8l3.4-3.6c1-1,1.6-1.8,2-2.3s0.7-1,0.9-1.5s0.3-1,0.3-1.5c0-0.8-0.3-1.4-0.8-1.9
			s-1.2-0.7-2-0.7c-1.1,0-2.1,0.4-3.1,1.2l-0.5-0.6c1.1-0.9,2.3-1.4,3.6-1.4c1.1,0,2,0.3,2.6,0.9s1,1.4,1,2.5c0,0.8-0.2,1.7-0.6,2.5
			s-1.2,1.8-2.4,2.9l-3.3,3.4v0h6.9V211.5z"/>
		<path class="st2" d="M1056.6,205c0,2.3-0.3,3.9-1,5s-1.7,1.6-3.1,1.6c-1.3,0-2.4-0.6-3.1-1.7s-1-2.8-1-5c0-2.2,0.3-3.9,1-5
			s1.7-1.6,3.1-1.6c1.4,0,2.4,0.6,3.1,1.7S1056.6,202.9,1056.6,205z M1049.3,205c0,2,0.3,3.5,0.8,4.4s1.3,1.4,2.4,1.4
			c1.1,0,1.9-0.5,2.4-1.5s0.8-2.4,0.8-4.4c0-1.9-0.3-3.3-0.8-4.3s-1.3-1.5-2.4-1.5s-1.9,0.5-2.4,1.5S1049.3,203.1,1049.3,205z"/>
		<path class="st2" d="M1058.7,206c0-1.7,0.2-3.1,0.7-4.2s1.1-2,1.9-2.5s1.8-0.8,3-0.8c0.6,0,1.1,0.1,1.5,0.2v0.8
			c-0.4-0.2-0.9-0.2-1.5-0.2c-1.4,0-2.6,0.5-3.4,1.6s-1.3,2.6-1.4,4.6h0.1c0.4-0.6,1-1,1.5-1.3s1.2-0.4,1.8-0.4c1.2,0,2.1,0.3,2.8,1
			s1,1.6,1,2.8c0,1.3-0.4,2.3-1.1,3.1s-1.7,1.1-2.9,1.1c-1.3,0-2.3-0.5-3.1-1.5S1058.7,207.8,1058.7,206z M1063,210.9
			c1,0,1.7-0.3,2.2-0.9s0.8-1.5,0.8-2.6c0-1-0.3-1.8-0.8-2.3s-1.2-0.8-2.2-0.8c-0.6,0-1.2,0.1-1.7,0.4s-0.9,0.6-1.2,1.1
			s-0.5,0.9-0.5,1.3c0,0.7,0.1,1.3,0.4,1.9s0.7,1.1,1.2,1.4S1062.4,210.9,1063,210.9z"/>
	</g>
	<g>
		<path class="st2" d="M1129.9,211.5h-7v-12.8h7v0.8h-6.1v4.9h5.8v0.8h-5.8v5.5h6.1V211.5z"/>
		<path class="st2" d="M1132.4,210.8c0-0.6,0.2-0.9,0.7-0.9c0.5,0,0.7,0.3,0.7,0.9s-0.2,0.9-0.7,0.9
			C1132.6,211.7,1132.4,211.4,1132.4,210.8z"/>
		<path class="st2" d="M1146.4,211.5h-0.9v-6.3h-7.5v6.3h-0.9v-12.8h0.9v5.7h7.5v-5.7h0.9V211.5z"/>
		<path class="st2" d="M1155.1,205h4.7v5.9c-1.2,0.5-2.6,0.8-4.2,0.8c-2,0-3.6-0.6-4.7-1.7s-1.6-2.8-1.6-4.9c0-1.3,0.3-2.5,0.8-3.5
			s1.3-1.8,2.3-2.3s2.1-0.8,3.4-0.8c1.4,0,2.7,0.3,3.8,0.8l-0.4,0.8c-1.1-0.5-2.3-0.8-3.5-0.8c-1.7,0-3,0.5-4,1.6s-1.5,2.5-1.5,4.2
			c0,1.9,0.5,3.4,1.4,4.4s2.3,1.5,4.2,1.5c1.2,0,2.2-0.2,3-0.5v-4.5h-3.8V205z"/>
		<path class="st2" d="M1162.7,210.8c0-0.6,0.2-0.9,0.7-0.9c0.5,0,0.7,0.3,0.7,0.9s-0.2,0.9-0.7,0.9
			C1162.9,211.7,1162.7,211.4,1162.7,210.8z"/>
		<path class="st2" d="M1174.5,211.5h-8v-0.8l3.4-3.6c1-1,1.6-1.8,2-2.3s0.7-1,0.9-1.5s0.3-1,0.3-1.5c0-0.8-0.3-1.4-0.8-1.9
			s-1.2-0.7-2-0.7c-1.1,0-2.1,0.4-3.1,1.2l-0.5-0.6c1.1-0.9,2.3-1.4,3.6-1.4c1.1,0,2,0.3,2.6,0.9s1,1.4,1,2.5c0,0.8-0.2,1.7-0.6,2.5
			s-1.2,1.8-2.4,2.9l-3.3,3.4v0h6.9V211.5z"/>
		<path class="st2" d="M1185.1,205c0,2.3-0.3,3.9-1,5s-1.7,1.6-3.1,1.6c-1.3,0-2.4-0.6-3.1-1.7s-1-2.8-1-5c0-2.2,0.3-3.9,1-5
			s1.7-1.6,3.1-1.6c1.4,0,2.4,0.6,3.1,1.7S1185.1,202.9,1185.1,205z M1177.7,205c0,2,0.3,3.5,0.8,4.4s1.3,1.4,2.4,1.4
			c1.1,0,1.9-0.5,2.4-1.5s0.8-2.4,0.8-4.4c0-1.9-0.3-3.3-0.8-4.3s-1.3-1.5-2.4-1.5s-1.9,0.5-2.4,1.5S1177.7,203.1,1177.7,205z"/>
		<path class="st2" d="M1189,211.5l5.3-12h-7.3v-0.8h8.3v0.6l-5.3,12.2H1189z"/>
	</g>
</g>
</svg>
